<svg width="1500" height="1120" viewBox="0 0 1500 1120" fill="none" xmlns="http://www.w3.org/2000/svg">
<path d="M464.533 413.166V425.092" stroke="#000B32" stroke-width="3.88" stroke-linecap="round" stroke-linejoin="round"/>
<path d="M470.504 437.034H458.577" stroke="#000B32" stroke-width="3.88" stroke-linecap="round" stroke-linejoin="round"/>
<path d="M470.504 448.96H458.577" stroke="#000B32" stroke-width="3.88" stroke-linecap="round" stroke-linejoin="round"/>
<path d="M470.504 419.137H458.577" stroke="#000B32" stroke-width="3.88" stroke-linecap="round" stroke-linejoin="round"/>
<path d="M482.431 431.063H488.402C491.695 431.063 494.373 433.741 494.373 437.034V454.931C494.373 458.224 491.695 460.901 488.402 460.901H440.663C437.37 460.901 434.692 458.224 434.692 454.931V428.078C434.692 424.785 437.37 422.107 440.663 422.107H446.635" stroke="#000B32" stroke-width="3.88" stroke-linecap="round" stroke-linejoin="round"/>
<path d="M482.431 460.901V407.195C482.431 403.902 479.753 401.225 476.459 401.225H452.59C449.297 401.225 446.619 403.902 446.619 407.195V460.901" stroke="#000B32" stroke-width="3.88" stroke-linecap="round" stroke-linejoin="round"/>
<path d="M523.059 499.142V495.71C523.059 491.909 519.981 488.832 516.18 488.832H505.869C502.068 488.832 498.99 491.909 498.99 495.71V499.142" stroke="#000B32" stroke-width="2.23" stroke-linecap="round" stroke-linejoin="round"/>
<path d="M511.04 481.968C514.839 481.968 517.919 478.889 517.919 475.09C517.919 471.291 514.839 468.211 511.04 468.211C507.24 468.211 504.161 471.291 504.161 475.09C504.161 478.889 507.24 481.968 511.04 481.968Z" stroke="#000B32" stroke-width="2.23" stroke-linecap="round" stroke-linejoin="round"/>
<path d="M524.783 476.813L533.37 485.4" stroke="#B61913" stroke-width="2.23" stroke-linecap="round" stroke-linejoin="round"/>
<path d="M533.37 476.813L524.783 485.4" stroke="#B61913" stroke-width="2.23" stroke-linecap="round" stroke-linejoin="round"/>
<path d="M471.396 509.452V506.02C471.396 502.219 468.318 499.142 464.517 499.142H454.206C450.405 499.142 447.327 502.219 447.327 506.02V509.452" stroke="#000B32" stroke-width="2.23" stroke-linecap="round" stroke-linejoin="round"/>
<path d="M459.377 492.278C463.176 492.278 466.256 489.199 466.256 485.4C466.256 481.601 463.176 478.521 459.377 478.521C455.578 478.521 452.498 481.601 452.498 485.4C452.498 489.199 455.578 492.278 459.377 492.278Z" stroke="#000B32" stroke-width="2.23" stroke-linecap="round" stroke-linejoin="round"/>
<path d="M473.12 487.123L481.707 495.71" stroke="#B61913" stroke-width="2.23" stroke-linecap="round" stroke-linejoin="round"/>
<path d="M481.707 487.123L473.12 495.71" stroke="#B61913" stroke-width="2.23" stroke-linecap="round" stroke-linejoin="round"/>
<path d="M535.094 428.494L538.525 431.925L545.404 425.047" stroke="#79B953" stroke-width="2" stroke-linecap="round" stroke-linejoin="round"/>
<path d="M535.094 445.667V442.235C535.094 438.434 532.016 435.357 528.214 435.357H517.903C514.102 435.357 511.024 438.434 511.024 442.235V445.667" stroke="#000B32" stroke-width="2.23" stroke-linecap="round" stroke-linejoin="round"/>
<path d="M523.059 428.494C526.858 428.494 529.938 425.414 529.938 421.615C529.938 417.816 526.858 414.736 523.059 414.736C519.26 414.736 516.18 417.816 516.18 421.615C516.18 425.414 519.26 428.494 523.059 428.494Z" stroke="#000B32" stroke-width="2.23" stroke-linecap="round" stroke-linejoin="round"/>
<path d="M517.903 375.002L521.335 378.434L528.214 371.555" stroke="#79B953" stroke-width="2" stroke-linecap="round" stroke-linejoin="round"/>
<path d="M517.903 392.191V388.76C517.903 384.959 514.826 381.881 511.024 381.881H500.713C496.912 381.881 493.834 384.959 493.834 388.76V392.191" stroke="#000B32" stroke-width="2.23" stroke-linecap="round" stroke-linejoin="round"/>
<path d="M505.884 375.018C509.683 375.018 512.763 371.938 512.763 368.139C512.763 364.34 509.683 361.26 505.884 361.26C502.085 361.26 499.005 364.34 499.005 368.139C499.005 371.938 502.085 375.018 505.884 375.018Z" stroke="#000B32" stroke-width="2.23" stroke-linecap="round" stroke-linejoin="round"/>
<path d="M469.688 366.416L473.12 369.847L479.999 362.969" stroke="#79B953" stroke-width="2" stroke-linecap="round" stroke-linejoin="round"/>
<path d="M469.688 383.589V380.158C469.688 376.357 466.61 373.279 462.809 373.279H452.498C448.697 373.279 445.619 376.357 445.619 380.158V383.589" stroke="#000B32" stroke-width="2.23" stroke-linecap="round" stroke-linejoin="round"/>
<path d="M457.654 366.416C461.453 366.416 464.533 363.336 464.533 359.537C464.533 355.738 461.453 352.658 457.654 352.658C453.854 352.658 450.774 355.738 450.774 359.537C450.774 363.336 453.854 366.416 457.654 366.416Z" stroke="#000B32" stroke-width="2.23" stroke-linecap="round" stroke-linejoin="round"/>
<path d="M481.8 782.122V794.048" stroke="#000B32" stroke-width="3.88" stroke-linecap="round" stroke-linejoin="round"/>
<path d="M487.771 805.989H475.844" stroke="#000B32" stroke-width="3.88" stroke-linecap="round" stroke-linejoin="round"/>
<path d="M487.771 817.931H475.844" stroke="#000B32" stroke-width="3.88" stroke-linecap="round" stroke-linejoin="round"/>
<path d="M487.771 788.092H475.844" stroke="#000B32" stroke-width="3.88" stroke-linecap="round" stroke-linejoin="round"/>
<path d="M499.713 800.034H505.684C508.978 800.034 511.655 802.711 511.655 806.005V823.901C511.655 827.195 508.978 829.872 505.684 829.872H457.946C454.653 829.872 451.975 827.195 451.975 823.901V797.048C451.975 793.755 454.653 791.078 457.946 791.078H463.917" stroke="#000B32" stroke-width="3.88" stroke-linecap="round" stroke-linejoin="round"/>
<path d="M499.713 829.857V776.151C499.713 772.858 497.035 770.18 493.742 770.18H469.873C466.579 770.18 463.902 772.858 463.902 776.151V829.857" stroke="#000B32" stroke-width="3.88" stroke-linecap="round" stroke-linejoin="round"/>
<path d="M540.341 868.113V864.681C540.341 860.88 537.263 857.802 533.462 857.802H523.151C519.35 857.802 516.272 860.88 516.272 864.681V868.113" stroke="#000B32" stroke-width="2.23" stroke-linecap="round" stroke-linejoin="round"/>
<path d="M528.307 850.939C532.106 850.939 535.186 847.859 535.186 844.06C535.186 840.261 532.106 837.182 528.307 837.182C524.508 837.182 521.428 840.261 521.428 844.06C521.428 847.859 524.508 850.939 528.307 850.939Z" stroke="#000B32" stroke-width="2.23" stroke-linecap="round" stroke-linejoin="round"/>
<path d="M542.05 845.784L550.637 854.371" stroke="#B61913" stroke-width="2.23" stroke-linecap="round" stroke-linejoin="round"/>
<path d="M550.637 845.784L542.05 854.371" stroke="#B61913" stroke-width="2.23" stroke-linecap="round" stroke-linejoin="round"/>
<path d="M488.679 878.423V874.991C488.679 871.19 485.601 868.112 481.8 868.112H471.489C467.688 868.112 464.61 871.19 464.61 874.991V878.423" stroke="#000B32" stroke-width="2.23" stroke-linecap="round" stroke-linejoin="round"/>
<path d="M476.644 861.249C480.443 861.249 483.523 858.169 483.523 854.37C483.523 850.571 480.443 847.492 476.644 847.492C472.845 847.492 469.765 850.571 469.765 854.37C469.765 858.169 472.845 861.249 476.644 861.249Z" stroke="#000B32" stroke-width="2.23" stroke-linecap="round" stroke-linejoin="round"/>
<path d="M490.402 856.079L498.99 864.681" stroke="#B61913" stroke-width="2.23" stroke-linecap="round" stroke-linejoin="round"/>
<path d="M498.99 856.079L490.402 864.681" stroke="#B61913" stroke-width="2.23" stroke-linecap="round" stroke-linejoin="round"/>
<path d="M552.361 797.448L555.792 800.88L562.672 794.001" stroke="#79B953" stroke-width="2" stroke-linecap="round" stroke-linejoin="round"/>
<path d="M552.361 814.637V811.205C552.361 807.404 549.283 804.327 545.481 804.327H535.171C531.369 804.327 528.291 807.404 528.291 811.205V814.637" stroke="#000B32" stroke-width="2.23" stroke-linecap="round" stroke-linejoin="round"/>
<path d="M540.341 797.463C544.141 797.463 547.22 794.384 547.22 790.585C547.22 786.786 544.141 783.706 540.341 783.706C536.542 783.706 533.462 786.786 533.462 790.585C533.462 794.384 536.542 797.463 540.341 797.463Z" stroke="#000B32" stroke-width="2.23" stroke-linecap="round" stroke-linejoin="round"/>
<path d="M535.186 743.973L538.618 747.405L545.497 740.526" stroke="#79B953" stroke-width="2" stroke-linecap="round" stroke-linejoin="round"/>
<path d="M535.186 761.147V757.715C535.186 753.914 532.108 750.836 528.307 750.836H517.996C514.195 750.836 511.117 753.914 511.117 757.715V761.147" stroke="#000B32" stroke-width="2.23" stroke-linecap="round" stroke-linejoin="round"/>
<path d="M523.151 743.973C526.951 743.973 530.03 740.893 530.03 737.094C530.03 733.296 526.951 730.216 523.151 730.216C519.352 730.216 516.272 733.296 516.272 737.094C516.272 740.893 519.352 743.973 523.151 743.973Z" stroke="#000B32" stroke-width="2.23" stroke-linecap="round" stroke-linejoin="round"/>
<path d="M486.955 735.387L490.387 738.818L497.266 731.939" stroke="#79B953" stroke-width="2" stroke-linecap="round" stroke-linejoin="round"/>
<path d="M486.955 752.56V749.128C486.955 745.327 483.877 742.25 480.076 742.25H469.765C465.964 742.25 462.886 745.327 462.886 749.128V752.56" stroke="#000B32" stroke-width="2.23" stroke-linecap="round" stroke-linejoin="round"/>
<path d="M474.936 735.387C478.735 735.387 481.815 732.307 481.815 728.508C481.815 724.709 478.735 721.629 474.936 721.629C471.137 721.629 468.057 724.709 468.057 728.508C468.057 732.307 471.137 735.387 474.936 735.387Z" stroke="#000B32" stroke-width="2.23" stroke-linecap="round" stroke-linejoin="round"/>
<path d="M1130.44 592.012V603.938" stroke="#000B32" stroke-width="3.88" stroke-linecap="round" stroke-linejoin="round"/>
<path d="M1136.39 615.879H1124.47" stroke="#000B32" stroke-width="3.88" stroke-linecap="round" stroke-linejoin="round"/>
<path d="M1136.39 627.806H1124.47" stroke="#000B32" stroke-width="3.88" stroke-linecap="round" stroke-linejoin="round"/>
<path d="M1136.39 597.983H1124.47" stroke="#000B32" stroke-width="3.88" stroke-linecap="round" stroke-linejoin="round"/>
<path d="M1148.33 609.909H1154.31C1157.6 609.909 1160.28 612.586 1160.28 615.88V633.776C1160.28 637.07 1157.6 639.747 1154.31 639.747H1106.57C1103.27 639.747 1100.6 637.07 1100.6 633.776V606.923C1100.6 603.63 1103.27 600.953 1106.57 600.953H1112.54" stroke="#000B32" stroke-width="3.88" stroke-linecap="round" stroke-linejoin="round"/>
<path d="M1148.33 639.747V586.041C1148.33 582.748 1145.66 580.071 1142.36 580.071H1118.49C1115.2 580.071 1112.52 582.748 1112.52 586.041V639.747" stroke="#000B32" stroke-width="3.88" stroke-linecap="round" stroke-linejoin="round"/>
<path d="M1188.96 678.003V674.571C1188.96 670.77 1185.89 667.692 1182.08 667.692H1171.77C1167.97 667.692 1164.89 670.77 1164.89 674.571V678.003" stroke="#000B32" stroke-width="2.23" stroke-linecap="round" stroke-linejoin="round"/>
<path d="M1176.93 660.829C1180.73 660.829 1183.81 657.75 1183.81 653.951C1183.81 650.152 1180.73 647.072 1176.93 647.072C1173.13 647.072 1170.05 650.152 1170.05 653.951C1170.05 657.75 1173.13 660.829 1176.93 660.829Z" stroke="#000B32" stroke-width="2.23" stroke-linecap="round" stroke-linejoin="round"/>
<path d="M1190.69 655.659L1199.27 664.245" stroke="#B61913" stroke-width="2.23" stroke-linecap="round" stroke-linejoin="round"/>
<path d="M1199.27 655.659L1190.69 664.245" stroke="#B61913" stroke-width="2.23" stroke-linecap="round" stroke-linejoin="round"/>
<path d="M1137.3 688.313V684.881C1137.3 681.08 1134.22 678.002 1130.42 678.002H1120.11C1116.31 678.002 1113.23 681.08 1113.23 684.881V688.313" stroke="#000B32" stroke-width="2.23" stroke-linecap="round" stroke-linejoin="round"/>
<path d="M1125.28 671.124C1129.08 671.124 1132.16 668.044 1132.16 664.245C1132.16 660.446 1129.08 657.366 1125.28 657.366C1121.48 657.366 1118.4 660.446 1118.4 664.245C1118.4 668.044 1121.48 671.124 1125.28 671.124Z" stroke="#000B32" stroke-width="2.23" stroke-linecap="round" stroke-linejoin="round"/>
<path d="M1139.02 665.969L1147.61 674.556" stroke="#B61913" stroke-width="2.23" stroke-linecap="round" stroke-linejoin="round"/>
<path d="M1147.61 665.969L1139.02 674.556" stroke="#B61913" stroke-width="2.23" stroke-linecap="round" stroke-linejoin="round"/>
<path d="M1200.98 607.339L1204.41 610.77L1211.29 603.892" stroke="#79B953" stroke-width="2" stroke-linecap="round" stroke-linejoin="round"/>
<path d="M1200.98 624.512V621.081C1200.98 617.28 1197.9 614.202 1194.1 614.202H1183.79C1179.99 614.202 1176.91 617.28 1176.91 621.081V624.512" stroke="#000B32" stroke-width="2.23" stroke-linecap="round" stroke-linejoin="round"/>
<path d="M1188.96 607.339C1192.76 607.339 1195.84 604.259 1195.84 600.46C1195.84 596.661 1192.76 593.581 1188.96 593.581C1185.16 593.581 1182.08 596.661 1182.08 600.46C1182.08 604.259 1185.16 607.339 1188.96 607.339Z" stroke="#000B32" stroke-width="2.23" stroke-linecap="round" stroke-linejoin="round"/>
<path d="M1183.81 553.848L1187.24 557.28L1194.12 550.401" stroke="#79B953" stroke-width="2" stroke-linecap="round" stroke-linejoin="round"/>
<path d="M1183.81 571.037V567.605C1183.81 563.805 1180.73 560.727 1176.93 560.727H1166.62C1162.82 560.727 1159.74 563.805 1159.74 567.605V571.037" stroke="#000B32" stroke-width="2.23" stroke-linecap="round" stroke-linejoin="round"/>
<path d="M1171.77 553.864C1175.57 553.864 1178.65 550.784 1178.65 546.985C1178.65 543.186 1175.57 540.106 1171.77 540.106C1167.97 540.106 1164.89 543.186 1164.89 546.985C1164.89 550.784 1167.97 553.864 1171.77 553.864Z" stroke="#000B32" stroke-width="2.23" stroke-linecap="round" stroke-linejoin="round"/>
<path d="M1135.59 545.261L1139.02 548.693L1145.9 541.814" stroke="#79B953" stroke-width="2" stroke-linecap="round" stroke-linejoin="round"/>
<path d="M1135.59 562.45V559.019C1135.59 555.218 1132.51 552.14 1128.71 552.14H1118.4C1114.6 552.14 1111.52 555.218 1111.52 559.019V562.45" stroke="#000B32" stroke-width="2.23" stroke-linecap="round" stroke-linejoin="round"/>
<path d="M1123.56 545.277C1127.36 545.277 1130.44 542.197 1130.44 538.398C1130.44 534.599 1127.36 531.519 1123.56 531.519C1119.76 531.519 1116.68 534.599 1116.68 538.398C1116.68 542.197 1119.76 545.277 1123.56 545.277Z" stroke="#000B32" stroke-width="2.23" stroke-linecap="round" stroke-linejoin="round"/>
<path d="M919.677 301.508V313.434" stroke="#000B32" stroke-width="3.88" stroke-linecap="round" stroke-linejoin="round"/>
<path d="M925.649 325.375H913.722" stroke="#000B32" stroke-width="3.88" stroke-linecap="round" stroke-linejoin="round"/>
<path d="M925.649 337.302H913.722" stroke="#000B32" stroke-width="3.88" stroke-linecap="round" stroke-linejoin="round"/>
<path d="M925.649 307.479H913.722" stroke="#000B32" stroke-width="3.88" stroke-linecap="round" stroke-linejoin="round"/>
<path d="M937.591 319.405H943.562C946.855 319.405 949.533 322.082 949.533 325.375V343.272C949.533 346.565 946.855 349.243 943.562 349.243H895.824C892.53 349.243 889.853 346.565 889.853 343.272V316.419C889.853 313.126 892.53 310.448 895.824 310.448H901.795" stroke="#000B32" stroke-width="3.88" stroke-linecap="round" stroke-linejoin="round"/>
<path d="M937.591 349.243V295.537C937.591 292.244 934.913 289.566 931.62 289.566H907.751C904.457 289.566 901.779 292.244 901.779 295.537V349.243" stroke="#000B32" stroke-width="3.88" stroke-linecap="round" stroke-linejoin="round"/>
<path d="M978.219 387.498V384.067C978.219 380.266 975.141 377.188 971.34 377.188H961.029C957.228 377.188 954.15 380.266 954.15 384.067V387.498" stroke="#000B32" stroke-width="2.23" stroke-linecap="round" stroke-linejoin="round"/>
<path d="M966.184 370.31C969.984 370.31 973.064 367.23 973.064 363.431C973.064 359.632 969.984 356.552 966.184 356.552C962.385 356.552 959.305 359.632 959.305 363.431C959.305 367.23 962.385 370.31 966.184 370.31Z" stroke="#000B32" stroke-width="2.23" stroke-linecap="round" stroke-linejoin="round"/>
<path d="M979.927 365.154L988.53 373.741" stroke="#B61913" stroke-width="2.23" stroke-linecap="round" stroke-linejoin="round"/>
<path d="M988.53 365.154L979.927 373.741" stroke="#B61913" stroke-width="2.23" stroke-linecap="round" stroke-linejoin="round"/>
<path d="M926.556 397.793V394.362C926.556 390.561 923.479 387.483 919.677 387.483H909.366C905.565 387.483 902.487 390.561 902.487 394.362V397.793" stroke="#000B32" stroke-width="2.23" stroke-linecap="round" stroke-linejoin="round"/>
<path d="M914.522 380.62C918.321 380.62 921.401 377.54 921.401 373.741C921.401 369.942 918.321 366.862 914.522 366.862C910.723 366.862 907.643 369.942 907.643 373.741C907.643 377.54 910.723 380.62 914.522 380.62Z" stroke="#000B32" stroke-width="2.23" stroke-linecap="round" stroke-linejoin="round"/>
<path d="M928.28 375.464L936.867 384.051" stroke="#B61913" stroke-width="2.23" stroke-linecap="round" stroke-linejoin="round"/>
<path d="M936.867 375.464L928.28 384.051" stroke="#B61913" stroke-width="2.23" stroke-linecap="round" stroke-linejoin="round"/>
<path d="M990.238 316.834L993.67 320.266L1000.55 313.387" stroke="#79B953" stroke-width="2" stroke-linecap="round" stroke-linejoin="round"/>
<path d="M990.238 334.008V330.576C990.238 326.775 987.16 323.698 983.359 323.698H973.048C969.247 323.698 966.169 326.775 966.169 330.576V334.008" stroke="#000B32" stroke-width="2.23" stroke-linecap="round" stroke-linejoin="round"/>
<path d="M978.219 316.835C982.018 316.835 985.098 313.755 985.098 309.956C985.098 306.157 982.018 303.077 978.219 303.077C974.42 303.077 971.34 306.157 971.34 309.956C971.34 313.755 974.42 316.835 978.219 316.835Z" stroke="#000B32" stroke-width="2.23" stroke-linecap="round" stroke-linejoin="round"/>
<path d="M973.064 263.344L976.495 266.776L983.375 259.897" stroke="#79B953" stroke-width="2" stroke-linecap="round" stroke-linejoin="round"/>
<path d="M973.064 280.533V277.101C973.064 273.3 969.986 270.222 966.184 270.222H955.874C952.072 270.222 948.994 273.3 948.994 277.101V280.533" stroke="#000B32" stroke-width="2.23" stroke-linecap="round" stroke-linejoin="round"/>
<path d="M961.029 263.359C964.828 263.359 967.908 260.28 967.908 256.481C967.908 252.682 964.828 249.602 961.029 249.602C957.23 249.602 954.15 252.682 954.15 256.481C954.15 260.28 957.23 263.359 961.029 263.359Z" stroke="#000B32" stroke-width="2.23" stroke-linecap="round" stroke-linejoin="round"/>
<path d="M924.833 254.757L928.265 258.189L935.144 251.31" stroke="#79B953" stroke-width="2" stroke-linecap="round" stroke-linejoin="round"/>
<path d="M924.833 271.946V268.514C924.833 264.713 921.755 261.636 917.954 261.636H907.643C903.842 261.636 900.764 264.713 900.764 268.514V271.946" stroke="#000B32" stroke-width="2.23" stroke-linecap="round" stroke-linejoin="round"/>
<path d="M912.814 254.757C916.613 254.757 919.693 251.678 919.693 247.879C919.693 244.08 916.613 241 912.814 241C909.014 241 905.935 244.08 905.935 247.879C905.935 251.678 909.014 254.757 912.814 254.757Z" stroke="#000B32" stroke-width="2.23" stroke-linecap="round" stroke-linejoin="round"/>
<path d="M318.84 588.856V600.783" stroke="#000B32" stroke-width="3.88" stroke-linecap="round" stroke-linejoin="round"/>
<path d="M324.811 612.724H312.884" stroke="#000B32" stroke-width="3.88" stroke-linecap="round" stroke-linejoin="round"/>
<path d="M324.811 624.65H312.884" stroke="#000B32" stroke-width="3.88" stroke-linecap="round" stroke-linejoin="round"/>
<path d="M324.811 594.827H312.884" stroke="#000B32" stroke-width="3.88" stroke-linecap="round" stroke-linejoin="round"/>
<path d="M336.738 606.753H342.709C346.003 606.753 348.681 609.431 348.681 612.724V630.621C348.681 633.914 346.003 636.592 342.709 636.592H294.971C291.678 636.592 289 633.914 289 630.621V603.768C289 600.475 291.678 597.797 294.971 597.797H300.942" stroke="#000B32" stroke-width="3.88" stroke-linecap="round" stroke-linejoin="round"/>
<path d="M336.738 636.592V582.886C336.738 579.593 334.06 576.915 330.767 576.915H306.898C303.605 576.915 300.927 579.593 300.927 582.886V636.592" stroke="#000B32" stroke-width="3.88" stroke-linecap="round" stroke-linejoin="round"/>
<path d="M377.367 674.832V671.401C377.367 667.6 374.289 664.522 370.487 664.522H360.176C356.375 664.522 353.297 667.6 353.297 671.401V674.832" stroke="#000B32" stroke-width="2.23" stroke-linecap="round" stroke-linejoin="round"/>
<path d="M365.347 657.659C369.147 657.659 372.226 654.579 372.226 650.78C372.226 646.981 369.147 643.901 365.347 643.901C361.548 643.901 358.468 646.981 358.468 650.78C358.468 654.579 361.548 657.659 365.347 657.659Z" stroke="#000B32" stroke-width="2.23" stroke-linecap="round" stroke-linejoin="round"/>
<path d="M379.09 652.503L387.678 661.09" stroke="#B61913" stroke-width="2.23" stroke-linecap="round" stroke-linejoin="round"/>
<path d="M387.678 652.503L379.09 661.09" stroke="#B61913" stroke-width="2.23" stroke-linecap="round" stroke-linejoin="round"/>
<path d="M325.704 685.143V681.711C325.704 677.91 322.626 674.833 318.825 674.833H308.514C304.713 674.833 301.635 677.91 301.635 681.711V685.143" stroke="#000B32" stroke-width="2.23" stroke-linecap="round" stroke-linejoin="round"/>
<path d="M313.685 667.97C317.484 667.97 320.564 664.89 320.564 661.091C320.564 657.292 317.484 654.212 313.685 654.212C309.886 654.212 306.806 657.292 306.806 661.091C306.806 664.89 309.886 667.97 313.685 667.97Z" stroke="#000B32" stroke-width="2.23" stroke-linecap="round" stroke-linejoin="round"/>
<path d="M327.428 662.814L336.015 671.401" stroke="#B61913" stroke-width="2.23" stroke-linecap="round" stroke-linejoin="round"/>
<path d="M336.015 662.814L327.428 671.401" stroke="#B61913" stroke-width="2.23" stroke-linecap="round" stroke-linejoin="round"/>
<path d="M389.401 604.184L392.833 607.615L399.712 600.737" stroke="#79B953" stroke-width="2" stroke-linecap="round" stroke-linejoin="round"/>
<path d="M389.401 621.357V617.926C389.401 614.125 386.323 611.047 382.522 611.047H372.211C368.41 611.047 365.332 614.125 365.332 617.926V621.357" stroke="#000B32" stroke-width="2.23" stroke-linecap="round" stroke-linejoin="round"/>
<path d="M377.367 604.184C381.166 604.184 384.246 601.104 384.246 597.305C384.246 593.506 381.166 590.427 377.367 590.427C373.567 590.427 370.487 593.506 370.487 597.305C370.487 601.104 373.567 604.184 377.367 604.184Z" stroke="#000B32" stroke-width="2.23" stroke-linecap="round" stroke-linejoin="round"/>
<path d="M372.211 550.693L375.643 554.124L382.522 547.246" stroke="#79B953" stroke-width="2" stroke-linecap="round" stroke-linejoin="round"/>
<path d="M372.211 567.882V564.45C372.211 560.649 369.133 557.571 365.332 557.571H355.021C351.22 557.571 348.142 560.649 348.142 564.45V567.882" stroke="#000B32" stroke-width="2.23" stroke-linecap="round" stroke-linejoin="round"/>
<path d="M360.192 550.708C363.991 550.708 367.071 547.628 367.071 543.829C367.071 540.03 363.991 536.951 360.192 536.951C356.393 536.951 353.313 540.03 353.313 543.829C353.313 547.628 356.393 550.708 360.192 550.708Z" stroke="#000B32" stroke-width="2.23" stroke-linecap="round" stroke-linejoin="round"/>
<path d="M323.996 542.106L327.428 545.538L334.307 538.659" stroke="#79B953" stroke-width="2" stroke-linecap="round" stroke-linejoin="round"/>
<path d="M323.996 559.28V555.848C323.996 552.047 320.918 548.969 317.117 548.969H306.806C303.004 548.969 299.927 552.047 299.927 555.848V559.28" stroke="#000B32" stroke-width="2.23" stroke-linecap="round" stroke-linejoin="round"/>
<path d="M311.961 542.106C315.76 542.106 318.84 539.026 318.84 535.227C318.84 531.428 315.76 528.349 311.961 528.349C308.162 528.349 305.082 531.428 305.082 535.227C305.082 539.026 308.162 542.106 311.961 542.106Z" stroke="#000B32" stroke-width="2.23" stroke-linecap="round" stroke-linejoin="round"/>
</svg>
