<svg width="995" height="744" viewBox="0 0 995 744" fill="none" xmlns="http://www.w3.org/2000/svg">
<path d="M538.04 650.89C537.02 655.71 534.68 660.15 531.28 663.72C521.5 653.46 521.5 637.32 531.28 627.06C521.16 627.06 512.95 635.27 512.95 645.4C512.95 655.52 521.16 663.73 531.29 663.73C539.29 663.73 546.37 658.53 548.77 650.9" stroke="#000B32" stroke-width="3.67" stroke-linecap="round" stroke-linejoin="round"/>
<path d="M512.95 645.39H528.53" stroke="#000B32" stroke-width="3.67" stroke-linecap="round" stroke-linejoin="round"/>
<path d="M545.94 634.4V630.73C545.94 628.71 544.3 627.06 542.27 627.06C540.24 627.06 538.6 628.7 538.6 630.73V634.4" stroke="#000B32" stroke-width="3.67" stroke-linecap="round" stroke-linejoin="round"/>
<path d="M547.78 634.4H536.78C535.769 634.4 534.95 635.219 534.95 636.23V641.74C534.95 642.751 535.769 643.57 536.78 643.57H547.78C548.791 643.57 549.61 642.751 549.61 641.74V636.23C549.61 635.219 548.791 634.4 547.78 634.4Z" stroke="#000B32" stroke-width="3.67" stroke-linecap="round" stroke-linejoin="round"/>
<path d="M872.76 250.92C871.74 255.74 869.4 260.18 866 263.75C856.22 253.49 856.22 237.35 866 227.09C855.88 227.09 847.67 235.3 847.67 245.43C847.67 255.55 855.88 263.76 866.01 263.76C874.01 263.76 881.09 258.56 883.49 250.93" stroke="#000B32" stroke-width="3.67" stroke-linecap="round" stroke-linejoin="round"/>
<path d="M847.68 245.42H863.26" stroke="#000B32" stroke-width="3.67" stroke-linecap="round" stroke-linejoin="round"/>
<path d="M880.67 234.43V230.76C880.67 228.74 879.03 227.09 877 227.09C874.97 227.09 873.33 228.73 873.33 230.76V234.43" stroke="#000B32" stroke-width="3.67" stroke-linecap="round" stroke-linejoin="round"/>
<path d="M882.5 234.43H871.5C870.489 234.43 869.67 235.249 869.67 236.26V241.77C869.67 242.78 870.489 243.6 871.5 243.6H882.5C883.511 243.6 884.33 242.78 884.33 241.77V236.26C884.33 235.249 883.511 234.43 882.5 234.43Z" stroke="#000B32" stroke-width="3.67" stroke-linecap="round" stroke-linejoin="round"/>
<path d="M472.16 114.15C471.14 118.97 468.8 123.41 465.4 126.98C455.62 116.72 455.62 100.58 465.4 90.3198C455.28 90.3198 447.07 98.5298 447.07 108.66C447.07 118.78 455.28 126.99 465.41 126.99C473.41 126.99 480.49 121.79 482.89 114.16" stroke="#000B32" stroke-width="3.67" stroke-linecap="round" stroke-linejoin="round"/>
<path d="M447.07 108.65H462.65" stroke="#000B32" stroke-width="3.67" stroke-linecap="round" stroke-linejoin="round"/>
<path d="M480.07 97.6598V93.9898C480.07 91.9698 478.43 90.3198 476.4 90.3198C474.37 90.3198 472.73 91.9598 472.73 93.9898V97.6598" stroke="#000B32" stroke-width="3.67" stroke-linecap="round" stroke-linejoin="round"/>
<path d="M481.9 97.6597H470.9C469.889 97.6597 469.07 98.479 469.07 99.4897V105C469.07 106.01 469.889 106.83 470.9 106.83H481.9C482.911 106.83 483.73 106.01 483.73 105V99.4897C483.73 98.479 482.911 97.6597 481.9 97.6597Z" stroke="#000B32" stroke-width="3.67" stroke-linecap="round" stroke-linejoin="round"/>
<path d="M130.06 316.73C129.04 321.55 126.7 325.99 123.3 329.56C113.52 319.3 113.52 303.16 123.3 292.9C113.18 292.9 104.97 301.11 104.97 311.24C104.97 321.36 113.18 329.57 123.31 329.57C131.31 329.57 138.39 324.37 140.79 316.74" stroke="#000B32" stroke-width="3.67" stroke-linecap="round" stroke-linejoin="round"/>
<path d="M104.97 311.23H120.55" stroke="#000B32" stroke-width="3.67" stroke-linecap="round" stroke-linejoin="round"/>
<path d="M137.96 300.23V296.56C137.96 294.54 136.32 292.89 134.29 292.89C132.26 292.89 130.62 294.53 130.62 296.56V300.23" stroke="#000B32" stroke-width="3.67" stroke-linecap="round" stroke-linejoin="round"/>
<path d="M139.8 300.23H128.8C127.789 300.23 126.97 301.049 126.97 302.06V307.57C126.97 308.581 127.789 309.4 128.8 309.4H139.8C140.811 309.4 141.63 308.581 141.63 307.57V302.06C141.63 301.049 140.811 300.23 139.8 300.23Z" stroke="#000B32" stroke-width="3.67" stroke-linecap="round" stroke-linejoin="round"/>
<path d="M590.88 418.07C590.88 418.07 487.83 493.52 529.37 600.56" stroke="#000B32" stroke-width="2" stroke-linecap="round" stroke-linejoin="round"/>
<path d="M534.82 597.58L523.49 601.96L531.34 605.43L534.82 597.58Z" fill="#000B32"/>
<path d="M533.48 353.4C544.09 363.27 445.87 259.12 462.5 150.57" stroke="#000B32" stroke-width="2" stroke-linecap="round" stroke-linejoin="round"/>
<path d="M456.45 150.47L468.46 152.31L463.37 145.39L456.45 150.47Z" fill="#000B32"/>
<path d="M607.59 351.95C607.59 351.95 705.39 244.03 830.67 245.08" stroke="#000B32" stroke-width="2" stroke-linecap="round" stroke-linejoin="round"/>
<path d="M829.89 239.08L829.82 251.23L835.93 245.18L829.89 239.08Z" fill="#000B32"/>
<path d="M421.62 384.55C421.62 384.55 344.61 306.71 161.66 312.78" stroke="#000B32" stroke-width="2" stroke-linecap="round" stroke-linejoin="round"/>
<path d="M162.64 318.89L162.3 306.74L156.4 312.98L162.64 318.89Z" fill="#000B32"/>
<path d="M465.54 74.5698V59.5698" stroke="#79B953" stroke-width="1.86" stroke-linecap="round" stroke-linejoin="round"/>
<path d="M470.17 60.9199L465.54 52.8999L460.9 60.9199H470.17Z" fill="#79B953"/>
<path d="M531.34 674.74V689.75" stroke="#79B953" stroke-width="1.86" stroke-linecap="round" stroke-linejoin="round"/>
<path d="M526.71 688.39L531.34 696.41L535.98 688.39H526.71Z" fill="#79B953"/>
<path d="M42.64 318.84H55.65" stroke="#000B32" stroke-width="3.25" stroke-linecap="round" stroke-linejoin="round"/>
<path d="M37.76 325.34H67.02" stroke="#000B32" stroke-width="3.25" stroke-linecap="round" stroke-linejoin="round"/>
<path d="M55.64 325.34C61.93 325.34 67.02 320.24 67.02 313.96C67.02 307.68 61.92 302.58 55.64 302.58H54.01" stroke="#000B32" stroke-width="3.25" stroke-linecap="round" stroke-linejoin="round"/>
<path d="M47.51 312.34H50.76" stroke="#000B32" stroke-width="3.25" stroke-linecap="round" stroke-linejoin="round"/>
<path d="M47.51 309.09C45.71 309.09 44.26 307.63 44.26 305.84V299.34H54.01V305.84C54.01 307.64 52.55 309.09 50.76 309.09H47.51Z" stroke="#000B32" stroke-width="3.25" stroke-linecap="round" stroke-linejoin="round"/>
<path d="M52.39 299.33V294.45C52.39 293.55 51.66 292.82 50.76 292.82H47.51C46.61 292.82 45.88 293.55 45.88 294.45V299.33" stroke="#000B32" stroke-width="3.25" stroke-linecap="round" stroke-linejoin="round"/>
<path d="M4.97 323.9H25.71C27.35 323.9 28.67 322.57 28.67 320.94V301.68L21.26 294.27H7.93C6.29 294.27 4.97 295.6 4.97 297.23V303.16" stroke="#000B32" stroke-width="2.96" stroke-linecap="round" stroke-linejoin="round"/>
<path d="M19.78 294.27V300.2C19.78 301.84 21.11 303.16 22.74 303.16H28.67" stroke="#000B32" stroke-width="2.96" stroke-linecap="round" stroke-linejoin="round"/>
<path d="M6.45 309.09L2 313.54L6.45 317.99" stroke="#000B32" stroke-width="2.96" stroke-linecap="round" stroke-linejoin="round"/>
<path d="M12.37 317.98L16.82 313.53L12.37 309.08" stroke="#000B32" stroke-width="2.96" stroke-linecap="round" stroke-linejoin="round"/>
<path d="M538.99 735.02H552" stroke="#000B32" stroke-width="3.25" stroke-linecap="round" stroke-linejoin="round"/>
<path d="M534.11 741.52H563.37" stroke="#000B32" stroke-width="3.25" stroke-linecap="round" stroke-linejoin="round"/>
<path d="M551.99 741.52C558.28 741.52 563.37 736.42 563.37 730.14C563.37 723.86 558.27 718.76 551.99 718.76H550.36" stroke="#000B32" stroke-width="3.25" stroke-linecap="round" stroke-linejoin="round"/>
<path d="M543.86 728.52H547.11" stroke="#000B32" stroke-width="3.25" stroke-linecap="round" stroke-linejoin="round"/>
<path d="M543.86 725.26C542.06 725.26 540.61 723.8 540.61 722.01V715.51H550.36V722.01C550.36 723.81 548.9 725.26 547.11 725.26H543.86Z" stroke="#000B32" stroke-width="3.25" stroke-linecap="round" stroke-linejoin="round"/>
<path d="M548.74 715.51V710.63C548.74 709.73 548.01 709 547.11 709H543.86C542.96 709 542.23 709.73 542.23 710.63V715.51" stroke="#000B32" stroke-width="3.25" stroke-linecap="round" stroke-linejoin="round"/>
<path d="M501.31 740.08H522.05C523.69 740.08 525.01 738.75 525.01 737.12V717.86L517.6 710.45H504.26C502.62 710.45 501.3 711.78 501.3 713.41V719.34" stroke="#000B32" stroke-width="2.96" stroke-linecap="round" stroke-linejoin="round"/>
<path d="M516.13 710.45V716.38C516.13 718.02 517.46 719.34 519.09 719.34H525.02" stroke="#000B32" stroke-width="2.96" stroke-linecap="round" stroke-linejoin="round"/>
<path d="M502.8 725.26L498.35 729.71L502.8 734.16" stroke="#000B32" stroke-width="2.96" stroke-linecap="round" stroke-linejoin="round"/>
<path d="M508.72 734.15L513.17 729.7L508.72 725.25" stroke="#000B32" stroke-width="2.96" stroke-linecap="round" stroke-linejoin="round"/>
<path d="M968.82 256.87H981.83" stroke="#000B32" stroke-width="3.25" stroke-linecap="round" stroke-linejoin="round"/>
<path d="M963.94 263.38H993.2" stroke="#000B32" stroke-width="3.25" stroke-linecap="round" stroke-linejoin="round"/>
<path d="M981.83 263.38C988.12 263.38 993.21 258.28 993.21 252C993.21 245.72 988.11 240.62 981.83 240.62H980.2" stroke="#000B32" stroke-width="3.25" stroke-linecap="round" stroke-linejoin="round"/>
<path d="M973.7 250.37H976.95" stroke="#000B32" stroke-width="3.25" stroke-linecap="round" stroke-linejoin="round"/>
<path d="M973.7 247.12C971.9 247.12 970.45 245.66 970.45 243.87V237.37H980.2V243.87C980.2 245.67 978.74 247.12 976.95 247.12H973.7Z" stroke="#000B32" stroke-width="3.25" stroke-linecap="round" stroke-linejoin="round"/>
<path d="M978.58 237.36V232.48C978.58 231.58 977.85 230.85 976.95 230.85H973.7C972.8 230.85 972.07 231.58 972.07 232.48V237.36" stroke="#000B32" stroke-width="3.25" stroke-linecap="round" stroke-linejoin="round"/>
<path d="M931.15 261.94H951.89C953.53 261.94 954.85 260.61 954.85 258.98V239.72L947.44 232.31H934.1C932.46 232.31 931.14 233.64 931.14 235.27V241.2" stroke="#000B32" stroke-width="2.96" stroke-linecap="round" stroke-linejoin="round"/>
<path d="M945.97 232.3V238.23C945.97 239.87 947.3 241.19 948.93 241.19H954.86" stroke="#000B32" stroke-width="2.96" stroke-linecap="round" stroke-linejoin="round"/>
<path d="M932.63 247.12L928.18 251.57L932.63 256.02" stroke="#000B32" stroke-width="2.96" stroke-linecap="round" stroke-linejoin="round"/>
<path d="M938.56 256.01L943.01 251.56L938.56 247.11" stroke="#000B32" stroke-width="2.96" stroke-linecap="round" stroke-linejoin="round"/>
<path d="M473.11 28.02H486.12" stroke="#000B32" stroke-width="3.25" stroke-linecap="round" stroke-linejoin="round"/>
<path d="M468.23 34.52H497.49" stroke="#000B32" stroke-width="3.25" stroke-linecap="round" stroke-linejoin="round"/>
<path d="M486.12 34.5198C492.41 34.5198 497.5 29.4198 497.5 23.1398C497.5 16.8598 492.4 11.7598 486.12 11.7598H484.49" stroke="#000B32" stroke-width="3.25" stroke-linecap="round" stroke-linejoin="round"/>
<path d="M477.99 21.52H481.24" stroke="#000B32" stroke-width="3.25" stroke-linecap="round" stroke-linejoin="round"/>
<path d="M477.99 18.2598C476.19 18.2598 474.74 16.7998 474.74 15.0098V8.50977H484.49V15.0098C484.49 16.8098 483.03 18.2598 481.24 18.2598H477.99Z" stroke="#000B32" stroke-width="3.25" stroke-linecap="round" stroke-linejoin="round"/>
<path d="M482.87 8.51V3.63C482.87 2.73 482.14 2 481.24 2H477.99C477.09 2 476.36 2.73 476.36 3.63V8.51" stroke="#000B32" stroke-width="3.25" stroke-linecap="round" stroke-linejoin="round"/>
<path d="M435.44 33.0802H456.18C457.82 33.0802 459.14 31.7502 459.14 30.1202V10.8602L451.73 3.4502H438.39C436.75 3.4502 435.43 4.7802 435.43 6.4102V12.3402" stroke="#000B32" stroke-width="2.96" stroke-linecap="round" stroke-linejoin="round"/>
<path d="M450.26 3.4502V9.3802C450.26 11.0202 451.59 12.3402 453.22 12.3402H459.15" stroke="#000B32" stroke-width="2.96" stroke-linecap="round" stroke-linejoin="round"/>
<path d="M436.92 18.2603L432.47 22.7103L436.92 27.1603" stroke="#000B32" stroke-width="2.96" stroke-linecap="round" stroke-linejoin="round"/>
<path d="M442.85 27.15L447.3 22.7L442.85 18.25" stroke="#000B32" stroke-width="2.96" stroke-linecap="round" stroke-linejoin="round"/>
<path d="M99.6299 311.23H84.6199" stroke="#79B953" stroke-width="1.86" stroke-linecap="round" stroke-linejoin="round"/>
<path d="M85.98 306.6L77.96 311.23L85.98 315.86V306.6Z" fill="#79B953"/>
<path d="M894.82 247.65H909.83" stroke="#79B953" stroke-width="1.86" stroke-linecap="round" stroke-linejoin="round"/>
<path d="M908.47 252.29L916.49 247.65L908.47 243.02V252.29Z" fill="#79B953"/>
</svg>
