<svg width="992" height="740" viewBox="0 0 992 740" fill="none" xmlns="http://www.w3.org/2000/svg">
<path d="M328.79 279.959V287.709" stroke="#000B32" stroke-width="3.88" stroke-linecap="round" stroke-linejoin="round"/>
<path d="M332.67 295.47H324.92" stroke="#000B32" stroke-width="3.88" stroke-linecap="round" stroke-linejoin="round"/>
<path d="M332.67 303.229H324.92" stroke="#000B32" stroke-width="3.88" stroke-linecap="round" stroke-linejoin="round"/>
<path d="M332.67 283.84H324.92" stroke="#000B32" stroke-width="3.88" stroke-linecap="round" stroke-linejoin="round"/>
<path d="M340.42 291.6H344.3C346.44 291.6 348.18 293.34 348.18 295.48V307.11C348.18 309.25 346.44 310.99 344.3 310.99H313.28C311.14 310.99 309.4 309.25 309.4 307.11V289.66C309.4 287.52 311.14 285.78 313.28 285.78H317.16" stroke="#000B32" stroke-width="3.88" stroke-linecap="round" stroke-linejoin="round"/>
<path d="M340.42 310.98V276.08C340.42 273.94 338.68 272.2 336.54 272.2H321.03C318.89 272.2 317.15 273.94 317.15 276.08V310.98" stroke="#000B32" stroke-width="3.88" stroke-linecap="round" stroke-linejoin="round"/>
<path d="M366.82 335.84V333.61C366.82 331.14 364.82 329.14 362.35 329.14H355.65C353.18 329.14 351.18 331.14 351.18 333.61V335.84" stroke="#000B32" stroke-width="2.23" stroke-linecap="round" stroke-linejoin="round"/>
<path d="M359.01 324.68C361.479 324.68 363.48 322.678 363.48 320.21C363.48 317.741 361.479 315.74 359.01 315.74C356.541 315.74 354.54 317.741 354.54 320.21C354.54 322.678 356.541 324.68 359.01 324.68Z" stroke="#000B32" stroke-width="2.23" stroke-linecap="round" stroke-linejoin="round"/>
<path d="M367.94 321.33L373.52 326.91" stroke="#B61913" stroke-width="2.23" stroke-linecap="round" stroke-linejoin="round"/>
<path d="M373.52 321.33L367.94 326.91" stroke="#B61913" stroke-width="2.23" stroke-linecap="round" stroke-linejoin="round"/>
<path d="M333.25 342.54V340.31C333.25 337.84 331.25 335.84 328.78 335.84H322.08C319.61 335.84 317.61 337.84 317.61 340.31V342.54" stroke="#000B32" stroke-width="2.23" stroke-linecap="round" stroke-linejoin="round"/>
<path d="M325.44 331.38C327.909 331.38 329.91 329.379 329.91 326.91C329.91 324.441 327.909 322.44 325.44 322.44C322.971 322.44 320.97 324.441 320.97 326.91C320.97 329.379 322.971 331.38 325.44 331.38Z" stroke="#000B32" stroke-width="2.23" stroke-linecap="round" stroke-linejoin="round"/>
<path d="M334.37 328.02L339.95 333.61" stroke="#B61913" stroke-width="2.23" stroke-linecap="round" stroke-linejoin="round"/>
<path d="M339.95 328.02L334.37 333.61" stroke="#B61913" stroke-width="2.23" stroke-linecap="round" stroke-linejoin="round"/>
<path d="M374.64 289.92L376.87 292.15L381.34 287.68" stroke="#79B953" stroke-width="2" stroke-linecap="round" stroke-linejoin="round"/>
<path d="M374.64 301.09V298.86C374.64 296.39 372.64 294.39 370.17 294.39H363.47C361 294.39 359 296.39 359 298.86V301.09" stroke="#000B32" stroke-width="2.23" stroke-linecap="round" stroke-linejoin="round"/>
<path d="M366.82 289.93C369.289 289.93 371.29 287.928 371.29 285.46C371.29 282.991 369.289 280.99 366.82 280.99C364.351 280.99 362.35 282.991 362.35 285.46C362.35 287.928 364.351 289.93 366.82 289.93Z" stroke="#000B32" stroke-width="2.23" stroke-linecap="round" stroke-linejoin="round"/>
<path d="M363.47 255.17L365.7 257.4L370.17 252.93" stroke="#79B953" stroke-width="2" stroke-linecap="round" stroke-linejoin="round"/>
<path d="M363.47 266.33V264.1C363.47 261.63 361.47 259.63 359 259.63H352.3C349.83 259.63 347.83 261.63 347.83 264.1V266.33" stroke="#000B32" stroke-width="2.23" stroke-linecap="round" stroke-linejoin="round"/>
<path d="M355.66 255.17C358.129 255.17 360.13 253.169 360.13 250.7C360.13 248.231 358.129 246.23 355.66 246.23C353.191 246.23 351.19 248.231 351.19 250.7C351.19 253.169 353.191 255.17 355.66 255.17Z" stroke="#000B32" stroke-width="2.23" stroke-linecap="round" stroke-linejoin="round"/>
<path d="M332.14 249.58L334.37 251.81L338.84 247.34" stroke="#79B953" stroke-width="2" stroke-linecap="round" stroke-linejoin="round"/>
<path d="M332.14 260.75V258.52C332.14 256.05 330.14 254.05 327.67 254.05H320.97C318.5 254.05 316.5 256.05 316.5 258.52V260.75" stroke="#000B32" stroke-width="2.23" stroke-linecap="round" stroke-linejoin="round"/>
<path d="M324.32 249.59C326.789 249.59 328.79 247.589 328.79 245.12C328.79 242.651 326.789 240.65 324.32 240.65C321.851 240.65 319.85 242.651 319.85 245.12C319.85 247.589 321.851 249.59 324.32 249.59Z" stroke="#000B32" stroke-width="2.23" stroke-linecap="round" stroke-linejoin="round"/>
<path d="M340.01 519.729V527.479" stroke="#000B32" stroke-width="3.88" stroke-linecap="round" stroke-linejoin="round"/>
<path d="M343.89 535.24H336.14" stroke="#000B32" stroke-width="3.88" stroke-linecap="round" stroke-linejoin="round"/>
<path d="M343.89 542.99H336.14" stroke="#000B32" stroke-width="3.88" stroke-linecap="round" stroke-linejoin="round"/>
<path d="M343.89 523.61H336.14" stroke="#000B32" stroke-width="3.88" stroke-linecap="round" stroke-linejoin="round"/>
<path d="M351.65 531.36H355.53C357.67 531.36 359.41 533.1 359.41 535.24V546.87C359.41 549.01 357.67 550.75 355.53 550.75H324.51C322.37 550.75 320.63 549.01 320.63 546.87V529.42C320.63 527.28 322.37 525.54 324.51 525.54H328.39" stroke="#000B32" stroke-width="3.88" stroke-linecap="round" stroke-linejoin="round"/>
<path d="M351.65 550.75V515.85C351.65 513.71 349.91 511.97 347.77 511.97H332.26C330.12 511.97 328.38 513.71 328.38 515.85V550.75" stroke="#000B32" stroke-width="3.88" stroke-linecap="round" stroke-linejoin="round"/>
<path d="M378.05 575.61V573.38C378.05 570.91 376.05 568.91 373.58 568.91H366.88C364.41 568.91 362.41 570.91 362.41 573.38V575.61" stroke="#000B32" stroke-width="2.23" stroke-linecap="round" stroke-linejoin="round"/>
<path d="M370.23 564.45C372.699 564.45 374.7 562.448 374.7 559.98C374.7 557.511 372.699 555.51 370.23 555.51C367.761 555.51 365.76 557.511 365.76 559.98C365.76 562.448 367.761 564.45 370.23 564.45Z" stroke="#000B32" stroke-width="2.23" stroke-linecap="round" stroke-linejoin="round"/>
<path d="M379.16 561.09L384.75 566.67" stroke="#B61913" stroke-width="2.23" stroke-linecap="round" stroke-linejoin="round"/>
<path d="M384.75 561.09L379.16 566.67" stroke="#B61913" stroke-width="2.23" stroke-linecap="round" stroke-linejoin="round"/>
<path d="M344.48 582.3V580.07C344.48 577.6 342.48 575.6 340.01 575.6H333.31C330.84 575.6 328.84 577.6 328.84 580.07V582.3" stroke="#000B32" stroke-width="2.23" stroke-linecap="round" stroke-linejoin="round"/>
<path d="M336.66 571.14C339.129 571.14 341.13 569.138 341.13 566.67C341.13 564.201 339.129 562.2 336.66 562.2C334.191 562.2 332.19 564.201 332.19 566.67C332.19 569.138 334.191 571.14 336.66 571.14Z" stroke="#000B32" stroke-width="2.23" stroke-linecap="round" stroke-linejoin="round"/>
<path d="M345.6 567.79L351.18 573.37" stroke="#B61913" stroke-width="2.23" stroke-linecap="round" stroke-linejoin="round"/>
<path d="M351.18 567.79L345.6 573.37" stroke="#B61913" stroke-width="2.23" stroke-linecap="round" stroke-linejoin="round"/>
<path d="M385.86 529.69L388.09 531.92L392.56 527.45" stroke="#79B953" stroke-width="2" stroke-linecap="round" stroke-linejoin="round"/>
<path d="M385.86 540.85V538.62C385.86 536.15 383.86 534.15 381.39 534.15H374.69C372.22 534.15 370.22 536.15 370.22 538.62V540.85" stroke="#000B32" stroke-width="2.23" stroke-linecap="round" stroke-linejoin="round"/>
<path d="M378.05 529.69C380.519 529.69 382.52 527.689 382.52 525.22C382.52 522.751 380.519 520.75 378.05 520.75C375.581 520.75 373.58 522.751 373.58 525.22C373.58 527.689 375.581 529.69 378.05 529.69Z" stroke="#000B32" stroke-width="2.23" stroke-linecap="round" stroke-linejoin="round"/>
<path d="M374.7 494.93L376.93 497.16L381.4 492.69" stroke="#79B953" stroke-width="2" stroke-linecap="round" stroke-linejoin="round"/>
<path d="M374.7 506.1V503.87C374.7 501.4 372.7 499.4 370.23 499.4H363.53C361.06 499.4 359.06 501.4 359.06 503.87V506.1" stroke="#000B32" stroke-width="2.23" stroke-linecap="round" stroke-linejoin="round"/>
<path d="M366.88 494.94C369.349 494.94 371.35 492.939 371.35 490.47C371.35 488.001 369.349 486 366.88 486C364.411 486 362.41 488.001 362.41 490.47C362.41 492.939 364.411 494.94 366.88 494.94Z" stroke="#000B32" stroke-width="2.23" stroke-linecap="round" stroke-linejoin="round"/>
<path d="M343.36 489.35L345.59 491.58L350.06 487.11" stroke="#79B953" stroke-width="2" stroke-linecap="round" stroke-linejoin="round"/>
<path d="M343.36 500.52V498.29C343.36 495.82 341.36 493.82 338.89 493.82H332.19C329.72 493.82 327.72 495.82 327.72 498.29V500.52" stroke="#000B32" stroke-width="2.23" stroke-linecap="round" stroke-linejoin="round"/>
<path d="M335.55 489.36C338.019 489.36 340.02 487.359 340.02 484.89C340.02 482.421 338.019 480.42 335.55 480.42C333.081 480.42 331.08 482.421 331.08 484.89C331.08 487.359 333.081 489.36 335.55 489.36Z" stroke="#000B32" stroke-width="2.23" stroke-linecap="round" stroke-linejoin="round"/>
<path d="M761.49 396.19V403.94" stroke="#000B32" stroke-width="3.88" stroke-linecap="round" stroke-linejoin="round"/>
<path d="M765.36 411.7H757.61" stroke="#000B32" stroke-width="3.88" stroke-linecap="round" stroke-linejoin="round"/>
<path d="M765.36 419.45H757.61" stroke="#000B32" stroke-width="3.88" stroke-linecap="round" stroke-linejoin="round"/>
<path d="M765.36 400.06H757.61" stroke="#000B32" stroke-width="3.88" stroke-linecap="round" stroke-linejoin="round"/>
<path d="M773.12 407.82H777C779.14 407.82 780.88 409.56 780.88 411.7V423.33C780.88 425.47 779.14 427.21 777 427.21H745.98C743.84 427.21 742.1 425.47 742.1 423.33V405.88C742.1 403.74 743.84 402 745.98 402H749.86" stroke="#000B32" stroke-width="3.88" stroke-linecap="round" stroke-linejoin="round"/>
<path d="M773.12 427.21V392.31C773.12 390.17 771.38 388.43 769.24 388.43H753.73C751.59 388.43 749.85 390.17 749.85 392.31V427.21" stroke="#000B32" stroke-width="3.88" stroke-linecap="round" stroke-linejoin="round"/>
<path d="M799.52 452.06V449.83C799.52 447.36 797.52 445.36 795.05 445.36H788.35C785.88 445.36 783.88 447.36 783.88 449.83V452.06" stroke="#000B32" stroke-width="2.23" stroke-linecap="round" stroke-linejoin="round"/>
<path d="M791.7 440.9C794.169 440.9 796.17 438.899 796.17 436.43C796.17 433.961 794.169 431.96 791.7 431.96C789.231 431.96 787.23 433.961 787.23 436.43C787.23 438.899 789.231 440.9 791.7 440.9Z" stroke="#000B32" stroke-width="2.23" stroke-linecap="round" stroke-linejoin="round"/>
<path d="M800.64 437.55L806.22 443.13" stroke="#B61913" stroke-width="2.23" stroke-linecap="round" stroke-linejoin="round"/>
<path d="M806.22 437.55L800.64 443.13" stroke="#B61913" stroke-width="2.23" stroke-linecap="round" stroke-linejoin="round"/>
<path d="M765.95 458.76V456.53C765.95 454.06 763.95 452.06 761.48 452.06H754.78C752.31 452.06 750.31 454.06 750.31 456.53V458.76" stroke="#000B32" stroke-width="2.23" stroke-linecap="round" stroke-linejoin="round"/>
<path d="M758.14 447.6C760.609 447.6 762.61 445.599 762.61 443.13C762.61 440.661 760.609 438.66 758.14 438.66C755.671 438.66 753.67 440.661 753.67 443.13C753.67 445.599 755.671 447.6 758.14 447.6Z" stroke="#000B32" stroke-width="2.23" stroke-linecap="round" stroke-linejoin="round"/>
<path d="M767.07 444.25L772.65 449.83" stroke="#B61913" stroke-width="2.23" stroke-linecap="round" stroke-linejoin="round"/>
<path d="M772.65 444.25L767.07 449.83" stroke="#B61913" stroke-width="2.23" stroke-linecap="round" stroke-linejoin="round"/>
<path d="M807.34 406.14L809.57 408.37L814.04 403.9" stroke="#79B953" stroke-width="2" stroke-linecap="round" stroke-linejoin="round"/>
<path d="M807.34 417.31V415.08C807.34 412.61 805.34 410.61 802.87 410.61H796.17C793.7 410.61 791.7 412.61 791.7 415.08V417.31" stroke="#000B32" stroke-width="2.23" stroke-linecap="round" stroke-linejoin="round"/>
<path d="M799.52 406.15C801.989 406.15 803.99 404.149 803.99 401.68C803.99 399.211 801.989 397.21 799.52 397.21C797.051 397.21 795.05 399.211 795.05 401.68C795.05 404.149 797.051 406.15 799.52 406.15Z" stroke="#000B32" stroke-width="2.23" stroke-linecap="round" stroke-linejoin="round"/>
<path d="M796.17 371.39L798.4 373.62L802.87 369.15" stroke="#79B953" stroke-width="2" stroke-linecap="round" stroke-linejoin="round"/>
<path d="M796.17 382.55V380.32C796.17 377.85 794.17 375.85 791.7 375.85H785C782.53 375.85 780.53 377.85 780.53 380.32V382.55" stroke="#000B32" stroke-width="2.23" stroke-linecap="round" stroke-linejoin="round"/>
<path d="M788.35 371.39C790.819 371.39 792.82 369.389 792.82 366.92C792.82 364.451 790.819 362.45 788.35 362.45C785.881 362.45 783.88 364.451 783.88 366.92C783.88 369.389 785.881 371.39 788.35 371.39Z" stroke="#000B32" stroke-width="2.23" stroke-linecap="round" stroke-linejoin="round"/>
<path d="M764.84 365.81L767.07 368.04L771.54 363.57" stroke="#79B953" stroke-width="2" stroke-linecap="round" stroke-linejoin="round"/>
<path d="M764.84 376.97V374.74C764.84 372.27 762.84 370.27 760.37 370.27H753.67C751.2 370.27 749.2 372.27 749.2 374.74V376.97" stroke="#000B32" stroke-width="2.23" stroke-linecap="round" stroke-linejoin="round"/>
<path d="M757.02 365.81C759.489 365.81 761.49 363.809 761.49 361.34C761.49 358.871 759.489 356.87 757.02 356.87C754.551 356.87 752.55 358.871 752.55 361.34C752.55 363.809 754.551 365.81 757.02 365.81Z" stroke="#000B32" stroke-width="2.23" stroke-linecap="round" stroke-linejoin="round"/>
<path d="M624.54 207.41V215.16" stroke="#000B32" stroke-width="3.88" stroke-linecap="round" stroke-linejoin="round"/>
<path d="M628.42 222.91H620.67" stroke="#000B32" stroke-width="3.88" stroke-linecap="round" stroke-linejoin="round"/>
<path d="M628.42 230.669H620.67" stroke="#000B32" stroke-width="3.88" stroke-linecap="round" stroke-linejoin="round"/>
<path d="M628.42 211.28H620.67" stroke="#000B32" stroke-width="3.88" stroke-linecap="round" stroke-linejoin="round"/>
<path d="M636.18 219.04H640.06C642.2 219.04 643.94 220.78 643.94 222.92V234.55C643.94 236.69 642.2 238.43 640.06 238.43H609.04C606.9 238.43 605.16 236.69 605.16 234.55V217.1C605.16 214.96 606.9 213.22 609.04 213.22H612.92" stroke="#000B32" stroke-width="3.88" stroke-linecap="round" stroke-linejoin="round"/>
<path d="M636.18 238.42V203.52C636.18 201.38 634.44 199.64 632.3 199.64H616.79C614.65 199.64 612.91 201.38 612.91 203.52V238.42" stroke="#000B32" stroke-width="3.88" stroke-linecap="round" stroke-linejoin="round"/>
<path d="M662.58 263.28V261.05C662.58 258.58 660.58 256.58 658.11 256.58H651.41C648.94 256.58 646.94 258.58 646.94 261.05V263.28" stroke="#000B32" stroke-width="2.23" stroke-linecap="round" stroke-linejoin="round"/>
<path d="M654.76 252.12C657.229 252.12 659.23 250.118 659.23 247.65C659.23 245.181 657.229 243.18 654.76 243.18C652.291 243.18 650.29 245.181 650.29 247.65C650.29 250.118 652.291 252.12 654.76 252.12Z" stroke="#000B32" stroke-width="2.23" stroke-linecap="round" stroke-linejoin="round"/>
<path d="M663.69 248.77L669.28 254.35" stroke="#B61913" stroke-width="2.23" stroke-linecap="round" stroke-linejoin="round"/>
<path d="M669.28 248.77L663.69 254.35" stroke="#B61913" stroke-width="2.23" stroke-linecap="round" stroke-linejoin="round"/>
<path d="M629.01 269.98V267.75C629.01 265.28 627.01 263.28 624.54 263.28H617.84C615.37 263.28 613.37 265.28 613.37 267.75V269.98" stroke="#000B32" stroke-width="2.23" stroke-linecap="round" stroke-linejoin="round"/>
<path d="M621.19 258.82C623.659 258.82 625.66 256.819 625.66 254.35C625.66 251.881 623.659 249.88 621.19 249.88C618.721 249.88 616.72 251.881 616.72 254.35C616.72 256.819 618.721 258.82 621.19 258.82Z" stroke="#000B32" stroke-width="2.23" stroke-linecap="round" stroke-linejoin="round"/>
<path d="M630.13 255.47L635.71 261.05" stroke="#B61913" stroke-width="2.23" stroke-linecap="round" stroke-linejoin="round"/>
<path d="M635.71 255.47L630.13 261.05" stroke="#B61913" stroke-width="2.23" stroke-linecap="round" stroke-linejoin="round"/>
<path d="M670.39 217.36L672.62 219.59L677.09 215.12" stroke="#79B953" stroke-width="2" stroke-linecap="round" stroke-linejoin="round"/>
<path d="M670.39 228.53V226.3C670.39 223.83 668.39 221.83 665.92 221.83H659.22C656.75 221.83 654.75 223.83 654.75 226.3V228.53" stroke="#000B32" stroke-width="2.23" stroke-linecap="round" stroke-linejoin="round"/>
<path d="M662.58 217.37C665.049 217.37 667.05 215.368 667.05 212.9C667.05 210.431 665.049 208.43 662.58 208.43C660.111 208.43 658.11 210.431 658.11 212.9C658.11 215.368 660.111 217.37 662.58 217.37Z" stroke="#000B32" stroke-width="2.23" stroke-linecap="round" stroke-linejoin="round"/>
<path d="M659.23 182.61L661.46 184.84L665.93 180.37" stroke="#79B953" stroke-width="2" stroke-linecap="round" stroke-linejoin="round"/>
<path d="M659.23 193.77V191.54C659.23 189.07 657.23 187.07 654.76 187.07H648.06C645.59 187.07 643.59 189.07 643.59 191.54V193.77" stroke="#000B32" stroke-width="2.23" stroke-linecap="round" stroke-linejoin="round"/>
<path d="M651.41 182.61C653.879 182.61 655.88 180.609 655.88 178.14C655.88 175.671 653.879 173.67 651.41 173.67C648.941 173.67 646.94 175.671 646.94 178.14C646.94 180.609 648.941 182.61 651.41 182.61Z" stroke="#000B32" stroke-width="2.23" stroke-linecap="round" stroke-linejoin="round"/>
<path d="M627.89 177.03L630.12 179.26L634.59 174.79" stroke="#79B953" stroke-width="2" stroke-linecap="round" stroke-linejoin="round"/>
<path d="M627.89 188.19V185.96C627.89 183.49 625.89 181.49 623.42 181.49H616.72C614.25 181.49 612.25 183.49 612.25 185.96V188.19" stroke="#000B32" stroke-width="2.23" stroke-linecap="round" stroke-linejoin="round"/>
<path d="M620.08 177.03C622.549 177.03 624.55 175.029 624.55 172.56C624.55 170.091 622.549 168.09 620.08 168.09C617.611 168.09 615.61 170.091 615.61 172.56C615.61 175.029 617.611 177.03 620.08 177.03Z" stroke="#000B32" stroke-width="2.23" stroke-linecap="round" stroke-linejoin="round"/>
<path d="M234.12 394.13V401.88" stroke="#000B32" stroke-width="3.88" stroke-linecap="round" stroke-linejoin="round"/>
<path d="M238 409.64H230.25" stroke="#000B32" stroke-width="3.88" stroke-linecap="round" stroke-linejoin="round"/>
<path d="M238 417.399H230.25" stroke="#000B32" stroke-width="3.88" stroke-linecap="round" stroke-linejoin="round"/>
<path d="M238 398.01H230.25" stroke="#000B32" stroke-width="3.88" stroke-linecap="round" stroke-linejoin="round"/>
<path d="M245.75 405.77H249.63C251.77 405.77 253.51 407.51 253.51 409.65V421.28C253.51 423.42 251.77 425.16 249.63 425.16H218.61C216.47 425.16 214.73 423.42 214.73 421.28V403.83C214.73 401.69 216.47 399.95 218.61 399.95H222.49" stroke="#000B32" stroke-width="3.88" stroke-linecap="round" stroke-linejoin="round"/>
<path d="M245.75 425.15V390.25C245.75 388.11 244.01 386.37 241.87 386.37H226.36C224.22 386.37 222.48 388.11 222.48 390.25V425.15" stroke="#000B32" stroke-width="3.88" stroke-linecap="round" stroke-linejoin="round"/>
<path d="M272.15 450.01V447.78C272.15 445.31 270.15 443.31 267.68 443.31H260.98C258.51 443.31 256.51 445.31 256.51 447.78V450.01" stroke="#000B32" stroke-width="2.23" stroke-linecap="round" stroke-linejoin="round"/>
<path d="M264.34 438.85C266.809 438.85 268.81 436.848 268.81 434.38C268.81 431.911 266.809 429.91 264.34 429.91C261.871 429.91 259.87 431.911 259.87 434.38C259.87 436.848 261.871 438.85 264.34 438.85Z" stroke="#000B32" stroke-width="2.23" stroke-linecap="round" stroke-linejoin="round"/>
<path d="M273.27 435.5L278.85 441.08" stroke="#B61913" stroke-width="2.23" stroke-linecap="round" stroke-linejoin="round"/>
<path d="M278.85 435.5L273.27 441.08" stroke="#B61913" stroke-width="2.23" stroke-linecap="round" stroke-linejoin="round"/>
<path d="M238.59 456.71V454.48C238.59 452.01 236.59 450.01 234.12 450.01H227.42C224.95 450.01 222.95 452.01 222.95 454.48V456.71" stroke="#000B32" stroke-width="2.23" stroke-linecap="round" stroke-linejoin="round"/>
<path d="M230.77 445.55C233.239 445.55 235.24 443.549 235.24 441.08C235.24 438.611 233.239 436.61 230.77 436.61C228.301 436.61 226.3 438.611 226.3 441.08C226.3 443.549 228.301 445.55 230.77 445.55Z" stroke="#000B32" stroke-width="2.23" stroke-linecap="round" stroke-linejoin="round"/>
<path d="M239.7 442.19L245.28 447.78" stroke="#B61913" stroke-width="2.23" stroke-linecap="round" stroke-linejoin="round"/>
<path d="M245.28 442.19L239.7 447.78" stroke="#B61913" stroke-width="2.23" stroke-linecap="round" stroke-linejoin="round"/>
<path d="M279.97 404.09L282.2 406.32L286.67 401.85" stroke="#79B953" stroke-width="2" stroke-linecap="round" stroke-linejoin="round"/>
<path d="M279.97 415.26V413.03C279.97 410.56 277.97 408.56 275.5 408.56H268.8C266.33 408.56 264.33 410.56 264.33 413.03V415.26" stroke="#000B32" stroke-width="2.23" stroke-linecap="round" stroke-linejoin="round"/>
<path d="M272.15 404.1C274.619 404.1 276.62 402.098 276.62 399.63C276.62 397.161 274.619 395.16 272.15 395.16C269.681 395.16 267.68 397.161 267.68 399.63C267.68 402.098 269.681 404.1 272.15 404.1Z" stroke="#000B32" stroke-width="2.23" stroke-linecap="round" stroke-linejoin="round"/>
<path d="M268.8 369.34L271.03 371.57L275.5 367.1" stroke="#79B953" stroke-width="2" stroke-linecap="round" stroke-linejoin="round"/>
<path d="M268.8 380.5V378.27C268.8 375.8 266.8 373.8 264.33 373.8H257.63C255.16 373.8 253.16 375.8 253.16 378.27V380.5" stroke="#000B32" stroke-width="2.23" stroke-linecap="round" stroke-linejoin="round"/>
<path d="M260.99 369.34C263.459 369.34 265.46 367.339 265.46 364.87C265.46 362.401 263.459 360.4 260.99 360.4C258.521 360.4 256.52 362.401 256.52 364.87C256.52 367.339 258.521 369.34 260.99 369.34Z" stroke="#000B32" stroke-width="2.23" stroke-linecap="round" stroke-linejoin="round"/>
<path d="M237.47 363.75L239.7 365.98L244.17 361.51" stroke="#79B953" stroke-width="2" stroke-linecap="round" stroke-linejoin="round"/>
<path d="M237.47 374.92V372.69C237.47 370.22 235.47 368.22 233 368.22H226.3C223.83 368.22 221.83 370.22 221.83 372.69V374.92" stroke="#000B32" stroke-width="2.23" stroke-linecap="round" stroke-linejoin="round"/>
<path d="M229.65 363.76C232.119 363.76 234.12 361.759 234.12 359.29C234.12 356.821 232.119 354.82 229.65 354.82C227.181 354.82 225.18 356.821 225.18 359.29C225.18 361.759 227.181 363.76 229.65 363.76Z" stroke="#000B32" stroke-width="2.23" stroke-linecap="round" stroke-linejoin="round"/>
</svg>
