<svg width="992" height="740" viewBox="0 0 992 740" fill="none" xmlns="http://www.w3.org/2000/svg">
<path d="M429.87 347.06H628.82C634.205 347.06 638.57 351.425 638.57 356.81V409.18C638.57 414.565 634.205 418.93 628.82 418.93H429.87C424.485 418.93 420.12 414.565 420.12 409.18V356.81C420.12 351.425 424.485 347.06 429.87 347.06Z" fill="#000B32" stroke="#000B32"/>
<path d="M463.78 364V398.28H479.97V403.5H457.25V364H463.78Z" fill="white" stroke="white"/>
<path d="M491.27 364.01V387.741C491.27 389.335 491.487 390.79 491.927 392.099C492.366 393.407 493.008 394.537 493.846 395.482C494.69 396.432 495.722 397.154 496.934 397.67C498.157 398.191 499.525 398.44 501.04 398.44H501.848L501.825 398.393C503.027 398.32 504.132 398.078 505.136 397.65C506.35 397.133 507.37 396.412 508.21 395.487L508.215 395.482C509.042 394.548 509.684 393.428 510.124 392.12C510.564 390.81 510.78 389.355 510.78 387.76V364.01H517.31V387.76C517.31 390.115 516.929 392.283 516.183 394.261C515.426 396.242 514.351 397.953 512.963 399.38C511.564 400.807 509.864 401.93 507.854 402.736C505.852 403.539 503.576 403.951 501.04 403.951C498.503 403.951 496.198 403.538 494.196 402.736C492.186 401.93 490.485 400.808 489.087 399.38C487.688 397.953 486.615 396.243 485.868 394.264C485.121 392.286 484.74 390.116 484.74 387.76V364.01H491.27Z" fill="white" stroke="white"/>
<path d="M543.96 363.56C546.874 363.56 549.406 364.041 551.625 364.981C553.716 365.867 555.5 367.004 556.999 368.391L554.734 371.538L554.727 371.548C554.608 371.722 554.457 371.882 554.272 372.018C554.164 372.098 553.956 372.17 553.6 372.17C553.418 372.17 553.208 372.118 552.965 371.989C552.676 371.835 552.362 371.654 552.032 371.427L552.026 371.423L552.02 371.418L551.438 371.05C551.232 370.921 551.012 370.784 550.78 370.643L550.775 370.64C550.278 370.344 549.711 370.072 549.076 369.833L549.074 369.832L548.571 369.658C548.052 369.49 547.481 369.343 546.856 369.219C546.007 369.051 545.034 368.97 543.95 368.97C542.197 368.97 540.568 369.261 539.077 369.858L538.781 369.981C537.214 370.65 535.854 371.634 534.726 372.909C533.595 374.185 532.724 375.746 532.106 377.559C531.485 379.381 531.18 381.457 531.18 383.75C531.18 386.045 531.506 388.154 532.18 390V390C532.839 391.823 533.751 393.381 534.9 394.646C536.048 395.908 537.406 396.88 538.96 397.558L538.963 397.559C540.517 398.227 542.195 398.57 543.98 398.57C545.029 398.57 545.982 398.509 546.836 398.396C547.696 398.282 548.499 398.095 549.232 397.843C549.97 397.59 550.662 397.254 551.318 396.858C551.978 396.46 552.622 395.97 553.252 395.392L553.253 395.393C553.41 395.252 553.565 395.146 553.737 395.055C553.881 394.989 554.015 394.96 554.15 394.96L554.152 394.951C554.372 394.955 554.576 395.029 554.777 395.201L554.866 395.284L557.525 398.167C555.987 399.982 554.122 401.376 551.923 402.375C549.603 403.418 546.797 403.95 543.49 403.95C540.537 403.95 537.906 403.45 535.577 402.451C533.237 401.446 531.246 400.065 529.597 398.29C527.947 396.513 526.68 394.393 525.791 391.912C524.903 389.432 524.46 386.72 524.46 383.76C524.46 380.804 524.941 378.045 525.887 375.579C526.834 373.108 528.169 370.985 529.88 369.207C531.59 367.429 533.642 366.046 536.032 365.051C538.415 364.059 541.048 363.56 543.96 363.56Z" fill="white" stroke="white"/>
<path d="M570.43 364V403.5H563.87V364H570.43Z" fill="white" stroke="white"/>
<path d="M595.42 363.99C598.445 363.99 601.182 364.481 603.635 365.455C606.098 366.432 608.199 367.786 609.937 369.515C611.676 371.243 613.029 373.325 613.996 375.746C614.959 378.16 615.44 380.826 615.44 383.74V383.75C615.44 386.663 614.95 389.33 613.995 391.746C613.029 394.166 611.675 396.247 609.936 397.986C608.199 399.724 606.098 401.078 603.637 402.045C601.184 403.009 598.446 403.49 595.42 403.49H580.49V363.99H595.42Z" fill="white" stroke="white"/>
<path d="M596.61 380.1C602.376 380.1 607.05 378.542 607.05 376.62C607.05 374.698 602.376 373.14 596.61 373.14C590.844 373.14 586.17 374.698 586.17 376.62C586.17 378.542 590.844 380.1 596.61 380.1Z" stroke="#000B32" stroke-width="3" stroke-miterlimit="10"/>
<path d="M586.17 384.73C586.17 386.05 588.41 387.26 591.97 387.85" stroke="#000B32" stroke-width="3" stroke-miterlimit="10"/>
<path d="M607.05 381.6V376.61" stroke="#000B32" stroke-width="3" stroke-miterlimit="10"/>
<path d="M586.17 376.62V392.85C586.17 394.4 589.22 395.76 593.67 396.19" stroke="#000B32" stroke-width="3" stroke-miterlimit="10"/>
<path d="M596.61 384.73V389.37H601.25" stroke="#000B32" stroke-width="3" stroke-miterlimit="10"/>
<path d="M597.77 394.01C599.69 396.57 603.33 397.09 605.89 395.17C607.35 394.07 608.21 392.36 608.21 390.53C608.21 387.65 605.87 385.31 602.99 385.31C601.45 385.31 600.04 385.94 599.04 386.95L596.62 389.37" stroke="#000B32" stroke-width="3" stroke-miterlimit="10"/>
</svg>
