<svg width="992" height="740" viewBox="0 0 992 740" fill="none" xmlns="http://www.w3.org/2000/svg">
<path d="M389.18 512.09C389.18 512.09 452.72 508.95 472.89 447.48" stroke="#79B953" stroke-width="1.86" stroke-linecap="round" stroke-linejoin="round"/>
<path d="M476.88 450.1L474.78 441.08L468.01 447.41L476.88 450.1Z" fill="#79B953"/>
<path d="M737.47 394.72C737.47 394.72 720.18 350.85 652.14 361.15" stroke="#79B953" stroke-width="2" stroke-linecap="round" stroke-linejoin="round"/>
<path d="M653.92 367.04L651.96 355.05L646.95 362.02L653.92 367.04Z" fill="#79B953"/>
<path d="M598.57 245.12C598.57 245.12 563.22 260.62 563.72 303.1" stroke="#79B953" stroke-width="1.86" stroke-linecap="round" stroke-linejoin="round"/>
<path d="M569.37 302.14L558.09 302.55L563.93 307.98L569.37 302.14Z" fill="#79B953"/>
<path d="M392.56 289.92C392.56 289.92 435.05 276.83 457.39 306.92" stroke="#79B953" stroke-width="1.86" stroke-linecap="round" stroke-linejoin="round"/>
<path d="M461.58 303.14L452.27 309.53L460.12 310.98L461.58 303.14Z" fill="#79B953"/>
<path d="M291.06 422.44C291.06 422.44 355.21 451.81 407.17 421.99" stroke="#79B953" stroke-width="1.86" stroke-linecap="round" stroke-linejoin="round"/>
<path d="M403.6 417.53L409.43 427.2L411.35 419.45L403.6 417.53Z" fill="#79B953"/>
</svg>
