<svg width="992" height="740" viewBox="0 0 992 740" fill="none" xmlns="http://www.w3.org/2000/svg">
<path d="M628.82 346.56H429.87C424.209 346.56 419.62 351.149 419.62 356.81V409.18C419.62 414.841 424.209 419.43 429.87 419.43H628.82C634.481 419.43 639.07 414.841 639.07 409.18V356.81C639.07 351.149 634.481 346.56 628.82 346.56Z" fill="#D5E2FD"/>
<path d="M480.47 397.78V404H456.75V363.5H464.28V397.78H480.47Z" fill="#000B32"/>
<path d="M501.03 397.92C502.49 397.92 503.79 397.68 504.94 397.19C506.09 396.7 507.05 396.02 507.84 395.15C508.62 394.27 509.23 393.21 509.65 391.96C510.07 390.71 510.28 389.31 510.28 387.76V363.51H517.81V387.76C517.81 390.17 517.42 392.4 516.65 394.44C515.87 396.48 514.76 398.25 513.32 399.73C511.87 401.21 510.11 402.37 508.04 403.2C505.97 404.03 503.63 404.45 501.04 404.45C498.45 404.45 496.08 404.03 494.01 403.2C491.94 402.37 490.18 401.21 488.73 399.73C487.28 398.25 486.17 396.48 485.4 394.44C484.63 392.4 484.24 390.17 484.24 387.76V363.51H491.77V387.74C491.77 389.29 491.98 390.69 492.4 391.94C492.82 393.19 493.43 394.26 494.22 395.15C495.01 396.04 495.98 396.72 497.13 397.21C498.28 397.7 499.58 397.94 501.04 397.94L501.03 397.92Z" fill="#000B32"/>
<path d="M554.13 394.45C554.54 394.45 554.9 394.61 555.22 394.93L558.19 398.15C556.55 400.19 554.53 401.74 552.13 402.83C549.73 403.91 546.85 404.45 543.49 404.45C540.48 404.45 537.78 403.94 535.38 402.91C532.98 401.88 530.93 400.46 529.23 398.63C527.53 396.8 526.23 394.62 525.32 392.08C524.41 389.54 523.96 386.77 523.96 383.76C523.96 380.75 524.45 377.93 525.42 375.4C526.39 372.87 527.76 370.69 529.52 368.86C531.28 367.03 533.39 365.61 535.84 364.59C538.29 363.57 540.99 363.06 543.96 363.06C546.93 363.06 549.53 363.55 551.82 364.52C554.11 365.49 556.05 366.76 557.66 368.33L555.14 371.83C554.99 372.05 554.8 372.25 554.57 372.42C554.34 372.59 554.01 372.67 553.6 372.67C553.32 372.67 553.03 372.59 552.73 372.43C552.43 372.27 552.1 372.08 551.75 371.84C551.39 371.61 550.98 371.35 550.52 371.07C550.05 370.79 549.51 370.53 548.9 370.3C548.28 370.07 547.57 369.87 546.76 369.71C545.95 369.55 545.01 369.47 543.95 369.47C542.14 369.47 540.48 369.79 538.98 370.44C537.48 371.08 536.18 372.02 535.1 373.24C534.02 374.46 533.18 375.96 532.58 377.72C531.98 379.48 531.68 381.5 531.68 383.75C531.68 386 532 388.05 532.65 389.83C533.29 391.6 534.17 393.1 535.27 394.31C536.37 395.52 537.67 396.45 539.16 397.1C540.65 397.74 542.26 398.07 543.98 398.07C545.01 398.07 545.94 398.01 546.77 397.9C547.6 397.79 548.37 397.61 549.07 397.37C549.77 397.13 550.43 396.81 551.06 396.43C551.69 396.05 552.31 395.58 552.92 395.02C553.11 394.85 553.3 394.72 553.51 394.61C553.72 394.51 553.93 394.46 554.15 394.46L554.13 394.45Z" fill="#000B32"/>
<path d="M570.93 404H563.37V363.5H570.93V404Z" fill="#000B32"/>
<path d="M615.94 383.75C615.94 386.72 615.44 389.45 614.46 391.93C613.47 394.41 612.08 396.55 610.29 398.34C608.5 400.13 606.34 401.52 603.82 402.51C601.3 403.5 598.5 403.99 595.42 403.99H579.99V363.49H595.42C598.5 363.49 601.3 363.99 603.82 364.99C606.34 365.99 608.5 367.38 610.29 369.16C612.08 370.94 613.47 373.08 614.46 375.56C615.45 378.04 615.94 380.77 615.94 383.74V383.75Z" fill="#000B32"/>
<path d="M596.61 380.1C602.376 380.1 607.05 378.542 607.05 376.62C607.05 374.698 602.376 373.14 596.61 373.14C590.844 373.14 586.17 374.698 586.17 376.62C586.17 378.542 590.844 380.1 596.61 380.1Z" stroke="#D5E2FD" stroke-width="3" stroke-miterlimit="10"/>
<path d="M586.17 384.73C586.17 386.05 588.41 387.26 591.97 387.85" stroke="#D5E2FD" stroke-width="3" stroke-miterlimit="10"/>
<path d="M607.05 381.6V376.61" stroke="#D5E2FD" stroke-width="3" stroke-miterlimit="10"/>
<path d="M586.17 376.62V392.85C586.17 394.4 589.22 395.76 593.67 396.19" stroke="#D5E2FD" stroke-width="3" stroke-miterlimit="10"/>
<path d="M596.61 384.73V389.37H601.25" stroke="#D5E2FD" stroke-width="3" stroke-miterlimit="10"/>
<path d="M597.77 394.01C599.69 396.57 603.33 397.09 605.89 395.17C607.35 394.07 608.21 392.36 608.21 390.53C608.21 387.65 605.87 385.31 602.99 385.31C601.45 385.31 600.04 385.94 599.04 386.95L596.62 389.37" stroke="#D5E2FD" stroke-width="3" stroke-miterlimit="10"/>
</svg>
