<svg width="1500" height="1120" viewBox="0 0 1500 1120" fill="none" xmlns="http://www.w3.org/2000/svg">
<path d="M557.002 764.828C557.002 764.828 654.787 759.996 685.827 665.403" stroke="#79B953" stroke-width="1.86" stroke-linecap="round" stroke-linejoin="round"/>
<path d="M691.968 669.434L688.736 655.554L678.317 665.295L691.968 669.434Z" fill="#79B953"/>
<path d="M1093 584.228C1093 584.228 1066.39 516.718 961.684 532.569" stroke="#79B953" stroke-width="2" stroke-linecap="round" stroke-linejoin="round"/>
<path d="M964.424 541.617L961.407 523.166L953.697 533.907L964.424 541.617Z" fill="#79B953"/>
<path d="M879.243 354C879.243 354 824.841 377.852 825.61 443.223" stroke="#79B953" stroke-width="1.86" stroke-linecap="round" stroke-linejoin="round"/>
<path d="M834.305 441.746L816.946 442.377L825.934 450.748L834.305 441.746Z" fill="#79B953"/>
<path d="M562.203 422.956C562.203 422.956 627.594 402.812 661.974 449.116" stroke="#79B953" stroke-width="1.86" stroke-linecap="round" stroke-linejoin="round"/>
<path d="M668.422 443.284L654.094 453.117L666.175 455.364L668.422 443.284Z" fill="#79B953"/>
<path d="M406 626.885C406 626.885 504.724 672.081 584.688 626.192" stroke="#79B953" stroke-width="1.86" stroke-linecap="round" stroke-linejoin="round"/>
<path d="M579.194 619.314L588.166 634.195L591.12 622.269L579.194 619.314Z" fill="#79B953"/>
</svg>
