<svg width="992" height="740" viewBox="0 0 992 740" fill="none" xmlns="http://www.w3.org/2000/svg">
<path d="M914.96 432.34L913.42 427.27L909.54 424.17L901.76 423.56L898.37 419.83L896.71 414.79L897.51 412.24L899.42 410.31L901.06 407.13L901.35 403.36H901.34L901.1 400.34L901.77 397.89L904.81 395.83L906.91 392.43V392.41L906.36 388.79L904.95 384.96L904.5 381.02L908.3 376.12L909.33 374.41L909.93 372.01L910.63 363.44L910.04 357.8L912.04 348.72L910.92 344.29L909.25 342.4L902.98 337.67L899.03 331.68L897.1 329.72V329.68H897.08L896.11 329.07L895.11 328.89L894.11 329.13L888.95 332.3L884.54 337.67L881.53 343.83L881.56 348.79L877.07 349.12L873.53 348.29L870.6 348.92L867.96 353.64L867.2 357.01L867.12 359.26L866.67 361.3L864.88 364.05L857.07 368.29L852.42 369.75L848.65 369.69L840.76 367.36L836.64 365.09L829.47 358.55L809.95 352.71L805.38 349.36L803 346.13L802.66 343.65L803.17 340.77L803.49 334.54L804.18 332L804.16 330.43L803.43 329.64L802.33 329.74L801.54 329.09V329.07L801.79 326.07L767.42 315.94L764.4 315.54L754.94 316.89L751.55 316.05L747.84 317.31L736.8 315.65L732.71 314.5L732.47 312.05L734.53 309.16L737.24 306.27L738.89 302.7L738.71 297.05L737.13 292.82L735.12 289.03L733.66 284.67L733.94 275.74L736.9 266.73L739.8 261.61L745.4 251.71L751.41 244.2L752.06 242.36L752.9 237.67L753.69 235.28L760.5 226.34L762.16 222.27L762.11 211.05L756.89 206.59L750.18 203.65L744.73 195.74L744.39 194.27L743.29 189.52L693.75 159.62L686.78 158.1L680.1 158.19L677.63 154.43L667.76 154.55L647.82 152.5L644.47 153.9L641.63 157.02L635.15 159.16L628.16 159.89L623.77 158.78L618.56 154.93L615.88 152.29L615.84 150.45L619.12 149.66H619.11L614.46 145.32L608.62 141.96L603.83 141.78L602.26 146.98H602.25L603.71 148.6L603.73 148.62L602.88 148.64L594.3 148.83L593.94 147.12L593.49 145.08L592.55 143.92L592.07 143.33L591.29 141.18L591.86 139.44L594.23 135.83L594.69 134.83L593.5 132.17L591.75 131.83L589.8 132.25L587.96 131.84L586.59 129.74L585.18 126.68L583.45 124.08L581.15 123.32L579.55 125.02L578.65 130.8L576.45 132.27L574.7 130.97L574.05 127.75L573.86 124.33L573.57 122.4L570.3 120.93L565.83 120.69L563.01 122.33L564.69 126.49V126.51L562 127.9L552.42 129.85L550.41 129.8L549.01 130.65L546.62 134.23L545.78 136.15L544.46 141.47L542.57 143.25L538.05 145.76L536.32 147.76L536.13 149.71L536.88 151.66L537.32 153.91L536.2 156.78V156.8L538.98 157.84L539.88 157.97L544.48 161.45L548.16 163.55L551.34 163.41L553.98 162.04L556.44 160.25L559.11 158.89L567.77 157.37L570.28 157.79L572.42 158.67L573.15 158.96L574.76 159.11L573.77 165.4L572.62 164.82L572.49 163.18L572.34 162.75L571.56 162.78L570.61 163.14L569.96 163.7L569.57 165.16L569.86 166.37L570.3 167.42L570.37 168.32V168.34L570.16 170.13L570.27 172.02L570.07 174.02L569.35 175.28L568.91 176.07L566.51 176.88L564.97 174.99L564.53 174.43L562.4 170.86L559.62 168.29L554.27 168.86L548.8 172.52L546.75 177.06L546.53 178.31L541.63 179.14L541 179.25L529.56 179.21L527.86 178.76L522.77 177.41L521.44 176.55L521 176.26L519.75 173.71L518.77 171.16L517.83 170.01L517.28 169.95L515.76 169.79L512.35 168.75L511.11 168.37L507.88 168.39L498.24 170.02L497.31 170.62L496.42 171.91L495.22 173.21L491.93 174.19L488.05 176.3L487.68 176.58L486.58 177.43L485.08 179.18L484.34 180.53L483.53 181.68L481.8 182.86L475.76 184.21L473.75 184.66L450.47 184.58L450.35 184.28L450.01 183.45L449.66 180.96L449.1 178.47L448.33 177.67L448.01 177.34L444.62 177.12L436.47 176.59L433.98 175.3L431.67 178.89L430.71 180.39L427.81 183.79L424.44 185.68L417.34 187.12L414.89 187.61L409.5 188.69L406.62 188.28L405.57 188.13L404.94 187.79L403.04 186.77L398.32 184.22L396.35 183.16H396.37L401.04 183.24L402.95 181.4L405.35 174.77H405.34L401.29 175.18L392.35 177.8L392.11 178.03L385.74 180.23L381.4 182.59L380.39 183.42L373.58 188.95L373.99 189.12L376.94 191.43H377.56V192.09L377.58 194.08L376.99 195.21L376.79 195.59L375.36 196.06L373.52 195.64L373.25 195.78L372.45 196.19L372.27 196.82L372.21 197.03L372.6 198.1L373.87 199.93L374.04 200.59L374.01 201.29L373.77 202.02L373.46 202.48L370.66 204.93L368.36 204.57L366.9 203.62L366.04 203.07L363.28 202.04L361.17 202.65V204.27L361.39 204.69L362.05 205.94L362.49 206.43L362.64 206.59L362.86 206.9L363.51 207.83L363.8 209.33L363.34 211.23L363.2 211.81L362.95 212.14L362.19 213.12L360.25 215.61L359.6 216.44L358.85 216.73L356.42 217.68L355.11 218.19L354.61 218.39L347.15 217.99L342.14 217.72L337.38 218.66L330.55 221.53L329.34 221.76L327.96 221.16L327.26 220.19L327.12 219.91L326.78 219.24L326.24 218.78L326.06 218.63L320.79 216.92L319.88 216.35L316.93 214.51L316.23 211.38L315.96 210.18L319.33 202.71L314.44 203.12L312.48 202.77L312.07 202.7L309.75 201.31L305.54 200.37L296.58 201.8L291.96 201.04L290.36 199.77L288.74 199.33L287.11 199.72L285.5 200.94L284.66 201.18L282.15 201.91L282.43 204L282.55 204.87L284.34 208.56L284.5 209.2L285.15 211.75L284.17 213.3L283.76 213.95L283.01 214.58L281.06 216.21L278.81 217.46L278.12 217.84L276.94 218.08L273.41 218.81L273.16 222.34L273.05 223.81L268.37 226.46L267.62 227.41L265.67 229.89L264.02 232.86L263.38 234L262.43 237.38L283.82 235.61L287.15 234.08L287.82 234.64L289.82 236.31L291.81 238.19L292.47 238.82L294.3 241.54L292.86 244.42L291.15 245.49L289.31 245.96L287.41 247.04L284.74 250.55L283.78 250.92L282.14 251.1L278.7 254.54L278.41 255.81L277.46 259.95L277.94 265L278.09 266.55L265.7 275.35L260.38 280.66L259.5 282.07L256.85 286.29L256.53 286.57L256.4 286.69L244.85 297.03L239.41 298.82L239.55 303.34L236.91 304.65L236.25 305.1L235.52 306.77L230.98 308.31L230.54 308.73L229.22 309.98L227.34 313.1L226.71 314.14L227.23 315.38L228.79 319.11L225.39 323.83L224.54 325.01L212.28 333.98L192.7 339.7L183.81 344.61L180.89 353.85L181.6 356.27L183.91 360.93L184.43 363.88L184.32 364.9L184.04 367.54L183.5 368.81L183.29 369.3L182.98 370.06L182.6 370.72L181.68 372.31L179.39 378.73L178.63 380.87L178.34 382.16L178.79 383.66L179.72 384.98L181.06 386.49V387.39L181.02 390.99L180.49 392.52L180.27 393.16L178.18 395.71L176.24 397.09L174.44 397.99L170.12 400.15L166.66 403.9L165.22 405.46L163.39 406.94L150.18 413.81L142.81 420.23L125.13 435.64L123.24 438L122.61 438.79L122.72 439.67L123.06 442.3L127.35 447.36L122.64 453.01L120.68 455.36L114.02 466.12L111.88 468.33L111.12 469.91L111.08 471.27L111.44 472.54L111.86 473.63L111.88 473.84L111.96 474.46L111.93 476.49L112.25 478.27L111.96 479.59L111.86 480.03L109.68 481.98L119.39 488.31L122 491.3L124.13 495.36L124.3 498.31L120.82 505.55L118 511.44L117.35 513.5L115.84 520.98L115.68 523.83L115.76 526.29L114.92 528.05L110.88 529.2L109.8 529.28L108.7 529.12L107.27 528.62L106.94 528.59L106.62 528.61L106.33 528.69L95.1899 533.78L90.6099 536.49L89.8599 539.66L91.6699 543.35L94.7999 547.52L94.1699 549.8L92.6799 552.42L90.0499 558.1L94.5799 555.6L102.95 553.83L111.33 553.73L117.49 556.69L123.54 553.79L133.2 543.02L145.13 535.53L150 530.62L149.2 524.47L147.9 523.89L144.81 525.22L142.91 524.18L142.18 523.02L140.52 518.61L140.46 517.54L138.88 512.97L138.63 512.02L138.19 510.31L139.26 506.73L143.25 501.55L144.84 499.56L148.65 494.77L153.2 491.01L154.72 489.76L156.14 489.34L160.4 488.07L166.4 487.93L170.63 486.96L172.39 486.56L188.2 476.19L199.96 474.13L212.13 474.77L218.91 476.66L239.24 482.34L241.16 483.33L241.96 483.74L243.61 486.42L243.76 488.95L243.81 489.69L243.92 491.46L242.96 494.57L242.56 495.87L237.62 501.46L236.57 504.51L239.96 510.62L246.34 517.66L250.37 524.94L243.65 537.49L240.28 546.93L238.44 555.99L239.96 560.45L254.54 563.96L257.3 566.75L257.24 567.31L257.07 568.76L256.06 570.29L255.75 570.76L254.23 572.55L253.35 573.91L253.89 573.65L254.16 576.29V579.07L253.91 579.3L253.95 581.37L253.55 582.47L253.65 583.31L255.25 584.56L256.99 584.84L257.35 584.58L258.42 583.8L259.42 582.79L259.75 582.46L261.3 581.86L265.47 583.77L268.35 587.14L277.71 598.09L278.38 598.56L278.59 598.7L278.75 599.41L279.22 601.55L280.74 605.69L281.25 607.07L281.56 608.29L282.49 611.95L283.16 613.85L283.44 614.64L283.8 615.26L284.67 616.76L292.83 626.19L297.08 628.84L302.73 630.07H308.75L314.34 629.09L325.77 624.54L331.03 621.37L333.44 620.56L347.28 622.21L353.24 620.18L364.21 612.29L365.51 611.74L369.74 609.96L372.7 609.6L373.61 609.49L374.12 608.83L375.65 606.85L377 604.6L377.45 603.85L380.57 602.28L386.08 603.71L399.3 607.13L401.46 608.41L402.18 608.84L404.92 611.44L408.38 616.54L408.63 617.21L409.16 617.39L410.89 617.98L412 617.74L412.43 617.65L413.82 616.98L414.27 616.94L415.63 616.81L421.87 619.13L424.47 620.1L429.55 620.03L432.84 621.06L433.9 621.12L436.2 619.87L436.67 618.99V618.97L436.54 617.6L437.1 614.86L437.36 614.37L438.55 612.11L441.42 606.69L446.34 603.27L456.15 601.08L459.42 600.35L459.84 600.22L461.19 599.81L462.52 598.73L464.14 596.61L464.81 595.73L464.94 595.16L466.77 591.21L467.11 590.68L467.36 588.79L468.1 583.13L468.13 580.89V580.14L468.54 577.09L469.84 574.38L471.69 572.96L475.51 572.56L477.5 571.91L479.52 570.16L485.56 564.92L489.55 556.34V556.32L489.05 546.59L483.63 536.09L479.35 532.33L479.19 532.07L478.71 531.3L479.5 529.08L479.96 528.44L481.34 526.51L484.93 522.87L487.9 521.5L488.89 521.04L496.85 519.25L500.63 516.6L509.64 504.66L510.94 504.01L514.84 502.05L516.92 500.42L518.28 498.79L518.73 498.25L519 497.64L519.82 495.82L519.75 493.12L519.44 492.89L518.52 492.21L517.83 491.07L519.36 487.72L522.28 484.6L523.25 483.56L528.2 480.86L536.02 479.15L538.37 478.63L539.92 478.9L543.64 479.54L545.52 482.27L546.15 483.18L546.94 489.18L547.05 497.17L546.6 502.91L546.45 504.82L543.53 518.58L542.92 525.39L543.65 531.86L545.17 535.07L545.68 536.14L546.53 536.83L549.07 538.91L553.89 540.84L558.95 543.37L564.21 548.72L575.88 565.86L577.24 566.56L577.66 566.78L581.23 567.99L583.38 569.23L589.82 572.95L593.06 573.09L594.37 572.34L596.49 570.43L597.2 569.79L598.34 569.27L599.34 569.62L599.85 569.8L600.18 570.38L601.24 572.27L602.31 573L602.64 573.22L605.58 573.6L611.25 573.43L614.01 574.38L618.74 580.54L616.06 586.79L610.84 593.25L607.66 600.73L606.96 602.01L606.67 602.71V602.72L607.55 602.77L609.83 602.91L611.88 603.61L612.67 603.88L623.29 609.48L624.53 610.44L625.73 612.12L626.28 613.36L627.59 616.34L629.89 620.35L630.85 622.02L632.42 625.47L633.48 628.93L633.58 630.28L633.83 633.51V633.53L633.1 636.84L632.04 639.99L631.88 641.01L631.39 644.07V644.09H631.38L638.67 641.77L644.74 644.42L650.33 645.39L656.14 638.06L660.65 629.05L660.81 627.98L661.33 624.52H661.32L659.68 621.18L659.18 620.15L657.41 619.06L656.46 618.88L653.38 618.29L652.01 617.51L651.59 617.27L649.91 614.8L648.31 610.01L646.32 608L645.92 607.34L645.77 606.66L645.9 605.98L646.29 605.31L647.79 603.89L652.3 599.64V599.62L648.94 590.43L649.7 587.42L654.37 583.7L655.38 583.37L658.4 582.38L659.71 581.6L660.15 581.34L661.57 578.85L662.13 575.58L661.67 569.61L662.34 566.17L665.68 561.02L678.95 551.81L678.97 551.78L679.02 551.69L680.35 549.07L681.16 545.99L682.15 543.34L684.12 541.84L686.3 540.78L688.41 538.77L690.04 536.05L692.65 526.53L697.86 515.21L698.93 509.35L698.62 505.95L696.05 496.57L695.97 492.78L696.4 489.43L696.02 486.78L693.53 485.11L691.74 481.56L693.08 475.04L696.18 468.61L699.62 465.32L708.5 464.09L712.13 465L712.32 468.27L717.06 472.67L718.42 473.25L720.4 472.43L721.26 470.83L721.88 468.94L723.1 467.22L726.02 464.99L727.44 464.65L728.04 466.31L729.55 491.71L729.34 495.75V495.77L729.73 497.25L731.06 498.53L735.16 500.71L736.81 502.04L740.61 511.53L742.97 514.71L746.92 517.3L751.19 518.79L772.21 518.66L775.63 517.2L778.36 513.26L778.4 511.16L778.06 508.16L778.35 505.11L780.29 502.83H782.26L786.78 505.47L789.12 505.93L792.92 504.62L804.97 498.09L812.93 496.53L816.48 496.73L820.27 497.61L824.91 500.54L826.21 504.83L826.41 510.08L827.72 515.88L830.5 519.45L837.88 525.74L839.86 530.2L840.14 536.17L846.21 536.15L853.88 533.03L858.89 529.68L861.2 524.55L858.71 519.87L850.98 512.33L849.25 509.41L848.44 507.21V507.19L848.5 504.76L849.35 501.15L850.67 498.54L854.43 494.99L855.7 493.18L856.95 487.37L855.53 484.46L852.35 483.27L844.13 481.86L838.72 479.89L835.76 476.35L838.88 470.81L837.26 469.76L836.33 468.29L835.86 466.37L835.58 463.93L836.31 461.07L836.2 455.27L836.41 453.35L837.91 450.96L841.77 446.91L843.23 444.86L845.25 436.15L846.01 434.17L847.74 433.16L864.85 427.78L869.53 427.6L872.48 429.91L872.93 432.89L872.06 438.36L872.95 441.23L880.53 443.62L882 444.86L882.99 446.17L884.19 447.37L886.27 448.28L888.61 448.58L894.94 447.81L908.11 450.9L911.38 450.17L912.74 447.76L913.81 445.85L915.07 439.24L915.02 432.39L914.96 432.34Z" stroke="#D2F7FF" stroke-width="2.23" stroke-linecap="round" stroke-linejoin="round"/>
</svg>
