<svg width="995" height="744" viewBox="0 0 995 744" fill="none" xmlns="http://www.w3.org/2000/svg">
<path d="M330.79 281.959V289.709" stroke="#000B32" stroke-width="3.88" stroke-linecap="round" stroke-linejoin="round"/>
<path d="M334.67 297.47H326.92" stroke="#000B32" stroke-width="3.88" stroke-linecap="round" stroke-linejoin="round"/>
<path d="M334.67 305.229H326.92" stroke="#000B32" stroke-width="3.88" stroke-linecap="round" stroke-linejoin="round"/>
<path d="M334.67 285.84H326.92" stroke="#000B32" stroke-width="3.88" stroke-linecap="round" stroke-linejoin="round"/>
<path d="M342.42 293.6H346.3C348.44 293.6 350.18 295.34 350.18 297.48V309.11C350.18 311.25 348.44 312.99 346.3 312.99H315.28C313.14 312.99 311.4 311.25 311.4 309.11V291.66C311.4 289.52 313.14 287.78 315.28 287.78H319.16" stroke="#000B32" stroke-width="3.88" stroke-linecap="round" stroke-linejoin="round"/>
<path d="M342.42 312.98V278.08C342.42 275.94 340.68 274.2 338.54 274.2H323.03C320.89 274.2 319.15 275.94 319.15 278.08V312.98" stroke="#000B32" stroke-width="3.88" stroke-linecap="round" stroke-linejoin="round"/>
<path d="M368.82 337.84V335.61C368.82 333.14 366.82 331.14 364.35 331.14H357.65C355.18 331.14 353.18 333.14 353.18 335.61V337.84" stroke="#000B32" stroke-width="2.23" stroke-linecap="round" stroke-linejoin="round"/>
<path d="M361.01 326.68C363.479 326.68 365.48 324.678 365.48 322.21C365.48 319.741 363.479 317.74 361.01 317.74C358.541 317.74 356.54 319.741 356.54 322.21C356.54 324.678 358.541 326.68 361.01 326.68Z" stroke="#000B32" stroke-width="2.23" stroke-linecap="round" stroke-linejoin="round"/>
<path d="M369.94 323.33L375.52 328.91" stroke="#B61913" stroke-width="2.23" stroke-linecap="round" stroke-linejoin="round"/>
<path d="M375.52 323.33L369.94 328.91" stroke="#B61913" stroke-width="2.23" stroke-linecap="round" stroke-linejoin="round"/>
<path d="M335.25 344.54V342.31C335.25 339.84 333.25 337.84 330.78 337.84H324.08C321.61 337.84 319.61 339.84 319.61 342.31V344.54" stroke="#000B32" stroke-width="2.23" stroke-linecap="round" stroke-linejoin="round"/>
<path d="M327.44 333.38C329.909 333.38 331.91 331.379 331.91 328.91C331.91 326.441 329.909 324.44 327.44 324.44C324.971 324.44 322.97 326.441 322.97 328.91C322.97 331.379 324.971 333.38 327.44 333.38Z" stroke="#000B32" stroke-width="2.23" stroke-linecap="round" stroke-linejoin="round"/>
<path d="M336.37 330.02L341.95 335.61" stroke="#B61913" stroke-width="2.23" stroke-linecap="round" stroke-linejoin="round"/>
<path d="M341.95 330.02L336.37 335.61" stroke="#B61913" stroke-width="2.23" stroke-linecap="round" stroke-linejoin="round"/>
<path d="M376.64 291.92L378.87 294.15L383.34 289.68" stroke="#79B953" stroke-width="2" stroke-linecap="round" stroke-linejoin="round"/>
<path d="M376.64 303.09V300.86C376.64 298.39 374.64 296.39 372.17 296.39H365.47C363 296.39 361 298.39 361 300.86V303.09" stroke="#000B32" stroke-width="2.23" stroke-linecap="round" stroke-linejoin="round"/>
<path d="M368.82 291.93C371.289 291.93 373.29 289.928 373.29 287.46C373.29 284.991 371.289 282.99 368.82 282.99C366.351 282.99 364.35 284.991 364.35 287.46C364.35 289.928 366.351 291.93 368.82 291.93Z" stroke="#000B32" stroke-width="2.23" stroke-linecap="round" stroke-linejoin="round"/>
<path d="M365.47 257.17L367.7 259.4L372.17 254.93" stroke="#79B953" stroke-width="2" stroke-linecap="round" stroke-linejoin="round"/>
<path d="M365.47 268.33V266.1C365.47 263.63 363.47 261.63 361 261.63H354.3C351.83 261.63 349.83 263.63 349.83 266.1V268.33" stroke="#000B32" stroke-width="2.23" stroke-linecap="round" stroke-linejoin="round"/>
<path d="M357.66 257.17C360.129 257.17 362.13 255.169 362.13 252.7C362.13 250.231 360.129 248.23 357.66 248.23C355.191 248.23 353.19 250.231 353.19 252.7C353.19 255.169 355.191 257.17 357.66 257.17Z" stroke="#000B32" stroke-width="2.23" stroke-linecap="round" stroke-linejoin="round"/>
<path d="M334.14 251.58L336.37 253.81L340.84 249.34" stroke="#79B953" stroke-width="2" stroke-linecap="round" stroke-linejoin="round"/>
<path d="M334.14 262.75V260.52C334.14 258.05 332.14 256.05 329.67 256.05H322.97C320.5 256.05 318.5 258.05 318.5 260.52V262.75" stroke="#000B32" stroke-width="2.23" stroke-linecap="round" stroke-linejoin="round"/>
<path d="M326.32 251.59C328.789 251.59 330.79 249.589 330.79 247.12C330.79 244.651 328.789 242.65 326.32 242.65C323.851 242.65 321.85 244.651 321.85 247.12C321.85 249.589 323.851 251.59 326.32 251.59Z" stroke="#000B32" stroke-width="2.23" stroke-linecap="round" stroke-linejoin="round"/>
<path d="M342.01 521.729V529.479" stroke="#000B32" stroke-width="3.88" stroke-linecap="round" stroke-linejoin="round"/>
<path d="M345.89 537.24H338.14" stroke="#000B32" stroke-width="3.88" stroke-linecap="round" stroke-linejoin="round"/>
<path d="M345.89 544.99H338.14" stroke="#000B32" stroke-width="3.88" stroke-linecap="round" stroke-linejoin="round"/>
<path d="M345.89 525.61H338.14" stroke="#000B32" stroke-width="3.88" stroke-linecap="round" stroke-linejoin="round"/>
<path d="M353.65 533.36H357.53C359.67 533.36 361.41 535.1 361.41 537.24V548.87C361.41 551.01 359.67 552.75 357.53 552.75H326.51C324.37 552.75 322.63 551.01 322.63 548.87V531.42C322.63 529.28 324.37 527.54 326.51 527.54H330.39" stroke="#000B32" stroke-width="3.88" stroke-linecap="round" stroke-linejoin="round"/>
<path d="M353.65 552.75V517.85C353.65 515.71 351.91 513.97 349.77 513.97H334.26C332.12 513.97 330.38 515.71 330.38 517.85V552.75" stroke="#000B32" stroke-width="3.88" stroke-linecap="round" stroke-linejoin="round"/>
<path d="M380.05 577.61V575.38C380.05 572.91 378.05 570.91 375.58 570.91H368.88C366.41 570.91 364.41 572.91 364.41 575.38V577.61" stroke="#000B32" stroke-width="2.23" stroke-linecap="round" stroke-linejoin="round"/>
<path d="M372.23 566.45C374.699 566.45 376.7 564.448 376.7 561.98C376.7 559.511 374.699 557.51 372.23 557.51C369.761 557.51 367.76 559.511 367.76 561.98C367.76 564.448 369.761 566.45 372.23 566.45Z" stroke="#000B32" stroke-width="2.23" stroke-linecap="round" stroke-linejoin="round"/>
<path d="M381.16 563.09L386.75 568.67" stroke="#B61913" stroke-width="2.23" stroke-linecap="round" stroke-linejoin="round"/>
<path d="M386.75 563.09L381.16 568.67" stroke="#B61913" stroke-width="2.23" stroke-linecap="round" stroke-linejoin="round"/>
<path d="M346.48 584.3V582.07C346.48 579.6 344.48 577.6 342.01 577.6H335.31C332.84 577.6 330.84 579.6 330.84 582.07V584.3" stroke="#000B32" stroke-width="2.23" stroke-linecap="round" stroke-linejoin="round"/>
<path d="M338.66 573.14C341.129 573.14 343.13 571.138 343.13 568.67C343.13 566.201 341.129 564.2 338.66 564.2C336.191 564.2 334.19 566.201 334.19 568.67C334.19 571.138 336.191 573.14 338.66 573.14Z" stroke="#000B32" stroke-width="2.23" stroke-linecap="round" stroke-linejoin="round"/>
<path d="M347.6 569.79L353.18 575.37" stroke="#B61913" stroke-width="2.23" stroke-linecap="round" stroke-linejoin="round"/>
<path d="M353.18 569.79L347.6 575.37" stroke="#B61913" stroke-width="2.23" stroke-linecap="round" stroke-linejoin="round"/>
<path d="M387.86 531.69L390.09 533.92L394.56 529.45" stroke="#79B953" stroke-width="2" stroke-linecap="round" stroke-linejoin="round"/>
<path d="M387.86 542.85V540.62C387.86 538.15 385.86 536.15 383.39 536.15H376.69C374.22 536.15 372.22 538.15 372.22 540.62V542.85" stroke="#000B32" stroke-width="2.23" stroke-linecap="round" stroke-linejoin="round"/>
<path d="M380.05 531.69C382.519 531.69 384.52 529.689 384.52 527.22C384.52 524.751 382.519 522.75 380.05 522.75C377.581 522.75 375.58 524.751 375.58 527.22C375.58 529.689 377.581 531.69 380.05 531.69Z" stroke="#000B32" stroke-width="2.23" stroke-linecap="round" stroke-linejoin="round"/>
<path d="M376.7 496.93L378.93 499.16L383.4 494.69" stroke="#79B953" stroke-width="2" stroke-linecap="round" stroke-linejoin="round"/>
<path d="M376.7 508.1V505.87C376.7 503.4 374.7 501.4 372.23 501.4H365.53C363.06 501.4 361.06 503.4 361.06 505.87V508.1" stroke="#000B32" stroke-width="2.23" stroke-linecap="round" stroke-linejoin="round"/>
<path d="M368.88 496.94C371.349 496.94 373.35 494.939 373.35 492.47C373.35 490.001 371.349 488 368.88 488C366.411 488 364.41 490.001 364.41 492.47C364.41 494.939 366.411 496.94 368.88 496.94Z" stroke="#000B32" stroke-width="2.23" stroke-linecap="round" stroke-linejoin="round"/>
<path d="M345.36 491.35L347.59 493.58L352.06 489.11" stroke="#79B953" stroke-width="2" stroke-linecap="round" stroke-linejoin="round"/>
<path d="M345.36 502.52V500.29C345.36 497.82 343.36 495.82 340.89 495.82H334.19C331.72 495.82 329.72 497.82 329.72 500.29V502.52" stroke="#000B32" stroke-width="2.23" stroke-linecap="round" stroke-linejoin="round"/>
<path d="M337.55 491.36C340.019 491.36 342.02 489.359 342.02 486.89C342.02 484.421 340.019 482.42 337.55 482.42C335.081 482.42 333.08 484.421 333.08 486.89C333.08 489.359 335.081 491.36 337.55 491.36Z" stroke="#000B32" stroke-width="2.23" stroke-linecap="round" stroke-linejoin="round"/>
<path d="M763.49 398.19V405.94" stroke="#000B32" stroke-width="3.88" stroke-linecap="round" stroke-linejoin="round"/>
<path d="M767.36 413.7H759.61" stroke="#000B32" stroke-width="3.88" stroke-linecap="round" stroke-linejoin="round"/>
<path d="M767.36 421.45H759.61" stroke="#000B32" stroke-width="3.88" stroke-linecap="round" stroke-linejoin="round"/>
<path d="M767.36 402.06H759.61" stroke="#000B32" stroke-width="3.88" stroke-linecap="round" stroke-linejoin="round"/>
<path d="M775.12 409.82H779C781.14 409.82 782.88 411.56 782.88 413.7V425.33C782.88 427.47 781.14 429.21 779 429.21H747.98C745.84 429.21 744.1 427.47 744.1 425.33V407.88C744.1 405.74 745.84 404 747.98 404H751.86" stroke="#000B32" stroke-width="3.88" stroke-linecap="round" stroke-linejoin="round"/>
<path d="M775.12 429.21V394.31C775.12 392.17 773.38 390.43 771.24 390.43H755.73C753.59 390.43 751.85 392.17 751.85 394.31V429.21" stroke="#000B32" stroke-width="3.88" stroke-linecap="round" stroke-linejoin="round"/>
<path d="M801.52 454.06V451.83C801.52 449.36 799.52 447.36 797.05 447.36H790.35C787.88 447.36 785.88 449.36 785.88 451.83V454.06" stroke="#000B32" stroke-width="2.23" stroke-linecap="round" stroke-linejoin="round"/>
<path d="M793.7 442.9C796.169 442.9 798.17 440.899 798.17 438.43C798.17 435.961 796.169 433.96 793.7 433.96C791.231 433.96 789.23 435.961 789.23 438.43C789.23 440.899 791.231 442.9 793.7 442.9Z" stroke="#000B32" stroke-width="2.23" stroke-linecap="round" stroke-linejoin="round"/>
<path d="M802.64 439.55L808.22 445.13" stroke="#B61913" stroke-width="2.23" stroke-linecap="round" stroke-linejoin="round"/>
<path d="M808.22 439.55L802.64 445.13" stroke="#B61913" stroke-width="2.23" stroke-linecap="round" stroke-linejoin="round"/>
<path d="M767.95 460.76V458.53C767.95 456.06 765.95 454.06 763.48 454.06H756.78C754.31 454.06 752.31 456.06 752.31 458.53V460.76" stroke="#000B32" stroke-width="2.23" stroke-linecap="round" stroke-linejoin="round"/>
<path d="M760.14 449.6C762.609 449.6 764.61 447.599 764.61 445.13C764.61 442.661 762.609 440.66 760.14 440.66C757.671 440.66 755.67 442.661 755.67 445.13C755.67 447.599 757.671 449.6 760.14 449.6Z" stroke="#000B32" stroke-width="2.23" stroke-linecap="round" stroke-linejoin="round"/>
<path d="M769.07 446.25L774.65 451.83" stroke="#B61913" stroke-width="2.23" stroke-linecap="round" stroke-linejoin="round"/>
<path d="M774.65 446.25L769.07 451.83" stroke="#B61913" stroke-width="2.23" stroke-linecap="round" stroke-linejoin="round"/>
<path d="M809.34 408.14L811.57 410.37L816.04 405.9" stroke="#79B953" stroke-width="2" stroke-linecap="round" stroke-linejoin="round"/>
<path d="M809.34 419.31V417.08C809.34 414.61 807.34 412.61 804.87 412.61H798.17C795.7 412.61 793.7 414.61 793.7 417.08V419.31" stroke="#000B32" stroke-width="2.23" stroke-linecap="round" stroke-linejoin="round"/>
<path d="M801.52 408.15C803.989 408.15 805.99 406.149 805.99 403.68C805.99 401.211 803.989 399.21 801.52 399.21C799.051 399.21 797.05 401.211 797.05 403.68C797.05 406.149 799.051 408.15 801.52 408.15Z" stroke="#000B32" stroke-width="2.23" stroke-linecap="round" stroke-linejoin="round"/>
<path d="M798.17 373.39L800.4 375.62L804.87 371.15" stroke="#79B953" stroke-width="2" stroke-linecap="round" stroke-linejoin="round"/>
<path d="M798.17 384.55V382.32C798.17 379.85 796.17 377.85 793.7 377.85H787C784.53 377.85 782.53 379.85 782.53 382.32V384.55" stroke="#000B32" stroke-width="2.23" stroke-linecap="round" stroke-linejoin="round"/>
<path d="M790.35 373.39C792.819 373.39 794.82 371.389 794.82 368.92C794.82 366.451 792.819 364.45 790.35 364.45C787.881 364.45 785.88 366.451 785.88 368.92C785.88 371.389 787.881 373.39 790.35 373.39Z" stroke="#000B32" stroke-width="2.23" stroke-linecap="round" stroke-linejoin="round"/>
<path d="M766.84 367.81L769.07 370.04L773.54 365.57" stroke="#79B953" stroke-width="2" stroke-linecap="round" stroke-linejoin="round"/>
<path d="M766.84 378.97V376.74C766.84 374.27 764.84 372.27 762.37 372.27H755.67C753.2 372.27 751.2 374.27 751.2 376.74V378.97" stroke="#000B32" stroke-width="2.23" stroke-linecap="round" stroke-linejoin="round"/>
<path d="M759.02 367.81C761.489 367.81 763.49 365.809 763.49 363.34C763.49 360.871 761.489 358.87 759.02 358.87C756.551 358.87 754.55 360.871 754.55 363.34C754.55 365.809 756.551 367.81 759.02 367.81Z" stroke="#000B32" stroke-width="2.23" stroke-linecap="round" stroke-linejoin="round"/>
<path d="M626.54 209.41V217.16" stroke="#000B32" stroke-width="3.88" stroke-linecap="round" stroke-linejoin="round"/>
<path d="M630.42 224.91H622.67" stroke="#000B32" stroke-width="3.88" stroke-linecap="round" stroke-linejoin="round"/>
<path d="M630.42 232.669H622.67" stroke="#000B32" stroke-width="3.88" stroke-linecap="round" stroke-linejoin="round"/>
<path d="M630.42 213.28H622.67" stroke="#000B32" stroke-width="3.88" stroke-linecap="round" stroke-linejoin="round"/>
<path d="M638.18 221.04H642.06C644.2 221.04 645.94 222.78 645.94 224.92V236.55C645.94 238.69 644.2 240.43 642.06 240.43H611.04C608.9 240.43 607.16 238.69 607.16 236.55V219.1C607.16 216.96 608.9 215.22 611.04 215.22H614.92" stroke="#000B32" stroke-width="3.88" stroke-linecap="round" stroke-linejoin="round"/>
<path d="M638.18 240.42V205.52C638.18 203.38 636.44 201.64 634.3 201.64H618.79C616.65 201.64 614.91 203.38 614.91 205.52V240.42" stroke="#000B32" stroke-width="3.88" stroke-linecap="round" stroke-linejoin="round"/>
<path d="M664.58 265.28V263.05C664.58 260.58 662.58 258.58 660.11 258.58H653.41C650.94 258.58 648.94 260.58 648.94 263.05V265.28" stroke="#000B32" stroke-width="2.23" stroke-linecap="round" stroke-linejoin="round"/>
<path d="M656.76 254.12C659.229 254.12 661.23 252.118 661.23 249.65C661.23 247.181 659.229 245.18 656.76 245.18C654.291 245.18 652.29 247.181 652.29 249.65C652.29 252.118 654.291 254.12 656.76 254.12Z" stroke="#000B32" stroke-width="2.23" stroke-linecap="round" stroke-linejoin="round"/>
<path d="M665.69 250.77L671.28 256.35" stroke="#B61913" stroke-width="2.23" stroke-linecap="round" stroke-linejoin="round"/>
<path d="M671.28 250.77L665.69 256.35" stroke="#B61913" stroke-width="2.23" stroke-linecap="round" stroke-linejoin="round"/>
<path d="M631.01 271.98V269.75C631.01 267.28 629.01 265.28 626.54 265.28H619.84C617.37 265.28 615.37 267.28 615.37 269.75V271.98" stroke="#000B32" stroke-width="2.23" stroke-linecap="round" stroke-linejoin="round"/>
<path d="M623.19 260.82C625.659 260.82 627.66 258.819 627.66 256.35C627.66 253.881 625.659 251.88 623.19 251.88C620.721 251.88 618.72 253.881 618.72 256.35C618.72 258.819 620.721 260.82 623.19 260.82Z" stroke="#000B32" stroke-width="2.23" stroke-linecap="round" stroke-linejoin="round"/>
<path d="M632.13 257.47L637.71 263.05" stroke="#B61913" stroke-width="2.23" stroke-linecap="round" stroke-linejoin="round"/>
<path d="M637.71 257.47L632.13 263.05" stroke="#B61913" stroke-width="2.23" stroke-linecap="round" stroke-linejoin="round"/>
<path d="M672.39 219.36L674.62 221.59L679.09 217.12" stroke="#79B953" stroke-width="2" stroke-linecap="round" stroke-linejoin="round"/>
<path d="M672.39 230.53V228.3C672.39 225.83 670.39 223.83 667.92 223.83H661.22C658.75 223.83 656.75 225.83 656.75 228.3V230.53" stroke="#000B32" stroke-width="2.23" stroke-linecap="round" stroke-linejoin="round"/>
<path d="M664.58 219.37C667.049 219.37 669.05 217.368 669.05 214.9C669.05 212.431 667.049 210.43 664.58 210.43C662.111 210.43 660.11 212.431 660.11 214.9C660.11 217.368 662.111 219.37 664.58 219.37Z" stroke="#000B32" stroke-width="2.23" stroke-linecap="round" stroke-linejoin="round"/>
<path d="M661.23 184.61L663.46 186.84L667.93 182.37" stroke="#79B953" stroke-width="2" stroke-linecap="round" stroke-linejoin="round"/>
<path d="M661.23 195.77V193.54C661.23 191.07 659.23 189.07 656.76 189.07H650.06C647.59 189.07 645.59 191.07 645.59 193.54V195.77" stroke="#000B32" stroke-width="2.23" stroke-linecap="round" stroke-linejoin="round"/>
<path d="M653.41 184.61C655.879 184.61 657.88 182.609 657.88 180.14C657.88 177.671 655.879 175.67 653.41 175.67C650.941 175.67 648.94 177.671 648.94 180.14C648.94 182.609 650.941 184.61 653.41 184.61Z" stroke="#000B32" stroke-width="2.23" stroke-linecap="round" stroke-linejoin="round"/>
<path d="M629.89 179.03L632.12 181.26L636.59 176.79" stroke="#79B953" stroke-width="2" stroke-linecap="round" stroke-linejoin="round"/>
<path d="M629.89 190.19V187.96C629.89 185.49 627.89 183.49 625.42 183.49H618.72C616.25 183.49 614.25 185.49 614.25 187.96V190.19" stroke="#000B32" stroke-width="2.23" stroke-linecap="round" stroke-linejoin="round"/>
<path d="M622.08 179.03C624.549 179.03 626.55 177.029 626.55 174.56C626.55 172.091 624.549 170.09 622.08 170.09C619.611 170.09 617.61 172.091 617.61 174.56C617.61 177.029 619.611 179.03 622.08 179.03Z" stroke="#000B32" stroke-width="2.23" stroke-linecap="round" stroke-linejoin="round"/>
<path d="M236.12 396.13V403.88" stroke="#000B32" stroke-width="3.88" stroke-linecap="round" stroke-linejoin="round"/>
<path d="M240 411.64H232.25" stroke="#000B32" stroke-width="3.88" stroke-linecap="round" stroke-linejoin="round"/>
<path d="M240 419.399H232.25" stroke="#000B32" stroke-width="3.88" stroke-linecap="round" stroke-linejoin="round"/>
<path d="M240 400.01H232.25" stroke="#000B32" stroke-width="3.88" stroke-linecap="round" stroke-linejoin="round"/>
<path d="M247.75 407.77H251.63C253.77 407.77 255.51 409.51 255.51 411.65V423.28C255.51 425.42 253.77 427.16 251.63 427.16H220.61C218.47 427.16 216.73 425.42 216.73 423.28V405.83C216.73 403.69 218.47 401.95 220.61 401.95H224.49" stroke="#000B32" stroke-width="3.88" stroke-linecap="round" stroke-linejoin="round"/>
<path d="M247.75 427.15V392.25C247.75 390.11 246.01 388.37 243.87 388.37H228.36C226.22 388.37 224.48 390.11 224.48 392.25V427.15" stroke="#000B32" stroke-width="3.88" stroke-linecap="round" stroke-linejoin="round"/>
<path d="M274.15 452.01V449.78C274.15 447.31 272.15 445.31 269.68 445.31H262.98C260.51 445.31 258.51 447.31 258.51 449.78V452.01" stroke="#000B32" stroke-width="2.23" stroke-linecap="round" stroke-linejoin="round"/>
<path d="M266.34 440.85C268.809 440.85 270.81 438.848 270.81 436.38C270.81 433.911 268.809 431.91 266.34 431.91C263.871 431.91 261.87 433.911 261.87 436.38C261.87 438.848 263.871 440.85 266.34 440.85Z" stroke="#000B32" stroke-width="2.23" stroke-linecap="round" stroke-linejoin="round"/>
<path d="M275.27 437.5L280.85 443.08" stroke="#B61913" stroke-width="2.23" stroke-linecap="round" stroke-linejoin="round"/>
<path d="M280.85 437.5L275.27 443.08" stroke="#B61913" stroke-width="2.23" stroke-linecap="round" stroke-linejoin="round"/>
<path d="M240.59 458.71V456.48C240.59 454.01 238.59 452.01 236.12 452.01H229.42C226.95 452.01 224.95 454.01 224.95 456.48V458.71" stroke="#000B32" stroke-width="2.23" stroke-linecap="round" stroke-linejoin="round"/>
<path d="M232.77 447.55C235.239 447.55 237.24 445.549 237.24 443.08C237.24 440.611 235.239 438.61 232.77 438.61C230.301 438.61 228.3 440.611 228.3 443.08C228.3 445.549 230.301 447.55 232.77 447.55Z" stroke="#000B32" stroke-width="2.23" stroke-linecap="round" stroke-linejoin="round"/>
<path d="M241.7 444.19L247.28 449.78" stroke="#B61913" stroke-width="2.23" stroke-linecap="round" stroke-linejoin="round"/>
<path d="M247.28 444.19L241.7 449.78" stroke="#B61913" stroke-width="2.23" stroke-linecap="round" stroke-linejoin="round"/>
<path d="M281.97 406.09L284.2 408.32L288.67 403.85" stroke="#79B953" stroke-width="2" stroke-linecap="round" stroke-linejoin="round"/>
<path d="M281.97 417.26V415.03C281.97 412.56 279.97 410.56 277.5 410.56H270.8C268.33 410.56 266.33 412.56 266.33 415.03V417.26" stroke="#000B32" stroke-width="2.23" stroke-linecap="round" stroke-linejoin="round"/>
<path d="M274.15 406.1C276.619 406.1 278.62 404.098 278.62 401.63C278.62 399.161 276.619 397.16 274.15 397.16C271.681 397.16 269.68 399.161 269.68 401.63C269.68 404.098 271.681 406.1 274.15 406.1Z" stroke="#000B32" stroke-width="2.23" stroke-linecap="round" stroke-linejoin="round"/>
<path d="M270.8 371.34L273.03 373.57L277.5 369.1" stroke="#79B953" stroke-width="2" stroke-linecap="round" stroke-linejoin="round"/>
<path d="M270.8 382.5V380.27C270.8 377.8 268.8 375.8 266.33 375.8H259.63C257.16 375.8 255.16 377.8 255.16 380.27V382.5" stroke="#000B32" stroke-width="2.23" stroke-linecap="round" stroke-linejoin="round"/>
<path d="M262.99 371.34C265.459 371.34 267.46 369.339 267.46 366.87C267.46 364.401 265.459 362.4 262.99 362.4C260.521 362.4 258.52 364.401 258.52 366.87C258.52 369.339 260.521 371.34 262.99 371.34Z" stroke="#000B32" stroke-width="2.23" stroke-linecap="round" stroke-linejoin="round"/>
<path d="M239.47 365.75L241.7 367.98L246.17 363.51" stroke="#79B953" stroke-width="2" stroke-linecap="round" stroke-linejoin="round"/>
<path d="M239.47 376.92V374.69C239.47 372.22 237.47 370.22 235 370.22H228.3C225.83 370.22 223.83 372.22 223.83 374.69V376.92" stroke="#000B32" stroke-width="2.23" stroke-linecap="round" stroke-linejoin="round"/>
<path d="M231.65 365.76C234.119 365.76 236.12 363.759 236.12 361.29C236.12 358.821 234.119 356.82 231.65 356.82C229.181 356.82 227.18 358.821 227.18 361.29C227.18 363.759 229.181 365.76 231.65 365.76Z" stroke="#000B32" stroke-width="2.23" stroke-linecap="round" stroke-linejoin="round"/>
<path d="M391.18 514.09C391.18 514.09 454.72 510.95 474.89 449.48" stroke="#79B953" stroke-width="1.86" stroke-linecap="round" stroke-linejoin="round"/>
<path d="M478.88 452.1L476.78 443.08L470.01 449.41L478.88 452.1Z" fill="#79B953"/>
<path d="M739.47 396.72C739.47 396.72 722.18 352.85 654.14 363.15" stroke="#79B953" stroke-width="2" stroke-linecap="round" stroke-linejoin="round"/>
<path d="M655.92 369.04L653.96 357.05L648.95 364.02L655.92 369.04Z" fill="#79B953"/>
<path d="M600.57 247.12C600.57 247.12 565.22 262.62 565.72 305.1" stroke="#79B953" stroke-width="1.86" stroke-linecap="round" stroke-linejoin="round"/>
<path d="M571.37 304.14L560.09 304.55L565.93 309.98L571.37 304.14Z" fill="#79B953"/>
<path d="M394.56 291.92C394.56 291.92 437.05 278.83 459.39 308.92" stroke="#79B953" stroke-width="1.86" stroke-linecap="round" stroke-linejoin="round"/>
<path d="M463.58 305.14L454.27 311.53L462.12 312.98L463.58 305.14Z" fill="#79B953"/>
<path d="M293.06 424.44C293.06 424.44 357.21 453.81 409.17 423.99" stroke="#79B953" stroke-width="1.86" stroke-linecap="round" stroke-linejoin="round"/>
<path d="M405.6 419.53L411.43 429.2L413.35 421.45L405.6 419.53Z" fill="#79B953"/>
<path d="M538.04 650.89C537.02 655.71 534.68 660.15 531.28 663.72C521.5 653.46 521.5 637.32 531.28 627.06C521.16 627.06 512.95 635.27 512.95 645.4C512.95 655.52 521.16 663.73 531.29 663.73C539.29 663.73 546.37 658.53 548.77 650.9" stroke="#000B32" stroke-width="3.67" stroke-linecap="round" stroke-linejoin="round"/>
<path d="M512.95 645.39H528.53" stroke="#000B32" stroke-width="3.67" stroke-linecap="round" stroke-linejoin="round"/>
<path d="M545.94 634.4V630.73C545.94 628.71 544.3 627.06 542.27 627.06C540.24 627.06 538.6 628.7 538.6 630.73V634.4" stroke="#000B32" stroke-width="3.67" stroke-linecap="round" stroke-linejoin="round"/>
<path d="M547.78 634.4H536.78C535.769 634.4 534.95 635.219 534.95 636.23V641.74C534.95 642.751 535.769 643.57 536.78 643.57H547.78C548.791 643.57 549.61 642.751 549.61 641.74V636.23C549.61 635.219 548.791 634.4 547.78 634.4Z" stroke="#000B32" stroke-width="3.67" stroke-linecap="round" stroke-linejoin="round"/>
<path d="M872.76 250.92C871.74 255.74 869.4 260.18 866 263.75C856.22 253.49 856.22 237.35 866 227.09C855.88 227.09 847.67 235.3 847.67 245.43C847.67 255.55 855.88 263.76 866.01 263.76C874.01 263.76 881.09 258.56 883.49 250.93" stroke="#000B32" stroke-width="3.67" stroke-linecap="round" stroke-linejoin="round"/>
<path d="M847.68 245.42H863.26" stroke="#000B32" stroke-width="3.67" stroke-linecap="round" stroke-linejoin="round"/>
<path d="M880.67 234.43V230.76C880.67 228.74 879.03 227.09 877 227.09C874.97 227.09 873.33 228.73 873.33 230.76V234.43" stroke="#000B32" stroke-width="3.67" stroke-linecap="round" stroke-linejoin="round"/>
<path d="M882.5 234.43H871.5C870.489 234.43 869.67 235.249 869.67 236.26V241.77C869.67 242.78 870.489 243.6 871.5 243.6H882.5C883.511 243.6 884.33 242.78 884.33 241.77V236.26C884.33 235.249 883.511 234.43 882.5 234.43Z" stroke="#000B32" stroke-width="3.67" stroke-linecap="round" stroke-linejoin="round"/>
<path d="M472.16 114.15C471.14 118.97 468.8 123.41 465.4 126.98C455.62 116.72 455.62 100.58 465.4 90.3198C455.28 90.3198 447.07 98.5298 447.07 108.66C447.07 118.78 455.28 126.99 465.41 126.99C473.41 126.99 480.49 121.79 482.89 114.16" stroke="#000B32" stroke-width="3.67" stroke-linecap="round" stroke-linejoin="round"/>
<path d="M447.07 108.65H462.65" stroke="#000B32" stroke-width="3.67" stroke-linecap="round" stroke-linejoin="round"/>
<path d="M480.07 97.6598V93.9898C480.07 91.9698 478.43 90.3198 476.4 90.3198C474.37 90.3198 472.73 91.9598 472.73 93.9898V97.6598" stroke="#000B32" stroke-width="3.67" stroke-linecap="round" stroke-linejoin="round"/>
<path d="M481.9 97.6597H470.9C469.889 97.6597 469.07 98.479 469.07 99.4897V105C469.07 106.01 469.889 106.83 470.9 106.83H481.9C482.911 106.83 483.73 106.01 483.73 105V99.4897C483.73 98.479 482.911 97.6597 481.9 97.6597Z" stroke="#000B32" stroke-width="3.67" stroke-linecap="round" stroke-linejoin="round"/>
<path d="M130.06 316.73C129.04 321.55 126.7 325.99 123.3 329.56C113.52 319.3 113.52 303.16 123.3 292.9C113.18 292.9 104.97 301.11 104.97 311.24C104.97 321.36 113.18 329.57 123.31 329.57C131.31 329.57 138.39 324.37 140.79 316.74" stroke="#000B32" stroke-width="3.67" stroke-linecap="round" stroke-linejoin="round"/>
<path d="M104.97 311.23H120.55" stroke="#000B32" stroke-width="3.67" stroke-linecap="round" stroke-linejoin="round"/>
<path d="M137.96 300.23V296.56C137.96 294.54 136.32 292.89 134.29 292.89C132.26 292.89 130.62 294.53 130.62 296.56V300.23" stroke="#000B32" stroke-width="3.67" stroke-linecap="round" stroke-linejoin="round"/>
<path d="M139.8 300.23H128.8C127.789 300.23 126.97 301.049 126.97 302.06V307.57C126.97 308.581 127.789 309.4 128.8 309.4H139.8C140.811 309.4 141.63 308.581 141.63 307.57V302.06C141.63 301.049 140.811 300.23 139.8 300.23Z" stroke="#000B32" stroke-width="3.67" stroke-linecap="round" stroke-linejoin="round"/>
<path d="M590.88 418.07C590.88 418.07 487.83 493.52 529.37 600.56" stroke="#000B32" stroke-width="2" stroke-linecap="round" stroke-linejoin="round"/>
<path d="M534.82 597.58L523.49 601.96L531.34 605.43L534.82 597.58Z" fill="#000B32"/>
<path d="M533.48 353.4C544.09 363.27 445.87 259.12 462.5 150.57" stroke="#000B32" stroke-width="2" stroke-linecap="round" stroke-linejoin="round"/>
<path d="M456.45 150.47L468.46 152.31L463.37 145.39L456.45 150.47Z" fill="#000B32"/>
<path d="M607.59 351.95C607.59 351.95 705.39 244.03 830.67 245.08" stroke="#000B32" stroke-width="2" stroke-linecap="round" stroke-linejoin="round"/>
<path d="M829.89 239.08L829.82 251.23L835.93 245.18L829.89 239.08Z" fill="#000B32"/>
<path d="M421.62 384.55C421.62 384.55 344.61 306.71 161.66 312.78" stroke="#000B32" stroke-width="2" stroke-linecap="round" stroke-linejoin="round"/>
<path d="M162.64 318.89L162.3 306.74L156.4 312.98L162.64 318.89Z" fill="#000B32"/>
<path d="M465.54 74.5698V59.5698" stroke="#79B953" stroke-width="1.86" stroke-linecap="round" stroke-linejoin="round"/>
<path d="M470.17 60.9199L465.54 52.8999L460.9 60.9199H470.17Z" fill="#79B953"/>
<path d="M531.34 674.74V689.75" stroke="#79B953" stroke-width="1.86" stroke-linecap="round" stroke-linejoin="round"/>
<path d="M526.71 688.39L531.34 696.41L535.98 688.39H526.71Z" fill="#79B953"/>
<path d="M42.64 318.84H55.65" stroke="#000B32" stroke-width="3.25" stroke-linecap="round" stroke-linejoin="round"/>
<path d="M37.76 325.34H67.02" stroke="#000B32" stroke-width="3.25" stroke-linecap="round" stroke-linejoin="round"/>
<path d="M55.64 325.34C61.93 325.34 67.02 320.24 67.02 313.96C67.02 307.68 61.92 302.58 55.64 302.58H54.01" stroke="#000B32" stroke-width="3.25" stroke-linecap="round" stroke-linejoin="round"/>
<path d="M47.51 312.34H50.76" stroke="#000B32" stroke-width="3.25" stroke-linecap="round" stroke-linejoin="round"/>
<path d="M47.51 309.09C45.71 309.09 44.26 307.63 44.26 305.84V299.34H54.01V305.84C54.01 307.64 52.55 309.09 50.76 309.09H47.51Z" stroke="#000B32" stroke-width="3.25" stroke-linecap="round" stroke-linejoin="round"/>
<path d="M52.39 299.33V294.45C52.39 293.55 51.66 292.82 50.76 292.82H47.51C46.61 292.82 45.88 293.55 45.88 294.45V299.33" stroke="#000B32" stroke-width="3.25" stroke-linecap="round" stroke-linejoin="round"/>
<path d="M4.97 323.9H25.71C27.35 323.9 28.67 322.57 28.67 320.94V301.68L21.26 294.27H7.93C6.29 294.27 4.97 295.6 4.97 297.23V303.16" stroke="#000B32" stroke-width="2.96" stroke-linecap="round" stroke-linejoin="round"/>
<path d="M19.78 294.27V300.2C19.78 301.84 21.11 303.16 22.74 303.16H28.67" stroke="#000B32" stroke-width="2.96" stroke-linecap="round" stroke-linejoin="round"/>
<path d="M6.45 309.09L2 313.54L6.45 317.99" stroke="#000B32" stroke-width="2.96" stroke-linecap="round" stroke-linejoin="round"/>
<path d="M12.37 317.98L16.82 313.53L12.37 309.08" stroke="#000B32" stroke-width="2.96" stroke-linecap="round" stroke-linejoin="round"/>
<path d="M538.99 735.02H552" stroke="#000B32" stroke-width="3.25" stroke-linecap="round" stroke-linejoin="round"/>
<path d="M534.11 741.52H563.37" stroke="#000B32" stroke-width="3.25" stroke-linecap="round" stroke-linejoin="round"/>
<path d="M551.99 741.52C558.28 741.52 563.37 736.42 563.37 730.14C563.37 723.86 558.27 718.76 551.99 718.76H550.36" stroke="#000B32" stroke-width="3.25" stroke-linecap="round" stroke-linejoin="round"/>
<path d="M543.86 728.52H547.11" stroke="#000B32" stroke-width="3.25" stroke-linecap="round" stroke-linejoin="round"/>
<path d="M543.86 725.26C542.06 725.26 540.61 723.8 540.61 722.01V715.51H550.36V722.01C550.36 723.81 548.9 725.26 547.11 725.26H543.86Z" stroke="#000B32" stroke-width="3.25" stroke-linecap="round" stroke-linejoin="round"/>
<path d="M548.74 715.51V710.63C548.74 709.73 548.01 709 547.11 709H543.86C542.96 709 542.23 709.73 542.23 710.63V715.51" stroke="#000B32" stroke-width="3.25" stroke-linecap="round" stroke-linejoin="round"/>
<path d="M501.31 740.08H522.05C523.69 740.08 525.01 738.75 525.01 737.12V717.86L517.6 710.45H504.26C502.62 710.45 501.3 711.78 501.3 713.41V719.34" stroke="#000B32" stroke-width="2.96" stroke-linecap="round" stroke-linejoin="round"/>
<path d="M516.13 710.45V716.38C516.13 718.02 517.46 719.34 519.09 719.34H525.02" stroke="#000B32" stroke-width="2.96" stroke-linecap="round" stroke-linejoin="round"/>
<path d="M502.8 725.26L498.35 729.71L502.8 734.16" stroke="#000B32" stroke-width="2.96" stroke-linecap="round" stroke-linejoin="round"/>
<path d="M508.72 734.15L513.17 729.7L508.72 725.25" stroke="#000B32" stroke-width="2.96" stroke-linecap="round" stroke-linejoin="round"/>
<path d="M968.82 256.87H981.83" stroke="#000B32" stroke-width="3.25" stroke-linecap="round" stroke-linejoin="round"/>
<path d="M963.94 263.38H993.2" stroke="#000B32" stroke-width="3.25" stroke-linecap="round" stroke-linejoin="round"/>
<path d="M981.83 263.38C988.12 263.38 993.21 258.28 993.21 252C993.21 245.72 988.11 240.62 981.83 240.62H980.2" stroke="#000B32" stroke-width="3.25" stroke-linecap="round" stroke-linejoin="round"/>
<path d="M973.7 250.37H976.95" stroke="#000B32" stroke-width="3.25" stroke-linecap="round" stroke-linejoin="round"/>
<path d="M973.7 247.12C971.9 247.12 970.45 245.66 970.45 243.87V237.37H980.2V243.87C980.2 245.67 978.74 247.12 976.95 247.12H973.7Z" stroke="#000B32" stroke-width="3.25" stroke-linecap="round" stroke-linejoin="round"/>
<path d="M978.58 237.36V232.48C978.58 231.58 977.85 230.85 976.95 230.85H973.7C972.8 230.85 972.07 231.58 972.07 232.48V237.36" stroke="#000B32" stroke-width="3.25" stroke-linecap="round" stroke-linejoin="round"/>
<path d="M931.15 261.94H951.89C953.53 261.94 954.85 260.61 954.85 258.98V239.72L947.44 232.31H934.1C932.46 232.31 931.14 233.64 931.14 235.27V241.2" stroke="#000B32" stroke-width="2.96" stroke-linecap="round" stroke-linejoin="round"/>
<path d="M945.97 232.3V238.23C945.97 239.87 947.3 241.19 948.93 241.19H954.86" stroke="#000B32" stroke-width="2.96" stroke-linecap="round" stroke-linejoin="round"/>
<path d="M932.63 247.12L928.18 251.57L932.63 256.02" stroke="#000B32" stroke-width="2.96" stroke-linecap="round" stroke-linejoin="round"/>
<path d="M938.56 256.01L943.01 251.56L938.56 247.11" stroke="#000B32" stroke-width="2.96" stroke-linecap="round" stroke-linejoin="round"/>
<path d="M473.11 28.02H486.12" stroke="#000B32" stroke-width="3.25" stroke-linecap="round" stroke-linejoin="round"/>
<path d="M468.23 34.52H497.49" stroke="#000B32" stroke-width="3.25" stroke-linecap="round" stroke-linejoin="round"/>
<path d="M486.12 34.5198C492.41 34.5198 497.5 29.4198 497.5 23.1398C497.5 16.8598 492.4 11.7598 486.12 11.7598H484.49" stroke="#000B32" stroke-width="3.25" stroke-linecap="round" stroke-linejoin="round"/>
<path d="M477.99 21.52H481.24" stroke="#000B32" stroke-width="3.25" stroke-linecap="round" stroke-linejoin="round"/>
<path d="M477.99 18.2598C476.19 18.2598 474.74 16.7998 474.74 15.0098V8.50977H484.49V15.0098C484.49 16.8098 483.03 18.2598 481.24 18.2598H477.99Z" stroke="#000B32" stroke-width="3.25" stroke-linecap="round" stroke-linejoin="round"/>
<path d="M482.87 8.51V3.63C482.87 2.73 482.14 2 481.24 2H477.99C477.09 2 476.36 2.73 476.36 3.63V8.51" stroke="#000B32" stroke-width="3.25" stroke-linecap="round" stroke-linejoin="round"/>
<path d="M435.44 33.0802H456.18C457.82 33.0802 459.14 31.7502 459.14 30.1202V10.8602L451.73 3.4502H438.39C436.75 3.4502 435.43 4.7802 435.43 6.4102V12.3402" stroke="#000B32" stroke-width="2.96" stroke-linecap="round" stroke-linejoin="round"/>
<path d="M450.26 3.4502V9.3802C450.26 11.0202 451.59 12.3402 453.22 12.3402H459.15" stroke="#000B32" stroke-width="2.96" stroke-linecap="round" stroke-linejoin="round"/>
<path d="M436.92 18.2603L432.47 22.7103L436.92 27.1603" stroke="#000B32" stroke-width="2.96" stroke-linecap="round" stroke-linejoin="round"/>
<path d="M442.85 27.15L447.3 22.7L442.85 18.25" stroke="#000B32" stroke-width="2.96" stroke-linecap="round" stroke-linejoin="round"/>
<path d="M99.6299 311.23H84.6199" stroke="#79B953" stroke-width="1.86" stroke-linecap="round" stroke-linejoin="round"/>
<path d="M85.98 306.6L77.96 311.23L85.98 315.86V306.6Z" fill="#79B953"/>
<path d="M894.82 247.65H909.83" stroke="#79B953" stroke-width="1.86" stroke-linecap="round" stroke-linejoin="round"/>
<path d="M908.47 252.29L916.49 247.65L908.47 243.02V252.29Z" fill="#79B953"/>
<path d="M431.87 349.06H630.82C636.205 349.06 640.57 353.425 640.57 358.81V411.18C640.57 416.565 636.205 420.93 630.82 420.93H431.87C426.485 420.93 422.12 416.565 422.12 411.18V358.81C422.12 353.425 426.485 349.06 431.87 349.06Z" fill="#000B32" stroke="#000B32"/>
<path d="M465.78 366V400.28H481.97V405.5H459.25V366H465.78Z" fill="white" stroke="white"/>
<path d="M493.27 366.01V389.741C493.27 391.335 493.487 392.79 493.927 394.099C494.366 395.407 495.008 396.537 495.846 397.482C496.69 398.432 497.722 399.154 498.934 399.67C500.157 400.191 501.525 400.44 503.04 400.44H503.848L503.825 400.393C505.027 400.32 506.132 400.078 507.136 399.65C508.35 399.133 509.37 398.412 510.21 397.487L510.215 397.482C511.042 396.548 511.684 395.428 512.124 394.12C512.564 392.81 512.78 391.355 512.78 389.76V366.01H519.31V389.76C519.31 392.115 518.929 394.283 518.183 396.261C517.426 398.242 516.351 399.953 514.963 401.38C513.564 402.807 511.864 403.93 509.854 404.736C507.852 405.539 505.576 405.951 503.04 405.951C500.503 405.951 498.198 405.538 496.196 404.736C494.186 403.93 492.485 402.808 491.087 401.38C489.688 399.953 488.615 398.243 487.868 396.264C487.121 394.286 486.74 392.116 486.74 389.76V366.01H493.27Z" fill="white" stroke="white"/>
<path d="M545.96 365.56C548.874 365.56 551.406 366.041 553.625 366.981C555.716 367.867 557.5 369.004 558.999 370.391L556.734 373.538L556.727 373.548C556.608 373.722 556.457 373.882 556.272 374.018C556.164 374.098 555.956 374.17 555.6 374.17C555.418 374.17 555.208 374.118 554.965 373.989C554.676 373.835 554.362 373.654 554.032 373.427L554.026 373.423L554.02 373.418L553.438 373.05C553.232 372.921 553.012 372.784 552.78 372.643L552.775 372.64C552.278 372.344 551.711 372.072 551.076 371.833L551.074 371.832L550.571 371.658C550.052 371.49 549.481 371.343 548.856 371.219C548.007 371.051 547.034 370.97 545.95 370.97C544.197 370.97 542.568 371.261 541.077 371.858L540.781 371.981C539.214 372.65 537.854 373.634 536.726 374.909C535.595 376.185 534.724 377.746 534.106 379.559C533.485 381.381 533.18 383.457 533.18 385.75C533.18 388.045 533.506 390.154 534.18 392V392C534.839 393.823 535.751 395.381 536.9 396.646C538.048 397.908 539.406 398.88 540.96 399.558L540.963 399.559C542.517 400.227 544.195 400.57 545.98 400.57C547.029 400.57 547.982 400.509 548.836 400.396C549.696 400.282 550.499 400.095 551.232 399.843C551.97 399.59 552.662 399.254 553.318 398.858C553.978 398.46 554.622 397.97 555.252 397.392L555.253 397.393C555.41 397.252 555.565 397.146 555.737 397.055C555.881 396.989 556.015 396.96 556.15 396.96L556.152 396.951C556.372 396.955 556.576 397.029 556.777 397.201L556.866 397.284L559.525 400.167C557.987 401.982 556.122 403.376 553.923 404.375C551.603 405.418 548.797 405.95 545.49 405.95C542.537 405.95 539.906 405.45 537.577 404.451C535.237 403.446 533.246 402.065 531.597 400.29C529.947 398.513 528.68 396.393 527.791 393.912C526.903 391.432 526.46 388.72 526.46 385.76C526.46 382.804 526.941 380.045 527.887 377.579C528.834 375.108 530.169 372.985 531.88 371.207C533.59 369.429 535.642 368.046 538.032 367.051C540.415 366.059 543.048 365.56 545.96 365.56Z" fill="white" stroke="white"/>
<path d="M572.43 366V405.5H565.87V366H572.43Z" fill="white" stroke="white"/>
<path d="M597.42 365.99C600.445 365.99 603.182 366.481 605.635 367.455C608.098 368.432 610.199 369.786 611.937 371.515C613.676 373.243 615.029 375.325 615.996 377.746C616.959 380.16 617.44 382.826 617.44 385.74V385.75C617.44 388.663 616.95 391.33 615.995 393.746C615.029 396.166 613.675 398.247 611.936 399.986C610.199 401.724 608.098 403.078 605.637 404.045C603.184 405.009 600.446 405.49 597.42 405.49H582.49V365.99H597.42Z" fill="white" stroke="white"/>
<path d="M598.61 382.1C604.376 382.1 609.05 380.542 609.05 378.62C609.05 376.698 604.376 375.14 598.61 375.14C592.844 375.14 588.17 376.698 588.17 378.62C588.17 380.542 592.844 382.1 598.61 382.1Z" stroke="#000B32" stroke-width="3" stroke-miterlimit="10"/>
<path d="M588.17 386.73C588.17 388.05 590.41 389.26 593.97 389.85" stroke="#000B32" stroke-width="3" stroke-miterlimit="10"/>
<path d="M609.05 383.6V378.61" stroke="#000B32" stroke-width="3" stroke-miterlimit="10"/>
<path d="M588.17 378.62V394.85C588.17 396.4 591.22 397.76 595.67 398.19" stroke="#000B32" stroke-width="3" stroke-miterlimit="10"/>
<path d="M598.61 386.73V391.37H603.25" stroke="#000B32" stroke-width="3" stroke-miterlimit="10"/>
<path d="M599.77 396.01C601.69 398.57 605.33 399.09 607.89 397.17C609.35 396.07 610.21 394.36 610.21 392.53C610.21 389.65 607.87 387.31 604.99 387.31C603.45 387.31 602.04 387.94 601.04 388.95L598.62 391.37" stroke="#000B32" stroke-width="3" stroke-miterlimit="10"/>
<path d="M916.96 434.34L915.42 429.27L911.54 426.17L903.76 425.56L900.37 421.83L898.71 416.79L899.51 414.24L901.42 412.31L903.06 409.13L903.35 405.36H903.34L903.1 402.34L903.77 399.89L906.81 397.83L908.91 394.43V394.41L908.36 390.79L906.95 386.96L906.5 383.02L910.3 378.12L911.33 376.41L911.93 374.01L912.63 365.44L912.04 359.8L914.04 350.72L912.92 346.29L911.25 344.4L904.98 339.67L901.03 333.68L899.1 331.72V331.68H899.08L898.11 331.07L897.11 330.89L896.11 331.13L890.95 334.3L886.54 339.67L883.53 345.83L883.56 350.79L879.07 351.12L875.53 350.29L872.6 350.92L869.96 355.64L869.2 359.01L869.12 361.26L868.67 363.3L866.88 366.05L859.07 370.29L854.42 371.75L850.65 371.69L842.76 369.36L838.64 367.09L831.47 360.55L811.95 354.71L807.38 351.36L805 348.13L804.66 345.65L805.17 342.77L805.49 336.54L806.18 334L806.16 332.43L805.43 331.64L804.33 331.74L803.54 331.09V331.07L803.79 328.07L769.42 317.94L766.4 317.54L756.94 318.89L753.55 318.05L749.84 319.31L738.8 317.65L734.71 316.5L734.47 314.05L736.53 311.16L739.24 308.27L740.89 304.7L740.71 299.05L739.13 294.82L737.12 291.03L735.66 286.67L735.94 277.74L738.9 268.73L741.8 263.61L747.4 253.71L753.41 246.2L754.06 244.36L754.9 239.67L755.69 237.28L762.5 228.34L764.16 224.27L764.11 213.05L758.89 208.59L752.18 205.65L746.73 197.74L746.39 196.27L745.29 191.52L695.75 161.62L688.78 160.1L682.1 160.19L679.63 156.43L669.76 156.55L649.82 154.5L646.47 155.9L643.63 159.02L637.15 161.16L630.16 161.89L625.77 160.78L620.56 156.93L617.88 154.29L617.84 152.45L621.12 151.66H621.11L616.46 147.32L610.62 143.96L605.83 143.78L604.26 148.98H604.25L605.71 150.6L605.73 150.62L604.88 150.64L596.3 150.83L595.94 149.12L595.49 147.08L594.55 145.92L594.07 145.33L593.29 143.18L593.86 141.44L596.23 137.83L596.69 136.83L595.5 134.17L593.75 133.83L591.8 134.25L589.96 133.84L588.59 131.74L587.18 128.68L585.45 126.08L583.15 125.32L581.55 127.02L580.65 132.8L578.45 134.27L576.7 132.97L576.05 129.75L575.86 126.33L575.57 124.4L572.3 122.93L567.83 122.69L565.01 124.33L566.69 128.49V128.51L564 129.9L554.42 131.85L552.41 131.8L551.01 132.65L548.62 136.23L547.78 138.15L546.46 143.47L544.57 145.25L540.05 147.76L538.32 149.76L538.13 151.71L538.88 153.66L539.32 155.91L538.2 158.78V158.8L540.98 159.84L541.88 159.97L546.48 163.45L550.16 165.55L553.34 165.41L555.98 164.04L558.44 162.25L561.11 160.89L569.77 159.37L572.28 159.79L574.42 160.67L575.15 160.96L576.76 161.11L575.77 167.4L574.62 166.82L574.49 165.18L574.34 164.75L573.56 164.78L572.61 165.14L571.96 165.7L571.57 167.16L571.86 168.37L572.3 169.42L572.37 170.32V170.34L572.16 172.13L572.27 174.02L572.07 176.02L571.35 177.28L570.91 178.07L568.51 178.88L566.97 176.99L566.53 176.43L564.4 172.86L561.62 170.29L556.27 170.86L550.8 174.52L548.75 179.06L548.53 180.31L543.63 181.14L543 181.25L531.56 181.21L529.86 180.76L524.77 179.41L523.44 178.55L523 178.26L521.75 175.71L520.77 173.16L519.83 172.01L519.28 171.95L517.76 171.79L514.35 170.75L513.11 170.37L509.88 170.39L500.24 172.02L499.31 172.62L498.42 173.91L497.22 175.21L493.93 176.19L490.05 178.3L489.68 178.58L488.58 179.43L487.08 181.18L486.34 182.53L485.53 183.68L483.8 184.86L477.76 186.21L475.75 186.66L452.47 186.58L452.35 186.28L452.01 185.45L451.66 182.96L451.1 180.47L450.33 179.67L450.01 179.34L446.62 179.12L438.47 178.59L435.98 177.3L433.67 180.89L432.71 182.39L429.81 185.79L426.44 187.68L419.34 189.12L416.89 189.61L411.5 190.69L408.62 190.28L407.57 190.13L406.94 189.79L405.04 188.77L400.32 186.22L398.35 185.16H398.37L403.04 185.24L404.95 183.4L407.35 176.77H407.34L403.29 177.18L394.35 179.8L394.11 180.03L387.74 182.23L383.4 184.59L382.39 185.42L375.58 190.95L375.99 191.12L378.94 193.43H379.56V194.09L379.58 196.08L378.99 197.21L378.79 197.59L377.36 198.06L375.52 197.64L375.25 197.78L374.45 198.19L374.27 198.82L374.21 199.03L374.6 200.1L375.87 201.93L376.04 202.59L376.01 203.29L375.77 204.02L375.46 204.48L372.66 206.93L370.36 206.57L368.9 205.62L368.04 205.07L365.28 204.04L363.17 204.65V206.27L363.39 206.69L364.05 207.94L364.49 208.43L364.64 208.59L364.86 208.9L365.51 209.83L365.8 211.33L365.34 213.23L365.2 213.81L364.95 214.14L364.19 215.12L362.25 217.61L361.6 218.44L360.85 218.73L358.42 219.68L357.11 220.19L356.61 220.39L349.15 219.99L344.14 219.72L339.38 220.66L332.55 223.53L331.34 223.76L329.96 223.16L329.26 222.19L329.12 221.91L328.78 221.24L328.24 220.78L328.06 220.63L322.79 218.92L321.88 218.35L318.93 216.51L318.23 213.38L317.96 212.18L321.33 204.71L316.44 205.12L314.48 204.77L314.07 204.7L311.75 203.31L307.54 202.37L298.58 203.8L293.96 203.04L292.36 201.77L290.74 201.33L289.11 201.72L287.5 202.94L286.66 203.18L284.15 203.91L284.43 206L284.55 206.87L286.34 210.56L286.5 211.2L287.15 213.75L286.17 215.3L285.76 215.95L285.01 216.58L283.06 218.21L280.81 219.46L280.12 219.84L278.94 220.08L275.41 220.81L275.16 224.34L275.05 225.81L270.37 228.46L269.62 229.41L267.67 231.89L266.02 234.86L265.38 236L264.43 239.38L285.82 237.61L289.15 236.08L289.82 236.64L291.82 238.31L293.81 240.19L294.47 240.82L296.3 243.54L294.86 246.42L293.15 247.49L291.31 247.96L289.41 249.04L286.74 252.55L285.78 252.92L284.14 253.1L280.7 256.54L280.41 257.81L279.46 261.95L279.94 267L280.09 268.55L267.7 277.35L262.38 282.66L261.5 284.07L258.85 288.29L258.53 288.57L258.4 288.69L246.85 299.03L241.41 300.82L241.55 305.34L238.91 306.65L238.25 307.1L237.52 308.77L232.98 310.31L232.54 310.73L231.22 311.98L229.34 315.1L228.71 316.14L229.23 317.38L230.79 321.11L227.39 325.83L226.54 327.01L214.28 335.98L194.7 341.7L185.81 346.61L182.89 355.85L183.6 358.27L185.91 362.93L186.43 365.88L186.32 366.9L186.04 369.54L185.5 370.81L185.29 371.3L184.98 372.06L184.6 372.72L183.68 374.31L181.39 380.73L180.63 382.87L180.34 384.16L180.79 385.66L181.72 386.98L183.06 388.49V389.39L183.02 392.99L182.49 394.52L182.27 395.16L180.18 397.71L178.24 399.09L176.44 399.99L172.12 402.15L168.66 405.9L167.22 407.46L165.39 408.94L152.18 415.81L144.81 422.23L127.13 437.64L125.24 440L124.61 440.79L124.72 441.67L125.06 444.3L129.35 449.36L124.64 455.01L122.68 457.36L116.02 468.12L113.88 470.33L113.12 471.91L113.08 473.27L113.44 474.54L113.86 475.63L113.88 475.84L113.96 476.46L113.93 478.49L114.25 480.27L113.96 481.59L113.86 482.03L111.68 483.98L121.39 490.31L124 493.3L126.13 497.36L126.3 500.31L122.82 507.55L120 513.44L119.35 515.5L117.84 522.98L117.68 525.83L117.76 528.29L116.92 530.05L112.88 531.2L111.8 531.28L110.7 531.12L109.27 530.62L108.94 530.59L108.62 530.61L108.33 530.69L97.19 535.78L92.61 538.49L91.86 541.66L93.67 545.35L96.8 549.52L96.17 551.8L94.68 554.42L92.05 560.1L96.58 557.6L104.95 555.83L113.33 555.73L119.49 558.69L125.54 555.79L135.2 545.02L147.13 537.53L152 532.62L151.2 526.47L149.9 525.89L146.81 527.22L144.91 526.18L144.18 525.02L142.52 520.61L142.46 519.54L140.88 514.97L140.63 514.02L140.19 512.31L141.26 508.73L145.25 503.55L146.84 501.56L150.65 496.77L155.2 493.01L156.72 491.76L158.14 491.34L162.4 490.07L168.4 489.93L172.63 488.96L174.39 488.56L190.2 478.19L201.96 476.13L214.13 476.77L220.91 478.66L241.24 484.34L243.16 485.33L243.96 485.74L245.61 488.42L245.76 490.95L245.81 491.69L245.92 493.46L244.96 496.57L244.56 497.87L239.62 503.46L238.57 506.51L241.96 512.62L248.34 519.66L252.37 526.94L245.65 539.49L242.28 548.93L240.44 557.99L241.96 562.45L256.54 565.96L259.3 568.75L259.24 569.31L259.07 570.76L258.06 572.29L257.75 572.76L256.23 574.55L255.35 575.91L255.89 575.65L256.16 578.29V581.07L255.91 581.3L255.95 583.37L255.55 584.47L255.65 585.31L257.25 586.56L258.99 586.84L259.35 586.58L260.42 585.8L261.42 584.79L261.75 584.46L263.3 583.86L267.47 585.77L270.35 589.14L279.71 600.09L280.38 600.56L280.59 600.7L280.75 601.41L281.22 603.55L282.74 607.69L283.25 609.07L283.56 610.29L284.49 613.95L285.16 615.85L285.44 616.64L285.8 617.26L286.67 618.76L294.83 628.19L299.08 630.84L304.73 632.07H310.75L316.34 631.09L327.77 626.54L333.03 623.37L335.44 622.56L349.28 624.21L355.24 622.18L366.21 614.29L367.51 613.74L371.74 611.96L374.7 611.6L375.61 611.49L376.12 610.83L377.65 608.85L379 606.6L379.45 605.85L382.57 604.28L388.08 605.71L401.3 609.13L403.46 610.41L404.18 610.84L406.92 613.44L410.38 618.54L410.63 619.21L411.16 619.39L412.89 619.98L414 619.74L414.43 619.65L415.82 618.98L416.27 618.94L417.63 618.81L423.87 621.13L426.47 622.1L431.55 622.03L434.84 623.06L435.9 623.12L438.2 621.87L438.67 620.99V620.97L438.54 619.6L439.1 616.86L439.36 616.37L440.55 614.11L443.42 608.69L448.34 605.27L458.15 603.08L461.42 602.35L461.84 602.22L463.19 601.81L464.52 600.73L466.14 598.61L466.81 597.73L466.94 597.16L468.77 593.21L469.11 592.68L469.36 590.79L470.1 585.13L470.13 582.89V582.14L470.54 579.09L471.84 576.38L473.69 574.96L477.51 574.56L479.5 573.91L481.52 572.16L487.56 566.92L491.55 558.34V558.32L491.05 548.59L485.63 538.09L481.35 534.33L481.19 534.07L480.71 533.3L481.5 531.08L481.96 530.44L483.34 528.51L486.93 524.87L489.9 523.5L490.89 523.04L498.85 521.25L502.63 518.6L511.64 506.66L512.94 506.01L516.84 504.05L518.92 502.42L520.28 500.79L520.73 500.25L521 499.64L521.82 497.82L521.75 495.12L521.44 494.89L520.52 494.21L519.83 493.07L521.36 489.72L524.28 486.6L525.25 485.56L530.2 482.86L538.02 481.15L540.37 480.63L541.92 480.9L545.64 481.54L547.52 484.27L548.15 485.18L548.94 491.18L549.05 499.17L548.6 504.91L548.45 506.82L545.53 520.58L544.92 527.39L545.65 533.86L547.17 537.07L547.68 538.14L548.53 538.83L551.07 540.91L555.89 542.84L560.95 545.37L566.21 550.72L577.88 567.86L579.24 568.56L579.66 568.78L583.23 569.99L585.38 571.23L591.82 574.95L595.06 575.09L596.37 574.34L598.49 572.43L599.2 571.79L600.34 571.27L601.34 571.62L601.85 571.8L602.18 572.38L603.24 574.27L604.31 575L604.64 575.22L607.58 575.6L613.25 575.43L616.01 576.38L620.74 582.54L618.06 588.79L612.84 595.25L609.66 602.73L608.96 604.01L608.67 604.71V604.72L609.55 604.77L611.83 604.91L613.88 605.61L614.67 605.88L625.29 611.48L626.53 612.44L627.73 614.12L628.28 615.36L629.59 618.34L631.89 622.35L632.85 624.02L634.42 627.47L635.48 630.93L635.58 632.28L635.83 635.51V635.53L635.1 638.84L634.04 641.99L633.88 643.01L633.39 646.07V646.09H633.38L640.67 643.77L646.74 646.42L652.33 647.39L658.14 640.06L662.65 631.05L662.81 629.98L663.33 626.52H663.32L661.68 623.18L661.18 622.15L659.41 621.06L658.46 620.88L655.38 620.29L654.01 619.51L653.59 619.27L651.91 616.8L650.31 612.01L648.32 610L647.92 609.34L647.77 608.66L647.9 607.98L648.29 607.31L649.79 605.89L654.3 601.64V601.62L650.94 592.43L651.7 589.42L656.37 585.7L657.38 585.37L660.4 584.38L661.71 583.6L662.15 583.34L663.57 580.85L664.13 577.58L663.67 571.61L664.34 568.17L667.68 563.02L680.95 553.81L680.97 553.78L681.02 553.69L682.35 551.07L683.16 547.99L684.15 545.34L686.12 543.84L688.3 542.78L690.41 540.77L692.04 538.05L694.65 528.53L699.86 517.21L700.93 511.35L700.62 507.95L698.05 498.57L697.97 494.78L698.4 491.43L698.02 488.78L695.53 487.11L693.74 483.56L695.08 477.04L698.18 470.61L701.62 467.32L710.5 466.09L714.13 467L714.32 470.27L719.06 474.67L720.42 475.25L722.4 474.43L723.26 472.83L723.88 470.94L725.1 469.22L728.02 466.99L729.44 466.65L730.04 468.31L731.55 493.71L731.34 497.75V497.77L731.73 499.25L733.06 500.53L737.16 502.71L738.81 504.04L742.61 513.53L744.97 516.71L748.92 519.3L753.19 520.79L774.21 520.66L777.63 519.2L780.36 515.26L780.4 513.16L780.06 510.16L780.35 507.11L782.29 504.83H784.26L788.78 507.47L791.12 507.93L794.92 506.62L806.97 500.09L814.93 498.53L818.48 498.73L822.27 499.61L826.91 502.54L828.21 506.83L828.41 512.08L829.72 517.88L832.5 521.45L839.88 527.74L841.86 532.2L842.14 538.17L848.21 538.15L855.88 535.03L860.89 531.68L863.2 526.55L860.71 521.87L852.98 514.33L851.25 511.41L850.44 509.21V509.19L850.5 506.76L851.35 503.15L852.67 500.54L856.43 496.99L857.7 495.18L858.95 489.37L857.53 486.46L854.35 485.27L846.13 483.86L840.72 481.89L837.76 478.35L840.88 472.81L839.26 471.76L838.33 470.29L837.86 468.37L837.58 465.93L838.31 463.07L838.2 457.27L838.41 455.35L839.91 452.96L843.77 448.91L845.23 446.86L847.25 438.15L848.01 436.17L849.74 435.16L866.85 429.78L871.53 429.6L874.48 431.91L874.93 434.89L874.06 440.36L874.95 443.23L882.53 445.62L884 446.86L884.99 448.17L886.19 449.37L888.27 450.28L890.61 450.58L896.94 449.81L910.11 452.9L913.38 452.17L914.74 449.76L915.81 447.85L917.07 441.24L917.02 434.39L916.96 434.34Z" stroke="#000B32" stroke-width="2.23" stroke-linecap="round" stroke-linejoin="round"/>
</svg>
