<svg width="488" height="75" viewBox="0 0 488 75" fill="none" xmlns="http://www.w3.org/2000/svg">
<path d="M0 33.6H11.4V21.8H38.3V12H0V33.6Z" fill="#D5D5D5"/>
<path d="M0 65H38.3V55.2H11.4V43.4H0V65Z" fill="#D5D5D5"/>
<path d="M35.9999 33.6H11.3999V43.4H35.9999V33.6Z" fill="#D5D5D5"/>
<path d="M86 16.9C84.5 15.4 82.6 14.3 80.3 13.4C78 12.4 75.1 12 71.8 12H48.1V65H59.5V43.4H71.7C75 43.4 77.8 43 80.2 42.1C82.5 41.2 84.4 40 85.9 38.6C87.4 37.1 88.4 35.5 89.1 33.6C89.8 31.7 90.1 29.8 90.1 27.8C90.1 25.8 89.8 23.8 89.1 22C88.5 20 87.4 18.3 86 16.9ZM78 30.7C77.4 31.5 76.7 32.1 75.7 32.5C74.8 32.9 73.7 33.2 72.4 33.4C71.2 33.5 69.9 33.6 68.5 33.6H59.4V21.8H68.5C69.8 21.8 71.1 21.9 72.4 22C73.6 22.1 74.7 22.4 75.7 22.9C76.6 23.3 77.4 23.9 78 24.7C78.6 25.5 78.9 26.5 78.9 27.7C78.9 28.9 78.6 30 78 30.7Z" fill="#D5D5D5"/>
<path d="M155.5 55.2V12H144V65H182.4V55.2H155.5Z" fill="#D5D5D5"/>
<path d="M97.4 33.6H108.9V21.8H135.8V12H97.4V33.6Z" fill="#D5D5D5"/>
<path d="M108.8 43.4H97.4V65H108.8V43.4Z" fill="#D5D5D5"/>
<path d="M133.5 33.6H108.9V43.4H133.5V33.6Z" fill="#D5D5D5"/>
<path d="M356.776 12.0594H380.074C387.623 12.0594 393.865 18.3319 393.865 26.081V50.5811C393.865 58.3302 387.623 64.6026 380.074 64.6026H356.776V12.0594ZM380.51 55.0856C382.687 55.0856 384.428 53.2402 384.428 51.026V25.6376C384.428 23.4248 382.687 21.5794 380.51 21.5794H366.211V55.0827L380.51 55.0856Z" fill="#D5D5D5"/>
<path d="M309.862 52.2787L318.717 49.9166L319.149 51.3187C319.869 53.7539 320.962 55.0827 323.14 55.0827H333.67C335.774 55.0827 337.516 53.2373 337.516 51.023V48.4415C337.516 46.817 336.5 45.2672 335.049 44.8984L318.717 40.3924C313.564 38.9903 310.007 33.6779 310.007 27.9206V25.4898C310.007 17.7421 315.596 12.0595 323.218 12.0595H333.379C336.733 12.0555 339.972 13.2992 342.485 15.5559C344.999 17.8126 346.614 20.9265 347.025 24.3102L338.244 26.7454L337.813 25.3434C337.086 22.9082 335.997 21.5794 333.893 21.5794H323.362C321.186 21.5794 319.442 23.4248 319.442 25.6376V27.483C319.442 29.9914 320.821 31.4681 323.29 32.1325L336.862 35.6741C342.524 37.1508 346.734 42.1675 346.734 48.4415V50.3601C346.734 58.2555 340.927 64.6026 333.162 64.6026H323.653C320.269 64.6199 316.996 63.3751 314.455 61.1039C311.913 58.8327 310.279 55.6928 309.862 52.2787V52.2787Z" fill="#D5D5D5"/>
<path d="M404.198 52.2787L413.053 49.9166L413.485 51.3187C414.205 53.7539 415.3 55.0827 417.478 55.0827H428.002C430.108 55.0827 431.849 53.2373 431.849 51.023V48.4415C431.849 46.817 430.833 45.2672 429.381 44.8984L413.053 40.3923C407.9 38.9903 404.343 33.6779 404.343 27.9206V25.4898C404.343 17.7421 409.932 12.0595 417.553 12.0595H427.715C431.069 12.0555 434.308 13.2992 436.821 15.5559C439.335 17.8126 440.95 20.9265 441.361 24.3102L432.581 26.7454L432.149 25.3434C431.429 22.9082 430.334 21.5794 428.229 21.5794H417.704C415.526 21.5794 413.784 23.4248 413.784 25.6376V27.483C413.784 29.9914 415.163 31.4681 417.632 32.1325L431.204 35.6741C436.866 37.1507 441.076 42.1675 441.076 48.4415V50.3601C441.076 58.2555 435.269 64.6026 427.502 64.6026H418.002C414.616 64.6232 411.34 63.3798 408.796 61.1083C406.251 58.8368 404.615 55.695 404.198 52.2787V52.2787Z" fill="#D5D5D5"/>
<path d="M450.914 50.5811V26.081C450.913 24.2398 451.269 22.4164 451.962 20.7151C452.654 19.0137 453.67 17.4678 454.95 16.1657C456.231 14.8635 457.751 13.8306 459.424 13.1261C461.097 12.4215 462.89 12.0591 464.701 12.0594H474.282C481.322 12.0594 487.057 17.3733 488 24.3102L479.145 26.7454L478.637 25.3434C477.773 22.9082 476.895 21.5794 474.718 21.5794H464.198C462.02 21.5794 460.278 23.4248 460.278 25.6376V51.023C460.278 53.2373 462.02 55.0827 464.198 55.0827H474.577C476.754 55.0827 477.989 53.8285 478.641 51.3186L479.005 49.9166L487.859 52.2787C486.988 59.2887 481.255 64.6026 474.215 64.6026H464.701C462.89 64.603 461.097 64.2406 459.424 63.536C457.751 62.8314 456.231 61.7985 454.95 60.4964C453.67 59.1942 452.654 57.6483 451.962 55.947C451.269 54.2457 450.913 52.4223 450.914 50.5811V50.5811Z" fill="#D5D5D5"/>
<path d="M235.793 74.9999C232.427 74.9995 229.12 74.1154 226.205 72.4364C223.29 70.7574 220.869 68.3426 219.186 65.4349C217.503 62.5271 216.617 59.2288 216.618 55.8713C216.618 52.5138 217.504 49.2155 219.187 46.3078L230.562 26.6565C231.395 25.2174 232.593 24.0225 234.036 23.1917C235.479 22.3608 237.116 21.9235 238.783 21.9235C240.449 21.9235 242.086 22.3608 243.529 23.1917C244.972 24.0225 246.17 25.2174 247.003 26.6565L235.626 46.3064C234.793 47.7464 234.354 49.3798 234.355 51.0424C234.355 52.7049 234.795 54.3381 235.629 55.7775C236.463 57.217 237.663 58.412 239.107 59.2424C240.551 60.0728 242.189 60.5093 243.856 60.5081H266.596C269.774 60.5071 272.896 59.6721 275.648 58.0869C278.4 56.5018 280.685 54.2223 282.275 51.4774C283.864 48.7324 284.701 45.6188 284.702 42.4491C284.703 39.2794 283.867 36.1653 282.28 33.4195C284.718 37.634 286.001 42.4143 286 47.2801C285.999 52.1458 284.714 56.9256 282.275 61.1393C279.835 65.353 276.327 68.8521 272.102 71.2851C267.877 73.7181 263.085 74.9993 258.206 74.9999H235.793Z" fill="#D5D5D5"/>
<path d="M258.374 46.3064L247.001 26.6653C246.167 25.2262 244.969 24.0313 243.526 23.2005C242.083 22.3696 240.446 21.9323 238.78 21.9323C237.113 21.9323 235.477 22.3696 234.033 23.2005C232.59 24.0313 231.392 25.2262 230.559 26.6653L219.184 46.3079C217.501 49.2155 216.615 52.5138 216.615 55.8713C216.615 59.2288 217.5 62.5271 219.183 65.4349C220.866 68.3427 223.287 70.7574 226.202 72.4364C229.117 74.1154 232.424 74.9995 235.79 75C230.912 74.999 226.12 73.7175 221.896 71.2843C217.671 68.8511 214.163 65.3519 211.724 61.1382C209.285 56.9245 208 52.1447 208 47.2792C208 42.4136 209.283 37.6336 211.721 33.4195L223.095 13.7784C224.694 11.0017 226.973 8.67426 229.718 7.01342C232.463 5.35257 235.585 4.41242 238.793 4.2807C242.001 4.14897 245.19 4.82996 248.063 6.26012C250.936 7.69029 253.399 9.823 255.221 12.4592L266.595 32.1003C267.428 33.5397 267.866 35.1723 267.866 36.8341C267.866 38.4959 267.427 40.1285 266.594 41.5677C265.761 43.0068 264.563 44.202 263.12 45.033C261.677 45.8641 260.04 46.3017 258.374 46.302V46.3064Z" fill="#9A9A9A"/>
<path d="M223.095 13.7667C225.517 9.58116 229.002 6.10539 233.198 3.68881C237.395 1.27223 242.155 0 247.001 0C251.846 0 256.606 1.27223 260.803 3.68881C264.999 6.10539 268.484 9.58116 270.906 13.7667L282.28 33.4078C283.87 36.1539 284.708 39.2693 284.709 42.4407C284.709 45.6121 283.873 48.7278 282.283 51.4745C280.694 54.2212 278.407 56.5021 275.653 58.0878C272.9 59.6736 269.776 60.5083 266.596 60.5081H243.856C242.189 60.5094 240.551 60.0728 239.107 59.2424C237.663 58.412 236.463 57.217 235.629 55.7776C234.795 54.3381 234.355 52.705 234.355 51.0424C234.354 49.3798 234.793 47.7464 235.626 46.3064H258.374C260.041 46.3066 261.678 45.8691 263.122 45.0378C264.565 44.2065 265.764 43.0109 266.597 41.571C267.43 40.1311 267.869 38.4979 267.868 36.8354C267.868 35.1729 267.429 33.5398 266.595 32.1004L255.221 12.4593C253.399 9.82263 250.937 7.68931 248.065 6.25841C245.193 4.82752 242.004 4.14568 238.796 4.27653C235.588 4.40737 232.465 5.34664 229.72 7.00668C226.974 8.66672 224.695 10.9934 223.095 13.7697V13.7667Z" fill="#595959"/>
</svg>
