<svg width="488" height="75" viewBox="0 0 488 75" fill="none" xmlns="http://www.w3.org/2000/svg">
<path d="M0 33.6H11.4V21.8H38.3V12H0V33.6Z" fill="#FF0000"/>
<path d="M0 65H38.3V55.2H11.4V43.4H0V65Z" fill="#FF0000"/>
<path d="M35.9999 33.6H11.3999V43.4H35.9999V33.6Z" fill="#FF0000"/>
<path d="M86 16.9C84.5 15.4 82.6 14.3 80.3 13.4C78 12.4 75.1 12 71.8 12H48.1V65H59.5V43.4H71.7C75 43.4 77.8 43 80.2 42.1C82.5 41.2 84.4 40 85.9 38.6C87.4 37.1 88.4 35.5 89.1 33.6C89.8 31.7 90.1 29.8 90.1 27.8C90.1 25.8 89.8 23.8 89.1 22C88.5 20 87.4 18.3 86 16.9ZM78 30.7C77.4 31.5 76.7 32.1 75.7 32.5C74.8 32.9 73.7 33.2 72.4 33.4C71.2 33.5 69.9 33.6 68.5 33.6H59.4V21.8H68.5C69.8 21.8 71.1 21.9 72.4 22C73.6 22.1 74.7 22.4 75.7 22.9C76.6 23.3 77.4 23.9 78 24.7C78.6 25.5 78.9 26.5 78.9 27.7C78.9 28.9 78.6 30 78 30.7Z" fill="#FF0000"/>
<path d="M155.5 55.2V12H144V65H182.4V55.2H155.5Z" fill="#FF0000"/>
<path d="M97.4 33.6H108.9V21.8H135.8V12H97.4V33.6Z" fill="#FF0000"/>
<path d="M108.8 43.4H97.4V65H108.8V43.4Z" fill="#FF0000"/>
<path d="M133.5 33.6H108.9V43.4H133.5V33.6Z" fill="#FF0000"/>
<path d="M236.223 74.8837C232.926 74.8833 229.687 74.0005 226.832 72.3241C223.976 70.6477 221.605 68.2368 219.957 65.3335C218.308 62.4303 217.441 59.137 217.441 55.7848C217.441 52.4325 218.309 49.1393 219.957 46.2362L231.099 26.6153C231.915 25.1785 233.089 23.9854 234.502 23.1559C235.916 22.3263 237.519 21.8896 239.151 21.8896C240.783 21.8896 242.386 22.3263 243.8 23.1559C245.213 23.9854 246.387 25.1785 247.203 26.6153L236.059 46.2347C235.243 47.6725 234.813 49.3033 234.814 50.9633C234.815 52.6233 235.245 54.2539 236.062 55.6912C236.879 57.1284 238.054 58.3215 239.468 59.1506C240.883 59.9798 242.487 60.4156 244.12 60.4143H266.394C269.506 60.4134 272.564 59.5797 275.26 57.997C277.955 56.4143 280.194 54.1383 281.75 51.3977C283.307 48.657 284.127 45.5482 284.128 42.3834C284.129 39.2186 283.31 36.1093 281.755 33.3678C284.143 37.5758 285.4 42.3487 285.399 47.2069C285.398 52.0651 284.14 56.8375 281.751 61.0446C279.361 65.2518 275.925 68.7455 271.786 71.1747C267.648 73.6039 262.954 74.8831 258.176 74.8837H236.223Z" fill="#262262"/>
<path d="M258.34 46.2345L247.2 26.6239C246.384 25.1871 245.21 23.994 243.797 23.1645C242.383 22.3349 240.78 21.8982 239.148 21.8982C237.516 21.8982 235.913 22.3349 234.499 23.1645C233.086 23.994 231.912 25.1871 231.096 26.6239L219.954 46.236C218.306 49.1391 217.438 52.4323 217.438 55.7846C217.438 59.1369 218.305 62.4301 219.954 65.3333C221.602 68.2366 223.973 70.6476 226.829 72.324C229.684 74.0004 232.923 74.8831 236.22 74.8836C231.442 74.8826 226.748 73.6031 222.61 71.1737C218.473 68.7443 215.036 65.2504 212.647 61.0433C210.258 56.8361 209 52.0638 209 47.2058C209 42.3478 210.257 37.5752 212.645 33.3676L223.785 13.7571C225.351 10.9846 227.583 8.66082 230.272 7.00256C232.961 5.34429 236.019 4.4056 239.161 4.27408C242.303 4.14256 245.427 4.82249 248.241 6.25043C251.055 7.67838 253.467 9.80778 255.252 12.4399L266.392 32.0505C267.208 33.4876 267.637 35.1177 267.637 36.777C267.637 38.4362 267.207 40.0662 266.391 41.5032C265.575 42.9401 264.402 44.1334 262.988 44.9631C261.575 45.7929 259.972 46.2299 258.34 46.2301V46.2345Z" fill="#5561A6"/>
<path d="M223.785 13.7454C226.158 9.56629 229.571 6.09591 233.681 3.68308C237.791 1.27026 242.454 0 247.2 0C251.946 0 256.609 1.27026 260.719 3.68308C264.829 6.09591 268.242 9.56629 270.615 13.7454L281.755 33.356C283.313 36.0978 284.134 39.2083 284.134 42.3748C284.135 45.5413 283.316 48.6521 281.759 51.3946C280.202 54.137 277.962 56.4144 275.265 57.9977C272.568 59.581 269.508 60.4144 266.393 60.4142H244.12C242.487 60.4154 240.883 59.9796 239.468 59.1505C238.054 58.3214 236.879 57.1282 236.062 55.691C235.245 54.2538 234.814 52.6232 234.814 50.9632C234.813 49.3032 235.243 47.6723 236.059 46.2346H258.34C259.972 46.2347 261.576 45.7978 262.99 44.9679C264.404 44.1379 265.578 42.9441 266.394 41.5065C267.21 40.0688 267.64 38.4381 267.64 36.7782C267.639 35.1183 267.209 33.4878 266.392 32.0505L255.252 12.4399C253.468 9.80738 251.056 7.67737 248.243 6.2487C245.429 4.82002 242.306 4.13924 239.164 4.26989C236.021 4.40053 232.963 5.33834 230.274 6.9958C227.585 8.65326 225.352 10.9764 223.785 13.7483V13.7454Z" fill="#8DC63F"/>
<path d="M356.776 12.0594H380.074C387.623 12.0594 393.865 18.3319 393.865 26.081V50.5811C393.865 58.3302 387.623 64.6026 380.074 64.6026H356.776V12.0594ZM380.51 55.0856C382.687 55.0856 384.428 53.2402 384.428 51.026V25.6376C384.428 23.4248 382.687 21.5794 380.51 21.5794H366.211V55.0827L380.51 55.0856Z" fill="#262262"/>
<path d="M309.862 52.2787L318.717 49.9166L319.149 51.3187C319.869 53.7539 320.962 55.0827 323.14 55.0827H333.67C335.774 55.0827 337.516 53.2373 337.516 51.023V48.4415C337.516 46.817 336.5 45.2672 335.049 44.8984L318.717 40.3924C313.564 38.9903 310.007 33.6779 310.007 27.9206V25.4898C310.007 17.7421 315.596 12.0595 323.218 12.0595H333.379C336.733 12.0555 339.972 13.2992 342.485 15.5559C344.999 17.8126 346.614 20.9265 347.025 24.3102L338.244 26.7454L337.813 25.3434C337.086 22.9082 335.997 21.5794 333.893 21.5794H323.362C321.186 21.5794 319.442 23.4248 319.442 25.6376V27.483C319.442 29.9914 320.821 31.4681 323.29 32.1325L336.862 35.6741C342.524 37.1508 346.734 42.1675 346.734 48.4415V50.3601C346.734 58.2555 340.927 64.6026 333.162 64.6026H323.653C320.269 64.6199 316.996 63.3751 314.455 61.1039C311.913 58.8327 310.279 55.6928 309.862 52.2787V52.2787Z" fill="#262262"/>
<path d="M404.198 52.2787L413.053 49.9166L413.485 51.3187C414.205 53.7539 415.3 55.0827 417.478 55.0827H428.002C430.108 55.0827 431.849 53.2373 431.849 51.023V48.4415C431.849 46.817 430.833 45.2672 429.381 44.8984L413.053 40.3923C407.9 38.9903 404.343 33.6779 404.343 27.9206V25.4898C404.343 17.7421 409.932 12.0595 417.553 12.0595H427.715C431.069 12.0555 434.308 13.2992 436.821 15.5559C439.335 17.8126 440.95 20.9265 441.361 24.3102L432.581 26.7454L432.149 25.3434C431.429 22.9082 430.334 21.5794 428.229 21.5794H417.704C415.526 21.5794 413.784 23.4248 413.784 25.6376V27.483C413.784 29.9914 415.163 31.4681 417.632 32.1325L431.204 35.6741C436.866 37.1507 441.076 42.1675 441.076 48.4415V50.3601C441.076 58.2555 435.269 64.6026 427.502 64.6026H418.002C414.616 64.6232 411.34 63.3798 408.796 61.1083C406.251 58.8368 404.615 55.695 404.198 52.2787V52.2787Z" fill="#262262"/>
<path d="M450.914 50.5811V26.081C450.913 24.2398 451.269 22.4164 451.962 20.7151C452.654 19.0137 453.67 17.4678 454.95 16.1657C456.231 14.8635 457.751 13.8306 459.424 13.1261C461.097 12.4215 462.89 12.0591 464.701 12.0594H474.282C481.322 12.0594 487.057 17.3733 488 24.3102L479.145 26.7454L478.637 25.3434C477.773 22.9082 476.895 21.5794 474.718 21.5794H464.198C462.02 21.5794 460.278 23.4248 460.278 25.6376V51.023C460.278 53.2373 462.02 55.0827 464.198 55.0827H474.577C476.754 55.0827 477.989 53.8285 478.641 51.3186L479.005 49.9166L487.859 52.2787C486.988 59.2887 481.255 64.6026 474.215 64.6026H464.701C462.89 64.603 461.097 64.2406 459.424 63.536C457.751 62.8314 456.231 61.7985 454.95 60.4964C453.67 59.1942 452.654 57.6483 451.962 55.947C451.269 54.2457 450.913 52.4223 450.914 50.5811V50.5811Z" fill="#262262"/>
</svg>
