<svg width="111" height="41" viewBox="0 0 111 41" fill="none" xmlns="http://www.w3.org/2000/svg">
<g clipPath="url(#clip0_3769_7403)">
<path d="M34.8346 28.3789C33.1864 31.2386 30.1406 33 26.8441 33H19.4049C19.3683 33 19.3322 32.9995 19.2961 32.999C17.0639 32.9609 15.0108 31.7526 13.8918 29.8119C12.7548 27.839 12.7548 25.4083 13.8918 23.4354L17.6673 16.8854C18.2303 15.9092 19.2702 15.3073 20.396 15.3077C21.5219 15.3077 22.5618 15.9092 23.1247 16.8859L19.3497 23.4354C18.7868 24.4116 18.7868 25.615 19.3497 26.5912C19.9122 27.5678 20.9526 28.1693 22.0784 28.1693H29.6285C31.7762 28.1693 33.7605 27.0216 34.8346 25.1586C35.8897 23.3279 35.9078 21.0794 34.8893 19.234C36.4824 22.0756 36.4639 25.5519 34.8346 28.3789V28.3789Z" fill="#999999"/>
<path d="M29.6285 21.8573C29.0656 22.8335 28.0256 23.4354 26.8998 23.4354L23.1248 16.8859C22.5619 15.9092 21.5219 15.3078 20.3961 15.3078C19.2703 15.3073 18.2303 15.9092 17.6674 16.8854L13.8919 23.4354C12.7549 25.4083 12.7549 27.839 13.8919 29.812C15.0109 31.7526 17.064 32.9609 19.2961 32.999C16.0421 32.9609 13.0446 31.2069 11.4149 28.3794C9.76665 25.5202 9.76665 21.997 11.4149 19.1378L15.1899 12.5883C15.207 12.559 15.2241 12.5297 15.2416 12.5004C16.3313 10.6701 18.2713 9.51118 20.4015 9.42372C22.5658 9.33529 24.6243 10.3652 25.8535 12.152L29.6285 18.701C30.1914 19.6777 30.1914 20.8806 29.6285 21.8573V21.8573Z" fill="#CCCCCC"/>
<path d="M34.8343 25.1587C33.7602 27.0217 31.7759 28.1693 29.6281 28.1693H22.0781C20.9523 28.1693 19.9118 27.5679 19.3494 26.5912C18.7865 25.615 18.7865 24.4116 19.3494 23.4354H26.8994C28.0252 23.4354 29.0652 22.8335 29.6281 21.8573C30.191 20.8806 30.191 19.6777 29.6281 18.701L25.8531 12.152C24.6239 10.3652 22.5654 9.33531 20.4011 9.42374C18.2709 9.5112 16.3309 10.6701 15.2412 12.5004C16.889 9.71298 19.885 8 23.1244 8C26.3638 8 29.4223 9.74914 31.0588 12.5883L34.8343 19.1378C34.8528 19.1701 34.8709 19.2018 34.8889 19.2341C35.9074 21.0795 35.8894 23.3279 34.8343 25.1587V25.1587Z" fill="white"/>
<path d="M56.5293 12.026H64.4252C66.9831 12.026 69.0987 14.1201 69.0987 16.7071V24.8866C69.0987 27.4736 66.9831 29.5677 64.4252 29.5677H56.5293V12.026V12.026ZM64.5725 26.3895C65.3105 26.3895 65.9007 25.7734 65.9007 25.0346V16.5591C65.9007 15.8199 65.3105 15.2043 64.5725 15.2043H59.7268V26.3895H64.5725Z" fill="white"/>
<path d="M40.6313 25.4529L43.6322 24.6643L43.78 25.1323C44.0259 25.9453 44.3947 26.389 45.1327 26.389H48.6994C49.4126 26.389 50.0028 25.7729 50.0028 25.0341V24.1718C50.0028 23.6299 49.6584 23.1125 49.1667 22.9894L43.6322 21.4865C41.8859 21.0184 40.6806 19.2444 40.6806 17.3228V16.5098C40.6806 13.9232 42.5747 12.026 45.1576 12.026H48.6009C50.9867 12.026 52.93 13.8001 53.2251 16.1155L50.2491 16.9285L50.1013 16.4604C49.8555 15.6474 49.4862 15.2038 48.7731 15.2038H45.2063C44.4683 15.2038 43.8781 15.8199 43.8781 16.5586V17.1747C43.8781 18.0122 44.3454 18.5051 45.1815 18.727L49.7813 19.9093C51.6998 20.4018 53.1266 22.0772 53.1266 24.1718V24.8123C53.1266 27.4482 51.1588 29.5672 48.5267 29.5672H45.3044C42.8937 29.5672 40.926 27.7932 40.6309 25.4529H40.6313Z" fill="white"/>
<path d="M72.6001 25.4529L75.601 24.6643L75.7488 25.1323C75.9946 25.9453 76.3634 26.389 77.1014 26.389H80.6682C81.3813 26.389 81.9715 25.7729 81.9715 25.0341V24.1718C81.9715 23.6299 81.6272 23.1125 81.1355 22.9894L75.601 21.4865C73.8547 21.0184 72.6494 19.2444 72.6494 17.3228V16.5098C72.6494 13.9232 74.5435 12.026 77.1263 12.026H80.5696C82.9554 12.026 84.8988 13.8001 85.1939 16.1155L82.2179 16.9285L82.0701 16.4604C81.8242 15.6474 81.455 15.2038 80.7418 15.2038H77.1751C76.4371 15.2038 75.8468 15.8199 75.8468 16.5586V17.1747C75.8468 18.0122 76.3141 18.5051 77.1502 18.727L81.7501 19.9093C83.6686 20.4018 85.0953 22.0772 85.0953 24.1718V24.8123C85.0953 27.4482 83.1276 29.5672 80.4955 29.5672H77.2731C74.8625 29.5672 72.8947 27.7932 72.5996 25.4529H72.6001Z" fill="white"/>
<path d="M88.4312 24.8866V16.7071C88.4312 14.1201 90.5218 12.026 93.1047 12.026H96.3514C98.7372 12.026 100.681 13.8001 101 16.1155L97.9992 16.9285L97.827 16.4604C97.5319 15.6474 97.2368 15.2038 96.4987 15.2038H92.932C92.194 15.2038 91.6037 15.8199 91.6037 16.5586V25.0336C91.6037 25.7729 92.194 26.3885 92.932 26.3885H96.4495C97.1875 26.3885 97.6055 25.9698 97.827 25.1318L97.9499 24.6638L100.951 25.4524C100.656 27.7927 98.7123 29.5667 96.3265 29.5667H93.1042C90.5213 29.5667 88.4307 27.4727 88.4307 24.8856L88.4312 24.8866Z" fill="white"/>
</g>
<defs>
<clipPath id="clip0_3769_7403">
<rect width="90.8213" height="25" fill="white" transform="translate(10.1787 8)"/>
</clipPath>
</defs>
</svg> 