<svg width="58" height="16" viewBox="0 0 58 16" fill="none" xmlns="http://www.w3.org/2000/svg">
<path d="M29.5431 2.50078H34.428C36.0162 2.50078 37.3157 3.80024 37.3157 5.38844V10.4418C37.3157 12.042 36.0042 13.3294 34.428 13.3294H29.5431V2.48877V2.50078ZM34.5243 11.3683C34.9815 11.3683 35.3424 10.9832 35.3424 10.526V5.29217C35.3424 4.83496 34.9815 4.44996 34.5243 4.44996H31.5284V11.3562H34.5243V11.3683Z" fill="white"/>
<path d="M19.7133 10.7909L21.5661 10.3097L21.6624 10.5984C21.8188 11.1037 22.0474 11.3805 22.5046 11.3805H24.7065C25.1517 11.3805 25.5126 10.9955 25.5126 10.5383V10.0089C25.5126 9.67196 25.296 9.35912 24.9952 9.2749L21.5661 8.34846C20.4833 8.0597 19.7373 6.96478 19.7373 5.77363V5.26832C19.7373 3.66808 20.9044 2.50098 22.5046 2.50098H24.6343C26.1142 2.50098 27.3173 3.59588 27.4978 5.02767L25.657 5.53302L25.5607 5.24423C25.4043 4.73889 25.1757 4.46217 24.7425 4.46217H22.5407C22.0835 4.46217 21.7225 4.8472 21.7225 5.30441V5.68944C21.7225 6.20681 22.0114 6.50759 22.5287 6.65197L25.3803 7.38589C26.5714 7.68669 27.4497 8.72143 27.4497 10.0209V10.4179C27.4497 12.0422 26.2345 13.3537 24.5982 13.3537H22.6009C21.109 13.3537 19.8937 12.2588 19.7133 10.815V10.7909Z" fill="white"/>
<path d="M39.4935 10.7909L41.3464 10.3097L41.4427 10.5984C41.5991 11.1037 41.8277 11.3805 42.2849 11.3805H44.4868C44.9319 11.3805 45.2929 10.9955 45.2929 10.5383V10.0089C45.2929 9.67196 45.0763 9.35912 44.7755 9.2749L41.3464 8.34846C40.2635 8.0597 39.5176 6.96478 39.5176 5.77363V5.26832C39.5176 3.66808 40.6847 2.50098 42.2849 2.50098H44.4146C45.8945 2.50098 47.0976 3.59588 47.2781 5.02767L45.4373 5.53302L45.341 5.24423C45.1846 4.73889 44.956 4.46217 44.5228 4.46217H42.321C41.8638 4.46217 41.5028 4.8472 41.5028 5.30441V5.68944C41.5028 6.20681 41.7916 6.50759 42.309 6.65197L45.1605 7.38589C46.3517 7.68669 47.23 8.72143 47.23 10.0209V10.4179C47.23 12.0422 46.0148 13.3537 44.3784 13.3537H42.3812C40.8893 13.3537 39.674 12.2588 39.4935 10.815V10.7909Z" fill="white"/>
<path d="M49.2874 10.442V5.38864C49.2874 3.78841 50.5867 2.50098 52.1749 2.50098H54.1843C55.6642 2.50098 56.8674 3.59588 57.0599 5.02767L55.207 5.53302L55.0987 5.24423C54.9182 4.73889 54.7377 4.46217 54.2805 4.46217H52.0787C51.6215 4.46217 51.2605 4.8472 51.2605 5.30441V10.5383C51.2605 10.9955 51.6215 11.3805 52.0787 11.3805H54.2565C54.7137 11.3805 54.9663 11.1158 55.1107 10.5984L55.1829 10.3097L57.0358 10.7909C56.8554 12.2347 55.6522 13.3296 54.1723 13.3296H52.1749C50.5747 13.3296 49.2874 12.0302 49.2874 10.442Z" fill="white"/>
<path d="M14.2146 14.7974C13.4566 15.2185 12.5663 15.4591 11.6037 15.4591H6.45406C3.62658 15.4591 1.86999 12.4031 3.27771 9.96059L3.30173 9.9245L5.75627 5.67727C6.46614 4.45002 8.24681 4.45002 8.94465 5.67727L6.49019 9.9245C5.78031 11.1517 6.67069 12.6918 8.09044 12.6918H13.0355C15.8509 12.6918 17.6196 9.64776 16.2119 7.2053L16.2841 7.33767C17.8843 10.117 16.7172 13.4258 14.2026 14.8094L14.2146 14.7974Z" fill="#25255C"/>
<path d="M11.3992 9.91275L8.9447 5.66551C8.23483 4.43827 6.46619 4.43827 5.75631 5.66551L3.30178 9.91275L3.27776 9.94884C1.87004 12.3913 3.62663 15.4474 6.45411 15.4474H6.29769C3.09722 15.4474 0.81124 12.7763 0.871399 9.91275C0.883431 9.04645 1.12404 8.16815 1.59328 7.33796L4.18015 2.86212C5.58787 0.419659 9.12519 0.419659 10.5329 2.86212L10.557 2.89821L13.0115 7.14544C13.7213 8.37269 12.831 9.91275 11.4112 9.91275H11.3992Z" fill="#5663A7"/>
<path d="M16.224 7.1935L13.6251 2.68157C13.1439 1.8634 12.4942 1.22569 11.7722 0.780517C9.31776 -0.711428 5.86457 -0.0617023 4.26433 2.70562L4.18018 2.84999C5.5879 0.407533 9.12521 0.407533 10.5329 2.84999L10.557 2.88609L13.0115 7.13332C13.7214 8.36056 12.831 9.90066 11.4112 9.90066H6.51435C5.80447 11.1279 6.69478 12.668 8.11453 12.668H13.0596C15.875 12.668 17.6437 9.62391 16.236 7.18145L16.224 7.1935Z" fill="#90C844"/>
</svg>
