<svg width="979" height="732" viewBox="0 0 979 732" fill="none" xmlns="http://www.w3.org/2000/svg">
<path d="M109.05 510.46L108.76 510.99L108.91 512L108.74 512.82L109.04 513.21L109.14 513.95L108.94 514.93L108.83 515.04L109.07 515.39L108.03 516.14L107.39 516.08L107 516.71L106.05 517.61L105.88 519.15L106.47 519.87L107.64 520.61L107.01 521.37L108.71 522.93L108.75 524.02L109.43 525.3L109.17 525.85L109.95 527.29L108.89 527.55L107.1 529.41L105.12 530.98L103.48 530.11L102.09 528.62L101.96 528.56L101.43 528.99L100.39 529.42L99.91 529.37L99.65 529.88L98.25 529.95L97.53 529.05L96.58 530.07L95.97 531.45L95 532.61H94.02L92.25 530.96L90.91 532.1L89.61 532.46L89.06 533.01L89.03 533.37L88.32 533.49L88.26 533.71L88 533.79L88.02 534.4L87.12 534.83L86.05 536.57L85.65 535.85L85.06 537.12L82.74 536.65L82.53 536.93L81.6 538.89L82.36 539.7L80.6 540.76L83.78 542.26L83.74 542.51L84.96 542.93L85.86 544.56L85.81 545.38L85.14 546.22L84.78 548.04L84.01 549.27L83.33 548.88L83.29 549.11L80.36 555V555.18L80.91 556.58L80.03 557.52L80.24 557.41L81.3 557.15L81.67 556.39L82.02 556.32L82.12 556.19L82.22 554.54L85.02 554L86.76 554.64L88.98 554.43L90.88 555.08L91.47 555.01L92.66 555.85L92.69 555.91L93.92 554.94L94.21 554.52L94.64 552.54L95.44 552.11L99.5 552.57L99.93 552.83L102.46 552.11L103.48 552.23L104.09 553.39L104.11 554.09L107.76 554.32L108.9 554.57L109.5 555.06L109.81 554.78L110.49 554.66L111.83 553.83L112.31 553.07L113.68 551.86L114.47 551.72L115.91 550.81L118.05 550.04L119.77 548.52L119.43 546.59L119.61 545.07L121.5 543.59H122.02L123.11 541.87L124.43 541.3L127.02 538.88L127.47 538.78L128.11 538.03L129.09 537.66L130.5 538.13L131.26 537.81L131.38 537.89L132.46 536.82L134.37 535.93L136.21 535.43L138.7 533.29L139.56 532.97L141.95 528.45L141.83 527.46L141.16 527.19L141.42 526.55H141.4L140.07 526.44L139.14 525.56L138.68 525.83L138.58 526.55L137.75 526.91L137.58 527.21L135.01 528.49L132.82 526.91L133.21 526.1L131.24 524.3L130.03 521.69L129.15 520.88L128.76 519.87L129.29 518.06L130.21 516.89L130.76 516.86L131.31 516.29L130.84 515.54L130.71 513.51L130.01 513.32L125.57 511.14L125.94 510.47L127.88 506.28L130.17 501.45L131.86 497.62L132.99 496.71L133.07 496.67L163.96 482.3L180.99 471.74L211.13 472.38L211.22 472.41L236.97 479.83L234.28 488.38L233.53 490.19V490.92L234.33 491.72L234.09 493.12L233.41 494.18L232.56 494.83L231.42 496.74L229.23 497L228.43 497.46L227.91 498.07L227.74 499.21L227.96 500.08L228.26 500.73L228.98 501.29L230.15 504.29L230.29 504.42L231.96 504.51L232.92 505.75L232.71 506.6L232.92 507.72L234.23 507.55L235.61 508.89L236.41 509.2L236.91 509.91L237.53 510.25L238.46 512.05L238.29 513.09V513.11L239.21 513.37L239.91 514.36L240.87 514.75L241.24 515.45L241.71 515.12H242.81L243.83 515.85L243.9 516.65L244.62 517.26L244.93 519.04L243.99 520.63L244.1 522.22L243.89 523.58L243.06 524.73L243.15 525.63L242.55 526.69L241.16 527.74L240.14 528.02L239.18 530.67L238.29 531.62L237.02 531.96L236.95 532.04L236.9 532.28L237.14 533.49L235.51 536.63L235.02 536.92L234.92 537.34L233.87 539.17L235.37 544.75L233.87 547.74L231.72 550L231.38 551.81L232.04 553.31L232.52 556.14L232.57 556.21L234.39 556.03L234.78 557.16L235.27 557.64L235.53 557.42L238.84 556.97L240.2 557.25L240.72 558.12L241.57 558.36L246.62 558.9L247.34 559.46H247.6L248.9 558.87L250.95 559.19L251.23 560.39L250.11 563.04L250.39 563.91L250.29 564.61L249.68 566.16L249.03 566.69L248.61 567.72L248.55 567.76L249.9 570.73L249.23 571.93L249.92 573.62L248.6 574.12L247.55 575.29L247.51 575.86L247 576.37L246.48 578.85L246.77 579.39L247.56 580.1L248.41 580.39L248.79 579.47L251.35 578.94L252.06 578.49L252.7 577.79L254.06 575.33L256.17 574.24L258.09 575.53L258.03 577.08L257.76 577.48L257.97 577.87L258.52 578.47L260.39 578.23L261.28 581.41L262.42 583.7L263.08 583.73L263.98 585.3L265.96 587.05L266.94 590.91L266.88 591L268.2 591.85H269.18L269.91 591.45L271.35 593.04L271.68 593.76L271.62 594.07L271.86 594.23L271.72 595.41L272.16 595.43L273.28 597.16L274.64 598.51L271.43 600.29L271.37 600.48L271.43 600.7L272.5 602.4L273.96 603.15L275.42 603.42L276.48 604.18L276.38 605.35L276.81 607.14L276.4 607.8L276.26 608.83L277.52 610.76L277.57 612.45L278.93 614.22L280.3 614.81L281.08 616.03L281.04 618.29L282.23 619.11L283.24 619.24L283.29 620.96L284.15 622.32L286.35 624.27L286.59 625.28L286.46 625.99L287.09 627.16L287.39 628.49L287.61 628.82L288.19 629.02L289.79 628.81L290.48 628.05L292.25 626.73L292.66 625.54L294.43 624.5L295.23 624.32L296.23 623.6L297.19 623.41L299.89 624.97L299.28 625.69L300.07 625.65L300.44 626.74L300.31 627.14L300.78 627.66L301.57 627.84L302.92 628.69L303.37 628.82L304.33 628.29L303.97 626.53L304.57 624.95L305.68 623.41L306.53 623.22L306.98 622.88L307.49 621.52L309.01 620.63L309.57 620.72L310.25 620.18L312.21 620.65L314.18 619.81L315.02 620.37L315.37 621.06L317.4 618.56L318.46 618.03L320.1 614.48L322.15 612.19L323.74 613.5L326.46 613.79L327.13 614.44L327.5 615.31L327.6 615.34L328.5 615.46L331.62 614.31L333.96 615.55L335.12 617.23L335.95 617.12L338.7 618.99L338.82 619.02L339.05 618.95L340.15 617.86L340.02 616.96L342.17 614.87L343.3 615.88H343.37L345 615.22L345.49 614.58L347.31 613.31L348.34 611.76L350.32 609.93L351.35 609.61L352.3 608.83H353.76L354.31 609.14H354.33L354.54 608.5L353.96 606.78L354.06 605.91L355.68 604.26L357.46 603.53L358.31 603.43L359.21 601.49L361.37 602.56L363.28 601.68L364.56 602.91L367.16 603.2L367.49 602.78L367.6 602.4L367.09 600.15L366.9 597.94L367.47 597.15L367.88 595.93L369.21 595.34L370.8 595.51L372.66 595.01L374.05 595.09L375.14 596.27L375.9 599.28L376.05 599.45L376.34 599.56L377.58 599.51L379.79 599.86L381.56 599.18L385.06 599.71L386.15 599.32L389.22 597.58L390.42 597.72L390.68 598.71L391.79 599.87L392.95 601.56L393.38 602.85L393.55 603.07L394.39 603.44L396.45 603.69L398.43 605.15L399.05 606.98L398.76 608.99L398.54 609.33V609.41L400.24 611.63L400.57 611.82L402.18 611.75V610.52L403.63 609.99L404.92 607.76L405.81 607.63L408.04 608.15L409.23 608.17L411.43 610.54L412.27 610.63L413.32 611.41L414.34 613.05L414.75 613.33L415.09 613.27L415.99 612.31L418.49 611L420.91 611.59L421.9 612.27L422.9 612.51L424.02 612.63L425.65 612.4L426.31 613.3L426.54 613.08L427.37 612.84L427.84 612.2L427.95 611.7L427.87 611.42L426.61 609.58L426.57 608.01L426.98 605.61L428.1 605.15L428.19 604.97L427.76 603.32L428.74 601.83L428.77 601.66L428.73 601.05L428.21 599.76L428.29 598.85L428.84 598.19L430.99 597.51L431.56 596.36L432.99 594.59L433.26 593.45L434.01 592.59L436.21 592.85L437.26 592.49L438.9 592.63L441.76 592.2L442.69 592.4L443.24 592.9L447.06 591.94L448.47 593.04H448.93L449.15 592.94L449.18 591.92L450.52 589.15L451.2 588.77L452.5 588.83L452.55 588.62L452.09 587.28L453.38 586.01L453.06 585.51L452.64 584.01L455.43 580.92L456.41 581.27L456.64 581.08L456.61 581.05L456.08 580.03L455.93 579.15L455.02 577.2L454.47 573.71L454.74 572.35L455.67 571.02L456.5 565.94L461.57 565.23L462.86 564.41L464.3 564.24L465.22 564.42L467.47 563.98L469.24 563L470.01 562.85L471.29 561.2L471.55 559.71L471.47 558.61L471.85 557.9L473.3 556.84L474.15 556.54L477.44 555.82L478.2 555.23L478.51 554.65L478.62 553.19L477.94 550.98L478.08 549.28L479.28 547.71L479.78 546.42L480.69 546.14L480.86 545.95V545.61L480.67 545.08L478.71 542.52L478.1 540.6L478.35 539.91L476.97 537.84L476.09 534.26L475.71 534L473.97 533.65L472.64 531.35L471.59 530.96L470.97 529.26L470.81 528.01L469.63 527.84L469.05 527.26L466.8 526.65L465.97 525.8L464.91 525.7L464.46 524.15L466.07 523.41L466.39 521.92L467.85 521.41L470.18 519.04L471.32 518.54L473.19 515.12L476.47 512.5L477.79 512.3L478.38 512.55L480.48 514.04H481.85L484.2 513.54L485.88 512.26L486.75 512.12L487.44 512.33L488.1 511.9L488.64 511.24L489.14 511.08L489.23 510.78L489.2 509.57L489.85 509.17L490.08 508.05L491.26 506.93L491.16 505.84L491.78 504.31L494.32 502.38L495.87 502.49L496.55 502.33L496.53 501.47L497.71 500.76L498.42 500.96L498.4 500.46L499.27 500.02L499.34 499.77L499.12 498.98L498.4 497.91L498.67 496.38L501.4 495.48L503.07 496.07L504.45 494.2L507.33 492.85L508.76 491.06L508.82 490.9L508.27 489.86L508.69 488.4L508.66 488.24L507.93 487.48L506.91 487.53L503.85 486.36L503.46 485.52L504.45 484.01L505.88 482.74L506.46 480.64L507.64 480.09L509.64 480.31L510.25 480.19L510.79 479.61L512.76 478.39L514.81 476.37L515.9 474.63L517.39 473.37L520.01 472.87L520.9 473.19L521.12 473.1L520.77 471.2L521.48 470.64L521.5 469.65L522.25 468.96L522.5 468.93L522.21 468L523.95 468.52L524.16 469.14L524.27 469.49L523.66 470.38L523.04 470.47L523.02 471.49L522.7 471.74L523.04 472.38L523.13 472.08L524.38 472.15L524.51 472.22L524.53 472.17L525.96 471.14L527.77 470.95L531.3 469.72H532.49L534.23 470.55L534.89 472.04L534.92 472.54L535.1 472.76L536.19 473.31L536.58 474.59L537.29 474.77L538.02 475.97L537.62 477.1L535.8 478.64L536.61 480.16L535.8 481.22L535.82 481.52L537.83 483.97L537.74 485.3L537.06 486.38L538.43 488.31L538.16 489.34L536.66 490.85L537.36 492.64L537.65 496.2L538.16 497.23L537.97 498.11L537 499.27L536.8 499.8L537.25 503.84L537.13 505.28L536.6 506.74L535.34 507.67L534.98 508.91L532.92 509.64L532.01 513.61L530.37 514.34L530.25 514.5L530.95 515.78L531.41 517.2L534.26 521L535.52 523.2L535.35 524.04L533.96 524.97L533 526.12L532.87 526.52L533.06 527.01L534.61 527.29L536.37 528.16L536.96 528.96L537.24 530.93L537.81 531.38L538.63 531.69L540.04 531.74L541.74 532.12L544.02 533.33L545.22 534.23L547.69 534.41L548.95 535.12L550.31 540.04L550.68 540.58L553.09 542.13L553.49 543.5L554.8 543.87L556 546.08L556.83 549.45L557.16 549.74L557.74 549.49L558.92 549.61L559.37 550.84L559.54 551.01L560.21 551.22L561.25 551.1L562.2 551.72L562.12 553.78L561.14 555.03L561.09 555.61L563.19 557.64L563.52 559.92L563.69 560.26L563.86 560.3L569.78 559.81L570.95 561.08L571.86 562.6L573.45 563.49L574.62 563.19L575.98 563.43L576.37 564.83L576.72 565.23L577.66 565.38L580 564.95L582.09 564.9L583.35 562.93L586.32 560.1L587.28 560.22L589.43 564.27L589.56 564.45L589.99 564.52L590.36 565.31L592.17 565.95L594.46 567.45L596.68 567.17L597.09 566.85L597.86 565.64H598.93L601.01 567.24L602.18 567.8L602.46 568.81L604.37 570.79L605.35 571.19L606.37 572.31L607.79 572.68L608.07 576.63L607.87 577.51L605.78 581L604.59 580.52L604.73 581.99L603.99 582.66L604.01 582.69L603.32 583.55L603.39 584.35L602.72 584.8L602.6 585.34L601.6 586.55L599.01 587.84L598.06 588.93L596.42 591.83L595.71 594.15L596.17 593.94L600.24 594.37L601.44 595.06L603.5 595.03L604.36 595.85L605.31 596.34L607.08 599.22L609.13 600.73L610.55 602.4L611.8 602.84L614.4 602.9L615.73 603.69L616.66 605.61L616.86 606.79L616.05 609.13V609.89L617.65 611.63L617.69 611.71L620.76 617.41L620.93 618.83L620.41 619.83L620.39 619.98L621.06 620.21L621.96 621.58L622.66 624.24L622.56 624.65L623.02 625.64L622.83 626.41L623.63 626.2L624.41 626.54L624.85 627.44L624.72 628.36L623.22 629.53L622.36 629.59L621.62 630.03L621.35 630.97L619.01 633.76L618.61 634.56V635.79L619.33 635.45L620.57 635.15L621.39 634.15L623.27 633.35L624.44 632.98H625.58L625.8 633.15L626.58 632.64L626.81 633.48L627.27 633.39L627.95 634.31L628.09 635.29V635.33L629.54 635.54L629.68 635.47L630.34 634.67L631.38 634.42L631.8 634.94L632.38 634.76L633.03 635.58L634.19 636.02L634.55 637.05L634.15 638.31L633.06 639.47L633.46 639.5L635.12 638.57L636.65 639.66L637.18 639.69L638.14 639.35L639.44 639.75L639.71 639.72L639.48 639.35L639.12 638.11L640.29 636.24L640.31 635.95L640.06 635.23L640.28 633.86L641.35 632.83L642.63 630.85L642.19 629.5L642.4 628.05L642.64 627.65L642.48 627.09L643.12 626.63L643.91 624.95L645.32 625.05L645.6 624.91L647.87 622.11L647.93 621.96L647.13 620.68L648.77 620.23L648.92 620.32L649.22 619.6L649.26 619.58L647.18 620.42L647.38 616.63L646.37 617.1L645.49 615.99L643.92 614.9L644.18 614.23L643.03 614.11L641.65 612.75L640.62 612.82L638.91 612.45L637.08 612.41L636.88 611.2L637.29 609.46L637.02 609.19L636.03 608.89L635.76 607.98L636.14 605.53L636.06 603.98L635.23 603.22L631.69 601.62L631.74 599.68L632.57 599.56L632.4 598.54L632.76 597.44L634.97 597.5L635.28 597.16L635.58 595.34H637.22L638.15 594.55H638.3L638.1 593.71L637.38 592.38L637.07 589.32L636.33 588.03L634.47 585.97L634.38 583.08L635.84 581.3L636.02 579.85L636.57 579.01L639.31 577.87L642.53 575.71L643.45 575.62L644.63 576.01L647.2 575.23L647.28 574.96L647.24 573.42L649.16 570.25L649.21 569.98L647.43 564.87L646.35 562.67L646.4 560.87L650.94 558.72L651.48 558.62L652.19 557.84L654.18 556.61L655.28 556.39L656.66 553.84L658.25 551.73L658.95 551.38L659.99 550.39L661.65 549.69L662.27 548.67H662.23L660.33 546.88L663.69 547.33L665.56 546.87L666.72 547.23L667.11 546.62L668.82 544.83L669.05 543.78L668.73 542.46L670.05 538.03L671.08 536.72L672.67 536.44L673.3 535.53L673.7 533.56L673.55 530.39L675.64 530.84L677 530.31L678.61 530.66L678.76 530.62L679.05 526.35L678.77 525.12L679.37 523.68L679.43 522.01L680.59 520.64L681.06 518.3L682.38 517.49L682.71 516.39L683.37 515.4L685.27 513.92L684.96 510.11L685.76 508.88L686.81 508.63L687.76 506.61V506.53L686.94 505.64L686.63 504.42L687.01 503.14L687.82 502.11V501.66L687.37 500.77L687.53 500.07L687.46 499.79L687.18 499.47L685.33 498.88L683.48 495.19L684.46 492.22L685.03 491.11L684.15 490.28L683.95 489.19L683.91 487.47L684.55 486.8L684.31 486.32L684.8 485.24L684.56 483.99L683.84 483.3V482.8L682.73 482.74L681.31 481.31L679.74 480.17L678.9 478.68L678.58 476.21L678.56 474.77L678.91 473.96L680.06 473.36L682.33 472.93L683.12 472.29L683.39 471.85L683.54 471.13L683.2 468.85L683.83 466.7L683.18 465.1L683.86 464.03L683.84 462.28L684.34 461.04L685.85 460.93L692.01 458.67L695.03 458.18L696.07 458.5L696.36 458.81L697.95 458.46L698.65 458.7L699.8 457.61L700.71 457.53L701.87 458.72L703.37 459.28L703.27 460.65L702.27 461.76L702.23 462.01L702.39 462.73L703.19 463.71L703.28 464.16L704.79 464.88L705.78 466.93L707.07 468.01L708.83 468.61H709.05L709.65 468.11L710.82 466.53L711.02 463.37L713.32 460.19L716.56 458.77L717.7 457.53L718.62 457.28L719.59 457.66L719.75 458.89L719.32 459.51L719.34 462.12L718.75 463.9L717.86 464.54L716.41 464.61V464.72L718.54 464.74L719.43 465.32L719.88 466.26L719.98 469.1L719.68 469.78L718.83 470.5L718.75 470.74L718.7 471.46L719.33 473.81L719.37 475.34L718.77 477.26L718.05 481.69L718.19 482.33L719.63 483.69L720.47 488.78V491.01L719.78 492.11L719.53 492.29L719.55 493.35L720.58 493.65L722.86 495.21L726.22 495.18L726.19 497.72L726.38 498.5L726.46 498.66L728.2 500.12L728.03 501.22L728.42 503.12L729.67 505.13L729.72 506.32L732.77 510.56L734.44 512.15L734.78 511.58L736.22 510.9L738.43 512.99L740.84 514.19L742.63 514.28L743.76 514.03L745.38 514.3L746.61 514.77L747.4 515.76L747.74 515.99H748.35L749.98 516.58L751.2 516.46L754.92 513.77L756.09 513.66L756.6 512.65L757.41 512.25L758.84 512.51L759.66 513.79L760.49 514.56H761.05L762.98 515.11L764.06 514.82L764.38 512.63L765.19 511.2L765.98 510.43L766.15 509.83L766.07 509.05L765.18 508.51L764.73 507.46L765.03 506.16L766.36 504.56L766.04 502.21L766.6 501.44L767.53 501.09L768.55 499.81L770.98 499.26L771.75 500.49L772.35 500.65L775.06 503.29L775.4 503.5L776.24 503.6L778.34 501.82L780.59 501.32L782.06 500.15L784.4 499.4L787.01 496.56L787.95 496.32L788.95 496.41L789.49 496L792.35 495.82L793.5 496.21H793.59L794.94 495.27L795.92 493.58L799.98 491.58L801.54 491.84L802.56 493.87L803.63 493.79L803.91 494.81L804.35 493.57L808.24 491.94L809.73 492.37L810.15 493.25L809.88 494.16L809.92 494.4L811.26 496.29L814.72 499.24L814.86 499.28L816.39 499.08L817.33 499.63L817.05 503.07L815.47 505.1L814.63 507.51L815.42 508.38L816.81 509.35L816.94 509.41L818.38 509.11L818.07 511.2L817.64 511.86L818 512.51L817.96 513.6L816.69 515.03L816.86 515.95L817.84 517.54L822.85 519.08L824.88 520.19L827.98 522.41L829.05 527.14L828 529.17L827.92 530.17L827.49 531.23L826.61 531.89L828.69 533.12L829.88 534.46L829.97 534.48L830.18 534.36L831.75 532.4L833.75 531.79L836.06 531.96L837.37 532.45H838.48L839.4 532.82L841.54 532.44L843.25 531.34L843.71 530.51L844.04 529.16L848.08 525.78L848.64 525.19L848.68 525.06L848.64 524.65L847.71 522.53L847.18 521.9L846 521.07L846.04 518.62L844.41 517.49L844.85 516.3V516.12L844.76 516.03L842.88 515.2L841.89 514.01L841.61 512.89L839.78 511.55L837.84 510.5L837.15 507.86L835.97 506.16L835.68 505.23L835.82 502.81L836.3 501.31L836.1 499.14L837.54 498.94L839.95 497.02L839.64 495.35L839.97 492.63L841.03 491.8L842.57 490.06L845.63 490.12L846.2 489.69L846.31 488.13L845.96 485.89L846.77 484.88L846.75 484.6L846.14 483.8L844 485.18L843.46 483.58V481.37L842.81 480.35L842.01 480.3L840.77 479.73L840.48 479.77L838.63 481.13L837.42 480.61H837.24L835.53 482.4H834.64L834 482.01L831.67 482.38L831.04 481.53L831.08 480.63L830.95 480.49H830.68L829.39 480.97L828.01 480.67L827.3 479.56L826.96 477.23L824.94 476.72L823.52 475.43L824.18 474.26L824.13 473.37L825.21 471.59L826.19 470.55L826.25 470.03L825.9 468.46L824.19 466.48L824.39 465.32L825.14 464.3L824.55 463.08L825.19 461.08L824.59 460.17L824.09 458.51L826.16 456.58L826.38 455.48L826.34 454.74L825.68 452.39L824.75 451.38L824.54 450.08L825.6 448.4L827.98 447.97L829.03 446.85L829.89 444.78L831.48 443.69L831.77 442.71L831.17 441.44L831.34 440.24L833.45 440.12L834.85 438.8L834.95 437.79L834.29 435.89L834.72 432.68L835.29 430.73L836.85 430.68L838.8 431.77L840.83 432L841.12 431.89L842.58 430.65L843.99 430.24L844.63 429.64L847.24 429.06L851.73 426.37L852.73 427L853.04 427.69L854.28 427.73L856.1 428.71L856.59 428.14L857.14 426.74L858.37 425.27L861.61 424.14L861.85 426.69L862.1 427.26L863.26 428.94L865.5 431.36L863.88 433.58L862.1 436.67L862.58 438.11L862.88 440.14L863.67 440.88L864.66 439.97L866.3 439.44L868.34 440.82L870.04 441.27L870.76 442.22L871.18 443.61L872.13 444.95L871.93 446.79L873.75 447.04L874.28 447.53L877.23 446.45L879.24 448.68L879.35 448.6L880.23 447.41L880.68 445.88L881.41 445.1L882.39 445.37L883.72 445.32L885.29 445.75L889.73 448.3L890.62 448.2L892.01 446.74L893.61 446.58L894.46 446.99L898.24 450.83L898.52 451.01L899.92 451.32L900.12 451.53L900.52 451.06L900.91 449.65L901.72 449.2L902.89 449.28L903.06 449.14L902.9 448.01L903.94 445.93L903.42 444.77L903.6 442.81L903.99 441.74L904.97 440.58L905.01 439.77L905.46 438.27L904.9 437.3L905.5 435.52L904.96 433.33L905.56 432.07L906.17 431.52L901.59 427.05L898.72 424.79L897.83 425.04L894.1 425.35L892.25 426.14L891.04 426.07L890.17 425.62L889.7 424.68L889.6 422.95L888.03 419.65L888.12 417.4L887.95 415.89L887.09 413.25L886.97 411.96L887.47 410.65L888.83 409.57L890.23 406.64L890.78 406.06L892.12 405.66L892.49 405L892.72 403.29L891.34 401.84L891.11 400.94L889.95 400.02L889.7 398.62L891.43 397.59L896.24 393.68L896.97 393.37L897.31 393.42L897.58 392.67L897.6 392.06L896.9 388.95L895.24 386.26L893.79 385.21L893.15 383.66L893.73 382.78L895.39 381.89L897.32 381.75L898.5 380.42L899.82 377.36L899.65 375.75L900.21 374.98L899.88 374.19V373.34L900.39 372.39L901.44 371.62L901.49 371.34L901.24 370.22L902.41 368.16L902.14 366.64L902.36 366.41L901.88 364.62L902.32 363.34L902.49 361.51L902.14 359.74L901.28 358.63L901.85 357.65L903.35 356.27V354.86L903.77 353.97L903.89 352.7L903.67 351.93L904.63 350.58L905.29 348.4L905.13 345.88L905.46 344.62L903.73 343.97L903.61 343.74L903.32 343.72L902.42 342.44L900.02 341.29L899.91 341.03L899.16 341.1L897.42 340.7L896.75 340.35L896.69 340.13H895.39L894.66 339.56L893.77 338.68L893.7 337.89L894.4 335.47L894.43 334.59L893.43 333.83L893.27 333.48L892.13 332.95L891.21 331.64L890.05 330.51L889.42 329.2L888.22 328.56H887.93L885.38 331.07L882.15 330.65L881.27 331.09L880.97 332.45L880.27 333.15L880.07 333.2L880.14 333.98L879.1 335.32L878.29 337.2L878.09 337.81L878.14 339.01L877.61 340.67L876.25 341.72L875.59 341.57L874.31 341.77L874.2 342.03L874.26 343.2L873.89 343.74L874.6 344.76L875.88 346L875.83 348L875.2 348.61L873.79 348.51L872.72 348.68L872.57 348.78L871.77 350.47L870.04 349.13L865.45 347.64L862.04 347.06L861.99 348.27L862.24 349.72L861.24 350.82L860.58 354.28L859.73 355.76L859.44 355.91L859.5 356.07L859.36 356.7L859.44 356.87L860.76 358.09L860.9 358.79L860.41 362.57L860.13 363.06L860.33 364.42L858.03 364.47L857.28 364.25L856.35 364.65L854.39 364.98L853.39 364.45L853.12 364.43L852.67 365.21L851.38 366.24L851.14 367.11L849.88 367.8L849.12 367.82L848.5 368.76L847.34 368.54L845.65 369.89L845.08 368.73L844.36 368.61L844.32 368.73L842.94 369.54L840.97 369.41L840.55 369.62L840.03 369.43L839.92 369.58L839.72 369.6L839.48 370.26L838.05 370.95L836.44 371.19L835.55 370.58L835.24 369.82L834.71 369.2L833.55 368.31L833.2 366.84L833.27 366.34L832.81 366.04L832.4 366.2L830.8 365.69L828.12 366.01L826.83 365.56L825.78 364.17L825.71 362.28L825.86 361.5L824.28 360.27L823.83 359.04L822.58 358.7L821.8 357.02L820.1 355.4L819.12 355.43L818.23 355.94L816.25 354.92L815.01 354.89L814.54 354.15L812.95 353.91L813.08 352.13L812.86 351.38L812.83 351.36L812.38 351.75L811.25 352.11L810.27 352.02L809.39 351.33L808.37 351.67L807.63 352.21L805.75 351.94L801.84 349.84L800.79 348.64L799.97 348.7L798.44 348.03L798.18 347.45L797.74 347.14L796.68 346.89L795.21 346.12L794.59 346.29L793.89 345.62V344.77L794.12 344.38H794.1L793.5 341.04L793.91 340.52L794.2 339.53L793.65 339.12L792.77 337.72L793.71 336.06L793.49 335.64L793.87 334.45L795.36 332.77L795.3 332.26L796 331.09L796.71 330.54L796.26 328.44L793.89 327.04L792.99 325.55L793.02 323.77L794.12 323.64L794.58 323.2L793.05 323.09L792.04 322.73L791.34 323.88L790.52 324.32L788.57 324.72L788.06 325.24L787.24 325.3L786.19 324.8L784.03 323.02L783.45 322.78L782.66 322.99L780.77 321.12L779.17 320.15L777.23 318.49L775.05 318.38L774.21 318.7L771.77 318.94L770.8 318.73L769.7 317.46L768.97 317.56L767.36 317.01L765.59 317.07L763.56 315.98L763 315.35L762.66 314.64L762.29 314.71L759.99 313.85L758.83 312.93L758.54 312.21L757.47 312.82L756.07 312.79L754.76 313.15L752.72 312.89L752.25 313.97L751.43 314.67L750.21 315L748.38 314.68L747.89 314.42L747.37 314.49L745.11 312.35L744.95 312.28L744.3 312.83L743.07 313.31L741.17 314.45H740.22L738.25 314.89L736.83 315.6H736.12L735.03 314.67L734.85 313.09L733.63 311.56L732.93 311.33L732.19 311.7L729.48 312.43L728.73 313.36L726.57 313.63H726.52L726.49 313.83L725.55 314.27L724.71 313.77L723.54 315.58L722.4 315.26L721.9 314.29V314.26L720.94 315.06L720.1 311.91L720.07 310.26L724.29 307.4L727.63 304.69L728.14 304.02L728.66 302.14L728.71 300.52L726.91 291.28L726.56 290.23L725.13 288.27L723.49 284.31L722.56 279.2L723.24 275.47L725.09 271.14L725.74 268.01L728.82 262.68L730.48 258.01L730.76 254.93L733.76 252.42L734.42 251.08L735.04 248.58L735.79 247.09L740.52 243.54L741.53 241.51L743.42 234.8L744.4 233.12L748.37 228.62L748.89 229.01L750.05 228.6L753.68 228.36L755.29 227.38L755.94 226.71L756.64 225.17V223.2L756.39 222.93L754.85 222.22L754.24 221.66L752.7 219L752.59 215.41L751.51 211.78L751.54 210.3L752.02 209.52L754.11 207.3L754.18 206.97L754.13 206.8L751.97 205.93L749.22 205.69L747.3 204.96L746.49 204.01L745.93 202.83L745.78 203.39L745.08 204.47L743.51 204.38L742.7 203.85L741.26 200.5L739.99 198.35L738.04 196.8L736.94 195.57L736.52 193.92V193.79C736.68 192.27 735.46 190.86 734.18 189.36C733.47 188.53 732.73 187.67 732.22 186.76C732.1 186.54 731.97 186.32 731.85 186.09C729.98 182.74 727.87 178.95 724.1 177.99C723.14 177.75 722.06 177.62 721.01 177.49C720.36 177.41 719.69 177.33 719.05 177.22L718.94 177.2L718.84 177.15L668.24 152.26L667.18 152.77L664.37 152.38L664.45 152.08L664.32 152.05L663.54 151.28L663.1 150.42L662.28 149.64L661.52 149.51L660.07 150.4L655.97 149.21L654.69 148.17L650.46 146.08L648.27 146.28L646.23 146.11L643.03 145.21L638.37 144.3L637.39 144.56L630.28 148.6L629.76 149.1L625.3 151.43L623.68 152.17L616.71 154.44L614.87 154.61L612.51 152.97L611.85 152.84L611.28 153.19L609.81 152.34L610.92 151.65L610.8 149.69L610.52 148.76L609.46 146.77L608.13 145.74L605.96 145.43L606.35 144.66L606.15 144.33L606.73 142.99H606.77L606.81 142.67L607.66 142.09L607.7 141.97L606.76 141.83L606.3 140.81L606.99 139.89L607.77 140L608.16 139.41L607.78 139.33L606.53 139.76L605.76 138.46L605.47 137.27L605.37 137.17L603.86 136.8L603.3 137.34L602.2 137.48L600.24 136.49L600.61 135.6H600.59L600.08 134.43L599.67 133.96L598.89 133.82L598.31 134.45L598.26 133.71L597.7 133.61L597.8 133.33L596.38 132.71H596.33L595.35 133.35L594.61 134.72L594.01 134.51L593.57 135.41L593.4 135.38L593.65 136.02L593.07 137.31L595.1 137.78L596.64 137.6L598.25 138.82V139.88L599.42 139.96L600.5 141.45L599.36 142.77L598.37 142.71L598.09 143L597.54 144.98L597.56 145.48L598.88 144.8L599.73 145.28L601.42 145.07L602.99 145.87L603.94 145.99L606.17 147.77L602.55 147.33L601.15 146.62L599.41 146.84L598.84 146.51L596.18 147.88L596.16 147.43L594.45 146.77L592.04 144.65L589.87 143.49L581.39 141.68L583.58 141.03L583.52 140.72L583.63 139.71L584.35 137.49L584.26 136.67L585.11 135.55L584.89 135.37L583.2 134.9L583.18 134.74L582.34 134.67L581.04 132.28L581.85 128.71L582.59 128.14L582.96 127.04L583.55 126.97L583.81 126.52L585.88 126.5L586 125.92L584.55 124.68L584.06 123.74L583.26 123.41L583.19 123.14H583.14L582.22 122.81L581.53 123.31L580.96 123.39L580.33 123.94L579.97 124.06L579.64 125.01L578.18 125.49L576.72 123.91L576.89 123L575.81 120.38L576.28 119.86L575.26 118.86L575.88 118.29L575.92 117.94L575.86 117.35L575.62 117.23L575.54 117.28H574.72L573.85 116.75L572.61 116.51L572.27 115.67L570.8 114.96L571.41 114.07V113.88L571.23 113.57L570.94 114.49L570.39 114.78L570.09 115.91L570.11 115.96L571.06 116.88L570.7 118.9L571.27 119.03L571.6 120.25L570.5 121.18L570.7 121.52L569.82 122.88L568.89 122.94L567.29 124.73L566.28 124.61L565.64 124.25L565.02 122.87L563.84 121.82L564.59 119.25L564.12 118.5L563.55 116.66L564.17 114.73H563.75L563.69 113.4L563.24 113.04L562.26 112.78L561.38 112.76L560.26 113.74L559.15 113.27L558.82 112.89L557.48 113.44L556.26 113.5L555.53 111.64L555.34 111.42L555.28 111.4L555.12 111.69L554.96 114.23L557.01 114.91L557.7 117.6L557.14 118.61L555.91 118.99L554.65 119.89L553.71 119.29L553.52 118.46L552.54 117.7H552.48L549.93 118.8L549.2 119.55L547.91 119.42L547.67 119.71L547.21 121.52L546.01 121.41L544.82 120.3L543.8 120.94L543.17 120.89L541.9 121.74L540.77 121.34L540.56 121.48L540.31 122.09L538.64 123.34L537.13 125.96L535.66 127.14L535.72 127.72L535.16 128.99L534.39 129.46V129.6L534.71 130.87L534.76 130.94L535.98 131.48L535.23 132.89L535.38 134.64L533.25 134.38L533.04 134.42L532.46 135.51L531.51 135.81L530.1 137.42L528.43 138.03L526.64 140.44L526.77 140.46L527.51 141.1L529.41 144.37L528.01 146.03L526.6 146.46L526.52 146.57L526.48 146.86L527.32 148.36L529.35 148.31L531.69 150.84L532.4 150.99L533.15 151.55L534.48 151.5L534.94 151.8L536.26 150.77L538.16 151.02L537.19 153.26L538.09 152.71L539.32 152.88L540.13 153.45L540.29 154.22L541.02 154.06V153.56L544.36 153.63L545.24 153.3L547.17 154.15L547.57 154.17L547.77 154.08L548.02 153.79V153.31L547.57 152.42L547.5 151.92L547.09 151.56L546.8 150.35L548.93 148.98L549.44 149.41L549.66 148.84L550.18 148.72L550.33 148.1L551.43 148.02L551.91 147.69L553.42 147.25L554.28 147.2L555.01 147.7L555.31 148.6L555.48 148.74L556.08 148.76L557.13 149.3L557.41 149.22L558.55 148.21L559.25 147.87L559.51 147.92L560.59 146.65L562.22 146.56L562.88 147.08L563.23 149.49L563.45 149.72L564.14 149.54L566.82 152.02L567.13 153.51L565.82 156.56L564.11 157.49L562.01 157.41L561.6 156.25L561.89 155.15L562.86 154.83L562.9 154.79L562.76 153.87L562.51 153.65H562.49L562.11 154.79L561.06 155.7L561.03 155.84L561.44 159.38L562.8 162.72L562.29 164.41L560.72 166.13L560.31 166.09L559.8 167.03L558.98 167.25L558.96 167.28L558.34 168.66H557.44L556.82 169.15L556.44 169.03C555.88 168.85 555.58 168.54 555.38 168.33C555.34 168.29 555.29 168.23 555.26 168.21C555.2 168.21 555.09 168.23 554.87 168.31L554.35 168.51L554.01 168.07C553.52 167.44 553.36 165.81 553.68 164.77C553.92 164.01 554.36 163.72 554.69 163.61C554.74 163.59 554.88 163.55 555.05 163.51L554.92 163.16L553.88 163.24L552.74 161.04L550.67 160.77L550.4 160.54L549.32 160.94L549.16 159.34L546.52 158.8H546.38L546.29 158.91V159.67L546.51 159.72L546.08 161L545.53 161.49L544.99 161.47L544.94 162.83L539.72 164.14L539.63 164.1L539.22 164.98L538.34 165.72L538.13 165.64L537.37 166.77L535.64 167.14V167.21L536.39 168.09L536.41 169.32L536.91 169.42L537.37 170.51L538.13 170.54L539.06 170.31L539.14 170.27L539.35 169.69L541.15 169.08L542.54 171.68L542.33 172.52L540.33 174.01L538.41 173.64C537.83 173.79 535.56 174.88 534.44 175.41C533.78 175.73 533.25 175.98 533.01 176.08C531.96 176.51 531.05 176.73 530.23 176.73C528.63 176.73 527.5 175.98 526.07 175.03C525.54 174.68 524.94 174.28 524.26 173.88L524.02 173.93L523.38 174.44L522.95 175L522.6 176.36L521.67 176.93L517.17 175.79L512.06 175.57L510.94 175.24L509.55 174.24L507.75 171.98L506.21 171.29L505.27 170.32L504.61 168.6L505.14 166.12L505.09 165.8L504.16 165.12L503.21 164.76L502.13 164.69L499.82 165.28L499.05 164.81L498.47 163.6H498.45L496.67 164.32L495.24 164.39L493.74 166.06L492.55 166.45L491.69 165.67L491.21 163.23L490.91 162.74L489.56 162.17L488.63 162.23L487.53 163.06L485.74 166.26L483.83 167.19L482.11 169.09L480.79 169.52L479.39 168.84H478.86L477.51 170.05L477.37 171.1L476.69 172.01L472.64 172.12L471.87 172.56L471.1 173.67L470.36 177.17L469.58 178.18L468.32 179.05L467.18 179.24L466.07 178.97L464.4 177.5L463.93 177.35L463.18 177.61L460.63 179.5L459.08 180.28L455.35 181.09L453.93 180.81L452.54 179.78L451.85 179.56L446.8 179.83L444.13 179.17L443.9 179.28L443.55 179.66L442.73 182.12L441.3 183L439.06 182.15L436.45 181.93L434.98 180.94L434.2 179.61L433.82 177.89L434.45 175.93L434.27 174.94L433.2 172.68L431.42 171.1L430.33 170.86L427.57 170.83L426.5 171.06L423.91 172.49L422.51 172.56L421.48 172.19L420.92 171.42L420.71 171.3L419.18 171.02L419.1 171.06L418.83 171.56L417.79 175.72L415.69 177.31L414.87 179L412.08 180.38L410.5 180.6L407.91 181.53L406.58 182.49L405.48 182.91L403.43 183.39L400.82 183.31L400.45 183.5L400.84 184.76L399.17 184.42L399.09 184.18L396.18 185.84L393.35 185.87L392.02 185.59L390.05 184.56L389.16 182.58L389.03 182.44L387.89 182.21L386.95 181.57L385.55 179.22L383.81 177.48L384.17 176.83L385.08 175.28L386.46 176.53L387.35 176.87L389.62 175.53L390.51 175.59L390.94 175.37L392.04 175.6L392.18 175.03L393.22 174.32L393.1 174.24L392.52 172.13L391.34 171.67L390.85 170.67L391.05 169.91H390.83L389.45 169.24L387.49 168.97L386.69 170.06L385.76 170.6L383.76 172.78L382.67 173.63L381.8 173.78L381.1 173.47L380.39 173.64L379.21 173.4L378.8 171.3L376.96 170.61L376.49 171.71L376.04 174.6L374.46 173.85L373.79 174.01L372.55 173.82L371.47 174.77L371.79 175.22L371.18 176.8L368.54 178.24L366.98 179.57L365.4 180.39L363.79 182.17L361.65 182.6L360.73 183.62L360.61 183.96L361.02 184.66L361.17 185.45H361.4L361.74 185.35L363.59 183.43L364.86 184.4L365.14 184.33L365.92 184.79L366.56 185.77L366.3 187.26L365.18 189.07L364.98 191.07L363.94 190.54L363.24 191.05L362.85 189.95L361.88 190.36L362.41 190.88L362.72 191.92L362.67 193.14L363.12 194.46L362.6 195.35L361.34 195.99L361.44 196.56L359.65 197.76L359.47 198.38L358.57 199.26L356.54 199.91L355.53 199.98L354.4 199.54L353.07 197.72L352.28 197.66L351.02 197.1L350.11 196.31L348.49 195.37L348.36 195.5L348.13 196.33L347.23 197.72L347.61 197.57L348.34 198.23L348.67 198.08L349.58 198.79L350.13 198.57L350.97 199.76L351.53 199.72L353.01 200.45L352.82 201.93L350.87 204.16L353.59 207.98H351.75L351.52 207.67L349.61 204.98L347.9 205.5L347.88 205.56L348.21 206.43L347.4 207.11L347.54 207.29L346.96 208.08L347.61 208L348.43 207.6L349.09 208.95L348.04 209.47L346.7 209.63L346.07 209.57L345.76 209.27L343.4 210.75L343.24 211.76L340.87 212.12L339.73 212.77L339.23 212.83L339.2 213.1L338.37 212.89L336.26 212.34L332.99 212.26L331.21 211.63L330.24 210.41L329.53 210.38L329.47 210.72L329.14 211.2L329.37 213.03L327.78 212.4L327.72 211.96L327.59 211.02H326.56L325.93 211.26L324.5 211.07L324.2 211.41L322.45 212.54L320.91 212.07L320.71 212.14L318.73 213.98L315.69 214.9L314.02 215.73H312.3L312.87 213.89L312.34 213.73L311.34 212.68L311.59 211.76L310.84 210.74L310.56 210.62L310.14 210.64L307.25 211.8L304.31 211.86L303.93 211.02L303.47 210.62L298.51 209.28L299.59 208.17L300.55 205.2L300.75 203.33L300.5 202.23L301.62 200.13L302.28 198.07L303.06 196.71L301.33 197.31L300.09 197.44L297.72 196.98L296.97 196.44L296.05 195.25L294.31 194.14L293.78 193.83L292.56 193.6L290.3 195.71L285.95 195.96L283.69 197.58L282.47 197.77L281.54 196.74L281.48 196.39L279.85 195.81L278.02 195.84L276.85 195.07L274.88 195.24L274.78 194.55L273.35 193.94L272.86 193.33H272.7L270.79 193.91L267.51 195.57L266.96 195.76L267.32 196.81L267.49 198.92L267.18 199.83L267.21 199.96L267.42 200.55L268.46 201.07L268.2 202L269.78 201.72L269.67 203.54L270.1 204.07L269.36 204.92V205.05L270.05 205.71L269.93 206.61L268.15 208.39L266.4 208.7L265.21 208.5L264.18 208.89L264.01 209.14L263.35 211.12L261.55 212.52L260.29 212.13L258.87 212.32L258.68 212.9L258.88 216.55L258.69 218.05L257.98 219.9L254.56 220.12V220.31L253.95 222.1L253.5 222.27L253.53 222.31L253.45 223.1L253.96 223.86L253.06 225.22L251.61 226.27L250.61 226.4L250.63 226.49L248.37 228.19L248.49 229.7L248.1 231.2L247.6 232.1L247.55 232.66L249 231.89L249.27 231.28L250.3 231.32L251.14 230.77L254.14 231.83L254.66 231.86L256.49 230.99L257.22 231.3L258.08 231.32L260.16 230.71L260.46 230.93L262.63 230.77L263.48 230.41L263.81 230.52L265.72 229.79L267.62 229.84L269.66 228.7L270.54 227.56L272.1 227.22L272.7 227.88L274.1 228.19L275.46 228.1L275.76 229.69L276.78 229.54L278.42 230.36L279.22 233.62L278.83 234.24L279.67 234.47L280.99 235.5L280.81 236.29L280.14 237.68L279.8 237.79H279.81L279.76 238.88L277.54 241.22L275.05 240.86L274.5 241.3L271.61 241.65L271.77 241.69L272.46 243.14L272.49 244.21L271.88 245.64L271.45 246.08L270.97 248.04L270.01 248.46L269.82 248.37L268.51 249.9L267.03 249.51L265.56 249.92L265.22 249.81L264.59 250.98L262.86 250.64L261.74 250.97L260.54 250.65L260.24 250.68L259.94 250.8L259.09 251.58L259.62 252.22L259.7 253.02L260.94 255.72L260.73 256.39V258.4L260.25 259.98L260.04 260.18L260.06 260.43L261.44 262.19L261.51 263.44L259.3 264.92L259.32 265.22L258.76 266.62L257.69 267.22H256.68L256.35 267.46L255.95 268.44L255.01 269.58L253 270.3L252.13 271.49L251.37 271.86L250.34 272.88L249.65 273.24L248.87 274.15L248.44 274.24L247.64 274.93L247.22 276.38L246.61 276.98L246.51 277.29L246.59 279.5L245.06 279.34L244.89 279.94L244.39 280.49L240.74 282.44L240.9 282.64L241.29 282.69L242.17 282.44L243.86 283.26L243.79 284.38L242.44 285.79L241.94 286.72L240.43 287.33L240.27 288.46L238 289.83L237.49 290.73L236.48 291.38L235.7 292.65L234.6 292.75L234.35 293.57L233.71 294.05L232.05 294.45L231.33 295.04L229.24 295.8L228.26 296.52L226.72 296.57L226.23 296.78L224.11 298.19L223.35 299.32L222.7 299.73H222.5V299.83L223.3 301.41L223.33 302.22L222.89 303.46L222.08 304.27L220.49 304.77L219.53 304.69L218.91 304.39L218.52 304.75L217.36 305.12L217.23 305.44L216.36 306.1L216.26 306.14L216.54 306.23L215.87 307.55L216.16 308.2L215.35 308.82L214.75 309.84L213.68 310.11L214.23 310.37L214.87 311.35L215.33 311.37L216.39 311.87L216.85 312.82L218.52 313.41L218.24 314.89L216.6 315.81L214.99 317.61L213.5 318.73L211.82 318.61L210.05 319.25L207.34 321.07L205.75 323.25L204.83 325.89L203.83 327.56L202.31 329.05L200.97 329.7L200.06 330.55L197.78 331.16L196.6 331.13L195.36 330.69L195.04 330.72L191.58 333.05L189.35 334.02L188.37 334.21L184.44 335.76L182.77 336.18L181.53 336.23L178.14 338.01L176.76 335.99L175.27 337.3L173.38 339.37L171.31 342.22L170.78 343.35L168.82 345.52L165.96 347.47L166.41 348.55L166.95 349L170.47 354.06L171.64 357.1L170.87 367.48L167.88 372.88L167.33 375.12L167.48 377.63L165.92 378.5L166.51 380.57L170.99 384.11L169.66 386.99L169.68 388.36L167.19 390.38L167.29 391.48L165.3 393.41L164.22 394.12L160.77 395.18L159.75 395.25L158.9 395.8L158.22 396.59L158.81 397.75L157.69 399.49L156.69 400.45L154.94 400.64L155.02 401.51L154.44 402.42L153.72 402.52L153.29 402.9L152.27 402.93L151.66 403.61L151.27 404.79L150.46 404.87L148.71 406.14L146.33 407.04L145.78 407.06L140.31 410.42L138.4 411.12L137.37 412.41L136.38 412.92L136.61 414.07L135.96 414.26L135.47 415.04L130.02 419.98L128.82 421.83L127.23 423.07L126.97 423.05L126.91 423.11L127.01 423.6L126.01 424.03L124.72 425.73L123.69 425.66H123.66L122.39 427.8L119.91 429.53L119.72 430.82L116.65 432.54L116.2 432.56L114.81 434.22L114.03 434.41L113.13 435.27L112.15 435.8L109.98 437.73L109.05 439.26L107.57 440.65L116.03 448.95L114.6 450.38L115.49 451.26L113.59 453.56L112.64 454.61L111.65 453.74L107.76 458.59L105.93 462.63L104.62 466.26L101.04 469.8L100.45 470.83L100.9 471.79L100.92 473.12L102.28 474.28L102.82 475.84L102.33 477.11L100.81 478.97L100.57 480.02L99.04 482.66L99.4 482.79L104.18 484.26L106.03 486.75L106.57 486.88L107.06 486.43L112.06 490.41L114.02 492.46L114.69 492.17L116.21 492.32L116.81 494.21L118.36 496.13L116.27 498.74L116.05 499.37L116.11 500.38L115.69 501.03L114.04 503.07L113.02 503.9L112.75 503.77L112.6 504.41L112.94 504.9L112.39 505.35L112.24 506.02L112.13 505.81L111.99 506L112.24 506.79L111.66 506.9L111.64 507.04L110.26 508.5L110.21 509.13L109.17 510.38L109.05 510.46Z" stroke="#1A1A1A" stroke-width="3" stroke-linecap="round" stroke-linejoin="round"/>
<path d="M320.34 276.45V284.2" stroke="black" stroke-width="3.88" stroke-linecap="round" stroke-linejoin="round"/>
<path d="M324.22 291.96H316.47" stroke="black" stroke-width="3.88" stroke-linecap="round" stroke-linejoin="round"/>
<path d="M324.22 299.71H316.47" stroke="black" stroke-width="3.88" stroke-linecap="round" stroke-linejoin="round"/>
<path d="M324.22 280.33H316.47" stroke="black" stroke-width="3.88" stroke-linecap="round" stroke-linejoin="round"/>
<path d="M331.97 288.08H335.85C337.99 288.08 339.73 289.82 339.73 291.96V303.59C339.73 305.73 337.99 307.47 335.85 307.47H304.83C302.69 307.47 300.95 305.73 300.95 303.59V286.14C300.95 284 302.69 282.26 304.83 282.26H308.71" stroke="black" stroke-width="3.88" stroke-linecap="round" stroke-linejoin="round"/>
<path d="M331.97 307.47V272.57C331.97 270.43 330.23 268.69 328.09 268.69H312.58C310.44 268.69 308.7 270.43 308.7 272.57V307.47" stroke="black" stroke-width="3.88" stroke-linecap="round" stroke-linejoin="round"/>
<path d="M358.37 332.32V330.09C358.37 327.62 356.37 325.62 353.9 325.62H347.2C344.73 325.62 342.73 327.62 342.73 330.09V332.32" stroke="black" stroke-width="2.23" stroke-linecap="round" stroke-linejoin="round"/>
<path d="M350.56 321.16C353.029 321.16 355.03 319.159 355.03 316.69C355.03 314.221 353.029 312.22 350.56 312.22C348.091 312.22 346.09 314.221 346.09 316.69C346.09 319.159 348.091 321.16 350.56 321.16Z" stroke="black" stroke-width="2.23" stroke-linecap="round" stroke-linejoin="round"/>
<path d="M359.49 317.81L365.07 323.39" stroke="#FF0000" stroke-width="2.23" stroke-linecap="round" stroke-linejoin="round"/>
<path d="M365.07 317.81L359.49 323.39" stroke="#FF0000" stroke-width="2.23" stroke-linecap="round" stroke-linejoin="round"/>
<path d="M324.8 339.02V336.79C324.8 334.32 322.8 332.32 320.33 332.32H313.63C311.16 332.32 309.16 334.32 309.16 336.79V339.02" stroke="black" stroke-width="2.23" stroke-linecap="round" stroke-linejoin="round"/>
<path d="M316.99 327.86C319.459 327.86 321.46 325.859 321.46 323.39C321.46 320.921 319.459 318.92 316.99 318.92C314.521 318.92 312.52 320.921 312.52 323.39C312.52 325.859 314.521 327.86 316.99 327.86Z" stroke="black" stroke-width="2.23" stroke-linecap="round" stroke-linejoin="round"/>
<path d="M325.92 324.51L331.5 330.09" stroke="#FF0000" stroke-width="2.23" stroke-linecap="round" stroke-linejoin="round"/>
<path d="M331.5 324.51L325.92 330.09" stroke="#FF0000" stroke-width="2.23" stroke-linecap="round" stroke-linejoin="round"/>
<path d="M366.19 286.41L368.42 288.64L372.89 284.17" stroke="#52BF13" stroke-width="2" stroke-linecap="round" stroke-linejoin="round"/>
<path d="M366.19 297.57V295.34C366.19 292.87 364.19 290.87 361.72 290.87H355.02C352.55 290.87 350.55 292.87 350.55 295.34V297.57" stroke="black" stroke-width="2.23" stroke-linecap="round" stroke-linejoin="round"/>
<path d="M358.37 286.41C360.839 286.41 362.84 284.409 362.84 281.94C362.84 279.471 360.839 277.47 358.37 277.47C355.901 277.47 353.9 279.471 353.9 281.94C353.9 284.409 355.901 286.41 358.37 286.41Z" stroke="black" stroke-width="2.23" stroke-linecap="round" stroke-linejoin="round"/>
<path d="M355.02 251.65L357.25 253.88L361.72 249.41" stroke="#52BF13" stroke-width="2" stroke-linecap="round" stroke-linejoin="round"/>
<path d="M355.02 262.82V260.59C355.02 258.12 353.02 256.12 350.55 256.12H343.85C341.38 256.12 339.38 258.12 339.38 260.59V262.82" stroke="black" stroke-width="2.23" stroke-linecap="round" stroke-linejoin="round"/>
<path d="M347.21 251.66C349.679 251.66 351.68 249.659 351.68 247.19C351.68 244.721 349.679 242.72 347.21 242.72C344.741 242.72 342.74 244.721 342.74 247.19C342.74 249.659 344.741 251.66 347.21 251.66Z" stroke="black" stroke-width="2.23" stroke-linecap="round" stroke-linejoin="round"/>
<path d="M323.69 246.07L325.92 248.3L330.39 243.83" stroke="#52BF13" stroke-width="2" stroke-linecap="round" stroke-linejoin="round"/>
<path d="M323.69 257.23V255C323.69 252.53 321.69 250.53 319.22 250.53H312.52C310.05 250.53 308.05 252.53 308.05 255V257.23" stroke="black" stroke-width="2.23" stroke-linecap="round" stroke-linejoin="round"/>
<path d="M315.87 246.07C318.339 246.07 320.34 244.069 320.34 241.6C320.34 239.131 318.339 237.13 315.87 237.13C313.401 237.13 311.4 239.131 311.4 241.6C311.4 244.069 313.401 246.07 315.87 246.07Z" stroke="black" stroke-width="2.23" stroke-linecap="round" stroke-linejoin="round"/>
<path d="M331.56 516.21V523.96" stroke="black" stroke-width="3.88" stroke-linecap="round" stroke-linejoin="round"/>
<path d="M335.44 531.72H327.69" stroke="black" stroke-width="3.88" stroke-linecap="round" stroke-linejoin="round"/>
<path d="M335.44 539.48H327.69" stroke="black" stroke-width="3.88" stroke-linecap="round" stroke-linejoin="round"/>
<path d="M335.44 520.09H327.69" stroke="black" stroke-width="3.88" stroke-linecap="round" stroke-linejoin="round"/>
<path d="M343.2 527.85H347.08C349.22 527.85 350.96 529.59 350.96 531.73V543.36C350.96 545.5 349.22 547.24 347.08 547.24H316.06C313.92 547.24 312.18 545.5 312.18 543.36V525.91C312.18 523.77 313.92 522.03 316.06 522.03H319.94" stroke="black" stroke-width="3.88" stroke-linecap="round" stroke-linejoin="round"/>
<path d="M343.2 547.23V512.33C343.2 510.19 341.46 508.45 339.32 508.45H323.81C321.67 508.45 319.93 510.19 319.93 512.33V547.23" stroke="black" stroke-width="3.88" stroke-linecap="round" stroke-linejoin="round"/>
<path d="M369.6 572.09V569.86C369.6 567.39 367.6 565.39 365.13 565.39H358.43C355.96 565.39 353.96 567.39 353.96 569.86V572.09" stroke="black" stroke-width="2.23" stroke-linecap="round" stroke-linejoin="round"/>
<path d="M361.78 560.93C364.249 560.93 366.25 558.929 366.25 556.46C366.25 553.991 364.249 551.99 361.78 551.99C359.311 551.99 357.31 553.991 357.31 556.46C357.31 558.929 359.311 560.93 361.78 560.93Z" stroke="black" stroke-width="2.23" stroke-linecap="round" stroke-linejoin="round"/>
<path d="M370.71 557.58L376.29 563.16" stroke="#FF0000" stroke-width="2.23" stroke-linecap="round" stroke-linejoin="round"/>
<path d="M376.29 557.58L370.71 563.16" stroke="#FF0000" stroke-width="2.23" stroke-linecap="round" stroke-linejoin="round"/>
<path d="M336.03 578.79V576.56C336.03 574.09 334.03 572.09 331.56 572.09H324.86C322.39 572.09 320.39 574.09 320.39 576.56V578.79" stroke="black" stroke-width="2.23" stroke-linecap="round" stroke-linejoin="round"/>
<path d="M328.21 567.63C330.679 567.63 332.68 565.629 332.68 563.16C332.68 560.691 330.679 558.69 328.21 558.69C325.741 558.69 323.74 560.691 323.74 563.16C323.74 565.629 325.741 567.63 328.21 567.63Z" stroke="black" stroke-width="2.23" stroke-linecap="round" stroke-linejoin="round"/>
<path d="M337.15 564.27L342.73 569.86" stroke="#FF0000" stroke-width="2.23" stroke-linecap="round" stroke-linejoin="round"/>
<path d="M342.73 564.27L337.15 569.86" stroke="#FF0000" stroke-width="2.23" stroke-linecap="round" stroke-linejoin="round"/>
<path d="M377.41 526.17L379.64 528.4L384.11 523.93" stroke="#52BF13" stroke-width="2" stroke-linecap="round" stroke-linejoin="round"/>
<path d="M377.41 537.34V535.11C377.41 532.64 375.41 530.64 372.94 530.64H366.24C363.77 530.64 361.77 532.64 361.77 535.11V537.34" stroke="black" stroke-width="2.23" stroke-linecap="round" stroke-linejoin="round"/>
<path d="M369.6 526.18C372.069 526.18 374.07 524.179 374.07 521.71C374.07 519.241 372.069 517.24 369.6 517.24C367.131 517.24 365.13 519.241 365.13 521.71C365.13 524.179 367.131 526.18 369.6 526.18Z" stroke="black" stroke-width="2.23" stroke-linecap="round" stroke-linejoin="round"/>
<path d="M366.25 491.42L368.48 493.65L372.95 489.18" stroke="#52BF13" stroke-width="2" stroke-linecap="round" stroke-linejoin="round"/>
<path d="M366.25 502.58V500.35C366.25 497.88 364.25 495.88 361.78 495.88H355.08C352.61 495.88 350.61 497.88 350.61 500.35V502.58" stroke="black" stroke-width="2.23" stroke-linecap="round" stroke-linejoin="round"/>
<path d="M358.43 491.42C360.899 491.42 362.9 489.419 362.9 486.95C362.9 484.481 360.899 482.48 358.43 482.48C355.961 482.48 353.96 484.481 353.96 486.95C353.96 489.419 355.961 491.42 358.43 491.42Z" stroke="black" stroke-width="2.23" stroke-linecap="round" stroke-linejoin="round"/>
<path d="M334.91 485.84L337.14 488.07L341.61 483.6" stroke="#52BF13" stroke-width="2" stroke-linecap="round" stroke-linejoin="round"/>
<path d="M334.91 497V494.77C334.91 492.3 332.91 490.3 330.44 490.3H323.74C321.27 490.3 319.27 492.3 319.27 494.77V497" stroke="black" stroke-width="2.23" stroke-linecap="round" stroke-linejoin="round"/>
<path d="M327.1 485.84C329.569 485.84 331.57 483.839 331.57 481.37C331.57 478.901 329.569 476.9 327.1 476.9C324.631 476.9 322.63 478.901 322.63 481.37C322.63 483.839 324.631 485.84 327.1 485.84Z" stroke="black" stroke-width="2.23" stroke-linecap="round" stroke-linejoin="round"/>
<path d="M753.04 392.67V400.42" stroke="black" stroke-width="3.88" stroke-linecap="round" stroke-linejoin="round"/>
<path d="M756.91 408.18H749.16" stroke="black" stroke-width="3.88" stroke-linecap="round" stroke-linejoin="round"/>
<path d="M756.91 415.93H749.16" stroke="black" stroke-width="3.88" stroke-linecap="round" stroke-linejoin="round"/>
<path d="M756.91 396.55H749.16" stroke="black" stroke-width="3.88" stroke-linecap="round" stroke-linejoin="round"/>
<path d="M764.67 404.3H768.55C770.69 404.3 772.43 406.04 772.43 408.18V419.81C772.43 421.95 770.69 423.69 768.55 423.69H737.53C735.39 423.69 733.65 421.95 733.65 419.81V402.36C733.65 400.22 735.39 398.48 737.53 398.48H741.41" stroke="black" stroke-width="3.88" stroke-linecap="round" stroke-linejoin="round"/>
<path d="M764.67 423.69V388.79C764.67 386.65 762.93 384.91 760.79 384.91H745.28C743.14 384.91 741.4 386.65 741.4 388.79V423.69" stroke="black" stroke-width="3.88" stroke-linecap="round" stroke-linejoin="round"/>
<path d="M791.07 448.55V446.32C791.07 443.85 789.07 441.85 786.6 441.85H779.9C777.43 441.85 775.43 443.85 775.43 446.32V448.55" stroke="black" stroke-width="2.23" stroke-linecap="round" stroke-linejoin="round"/>
<path d="M783.25 437.39C785.719 437.39 787.72 435.389 787.72 432.92C787.72 430.451 785.719 428.45 783.25 428.45C780.781 428.45 778.78 430.451 778.78 432.92C778.78 435.389 780.781 437.39 783.25 437.39Z" stroke="black" stroke-width="2.23" stroke-linecap="round" stroke-linejoin="round"/>
<path d="M792.19 434.03L797.77 439.61" stroke="#FF0000" stroke-width="2.23" stroke-linecap="round" stroke-linejoin="round"/>
<path d="M797.77 434.03L792.19 439.61" stroke="#FF0000" stroke-width="2.23" stroke-linecap="round" stroke-linejoin="round"/>
<path d="M757.5 455.25V453.02C757.5 450.55 755.5 448.55 753.03 448.55H746.33C743.86 448.55 741.86 450.55 741.86 453.02V455.25" stroke="black" stroke-width="2.23" stroke-linecap="round" stroke-linejoin="round"/>
<path d="M749.69 444.08C752.158 444.08 754.16 442.079 754.16 439.61C754.16 437.141 752.158 435.14 749.69 435.14C747.221 435.14 745.22 437.141 745.22 439.61C745.22 442.079 747.221 444.08 749.69 444.08Z" stroke="black" stroke-width="2.23" stroke-linecap="round" stroke-linejoin="round"/>
<path d="M758.62 440.73L764.2 446.31" stroke="#FF0000" stroke-width="2.23" stroke-linecap="round" stroke-linejoin="round"/>
<path d="M764.2 440.73L758.62 446.31" stroke="#FF0000" stroke-width="2.23" stroke-linecap="round" stroke-linejoin="round"/>
<path d="M798.88 402.63L801.11 404.86L805.58 400.39" stroke="#52BF13" stroke-width="2" stroke-linecap="round" stroke-linejoin="round"/>
<path d="M798.88 413.79V411.56C798.88 409.09 796.88 407.09 794.41 407.09H787.71C785.24 407.09 783.24 409.09 783.24 411.56V413.79" stroke="black" stroke-width="2.23" stroke-linecap="round" stroke-linejoin="round"/>
<path d="M791.07 402.63C793.539 402.63 795.54 400.629 795.54 398.16C795.54 395.691 793.539 393.69 791.07 393.69C788.601 393.69 786.6 395.691 786.6 398.16C786.6 400.629 788.601 402.63 791.07 402.63Z" stroke="black" stroke-width="2.23" stroke-linecap="round" stroke-linejoin="round"/>
<path d="M787.72 367.87L789.95 370.1L794.42 365.63" stroke="#52BF13" stroke-width="2" stroke-linecap="round" stroke-linejoin="round"/>
<path d="M787.72 379.04V376.81C787.72 374.34 785.72 372.34 783.25 372.34H776.55C774.08 372.34 772.08 374.34 772.08 376.81V379.04" stroke="black" stroke-width="2.23" stroke-linecap="round" stroke-linejoin="round"/>
<path d="M779.9 367.88C782.368 367.88 784.37 365.879 784.37 363.41C784.37 360.941 782.368 358.94 779.9 358.94C777.431 358.94 775.43 360.941 775.43 363.41C775.43 365.879 777.431 367.88 779.9 367.88Z" stroke="black" stroke-width="2.23" stroke-linecap="round" stroke-linejoin="round"/>
<path d="M756.39 362.29L758.62 364.52L763.09 360.05" stroke="#52BF13" stroke-width="2" stroke-linecap="round" stroke-linejoin="round"/>
<path d="M756.39 373.46V371.23C756.39 368.76 754.39 366.76 751.92 366.76H745.22C742.75 366.76 740.75 368.76 740.75 371.23V373.46" stroke="black" stroke-width="2.23" stroke-linecap="round" stroke-linejoin="round"/>
<path d="M748.57 362.3C751.039 362.3 753.04 360.299 753.04 357.83C753.04 355.361 751.039 353.36 748.57 353.36C746.101 353.36 744.1 355.361 744.1 357.83C744.1 360.299 746.101 362.3 748.57 362.3Z" stroke="black" stroke-width="2.23" stroke-linecap="round" stroke-linejoin="round"/>
<path d="M616.09 203.89V211.64" stroke="black" stroke-width="3.88" stroke-linecap="round" stroke-linejoin="round"/>
<path d="M619.97 219.4H612.22" stroke="black" stroke-width="3.88" stroke-linecap="round" stroke-linejoin="round"/>
<path d="M619.97 227.15H612.22" stroke="black" stroke-width="3.88" stroke-linecap="round" stroke-linejoin="round"/>
<path d="M619.97 207.77H612.22" stroke="black" stroke-width="3.88" stroke-linecap="round" stroke-linejoin="round"/>
<path d="M627.73 215.52H631.61C633.75 215.52 635.49 217.26 635.49 219.4V231.03C635.49 233.17 633.75 234.91 631.61 234.91H600.59C598.45 234.91 596.71 233.17 596.71 231.03V213.58C596.71 211.44 598.45 209.7 600.59 209.7H604.47" stroke="black" stroke-width="3.88" stroke-linecap="round" stroke-linejoin="round"/>
<path d="M627.73 234.91V200.01C627.73 197.87 625.99 196.13 623.85 196.13H608.34C606.2 196.13 604.46 197.87 604.46 200.01V234.91" stroke="black" stroke-width="3.88" stroke-linecap="round" stroke-linejoin="round"/>
<path d="M654.13 259.77V257.54C654.13 255.07 652.13 253.07 649.66 253.07H642.96C640.49 253.07 638.49 255.07 638.49 257.54V259.77" stroke="black" stroke-width="2.23" stroke-linecap="round" stroke-linejoin="round"/>
<path d="M646.31 248.6C648.779 248.6 650.78 246.599 650.78 244.13C650.78 241.661 648.779 239.66 646.31 239.66C643.841 239.66 641.84 241.661 641.84 244.13C641.84 246.599 643.841 248.6 646.31 248.6Z" stroke="black" stroke-width="2.23" stroke-linecap="round" stroke-linejoin="round"/>
<path d="M655.24 245.25L660.83 250.83" stroke="#FF0000" stroke-width="2.23" stroke-linecap="round" stroke-linejoin="round"/>
<path d="M660.83 245.25L655.24 250.83" stroke="#FF0000" stroke-width="2.23" stroke-linecap="round" stroke-linejoin="round"/>
<path d="M620.56 266.46V264.23C620.56 261.76 618.56 259.76 616.09 259.76H609.39C606.92 259.76 604.92 261.76 604.92 264.23V266.46" stroke="black" stroke-width="2.23" stroke-linecap="round" stroke-linejoin="round"/>
<path d="M612.74 255.3C615.209 255.3 617.21 253.299 617.21 250.83C617.21 248.361 615.209 246.36 612.74 246.36C610.271 246.36 608.27 248.361 608.27 250.83C608.27 253.299 610.271 255.3 612.74 255.3Z" stroke="black" stroke-width="2.23" stroke-linecap="round" stroke-linejoin="round"/>
<path d="M621.68 251.95L627.26 257.53" stroke="#FF0000" stroke-width="2.23" stroke-linecap="round" stroke-linejoin="round"/>
<path d="M627.26 251.95L621.68 257.53" stroke="#FF0000" stroke-width="2.23" stroke-linecap="round" stroke-linejoin="round"/>
<path d="M661.94 213.85L664.17 216.08L668.64 211.61" stroke="#52BF13" stroke-width="2" stroke-linecap="round" stroke-linejoin="round"/>
<path d="M661.94 225.01V222.78C661.94 220.31 659.94 218.31 657.47 218.31H650.77C648.3 218.31 646.3 220.31 646.3 222.78V225.01" stroke="black" stroke-width="2.23" stroke-linecap="round" stroke-linejoin="round"/>
<path d="M654.13 213.85C656.599 213.85 658.6 211.849 658.6 209.38C658.6 206.911 656.599 204.91 654.13 204.91C651.661 204.91 649.66 206.911 649.66 209.38C649.66 211.849 651.661 213.85 654.13 213.85Z" stroke="black" stroke-width="2.23" stroke-linecap="round" stroke-linejoin="round"/>
<path d="M650.78 179.09L653.01 181.32L657.48 176.85" stroke="#52BF13" stroke-width="2" stroke-linecap="round" stroke-linejoin="round"/>
<path d="M650.78 190.26V188.03C650.78 185.56 648.78 183.56 646.31 183.56H639.61C637.14 183.56 635.14 185.56 635.14 188.03V190.26" stroke="black" stroke-width="2.23" stroke-linecap="round" stroke-linejoin="round"/>
<path d="M642.96 179.1C645.428 179.1 647.43 177.099 647.43 174.63C647.43 172.161 645.428 170.16 642.96 170.16C640.491 170.16 638.49 172.161 638.49 174.63C638.49 177.099 640.491 179.1 642.96 179.1Z" stroke="black" stroke-width="2.23" stroke-linecap="round" stroke-linejoin="round"/>
<path d="M619.44 173.51L621.67 175.74L626.14 171.27" stroke="#52BF13" stroke-width="2" stroke-linecap="round" stroke-linejoin="round"/>
<path d="M619.44 184.68V182.45C619.44 179.98 617.44 177.98 614.97 177.98H608.27C605.8 177.98 603.8 179.98 603.8 182.45V184.68" stroke="black" stroke-width="2.23" stroke-linecap="round" stroke-linejoin="round"/>
<path d="M611.63 173.51C614.099 173.51 616.1 171.509 616.1 169.04C616.1 166.571 614.099 164.57 611.63 164.57C609.161 164.57 607.16 166.571 607.16 169.04C607.16 171.509 609.161 173.51 611.63 173.51Z" stroke="black" stroke-width="2.23" stroke-linecap="round" stroke-linejoin="round"/>
<path d="M225.67 390.62V398.37" stroke="black" stroke-width="3.88" stroke-linecap="round" stroke-linejoin="round"/>
<path d="M229.55 406.13H221.8" stroke="black" stroke-width="3.88" stroke-linecap="round" stroke-linejoin="round"/>
<path d="M229.55 413.88H221.8" stroke="black" stroke-width="3.88" stroke-linecap="round" stroke-linejoin="round"/>
<path d="M229.55 394.5H221.8" stroke="black" stroke-width="3.88" stroke-linecap="round" stroke-linejoin="round"/>
<path d="M237.3 402.25H241.18C243.32 402.25 245.06 403.99 245.06 406.13V417.76C245.06 419.9 243.32 421.64 241.18 421.64H210.16C208.02 421.64 206.28 419.9 206.28 417.76V400.31C206.28 398.17 208.02 396.43 210.16 396.43H214.04" stroke="black" stroke-width="3.88" stroke-linecap="round" stroke-linejoin="round"/>
<path d="M237.3 421.64V386.74C237.3 384.6 235.56 382.86 233.42 382.86H217.91C215.77 382.86 214.03 384.6 214.03 386.74V421.64" stroke="black" stroke-width="3.88" stroke-linecap="round" stroke-linejoin="round"/>
<path d="M263.7 446.49V444.26C263.7 441.79 261.7 439.79 259.23 439.79H252.53C250.06 439.79 248.06 441.79 248.06 444.26V446.49" stroke="black" stroke-width="2.23" stroke-linecap="round" stroke-linejoin="round"/>
<path d="M255.89 435.33C258.359 435.33 260.36 433.329 260.36 430.86C260.36 428.391 258.359 426.39 255.89 426.39C253.421 426.39 251.42 428.391 251.42 430.86C251.42 433.329 253.421 435.33 255.89 435.33Z" stroke="black" stroke-width="2.23" stroke-linecap="round" stroke-linejoin="round"/>
<path d="M264.82 431.98L270.4 437.56" stroke="#FF0000" stroke-width="2.23" stroke-linecap="round" stroke-linejoin="round"/>
<path d="M270.4 431.98L264.82 437.56" stroke="#FF0000" stroke-width="2.23" stroke-linecap="round" stroke-linejoin="round"/>
<path d="M230.13 453.19V450.96C230.13 448.49 228.13 446.49 225.66 446.49H218.96C216.49 446.49 214.49 448.49 214.49 450.96V453.19" stroke="black" stroke-width="2.23" stroke-linecap="round" stroke-linejoin="round"/>
<path d="M222.32 442.03C224.789 442.03 226.79 440.029 226.79 437.56C226.79 435.091 224.789 433.09 222.32 433.09C219.851 433.09 217.85 435.091 217.85 437.56C217.85 440.029 219.851 442.03 222.32 442.03Z" stroke="black" stroke-width="2.23" stroke-linecap="round" stroke-linejoin="round"/>
<path d="M231.25 438.68L236.83 444.26" stroke="#FF0000" stroke-width="2.23" stroke-linecap="round" stroke-linejoin="round"/>
<path d="M236.83 438.68L231.25 444.26" stroke="#FF0000" stroke-width="2.23" stroke-linecap="round" stroke-linejoin="round"/>
<path d="M271.52 400.58L273.75 402.81L278.22 398.34" stroke="#52BF13" stroke-width="2" stroke-linecap="round" stroke-linejoin="round"/>
<path d="M271.52 411.74V409.51C271.52 407.04 269.52 405.04 267.05 405.04H260.35C257.88 405.04 255.88 407.04 255.88 409.51V411.74" stroke="black" stroke-width="2.23" stroke-linecap="round" stroke-linejoin="round"/>
<path d="M263.7 400.58C266.169 400.58 268.17 398.579 268.17 396.11C268.17 393.641 266.169 391.64 263.7 391.64C261.232 391.64 259.23 393.641 259.23 396.11C259.23 398.579 261.232 400.58 263.7 400.58Z" stroke="black" stroke-width="2.23" stroke-linecap="round" stroke-linejoin="round"/>
<path d="M260.35 365.82L262.58 368.05L267.05 363.58" stroke="#52BF13" stroke-width="2" stroke-linecap="round" stroke-linejoin="round"/>
<path d="M260.35 376.99V374.76C260.35 372.29 258.35 370.29 255.88 370.29H249.18C246.71 370.29 244.71 372.29 244.71 374.76V376.99" stroke="black" stroke-width="2.23" stroke-linecap="round" stroke-linejoin="round"/>
<path d="M252.54 365.83C255.009 365.83 257.01 363.829 257.01 361.36C257.01 358.891 255.009 356.89 252.54 356.89C250.071 356.89 248.07 358.891 248.07 361.36C248.07 363.829 250.071 365.83 252.54 365.83Z" stroke="black" stroke-width="2.23" stroke-linecap="round" stroke-linejoin="round"/>
<path d="M229.02 360.24L231.25 362.47L235.72 358" stroke="#52BF13" stroke-width="2" stroke-linecap="round" stroke-linejoin="round"/>
<path d="M229.02 371.4V369.17C229.02 366.7 227.02 364.7 224.55 364.7H217.85C215.38 364.7 213.38 366.7 213.38 369.17V371.4" stroke="black" stroke-width="2.23" stroke-linecap="round" stroke-linejoin="round"/>
<path d="M221.2 360.24C223.669 360.24 225.67 358.239 225.67 355.77C225.67 353.301 223.669 351.3 221.2 351.3C218.731 351.3 216.73 353.301 216.73 355.77C216.73 358.239 218.731 360.24 221.2 360.24Z" stroke="black" stroke-width="2.23" stroke-linecap="round" stroke-linejoin="round"/>
<path d="M497.38 729.69H518.12C519.76 729.69 521.08 728.36 521.08 726.73V707.47L513.67 700.06H500.33C498.69 700.06 497.37 701.39 497.37 703.02V708.95" stroke="black" stroke-width="2.96" stroke-linecap="round" stroke-linejoin="round"/>
<path d="M512.19 700.05V705.98C512.19 707.62 513.52 708.94 515.15 708.94H521.08" stroke="black" stroke-width="2.96" stroke-linecap="round" stroke-linejoin="round"/>
<path d="M498.86 714.87L494.41 719.32L498.86 723.77" stroke="black" stroke-width="2.96" stroke-linecap="round" stroke-linejoin="round"/>
<path d="M504.78 723.76L509.23 719.31L504.78 714.86" stroke="black" stroke-width="2.96" stroke-linecap="round" stroke-linejoin="round"/>
<path d="M530.87 729.69H551.61C553.25 729.69 554.57 728.36 554.57 726.73V707.47L547.16 700.06H533.82C532.18 700.06 530.86 701.39 530.86 703.02V708.95" stroke="black" stroke-width="2.96" stroke-linecap="round" stroke-linejoin="round"/>
<path d="M545.69 700.05V705.98C545.69 707.62 547.02 708.94 548.65 708.94H554.58" stroke="black" stroke-width="2.96" stroke-linecap="round" stroke-linejoin="round"/>
<path d="M532.35 714.87L527.9 719.32L532.35 723.77" stroke="black" stroke-width="2.96" stroke-linecap="round" stroke-linejoin="round"/>
<path d="M538.28 723.76L542.73 719.31L538.28 714.86" stroke="black" stroke-width="2.96" stroke-linecap="round" stroke-linejoin="round"/>
<path d="M427.97 31.64H448.71C450.35 31.64 451.67 30.31 451.67 28.68V9.41L444.26 2H430.92C429.28 2 427.96 3.33 427.96 4.96V10.89" stroke="black" stroke-width="2.96" stroke-linecap="round" stroke-linejoin="round"/>
<path d="M442.78 2V7.93C442.78 9.57 444.11 10.89 445.74 10.89H451.67" stroke="black" stroke-width="2.96" stroke-linecap="round" stroke-linejoin="round"/>
<path d="M429.45 16.82L425 21.27L429.45 25.72" stroke="black" stroke-width="2.96" stroke-linecap="round" stroke-linejoin="round"/>
<path d="M435.37 25.71L439.82 21.26L435.37 16.81" stroke="black" stroke-width="2.96" stroke-linecap="round" stroke-linejoin="round"/>
<path d="M461.46 31.64H482.2C483.84 31.64 485.16 30.31 485.16 28.68V9.41L477.75 2H464.41C462.77 2 461.45 3.33 461.45 4.96V10.89" stroke="black" stroke-width="2.96" stroke-linecap="round" stroke-linejoin="round"/>
<path d="M476.28 2V7.93C476.28 9.57 477.61 10.89 479.24 10.89H485.17" stroke="black" stroke-width="2.96" stroke-linecap="round" stroke-linejoin="round"/>
<path d="M462.94 16.82L458.49 21.27L462.94 25.72" stroke="black" stroke-width="2.96" stroke-linecap="round" stroke-linejoin="round"/>
<path d="M468.87 25.71L473.32 21.26L468.87 16.81" stroke="black" stroke-width="2.96" stroke-linecap="round" stroke-linejoin="round"/>
<path d="M527.59 645.38C526.57 650.2 524.23 654.64 520.83 658.21C511.05 647.95 511.05 631.81 520.83 621.55C510.71 621.55 502.5 629.76 502.5 639.89C502.5 650.01 510.71 658.22 520.84 658.22C528.84 658.22 535.92 653.02 538.32 645.39" stroke="black" stroke-width="3.67" stroke-linecap="round" stroke-linejoin="round"/>
<path d="M502.5 639.88H518.08" stroke="black" stroke-width="3.67" stroke-linecap="round" stroke-linejoin="round"/>
<path d="M535.49 628.88V625.21C535.49 623.19 533.85 621.54 531.82 621.54C529.79 621.54 528.15 623.18 528.15 625.21V628.88" stroke="black" stroke-width="3.67" stroke-linecap="round" stroke-linejoin="round"/>
<path d="M537.33 628.88H526.33C525.319 628.88 524.5 629.699 524.5 630.71V636.22C524.5 637.231 525.319 638.05 526.33 638.05H537.33C538.341 638.05 539.16 637.231 539.16 636.22V630.71C539.16 629.699 538.341 628.88 537.33 628.88Z" stroke="black" stroke-width="3.67" stroke-linecap="round" stroke-linejoin="round"/>
<path d="M862.31 245.41C861.29 250.23 858.95 254.67 855.55 258.24C845.77 247.98 845.77 231.84 855.55 221.58C845.43 221.58 837.22 229.79 837.22 239.92C837.22 250.04 845.43 258.25 855.56 258.25C863.56 258.25 870.64 253.05 873.04 245.42" stroke="black" stroke-width="3.67" stroke-linecap="round" stroke-linejoin="round"/>
<path d="M837.23 239.91H852.81" stroke="black" stroke-width="3.67" stroke-linecap="round" stroke-linejoin="round"/>
<path d="M870.22 228.91V225.24C870.22 223.22 868.58 221.57 866.55 221.57C864.52 221.57 862.88 223.21 862.88 225.24V228.91" stroke="black" stroke-width="3.67" stroke-linecap="round" stroke-linejoin="round"/>
<path d="M872.05 228.91H861.05C860.039 228.91 859.22 229.729 859.22 230.74V236.25C859.22 237.261 860.039 238.08 861.05 238.08H872.05C873.061 238.08 873.88 237.261 873.88 236.25V230.74C873.88 229.729 873.061 228.91 872.05 228.91Z" stroke="black" stroke-width="3.67" stroke-linecap="round" stroke-linejoin="round"/>
<path d="M461.71 108.64C460.69 113.46 458.35 117.9 454.95 121.47C445.17 111.21 445.17 95.07 454.95 84.81C444.83 84.81 436.62 93.02 436.62 103.15C436.62 113.27 444.83 121.48 454.96 121.48C462.96 121.48 470.04 116.28 472.44 108.65" stroke="black" stroke-width="3.67" stroke-linecap="round" stroke-linejoin="round"/>
<path d="M436.62 103.14H452.2" stroke="black" stroke-width="3.67" stroke-linecap="round" stroke-linejoin="round"/>
<path d="M469.62 92.14V88.47C469.62 86.45 467.98 84.8 465.95 84.8C463.92 84.8 462.28 86.44 462.28 88.47V92.14" stroke="black" stroke-width="3.67" stroke-linecap="round" stroke-linejoin="round"/>
<path d="M471.45 92.14H460.45C459.439 92.14 458.62 92.9593 458.62 93.97V99.48C458.62 100.491 459.439 101.31 460.45 101.31H471.45C472.461 101.31 473.28 100.491 473.28 99.48V93.97C473.28 92.9593 472.461 92.14 471.45 92.14Z" stroke="black" stroke-width="3.67" stroke-linecap="round" stroke-linejoin="round"/>
<path d="M119.61 311.21C118.59 316.03 116.25 320.47 112.85 324.04C103.07 313.78 103.07 297.64 112.85 287.38C102.73 287.38 94.52 295.59 94.52 305.72C94.52 315.84 102.73 324.05 112.86 324.05C120.86 324.05 127.94 318.85 130.34 311.22" stroke="black" stroke-width="3.67" stroke-linecap="round" stroke-linejoin="round"/>
<path d="M94.52 305.71H110.1" stroke="black" stroke-width="3.67" stroke-linecap="round" stroke-linejoin="round"/>
<path d="M127.51 294.71V291.04C127.51 289.02 125.87 287.37 123.84 287.37C121.81 287.37 120.17 289.01 120.17 291.04V294.71" stroke="black" stroke-width="3.67" stroke-linecap="round" stroke-linejoin="round"/>
<path d="M129.34 294.71H118.34C117.329 294.71 116.51 295.529 116.51 296.54V302.05C116.51 303.061 117.329 303.88 118.34 303.88H129.34C130.351 303.88 131.17 303.061 131.17 302.05V296.54C131.17 295.529 130.351 294.71 129.34 294.71Z" stroke="black" stroke-width="3.67" stroke-linecap="round" stroke-linejoin="round"/>
<path d="M380.73 508.57C380.73 508.57 444.27 505.43 464.44 443.96" stroke="#52BF13" stroke-width="1.86" stroke-linecap="round" stroke-linejoin="round"/>
<path d="M468.43 446.58L466.33 437.56L459.56 443.89L468.43 446.58Z" fill="#52BF13"/>
<path d="M729.02 391.21C729.02 391.21 711.73 347.34 643.69 357.64" stroke="#52BF13" stroke-width="2" stroke-linecap="round" stroke-linejoin="round"/>
<path d="M645.47 363.52L643.51 351.53L638.5 358.51L645.47 363.52Z" fill="#52BF13"/>
<path d="M590.12 241.6C590.12 241.6 554.77 257.1 555.27 299.58" stroke="#52BF13" stroke-width="1.86" stroke-linecap="round" stroke-linejoin="round"/>
<path d="M560.92 298.62L549.64 299.03L555.48 304.47L560.92 298.62Z" fill="#52BF13"/>
<path d="M384.11 286.41C384.11 286.41 426.6 273.32 448.94 303.41" stroke="#52BF13" stroke-width="1.86" stroke-linecap="round" stroke-linejoin="round"/>
<path d="M453.13 299.62L443.82 306.01L451.67 307.47L453.13 299.62Z" fill="#52BF13"/>
<path d="M282.61 418.93C282.61 418.93 346.76 448.3 398.72 418.48" stroke="#52BF13" stroke-width="1.86" stroke-linecap="round" stroke-linejoin="round"/>
<path d="M395.15 414.01L400.98 423.68L402.9 415.93L395.15 414.01Z" fill="#52BF13"/>
<path d="M572.69 425.98C572.69 425.98 477.15 488.4 518.9 595.05" stroke="black" stroke-width="2" stroke-linecap="round" stroke-linejoin="round"/>
<path d="M524.35 592.05L513.03 596.47L520.89 599.92L524.35 592.05Z" fill="black"/>
<path d="M505.23 312.23C505.23 312.23 435.56 247.44 452.02 145.06" stroke="black" stroke-width="2" stroke-linecap="round" stroke-linejoin="round"/>
<path d="M445.96 144.9L457.95 146.84L452.92 139.88L445.96 144.9Z" fill="black"/>
<path d="M630.62 323.37C630.62 323.37 695.85 237.9 820.22 239.55" stroke="black" stroke-width="2" stroke-linecap="round" stroke-linejoin="round"/>
<path d="M819.47 233.53L819.34 245.68L825.48 239.67L819.47 233.53Z" fill="black"/>
<path d="M411.17 379.04C411.17 379.04 334.16 301.2 151.21 307.27" stroke="black" stroke-width="2" stroke-linecap="round" stroke-linejoin="round"/>
<path d="M152.19 313.37L151.85 301.23L145.95 307.47L152.19 313.37Z" fill="black"/>
<path d="M455.09 69.06V54.05" stroke="#52BF13" stroke-width="1.86" stroke-linecap="round" stroke-linejoin="round"/>
<path d="M459.72 55.41L455.09 47.38L450.45 55.41H459.72Z" fill="#52BF13"/>
<path d="M520.89 669.22V684.23" stroke="#52BF13" stroke-width="1.86" stroke-linecap="round" stroke-linejoin="round"/>
<path d="M516.26 682.87L520.89 690.9L525.53 682.87H516.26Z" fill="#52BF13"/>
<path d="M919.49 258H940.23C941.87 258 943.19 256.67 943.19 255.04V235.78L935.78 228.37H922.44C920.8 228.37 919.48 229.7 919.48 231.33V237.26" stroke="black" stroke-width="2.96" stroke-linecap="round" stroke-linejoin="round"/>
<path d="M934.3 228.37V234.3C934.3 235.94 935.63 237.26 937.26 237.26H943.19" stroke="black" stroke-width="2.96" stroke-linecap="round" stroke-linejoin="round"/>
<path d="M920.97 243.19L916.52 247.64L920.97 252.09" stroke="black" stroke-width="2.96" stroke-linecap="round" stroke-linejoin="round"/>
<path d="M926.89 252.08L931.34 247.63L926.89 243.18" stroke="black" stroke-width="2.96" stroke-linecap="round" stroke-linejoin="round"/>
<path d="M952.98 258H973.72C975.36 258 976.68 256.67 976.68 255.04V235.78L969.27 228.37H955.93C954.29 228.37 952.97 229.7 952.97 231.33V237.26" stroke="black" stroke-width="2.96" stroke-linecap="round" stroke-linejoin="round"/>
<path d="M967.8 228.37V234.3C967.8 235.94 969.13 237.26 970.76 237.26H976.69" stroke="black" stroke-width="2.96" stroke-linecap="round" stroke-linejoin="round"/>
<path d="M954.46 243.19L950.01 247.64L954.46 252.09" stroke="black" stroke-width="2.96" stroke-linecap="round" stroke-linejoin="round"/>
<path d="M960.39 252.08L964.84 247.63L960.39 243.18" stroke="black" stroke-width="2.96" stroke-linecap="round" stroke-linejoin="round"/>
<path d="M4.96997 318.39H25.71C27.35 318.39 28.67 317.06 28.67 315.43V296.17L21.26 288.76H7.92997C6.28997 288.76 4.96997 290.09 4.96997 291.72V297.65" stroke="black" stroke-width="2.96" stroke-linecap="round" stroke-linejoin="round"/>
<path d="M19.78 288.75V294.68C19.78 296.32 21.11 297.64 22.74 297.64H28.67" stroke="black" stroke-width="2.96" stroke-linecap="round" stroke-linejoin="round"/>
<path d="M6.45 303.57L2 308.02L6.45 312.47" stroke="black" stroke-width="2.96" stroke-linecap="round" stroke-linejoin="round"/>
<path d="M12.37 312.46L16.82 308.01L12.37 303.56" stroke="black" stroke-width="2.96" stroke-linecap="round" stroke-linejoin="round"/>
<path d="M38.4599 318.39H59.2C60.84 318.39 62.16 317.06 62.16 315.43V296.17L54.75 288.76H41.41C39.77 288.76 38.45 290.09 38.45 291.72V297.65" stroke="black" stroke-width="2.96" stroke-linecap="round" stroke-linejoin="round"/>
<path d="M53.28 288.75V294.68C53.28 296.32 54.61 297.64 56.24 297.64H62.17" stroke="black" stroke-width="2.96" stroke-linecap="round" stroke-linejoin="round"/>
<path d="M39.94 303.57L35.49 308.02L39.94 312.47" stroke="black" stroke-width="2.96" stroke-linecap="round" stroke-linejoin="round"/>
<path d="M45.87 312.46L50.32 308.01L45.87 303.56" stroke="black" stroke-width="2.96" stroke-linecap="round" stroke-linejoin="round"/>
<path d="M89.18 305.71H74.17" stroke="#52BF13" stroke-width="1.86" stroke-linecap="round" stroke-linejoin="round"/>
<path d="M75.53 301.08L67.51 305.71L75.53 310.34V301.08Z" fill="#52BF13"/>
<path d="M884.37 242.14H899.37" stroke="#52BF13" stroke-width="1.86" stroke-linecap="round" stroke-linejoin="round"/>
<path d="M898.02 246.77L906.04 242.14L898.02 237.5V246.77Z" fill="#52BF13"/>
<path d="M620.37 313.12H421.42C415.759 313.12 411.17 317.709 411.17 323.37V415.74C411.17 421.401 415.759 425.99 421.42 425.99H620.37C626.031 425.99 630.62 421.401 630.62 415.74V323.37C630.62 317.709 626.031 313.12 620.37 313.12Z" fill="#000B32"/>
<path d="M428.93 397.12C433.177 397.12 436.62 395.974 436.62 394.56C436.62 393.146 433.177 392 428.93 392C424.683 392 421.24 393.146 421.24 394.56C421.24 395.974 424.683 397.12 428.93 397.12Z" stroke="white" stroke-width="1.71" stroke-linecap="round" stroke-linejoin="round"/>
<path d="M421.24 400.54C421.24 401.51 422.89 402.41 425.51 402.84" stroke="white" stroke-width="1.71" stroke-linecap="round" stroke-linejoin="round"/>
<path d="M436.62 398.23V394.56" stroke="white" stroke-width="1.71" stroke-linecap="round" stroke-linejoin="round"/>
<path d="M421.24 394.56V406.52C421.24 407.66 423.49 408.66 426.77 408.98" stroke="white" stroke-width="1.71" stroke-linecap="round" stroke-linejoin="round"/>
<path d="M428.93 400.54V403.96H432.35" stroke="white" stroke-width="1.71" stroke-linecap="round" stroke-linejoin="round"/>
<path d="M429.79 407.38C431.21 409.27 433.88 409.65 435.77 408.23C436.85 407.42 437.48 406.16 437.48 404.81C437.48 402.69 435.76 400.96 433.63 400.96C432.49 400.96 431.46 401.42 430.72 402.16L428.93 403.95" stroke="white" stroke-width="1.71" stroke-linecap="round" stroke-linejoin="round"/>
<path d="M455.09 397.12C459.337 397.12 462.78 395.974 462.78 394.56C462.78 393.146 459.337 392 455.09 392C450.843 392 447.4 393.146 447.4 394.56C447.4 395.974 450.843 397.12 455.09 397.12Z" stroke="white" stroke-width="1.71" stroke-linecap="round" stroke-linejoin="round"/>
<path d="M447.4 400.54C447.4 401.51 449.05 402.41 451.67 402.84" stroke="white" stroke-width="1.71" stroke-linecap="round" stroke-linejoin="round"/>
<path d="M462.78 398.23V394.56" stroke="white" stroke-width="1.71" stroke-linecap="round" stroke-linejoin="round"/>
<path d="M447.4 394.56V406.52C447.4 407.66 449.65 408.66 452.93 408.98" stroke="white" stroke-width="1.71" stroke-linecap="round" stroke-linejoin="round"/>
<path d="M455.09 400.54V403.96H458.51" stroke="white" stroke-width="1.71" stroke-linecap="round" stroke-linejoin="round"/>
<path d="M455.94 407.38C457.36 409.27 460.03 409.65 461.92 408.23C463 407.42 463.63 406.16 463.63 404.81C463.63 402.69 461.91 400.96 459.78 400.96C458.64 400.96 457.61 401.42 456.87 402.16L455.08 403.95" stroke="white" stroke-width="1.71" stroke-linecap="round" stroke-linejoin="round"/>
<path d="M481.24 397.12C485.487 397.12 488.93 395.974 488.93 394.56C488.93 393.146 485.487 392 481.24 392C476.993 392 473.55 393.146 473.55 394.56C473.55 395.974 476.993 397.12 481.24 397.12Z" stroke="white" stroke-width="1.71" stroke-linecap="round" stroke-linejoin="round"/>
<path d="M473.55 400.54C473.55 401.51 475.2 402.41 477.82 402.84" stroke="white" stroke-width="1.71" stroke-linecap="round" stroke-linejoin="round"/>
<path d="M488.93 398.23V394.56" stroke="white" stroke-width="1.71" stroke-linecap="round" stroke-linejoin="round"/>
<path d="M473.55 394.56V406.52C473.55 407.66 475.8 408.66 479.08 408.98" stroke="white" stroke-width="1.71" stroke-linecap="round" stroke-linejoin="round"/>
<path d="M481.24 400.54V403.96H484.66" stroke="white" stroke-width="1.71" stroke-linecap="round" stroke-linejoin="round"/>
<path d="M482.09 407.38C483.51 409.27 486.18 409.65 488.07 408.23C489.15 407.42 489.78 406.16 489.78 404.81C489.78 402.69 488.06 400.96 485.93 400.96C484.79 400.96 483.76 401.42 483.02 402.16L481.23 403.95" stroke="white" stroke-width="1.71" stroke-linecap="round" stroke-linejoin="round"/>
<path d="M507.39 397.12C511.637 397.12 515.08 395.974 515.08 394.56C515.08 393.146 511.637 392 507.39 392C503.143 392 499.7 393.146 499.7 394.56C499.7 395.974 503.143 397.12 507.39 397.12Z" stroke="white" stroke-width="1.71" stroke-linecap="round" stroke-linejoin="round"/>
<path d="M499.7 400.54C499.7 401.51 501.35 402.41 503.97 402.84" stroke="white" stroke-width="1.71" stroke-linecap="round" stroke-linejoin="round"/>
<path d="M515.08 398.23V394.56" stroke="white" stroke-width="1.71" stroke-linecap="round" stroke-linejoin="round"/>
<path d="M499.7 394.56V406.52C499.7 407.66 501.95 408.66 505.23 408.98" stroke="white" stroke-width="1.71" stroke-linecap="round" stroke-linejoin="round"/>
<path d="M507.39 400.54V403.96H510.81" stroke="white" stroke-width="1.71" stroke-linecap="round" stroke-linejoin="round"/>
<path d="M508.24 407.38C509.66 409.27 512.33 409.65 514.22 408.23C515.3 407.42 515.93 406.16 515.93 404.81C515.93 402.69 514.21 400.96 512.08 400.96C510.94 400.96 509.91 401.42 509.17 402.16L507.38 403.95" stroke="white" stroke-width="1.71" stroke-linecap="round" stroke-linejoin="round"/>
<path d="M533.54 397.12C537.787 397.12 541.23 395.974 541.23 394.56C541.23 393.146 537.787 392 533.54 392C529.293 392 525.85 393.146 525.85 394.56C525.85 395.974 529.293 397.12 533.54 397.12Z" stroke="white" stroke-width="1.71" stroke-linecap="round" stroke-linejoin="round"/>
<path d="M525.85 400.54C525.85 401.51 527.5 402.41 530.12 402.84" stroke="white" stroke-width="1.71" stroke-linecap="round" stroke-linejoin="round"/>
<path d="M541.23 398.23V394.56" stroke="white" stroke-width="1.71" stroke-linecap="round" stroke-linejoin="round"/>
<path d="M525.85 394.56V406.52C525.85 407.66 528.1 408.66 531.38 408.98" stroke="white" stroke-width="1.71" stroke-linecap="round" stroke-linejoin="round"/>
<path d="M533.54 400.54V403.96H536.96" stroke="white" stroke-width="1.71" stroke-linecap="round" stroke-linejoin="round"/>
<path d="M534.4 407.38C535.82 409.27 538.49 409.65 540.38 408.23C541.46 407.42 542.09 406.16 542.09 404.81C542.09 402.69 540.37 400.96 538.24 400.96C537.1 400.96 536.07 401.42 535.33 402.16L533.54 403.95" stroke="white" stroke-width="1.71" stroke-linecap="round" stroke-linejoin="round"/>
<path d="M559.69 397.12C563.937 397.12 567.38 395.974 567.38 394.56C567.38 393.146 563.937 392 559.69 392C555.443 392 552 393.146 552 394.56C552 395.974 555.443 397.12 559.69 397.12Z" stroke="white" stroke-width="1.71" stroke-linecap="round" stroke-linejoin="round"/>
<path d="M552 400.54C552 401.51 553.65 402.41 556.27 402.84" stroke="white" stroke-width="1.71" stroke-linecap="round" stroke-linejoin="round"/>
<path d="M567.39 398.23V394.56" stroke="white" stroke-width="1.71" stroke-linecap="round" stroke-linejoin="round"/>
<path d="M552 394.56V406.52C552 407.66 554.25 408.66 557.53 408.98" stroke="white" stroke-width="1.71" stroke-linecap="round" stroke-linejoin="round"/>
<path d="M559.69 400.54V403.96H563.11" stroke="white" stroke-width="1.71" stroke-linecap="round" stroke-linejoin="round"/>
<path d="M560.55 407.38C561.97 409.27 564.64 409.65 566.53 408.23C567.61 407.42 568.24 406.16 568.24 404.81C568.24 402.69 566.52 400.96 564.39 400.96C563.25 400.96 562.22 401.42 561.48 402.16L559.69 403.95" stroke="white" stroke-width="1.71" stroke-linecap="round" stroke-linejoin="round"/>
<path d="M585.85 397.12C590.097 397.12 593.54 395.974 593.54 394.56C593.54 393.146 590.097 392 585.85 392C581.603 392 578.16 393.146 578.16 394.56C578.16 395.974 581.603 397.12 585.85 397.12Z" stroke="white" stroke-width="1.71" stroke-linecap="round" stroke-linejoin="round"/>
<path d="M578.16 400.54C578.16 401.51 579.81 402.41 582.43 402.84" stroke="white" stroke-width="1.71" stroke-linecap="round" stroke-linejoin="round"/>
<path d="M593.54 398.23V394.56" stroke="white" stroke-width="1.71" stroke-linecap="round" stroke-linejoin="round"/>
<path d="M578.16 394.56V406.52C578.16 407.66 580.41 408.66 583.69 408.98" stroke="white" stroke-width="1.71" stroke-linecap="round" stroke-linejoin="round"/>
<path d="M585.85 400.54V403.96H589.27" stroke="white" stroke-width="1.71" stroke-linecap="round" stroke-linejoin="round"/>
<path d="M586.7 407.38C588.12 409.27 590.79 409.65 592.68 408.23C593.76 407.42 594.39 406.16 594.39 404.81C594.39 402.69 592.67 400.96 590.54 400.96C589.4 400.96 588.37 401.42 587.63 402.16L585.84 403.95" stroke="white" stroke-width="1.71" stroke-linecap="round" stroke-linejoin="round"/>
<path d="M612 397.12C616.247 397.12 619.69 395.974 619.69 394.56C619.69 393.146 616.247 392 612 392C607.753 392 604.31 393.146 604.31 394.56C604.31 395.974 607.753 397.12 612 397.12Z" stroke="white" stroke-width="1.71" stroke-linecap="round" stroke-linejoin="round"/>
<path d="M604.31 400.54C604.31 401.51 605.96 402.41 608.58 402.84" stroke="white" stroke-width="1.71" stroke-linecap="round" stroke-linejoin="round"/>
<path d="M619.69 398.23V394.56" stroke="white" stroke-width="1.71" stroke-linecap="round" stroke-linejoin="round"/>
<path d="M604.31 394.56V406.52C604.31 407.66 606.56 408.66 609.84 408.98" stroke="white" stroke-width="1.71" stroke-linecap="round" stroke-linejoin="round"/>
<path d="M612 400.54V403.96H615.42" stroke="white" stroke-width="1.71" stroke-linecap="round" stroke-linejoin="round"/>
<path d="M612.85 407.38C614.27 409.27 616.94 409.65 618.83 408.23C619.91 407.42 620.54 406.16 620.54 404.81C620.54 402.69 618.82 400.96 616.69 400.96C615.55 400.96 614.52 401.42 613.78 402.16L611.99 403.95" stroke="white" stroke-width="1.71" stroke-linecap="round" stroke-linejoin="round"/>
<path d="M465.02 362.34V368.56H441.3V328.06H448.83V362.34H465.02Z" fill="white"/>
<path d="M485.58 362.48C487.04 362.48 488.34 362.24 489.49 361.75C490.64 361.26 491.6 360.58 492.39 359.71C493.17 358.83 493.78 357.77 494.2 356.52C494.62 355.27 494.83 353.87 494.83 352.32V328.07H502.36V352.32C502.36 354.73 501.97 356.96 501.2 359C500.42 361.04 499.31 362.81 497.87 364.29C496.42 365.77 494.66 366.93 492.59 367.76C490.52 368.59 488.18 369.01 485.59 369.01C483 369.01 480.63 368.59 478.56 367.76C476.49 366.93 474.73 365.77 473.28 364.29C471.83 362.81 470.72 361.04 469.95 359C469.18 356.96 468.79 354.73 468.79 352.32V328.07H476.32V352.3C476.32 353.85 476.53 355.25 476.95 356.5C477.37 357.75 477.98 358.82 478.77 359.71C479.56 360.6 480.53 361.28 481.68 361.77C482.83 362.26 484.13 362.5 485.59 362.5L485.58 362.48Z" fill="white"/>
<path d="M538.68 359.01C539.09 359.01 539.45 359.17 539.77 359.49L542.74 362.71C541.1 364.75 539.08 366.3 536.68 367.39C534.28 368.47 531.4 369.01 528.04 369.01C525.03 369.01 522.33 368.5 519.93 367.47C517.53 366.44 515.48 365.02 513.78 363.19C512.08 361.36 510.78 359.18 509.87 356.64C508.96 354.1 508.51 351.33 508.51 348.32C508.51 345.31 509 342.49 509.97 339.96C510.94 337.43 512.31 335.25 514.07 333.42C515.83 331.59 517.94 330.17 520.39 329.15C522.84 328.13 525.54 327.62 528.51 327.62C531.48 327.62 534.08 328.11 536.37 329.08C538.66 330.05 540.6 331.32 542.21 332.89L539.69 336.39C539.54 336.61 539.35 336.81 539.12 336.98C538.89 337.15 538.56 337.23 538.15 337.23C537.87 337.23 537.58 337.15 537.28 336.99C536.98 336.83 536.65 336.64 536.3 336.4C535.94 336.17 535.53 335.91 535.07 335.63C534.6 335.35 534.06 335.09 533.45 334.86C532.83 334.63 532.12 334.43 531.31 334.27C530.5 334.11 529.56 334.03 528.5 334.03C526.69 334.03 525.03 334.35 523.53 335C522.03 335.64 520.73 336.58 519.65 337.8C518.57 339.02 517.73 340.52 517.13 342.28C516.53 344.04 516.23 346.06 516.23 348.31C516.23 350.56 516.55 352.61 517.2 354.39C517.84 356.16 518.72 357.66 519.82 358.87C520.92 360.08 522.22 361.01 523.71 361.66C525.2 362.3 526.81 362.63 528.53 362.63C529.56 362.63 530.49 362.57 531.32 362.46C532.15 362.35 532.92 362.17 533.62 361.93C534.32 361.69 534.98 361.37 535.61 360.99C536.24 360.61 536.86 360.14 537.47 359.58C537.66 359.41 537.85 359.28 538.06 359.17C538.27 359.07 538.48 359.02 538.7 359.02L538.68 359.01Z" fill="white"/>
<path d="M555.48 368.56H547.92V328.06H555.48V368.56Z" fill="white"/>
<path d="M600.49 348.31C600.49 351.28 599.99 354.01 599.01 356.49C598.02 358.97 596.63 361.11 594.84 362.9C593.05 364.69 590.89 366.08 588.37 367.07C585.85 368.06 583.05 368.55 579.97 368.55H564.54V328.05H579.97C583.05 328.05 585.85 328.55 588.37 329.55C590.89 330.55 593.05 331.94 594.84 333.72C596.63 335.5 598.02 337.64 599.01 340.12C600 342.6 600.49 345.33 600.49 348.3V348.31ZM592.76 348.31C592.76 346.09 592.47 344.1 591.88 342.33C591.29 340.57 590.44 339.07 589.33 337.85C588.22 336.63 586.87 335.69 585.3 335.03C583.72 334.38 581.94 334.05 579.96 334.05H572.09V362.56H579.96C581.94 362.56 583.72 362.23 585.3 361.58C586.88 360.93 588.22 359.99 589.33 358.77C590.44 357.55 591.29 356.05 591.88 354.29C592.47 352.53 592.76 350.53 592.76 348.31Z" fill="white"/>
</svg>
