<svg width="1500" height="1120" viewBox="0 0 1500 1120" fill="none" xmlns="http://www.w3.org/2000/svg">
<path d="M158.66 767.095L158.214 767.911L158.445 769.465L158.183 770.727L158.645 771.327L158.799 772.466L158.491 773.974L158.322 774.143L158.691 774.682L157.091 775.836L156.106 775.743L155.506 776.713L154.043 778.098L153.782 780.468L154.69 781.576L156.49 782.714L155.521 783.884L158.137 786.284L158.199 787.962L159.245 789.932L158.845 790.778L160.045 792.994L158.414 793.394L155.659 796.256L152.612 798.672L150.088 797.334L147.949 795.041L147.749 794.948L146.934 795.61L145.333 796.272L144.594 796.195L144.194 796.98L142.04 797.087L140.932 795.702L139.47 797.272L138.531 799.396L137.038 801.181H135.53L132.806 798.642L130.744 800.396L128.743 800.95L127.897 801.796L127.851 802.35L126.758 802.535L126.666 802.873L126.265 802.997L126.296 803.935L124.911 804.597L123.264 807.274L122.649 806.167L121.741 808.121L118.171 807.398L117.847 807.828L116.416 810.845L117.586 812.091L114.877 813.722L119.771 816.031L119.71 816.415L121.587 817.062L122.972 819.57L122.895 820.832L121.864 822.124L121.31 824.925L120.125 826.818L119.079 826.218L119.017 826.572L114.508 835.636V835.913L115.354 838.067L114 839.513L114.323 839.344L115.954 838.944L116.524 837.775L117.063 837.667L117.216 837.467L117.37 834.928L121.679 834.097L124.357 835.082L127.774 834.758L130.698 835.759L131.606 835.651L133.437 836.944L133.483 837.036L135.376 835.543L135.822 834.897L136.484 831.85L137.715 831.188L143.963 831.896L144.625 832.296L148.519 831.188L150.088 831.373L151.027 833.158L151.058 834.235L156.675 834.589L158.43 834.974L159.353 835.728L159.83 835.297L160.876 835.112L162.939 833.835L163.677 832.666L165.786 830.804L167.001 830.588L169.218 829.188L172.511 828.003L175.158 825.664L174.635 822.694L174.912 820.355L177.82 818.077H178.621L180.298 815.43L182.329 814.553L186.315 810.829L187.008 810.675L187.993 809.521L189.501 808.952L191.671 809.675L192.84 809.183L193.025 809.306L194.687 807.659L197.627 806.29L200.458 805.52L204.29 802.227L205.614 801.735L209.292 794.779L209.107 793.256L208.076 792.84L208.476 791.855H208.445L206.399 791.686L204.967 790.332L204.259 790.747L204.106 791.855L202.828 792.409L202.567 792.871L198.612 794.841L195.241 792.409L195.841 791.163L192.81 788.393L190.948 784.376L189.593 783.13L188.993 781.576L189.809 778.79L191.225 776.99L192.071 776.944L192.917 776.067L192.194 774.912L191.994 771.789L190.917 771.496L184.084 768.141L184.653 767.11L187.639 760.663L191.163 753.23L193.764 747.336L195.503 745.936L195.626 745.874L243.164 723.761L269.372 707.511L315.756 708.495L315.895 708.542L355.523 719.96L351.383 733.117L350.229 735.902V737.026L351.46 738.257L351.091 740.411L350.044 742.042L348.736 743.043L346.982 745.982L343.611 746.382L342.38 747.09L341.58 748.029L341.318 749.783L341.657 751.122L342.119 752.122L343.227 752.984L345.027 757.6L345.243 757.8L347.813 757.939L349.29 759.847L348.967 761.155L349.29 762.879L351.306 762.617L353.43 764.679L354.661 765.156L355.431 766.249L356.385 766.772L357.816 769.542L357.554 771.142V771.173L358.97 771.573L360.047 773.097L361.525 773.697L362.094 774.774L362.818 774.266H364.51L366.08 775.389L366.188 776.621L367.296 777.559L367.773 780.298L366.326 782.745L366.496 785.192L366.172 787.285L364.895 789.055L365.034 790.439L364.11 792.071L361.971 793.686L360.401 794.117L358.924 798.195L357.554 799.657L355.6 800.18L355.492 800.304L355.415 800.673L355.785 802.535L353.276 807.367L352.522 807.813L352.368 808.459L350.752 811.276L353.061 819.862L350.752 824.463L347.443 827.941L346.92 830.727L347.936 833.035L348.675 837.39L348.752 837.498L351.552 837.221L352.153 838.96L352.907 839.698L353.307 839.36L358.401 838.667L360.494 839.098L361.294 840.437L362.602 840.806L370.374 841.637L371.482 842.499H371.882L373.883 841.591L377.037 842.083L377.468 843.93L375.745 848.008L376.176 849.347L376.022 850.424L375.083 852.809L374.083 853.625L373.436 855.21L373.344 855.271L375.422 859.842L374.39 861.688L375.452 864.289L373.421 865.058L371.805 866.859L371.743 867.736L370.959 868.521L370.158 872.337L370.605 873.168L371.82 874.261L373.129 874.707L373.713 873.291L377.653 872.476L378.746 871.783L379.731 870.706L381.824 866.92L385.071 865.243L388.026 867.228L387.933 869.613L387.518 870.229L387.841 870.829L388.687 871.752L391.565 871.383L392.935 876.277L394.689 879.801L395.705 879.847L397.09 882.263L400.137 884.956L401.645 890.896L401.553 891.034L403.584 892.342H405.093L406.216 891.727L408.432 894.174L408.94 895.282L408.848 895.759L409.217 896.005L409.001 897.821L409.679 897.851L411.402 900.514L413.495 902.591L408.555 905.33L408.463 905.623L408.555 905.961L410.202 908.577L412.449 909.731L414.696 910.147L416.327 911.316L416.173 913.117L416.835 915.871L416.204 916.887L415.988 918.472L417.927 921.442L418.004 924.043L420.097 926.767L422.206 927.674L423.406 929.552L423.344 933.03L425.176 934.292L426.73 934.492L426.807 937.138L428.131 939.231L431.516 942.232L431.886 943.786L431.686 944.879L432.655 946.679L433.117 948.726L433.455 949.234L434.348 949.542L436.81 949.218L437.872 948.049L440.596 946.018L441.227 944.186L443.951 942.586L445.182 942.309L446.721 941.201L448.199 940.909L452.354 943.309L451.415 944.417L452.631 944.356L453.2 946.033L453 946.648L453.723 947.449L454.939 947.726L457.017 949.034L457.709 949.234L459.187 948.418L458.633 945.71L459.556 943.278L461.264 940.909L462.572 940.616L463.265 940.093L464.05 938L466.389 936.631L467.251 936.769L468.297 935.938L471.314 936.661L474.345 935.369L475.638 936.23L476.177 937.292L479.301 933.445L480.932 932.63L483.456 927.167L486.611 923.643L489.058 925.658L493.244 926.105L494.275 927.105L494.844 928.444L494.998 928.49L496.383 928.675L501.185 926.905L504.786 928.813L506.571 931.398L507.848 931.229L512.08 934.107L512.265 934.153L512.619 934.045L514.312 932.368L514.112 930.983L517.421 927.767L519.16 929.321H519.267L521.776 928.305L522.53 927.32L525.331 925.366L526.916 922.981L529.963 920.165L531.548 919.672L533.01 918.472H535.257L536.103 918.949H536.134L536.457 917.964L535.565 915.317L535.719 913.979L538.212 911.44L540.951 910.316L542.259 910.162L543.644 907.177L546.968 908.823L549.908 907.469L551.878 909.362L555.879 909.808L556.387 909.162L556.556 908.577L555.771 905.115L555.479 901.714L556.356 900.498L556.987 898.621L559.034 897.713L561.481 897.975L564.343 897.205L566.482 897.328L568.16 899.144L569.329 903.776L569.56 904.038L570.007 904.207L571.915 904.13L575.316 904.669L578.04 903.622L583.426 904.438L585.104 903.838L589.828 901.16L591.675 901.375L592.075 902.899L593.783 904.684L595.568 907.285L596.23 909.27L596.492 909.608L597.785 910.178L600.955 910.562L604.002 912.809L604.956 915.625L604.51 918.718L604.171 919.242V919.365L606.787 922.781L607.295 923.073L609.773 922.966V921.073L612.004 920.257L613.99 916.825L615.359 916.625L618.791 917.426L620.623 917.456L624.008 921.104L625.301 921.242L626.917 922.442L628.487 924.966L629.118 925.397L629.641 925.305L631.026 923.827L634.873 921.811L638.598 922.719L640.121 923.766L641.66 924.135L643.384 924.32L645.892 923.966L646.908 925.351L647.262 925.012L648.539 924.643L649.262 923.658L649.432 922.889L649.309 922.458L647.37 919.626L647.308 917.21L647.939 913.517L649.663 912.809L649.801 912.532L649.139 909.993L650.648 907.7L650.694 907.439L650.632 906.5L649.832 904.515L649.955 903.114L650.801 902.099L654.11 901.052L654.987 899.283L657.188 896.559L657.604 894.804L658.758 893.481L662.143 893.881L663.759 893.327L666.283 893.543L670.685 892.881L672.116 893.189L672.962 893.958L678.841 892.481L681.011 894.174H681.719L682.058 894.02L682.104 892.45L684.166 888.187L685.212 887.603L687.213 887.695L687.29 887.372L686.582 885.31L688.567 883.355L688.075 882.586L687.428 880.278L691.722 875.523L693.23 876.061L693.584 875.769L693.538 875.723L692.722 874.153L692.492 872.799L691.091 869.798L690.245 864.428L690.66 862.335L692.091 860.288L693.369 852.471L701.171 851.378L703.157 850.116L705.373 849.855L706.788 850.132L710.251 849.455L712.975 847.946L714.16 847.716L716.13 845.176L716.53 842.884L716.407 841.191L716.992 840.098L719.223 838.467L720.531 838.005L725.594 836.897L726.764 835.99L727.241 835.097L727.41 832.85L726.364 829.449L726.579 826.833L728.426 824.417L729.196 822.432L730.596 822.001L730.858 821.709V821.186L730.565 820.37L727.549 816.431L726.61 813.476L726.995 812.414L724.871 809.229L723.517 803.72L722.932 803.32L720.254 802.781L718.207 799.242L716.592 798.642L715.637 796.025L715.391 794.102L713.575 793.84L712.683 792.948L709.22 792.009L707.943 790.701L706.311 790.547L705.619 788.162L708.097 787.023L708.589 784.73L710.836 783.945L714.422 780.298L716.176 779.529L719.054 774.266L724.102 770.234L726.133 769.927L727.041 770.311L730.273 772.604H732.381L735.998 771.835L738.583 769.865L739.922 769.65L740.984 769.973L742 769.311L742.831 768.295L743.6 768.049L743.739 767.587L743.692 765.725L744.693 765.11L745.047 763.386L746.863 761.663L746.709 759.986L747.663 757.631L751.572 754.661L753.957 754.83L755.004 754.584L754.973 753.261L756.789 752.168L757.882 752.476L757.851 751.706L759.19 751.029L759.297 750.645L758.959 749.429L757.851 747.782L758.266 745.428L762.468 744.043L765.038 744.951L767.161 742.073L771.594 739.996L773.794 737.241L773.887 736.995L773.04 735.395L773.687 733.148L773.64 732.902L772.517 731.732L770.947 731.809L766.238 730.009L765.638 728.716L767.161 726.392L769.362 724.438L770.255 721.206L772.071 720.36L775.149 720.699L776.087 720.514L776.918 719.621L779.95 717.744L783.105 714.636L784.782 711.958L787.075 710.019L791.108 709.25L792.477 709.742L792.816 709.603L792.277 706.68L793.37 705.818L793.401 704.294L794.555 703.233L794.94 703.186L794.493 701.755L797.171 702.555L797.494 703.51L797.663 704.048L796.725 705.418L795.771 705.556L795.74 707.126L795.247 707.511L795.771 708.495L795.909 708.034L797.833 708.142L798.033 708.249L798.064 708.172L800.264 706.587L803.05 706.295L808.482 704.402H810.314L812.991 705.679L814.007 707.972L814.053 708.742L814.33 709.08L816.008 709.927L816.608 711.896L817.701 712.173L818.824 714.02L818.208 715.759L815.408 718.129L816.654 720.468L815.408 722.099L815.438 722.561L818.532 726.331L818.393 728.377L817.347 730.039L819.455 733.009L819.04 734.594L816.731 736.918L817.808 739.673L818.255 745.151L819.04 746.736L818.747 748.09L817.254 749.875L816.947 750.691L817.639 756.908L817.454 759.124L816.639 761.37L814.7 762.802L814.146 764.71L810.975 765.833L809.575 771.942L807.051 773.066L806.866 773.312L807.944 775.282L808.652 777.467L813.038 783.315L814.977 786.7L814.715 787.993L812.576 789.424L811.098 791.193L810.898 791.809L811.191 792.563L813.576 792.994L816.285 794.333L817.193 795.564L817.624 798.595L818.501 799.288L819.763 799.765L821.933 799.842L824.549 800.427L828.058 802.289L829.905 803.674L833.706 803.951L835.645 805.043L837.738 812.614L838.307 813.445L842.016 815.831L842.632 817.939L844.648 818.508L846.494 821.909L847.772 827.095L848.28 827.541L849.172 827.156L850.988 827.341L851.681 829.234L851.942 829.496L852.973 829.819L854.574 829.634L856.036 830.588L855.913 833.758L854.405 835.682L854.328 836.574L857.559 839.698L858.067 843.207L858.329 843.73L858.591 843.792L867.701 843.037L869.502 844.992L870.902 847.331L873.349 848.7L875.15 848.239L877.243 848.608L877.843 850.763L878.381 851.378L879.828 851.609L883.429 850.947L886.646 850.87L888.585 847.839L893.155 843.484L894.633 843.668L897.941 849.901L898.142 850.178L898.803 850.285L899.373 851.501L902.158 852.486L905.682 854.794L909.099 854.363L909.73 853.871L910.915 852.009H912.562L915.763 854.471L917.563 855.333L917.994 856.887L920.933 859.934L922.442 860.55L924.011 862.273L926.197 862.842L926.628 868.921L926.32 870.275L923.103 875.646L921.272 874.907L921.488 877.169L920.349 878.2L920.379 878.246L919.318 879.57L919.425 880.801L918.394 881.493L918.21 882.324L916.671 884.186L912.685 886.172L911.223 887.849L908.699 892.312L907.606 895.882L908.314 895.559L914.578 896.22L916.424 897.282L919.595 897.236L920.918 898.498L922.38 899.252L925.104 903.684L928.259 906.007L930.444 908.577L932.368 909.254L936.369 909.347L938.416 910.562L939.847 913.517L940.155 915.333L938.908 918.934V920.103L941.371 922.781L941.432 922.904L946.157 931.675L946.418 933.861L945.618 935.399L945.587 935.63L946.619 935.984L948.004 938.092L949.081 942.186L948.927 942.817L949.635 944.34L949.342 945.525L950.574 945.202L951.774 945.725L952.451 947.11L952.251 948.526L949.943 950.326L948.619 950.419L947.48 951.096L947.065 952.542L943.464 956.836L942.848 958.067V959.96L943.956 959.436L945.864 958.975L947.126 957.436L950.02 956.205L951.82 955.635H953.575L953.913 955.897L955.114 955.112L955.467 956.405L956.175 956.266L957.222 957.682L957.437 959.19V959.252L959.669 959.575L959.884 959.467L960.9 958.236L962.5 957.851L963.147 958.652L964.039 958.375L965.04 959.636L966.825 960.314L967.379 961.899L966.763 963.837L965.086 965.623L965.702 965.669L968.256 964.238L970.611 965.915L971.426 965.961L972.904 965.438L974.904 966.053L975.32 966.007L974.966 965.438L974.412 963.53L976.213 960.652L976.243 960.206L975.859 959.098L976.197 956.99L977.844 955.405L979.814 952.358L979.137 950.28L979.46 948.049L979.829 947.433L979.583 946.572L980.568 945.864L981.784 943.278L983.953 943.432L984.384 943.217L987.878 938.908L987.97 938.677L986.739 936.707L989.263 936.015L989.494 936.153L989.955 935.046L990.017 935.015L986.816 936.307L987.124 930.475L985.569 931.198L984.215 929.49L981.799 927.813L982.199 926.782L980.429 926.597L978.306 924.504L976.72 924.612L974.089 924.043L971.273 923.981L970.965 922.119L971.596 919.442L971.18 919.026L969.657 918.564L969.241 917.164L969.826 913.394L969.703 911.009L968.426 909.839L962.978 907.377L963.054 904.392L964.332 904.207L964.07 902.637L964.624 900.945L968.025 901.037L968.502 900.514L968.964 897.713H971.488L972.919 896.497H973.15L972.842 895.205L971.734 893.158L971.257 888.449L970.118 886.464L967.256 883.294L967.117 878.847L969.364 876.107L969.641 873.876L970.488 872.583L974.704 870.829L979.66 867.505L981.076 867.367L982.892 867.967L986.847 866.767L986.97 866.351L986.908 863.981L989.863 859.103L989.94 858.688L987.201 850.824L985.539 847.439L985.616 844.669L992.602 841.36L993.433 841.206L994.526 840.006L997.589 838.113L999.281 837.775L1001.41 833.851L1003.85 830.604L1004.93 830.065L1006.53 828.541L1009.08 827.464L1010.04 825.895H1009.98L1007.05 823.14L1012.22 823.833L1015.1 823.125L1016.89 823.679L1017.49 822.74L1020.12 819.985L1020.47 818.37L1019.98 816.338L1022.01 809.521L1023.6 807.505L1026.04 807.074L1027.01 805.674L1027.63 802.643L1027.4 797.764L1030.61 798.457L1032.71 797.641L1035.19 798.18L1035.42 798.118L1035.86 791.547L1035.43 789.655L1036.35 787.439L1036.45 784.869L1038.23 782.761L1038.96 779.16L1040.99 777.913L1041.49 776.22L1042.51 774.697L1045.43 772.419L1044.96 766.556L1046.19 764.664L1047.8 764.279L1049.27 761.17V761.047L1048 759.678L1047.53 757.8L1048.11 755.831L1049.36 754.246V753.553L1048.67 752.184L1048.91 751.106L1048.8 750.675L1048.37 750.183L1045.53 749.275L1042.68 743.597L1044.19 739.026L1045.07 737.318L1043.71 736.041L1043.4 734.364L1043.34 731.717L1044.33 730.686L1043.96 729.947L1044.71 728.285L1044.34 726.362L1043.23 725.3V724.53L1041.53 724.438L1039.34 722.237L1036.92 720.483L1035.63 718.19L1035.14 714.389L1035.11 712.173L1035.65 710.927L1037.42 710.004L1040.91 709.342L1042.13 708.357L1042.54 707.68L1042.77 706.572L1042.25 703.063L1043.22 699.755L1042.22 697.293L1043.26 695.646L1043.23 692.953L1044 691.045L1046.33 690.876L1055.81 687.398L1060.45 686.644L1062.06 687.136L1062.5 687.613L1064.95 687.075L1066.03 687.444L1067.8 685.767L1069.2 685.644L1070.98 687.475L1073.29 688.336L1073.14 690.445L1071.6 692.153L1071.54 692.538L1071.78 693.646L1073.01 695.154L1073.15 695.846L1075.47 696.954L1077 700.109L1078.98 701.771L1081.69 702.694H1082.03L1082.95 701.925L1084.75 699.493L1085.06 694.63L1088.6 689.737L1093.59 687.552L1095.34 685.644L1096.76 685.259L1098.25 685.844L1098.5 687.736L1097.84 688.69L1097.87 692.707L1096.96 695.446L1095.59 696.431L1093.36 696.539V696.708L1096.64 696.739L1098.01 697.631L1098.7 699.078L1098.85 703.448L1098.39 704.494L1097.08 705.602L1096.96 705.972L1096.88 707.08L1097.85 710.696L1097.91 713.05L1096.99 716.005L1095.88 722.822L1096.1 723.807L1098.31 725.9L1099.61 733.733V737.164L1098.54 738.857L1098.16 739.134L1098.19 740.765L1099.77 741.227L1103.28 743.628L1108.45 743.581L1108.41 747.49L1108.7 748.69L1108.82 748.937L1111.5 751.183L1111.24 752.876L1111.84 755.8L1113.76 758.893L1113.84 760.724L1118.53 767.249L1121.1 769.696L1121.63 768.819L1123.84 767.772L1127.25 770.988L1130.95 772.835L1133.71 772.973L1135.45 772.589L1137.94 773.004L1139.83 773.727L1141.05 775.251L1141.57 775.605H1142.51L1145.02 776.513L1146.9 776.328L1152.62 772.189L1154.42 772.019L1155.21 770.465L1156.45 769.85L1158.66 770.25L1159.92 772.219L1161.19 773.404H1162.06L1165.03 774.251L1166.69 773.804L1167.18 770.434L1168.43 768.234L1169.64 767.049L1169.9 766.126L1169.78 764.925L1168.41 764.094L1167.72 762.478L1168.18 760.478L1170.23 758.016L1169.74 754.399L1170.6 753.215L1172.03 752.676L1173.6 750.706L1177.34 749.86L1178.52 751.753L1179.45 751.999L1183.62 756.061L1184.14 756.385L1185.43 756.538L1188.66 753.799L1192.13 753.03L1194.39 751.229L1197.99 750.075L1202.01 745.705L1203.45 745.336L1204.99 745.474L1205.82 744.843L1210.23 744.566L1212 745.166H1212.13L1214.21 743.72L1215.72 741.119L1221.97 738.041L1224.37 738.442L1225.94 741.565L1227.58 741.442L1228.02 743.012L1228.69 741.104L1234.68 738.595L1236.97 739.257L1237.62 740.611L1237.2 742.012L1237.26 742.381L1239.33 745.289L1244.65 749.829L1244.87 749.891L1247.22 749.583L1248.67 750.429L1248.24 755.723L1245.81 758.847L1244.51 762.555L1245.73 763.894L1247.87 765.387L1248.07 765.479L1250.28 765.018L1249.81 768.234L1249.15 769.249L1249.7 770.25L1249.64 771.927L1247.68 774.128L1247.95 775.543L1249.45 777.99L1257.16 780.36L1260.29 782.068L1265.06 785.484L1266.7 792.763L1265.09 795.887L1264.97 797.426L1264.3 799.057L1262.95 800.073L1266.15 801.965L1267.98 804.028L1268.12 804.058L1268.44 803.874L1270.86 800.857L1273.94 799.919L1277.49 800.18L1279.51 800.934H1281.22L1282.63 801.504L1285.93 800.919L1288.56 799.226L1289.27 797.949L1289.77 795.872L1295.99 790.67L1296.85 789.762L1296.91 789.562L1296.85 788.931L1295.42 785.669L1294.61 784.7L1292.79 783.422L1292.85 779.652L1290.34 777.913L1291.02 776.082V775.805L1290.88 775.666L1287.99 774.389L1286.47 772.558L1286.03 770.834L1283.22 768.772L1280.23 767.157L1279.17 763.094L1277.35 760.478L1276.91 759.047L1277.12 755.323L1277.86 753.015L1277.55 749.675L1279.77 749.367L1283.48 746.413L1283 743.843L1283.51 739.657L1285.14 738.38L1287.51 735.702L1292.22 735.795L1293.1 735.133L1293.27 732.732L1292.73 729.285L1293.98 727.731L1293.94 727.3L1293.01 726.069L1289.71 728.193L1288.88 725.731V722.33L1287.88 720.76L1286.65 720.683L1284.74 719.806L1284.3 719.868L1281.45 721.96L1279.59 721.16H1279.31L1276.68 723.915H1275.31L1274.32 723.315L1270.74 723.884L1269.77 722.576L1269.83 721.191L1269.63 720.976H1269.21L1267.23 721.714L1265.1 721.253L1264.01 719.544L1263.49 715.959L1260.38 715.174L1258.19 713.189L1259.21 711.388L1259.13 710.019L1260.8 707.28L1262.3 705.679L1262.4 704.879L1261.86 702.463L1259.23 699.416L1259.53 697.631L1260.69 696.062L1259.78 694.184L1260.76 691.106L1259.84 689.706L1259.07 687.152L1262.26 684.182L1262.6 682.489L1262.53 681.35L1261.52 677.734L1260.09 676.18L1259.76 674.179L1261.4 671.594L1265.06 670.932L1266.67 669.209L1268 666.023L1270.44 664.346L1270.89 662.838L1269.97 660.883L1270.23 659.037L1273.48 658.852L1275.63 656.821L1275.78 655.266L1274.77 652.343L1275.43 647.403L1276.31 644.402L1278.71 644.325L1281.71 646.003L1284.83 646.357L1285.28 646.187L1287.53 644.279L1289.7 643.648L1290.68 642.725L1294.7 641.832L1301.61 637.693L1303.15 638.662L1303.62 639.724L1305.53 639.786L1308.33 641.294L1309.09 640.417L1309.93 638.262L1311.83 636L1316.81 634.261L1317.18 638.185L1317.57 639.062L1319.35 641.648L1322.8 645.372L1320.31 648.788L1317.57 653.543L1318.31 655.759L1318.77 658.883L1319.98 660.022L1321.51 658.621L1324.03 657.806L1327.17 659.929L1329.79 660.622L1330.89 662.084L1331.54 664.223L1333 666.285L1332.7 669.116L1335.5 669.501L1336.31 670.255L1340.85 668.593L1343.94 672.025L1344.11 671.902L1345.47 670.07L1346.16 667.716L1347.28 666.516L1348.79 666.931L1350.84 666.854L1353.26 667.516L1360.09 671.44L1361.46 671.286L1363.6 669.039L1366.06 668.793L1367.37 669.424L1373.18 675.333L1373.62 675.61L1375.77 676.087L1376.08 676.41L1376.69 675.687L1377.29 673.517L1378.54 672.825L1380.34 672.948L1380.6 672.732L1380.36 670.994L1381.96 667.793L1381.16 666.008L1381.43 662.992L1382.03 661.345L1383.54 659.56L1383.6 658.313L1384.3 656.005L1383.43 654.512L1384.36 651.773L1383.53 648.403L1384.45 646.464L1385.39 645.618L1378.34 638.739L1373.92 635.261L1372.55 635.646L1366.81 636.123L1363.97 637.339L1362.1 637.231L1360.77 636.539L1360.04 635.092L1359.89 632.43L1357.47 627.352L1357.61 623.889L1357.35 621.566L1356.03 617.503L1355.84 615.518L1356.61 613.502L1358.7 611.84L1360.86 607.331L1361.7 606.439L1363.77 605.823L1364.34 604.808L1364.69 602.176L1362.57 599.945L1362.21 598.56L1360.43 597.144L1360.04 594.99L1362.7 593.405L1370.11 587.388L1371.23 586.911L1371.75 586.988L1372.17 585.833L1372.2 584.895L1371.12 580.109L1368.57 575.969L1366.34 574.354L1365.35 571.968L1366.24 570.614L1368.8 569.245L1371.77 569.029L1373.59 566.982L1375.62 562.274L1375.35 559.796L1376.22 558.611L1375.71 557.395V556.087L1376.49 554.625L1378.11 553.441L1378.19 553.01L1377.8 551.286L1379.6 548.116L1379.19 545.777L1379.53 545.423L1378.79 542.669L1379.46 540.699L1379.73 537.883L1379.19 535.159L1377.86 533.451L1378.74 531.943L1381.05 529.819V527.649L1381.7 526.28L1381.88 524.325L1381.54 523.141L1383.02 521.063L1384.03 517.708L1383.79 513.83L1384.3 511.892L1381.63 510.891L1381.45 510.537L1381 510.507L1379.62 508.537L1375.92 506.767L1375.75 506.367L1374.6 506.475L1371.92 505.859L1370.89 505.321L1370.8 504.982H1368.8L1367.68 504.105L1366.31 502.751L1366.2 501.535L1367.28 497.811L1367.32 496.457L1365.78 495.287L1365.54 494.749L1363.78 493.933L1362.37 491.917L1360.58 490.178L1359.61 488.162L1357.76 487.178H1357.32L1353.39 491.04L1348.42 490.394L1347.07 491.071L1346.61 493.164L1345.53 494.241L1345.22 494.318L1345.33 495.518L1343.73 497.58L1342.48 500.473L1342.18 501.412L1342.25 503.259L1341.44 505.813L1339.34 507.429L1338.33 507.198L1336.36 507.506L1336.19 507.906L1336.28 509.706L1335.71 510.537L1336.8 512.107L1338.77 514.015L1338.7 517.093L1337.73 518.032L1335.56 517.878L1333.91 518.139L1333.68 518.293L1332.45 520.894L1329.79 518.832L1322.72 516.539L1317.47 515.646L1317.4 517.508L1317.78 519.74L1316.24 521.432L1315.23 526.757L1313.92 529.034L1313.47 529.265L1313.57 529.511L1313.35 530.481L1313.47 530.742L1315.51 532.62L1315.72 533.697L1314.97 539.514L1314.54 540.268L1314.84 542.361L1311.3 542.438L1310.15 542.099L1308.72 542.715L1305.7 543.223L1304.16 542.407L1303.75 542.376L1303.05 543.577L1301.07 545.162L1300.7 546.5L1298.76 547.562L1297.59 547.593L1296.64 549.039L1294.85 548.701L1292.25 550.778L1291.37 548.993L1290.27 548.809L1290.2 548.993L1288.08 550.24L1285.05 550.04L1284.4 550.363L1283.6 550.07L1283.43 550.301L1283.13 550.332L1282.76 551.348L1280.56 552.41L1278.08 552.779L1276.71 551.84L1276.23 550.671L1275.42 549.717L1273.63 548.347L1273.09 546.085L1273.2 545.315L1272.49 544.854L1271.86 545.1L1269.4 544.315L1265.27 544.808L1263.29 544.115L1261.67 541.976L1261.56 539.068L1261.8 537.867L1259.36 535.975L1258.67 534.082L1256.75 533.559L1255.55 530.973L1252.93 528.48L1251.42 528.527L1250.05 529.311L1247.01 527.742L1245.1 527.696L1244.37 526.557L1241.93 526.187L1242.13 523.448L1241.79 522.294L1241.74 522.263L1241.05 522.864L1239.31 523.418L1237.8 523.279L1236.45 522.217L1234.88 522.74L1233.74 523.571L1230.85 523.156L1224.83 519.924L1223.21 518.078L1221.95 518.17L1219.6 517.139L1219.2 516.246L1218.52 515.769L1216.89 515.385L1214.63 514.2L1213.67 514.461L1212.6 513.43V512.122L1212.95 511.522H1212.92L1212 506.382L1212.63 505.582L1213.07 504.059L1212.23 503.428L1210.87 501.273L1212.32 498.719L1211.98 498.073L1212.56 496.241L1214.86 493.656L1214.77 492.871L1215.84 491.071L1216.94 490.224L1216.24 486.993L1212.6 484.838L1211.21 482.546L1211.26 479.806L1212.95 479.606L1213.66 478.929L1211.3 478.76L1209.75 478.206L1208.67 479.976L1207.41 480.653L1204.41 481.268L1203.62 482.069L1202.36 482.161L1200.75 481.391L1197.42 478.652L1196.53 478.283L1195.31 478.606L1192.4 475.728L1189.94 474.236L1186.96 471.681L1183.6 471.512L1182.31 472.004L1178.55 472.374L1177.06 472.051L1175.37 470.096L1174.24 470.25L1171.77 469.404L1169.04 469.496L1165.92 467.819L1165.06 466.849L1164.53 465.757L1163.96 465.864L1160.42 464.541L1158.64 463.125L1158.19 462.017L1156.55 462.956L1154.39 462.91L1152.38 463.464L1149.24 463.064L1148.51 464.726L1147.25 465.803L1145.37 466.311L1142.56 465.818L1141.8 465.418L1141 465.526L1137.53 462.233L1137.28 462.125L1136.28 462.971L1134.39 463.71L1131.46 465.464H1130L1126.97 466.141L1124.78 467.234H1123.69L1122.01 465.803L1121.74 463.371L1119.86 461.017L1118.78 460.663L1117.64 461.232L1113.47 462.356L1112.32 463.787L1108.99 464.202H1108.92L1108.87 464.51L1107.42 465.187L1106.13 464.418L1104.33 467.203L1102.58 466.711L1101.81 465.218V465.172L1100.33 466.403L1099.04 461.556L1098.99 459.016L1105.48 454.615L1110.62 450.445L1111.41 449.414L1112.21 446.521L1112.29 444.028L1109.52 429.809L1108.98 428.193L1106.78 425.177L1104.25 419.083L1102.82 411.22L1103.87 405.48L1106.72 398.817L1107.72 394L1112.46 385.798L1115.01 378.611L1115.44 373.872L1120.06 370.009L1121.07 367.947L1122.03 364.1L1123.18 361.807L1130.46 356.344L1132.02 353.22L1134.92 342.895L1136.43 340.309L1142.54 333.384L1143.34 333.985L1145.13 333.354L1150.71 332.984L1153.19 331.476L1154.19 330.445L1155.27 328.075V325.044L1154.88 324.628L1152.51 323.536L1151.58 322.674L1149.21 318.581L1149.04 313.056L1147.37 307.47L1147.42 305.193L1148.16 303.992L1151.38 300.576L1151.48 300.068L1151.41 299.807L1148.08 298.468L1143.85 298.099L1140.9 296.975L1139.65 295.513L1138.79 293.697L1138.56 294.559L1137.48 296.221L1135.06 296.083L1133.82 295.267L1131.6 290.112L1129.65 286.803L1126.65 284.418L1124.95 282.525L1124.31 279.986V279.786C1124.55 277.447 1122.67 275.277 1120.7 272.969C1119.61 271.692 1118.47 270.368 1117.69 268.968C1117.5 268.629 1117.3 268.291 1117.12 267.937C1114.24 262.782 1110.99 256.95 1105.19 255.472C1103.71 255.103 1102.05 254.903 1100.44 254.703C1099.44 254.58 1098.41 254.457 1097.42 254.287L1097.25 254.257L1097.1 254.18L1019.23 215.878L1017.59 216.662L1013.27 216.062L1013.39 215.601L1013.19 215.554L1011.99 214.369L1011.32 213.046L1010.05 211.846L1008.88 211.646L1006.65 213.015L1000.34 211.184L998.373 209.584L991.864 206.367L988.493 206.675L985.354 206.414L980.429 205.029L973.258 203.628L971.75 204.028L960.808 210.245L960.007 211.015L953.144 214.6L950.651 215.739L939.924 219.232L937.092 219.494L933.46 216.97L932.445 216.77L931.568 217.309L929.305 216.001L931.014 214.939L930.829 211.923L930.398 210.492L928.767 207.429L926.72 205.844L923.38 205.367L923.981 204.182L923.673 203.674L924.565 201.612H924.627L924.688 201.12L925.997 200.227L926.058 200.043L924.612 199.827L923.904 198.258L924.965 196.842L926.166 197.011L926.766 196.103L926.181 195.98L924.258 196.642L923.073 194.641L922.626 192.81L922.472 192.656L920.149 192.087L919.287 192.918L917.594 193.133L914.578 191.61L915.147 190.24H915.116L914.331 188.44L913.7 187.717L912.5 187.501L911.607 188.471L911.53 187.332L910.669 187.178L910.823 186.747L908.637 185.793H908.56L907.052 186.778L905.913 188.886L904.99 188.563L904.313 189.948L904.051 189.902L904.436 190.887L903.543 192.872L906.667 193.595L909.037 193.318L911.515 195.195V196.827L913.316 196.95L914.978 199.243L913.223 201.274L911.7 201.182L911.269 201.628L910.422 204.675L910.453 205.444L912.485 204.398L913.793 205.136L916.394 204.813L918.81 206.044L920.272 206.229L923.704 208.968L918.133 208.291L915.978 207.198L913.3 207.537L912.423 207.029L908.329 209.137L908.299 208.445L905.667 207.429L901.958 204.167L898.619 202.382L885.568 199.597L888.939 198.596L888.846 198.119L889.016 196.565L890.124 193.149L889.985 191.887L891.293 190.163L890.955 189.886L888.354 189.163L888.323 188.917L887.03 188.809L885.03 185.131L886.276 179.638L887.415 178.76L887.985 177.068L888.893 176.96L889.293 176.267L892.478 176.237L892.663 175.344L890.431 173.436L889.677 171.989L888.446 171.482L888.338 171.066H888.262L886.846 170.558L885.784 171.328L884.907 171.451L883.937 172.297L883.383 172.482L882.875 173.944L880.628 174.682L878.381 172.251L878.643 170.851L876.981 166.819L877.704 166.019L876.135 164.48L877.089 163.603L877.15 163.064L877.058 162.156L876.689 161.972L876.566 162.048H875.304L873.965 161.233L872.056 160.864L871.533 159.571L869.271 158.478L870.21 157.109V156.816L869.933 156.339L869.486 157.755L868.64 158.201L868.178 159.94L868.209 160.017L869.671 161.433L869.117 164.541L869.994 164.741L870.502 166.619L868.809 168.05L869.117 168.573L867.763 170.666L866.331 170.758L863.869 173.513L862.315 173.328L861.33 172.774L860.376 170.651L858.56 169.035L859.714 165.08L858.991 163.926L858.114 161.094L859.068 158.124H858.421L858.329 156.078L857.636 155.524L856.128 155.124L854.774 155.093L853.05 156.601L851.342 155.878L850.834 155.293L848.772 156.139L846.895 156.232L845.771 153.369L845.479 153.031L845.386 153L845.14 153.446L844.894 157.355L848.049 158.401L849.111 162.541L848.249 164.095L846.356 164.68L844.417 166.065L842.97 165.142L842.678 163.864L841.17 162.695H841.077L837.153 164.388L836.03 165.542L834.044 165.342L833.675 165.788L832.967 168.573L831.12 168.404L829.289 166.696L827.719 167.681L826.75 167.604L824.795 168.912L823.056 168.296L822.733 168.512L822.348 169.45L819.778 171.374L817.454 175.406L815.192 177.222L815.284 178.114L814.423 180.068L813.238 180.792V181.007L813.73 182.961L813.807 183.069L815.685 183.9L814.53 186.07L814.761 188.763L811.483 188.363L811.16 188.424L810.267 190.102L808.805 190.563L806.636 193.041L804.065 193.98L801.311 197.688L801.511 197.719L802.65 198.704L805.574 203.736L803.419 206.291L801.249 206.952L801.126 207.122L801.065 207.568L802.357 209.876L805.481 209.799L809.082 213.692L810.175 213.923L811.329 214.785L813.376 214.708L814.084 215.17L816.115 213.585L819.04 213.969L817.547 217.416L818.932 216.57L820.825 216.832L822.071 217.709L822.318 218.894L823.441 218.648V217.878L828.581 217.986L829.935 217.478L832.905 218.786L833.521 218.817L833.829 218.678L834.214 218.232V217.493L833.521 216.124L833.413 215.354L832.782 214.8L832.336 212.938L835.614 210.83L836.399 211.492L836.737 210.615L837.538 210.43L837.769 209.476L839.461 209.353L840.2 208.845L842.524 208.168L843.847 208.091L844.971 208.86L845.432 210.245L845.694 210.461L846.618 210.492L848.233 211.323L848.664 211.199L850.419 209.645L851.496 209.122L851.896 209.199L853.558 207.245L856.067 207.106L857.082 207.906L857.621 211.615L857.96 211.969L859.021 211.692L863.146 215.508L863.623 217.801L861.607 222.495L858.975 223.926L855.743 223.803L855.113 222.018L855.559 220.325L857.052 219.832L857.113 219.771L856.898 218.355L856.513 218.017H856.482L855.897 219.771L854.281 221.171L854.235 221.387L854.866 226.834L856.959 231.974L856.174 234.575L853.758 237.221L853.127 237.16L852.342 238.606L851.081 238.945L851.05 238.991L850.096 241.115H848.71L847.756 241.869L847.172 241.684C846.31 241.407 845.848 240.93 845.54 240.607C845.479 240.545 845.402 240.453 845.356 240.422C845.263 240.422 845.094 240.453 844.755 240.576L843.955 240.884L843.432 240.207C842.678 239.237 842.432 236.729 842.924 235.129C843.293 233.959 843.97 233.513 844.478 233.344C844.555 233.313 844.771 233.251 845.032 233.19L844.832 232.651L843.232 232.774L841.477 229.389L838.292 228.973L837.876 228.619L836.214 229.235L835.968 226.773L831.905 225.942H831.69L831.551 226.111V227.28L831.89 227.357L831.228 229.327L830.382 230.081L829.551 230.05L829.474 232.143L821.44 234.159L821.302 234.098L820.671 235.452L819.317 236.591L818.993 236.467L817.824 238.206L815.161 238.776V238.883L816.316 240.238L816.346 242.13L817.116 242.284L817.824 243.962L818.993 244.008L820.425 243.654L820.548 243.592L820.871 242.7L823.641 241.761L825.78 245.762L825.457 247.055L822.379 249.348L819.424 248.778C818.532 249.009 815.038 250.686 813.315 251.502C812.299 251.994 811.483 252.379 811.114 252.533C809.498 253.195 808.098 253.533 806.836 253.533C804.373 253.533 802.634 252.379 800.434 250.917C799.618 250.379 798.695 249.763 797.648 249.148L797.279 249.225L796.294 250.009L795.632 250.871L795.093 252.964L793.662 253.841L786.737 252.087L778.873 251.748L777.149 251.24L775.01 249.702L772.24 246.224L769.87 245.162L768.423 243.669L767.408 241.022L768.223 237.206L768.146 236.714L766.715 235.667L765.253 235.113L763.591 235.006L760.036 235.913L758.851 235.19L757.959 233.328H757.928L755.188 234.436L752.988 234.544L750.679 237.114L748.848 237.714L747.524 236.514L746.786 232.759L746.324 232.005L744.247 231.128L742.815 231.22L741.122 232.497L738.368 237.422L735.428 238.853L732.781 241.776L730.75 242.438L728.595 241.392H727.78L725.702 243.254L725.487 244.87L724.44 246.27L718.207 246.439L717.022 247.116L715.837 248.824L714.699 254.21L713.498 255.765L711.559 257.103L709.805 257.396L708.097 256.98L705.527 254.718L704.803 254.487L703.649 254.888L699.725 257.796L697.339 258.996L691.599 260.243L689.414 259.812L687.275 258.227L686.213 257.888L678.441 258.304L674.332 257.288L673.978 257.457L673.439 258.042L672.177 261.828L669.977 263.182L666.53 261.874L662.513 261.535L660.251 260.012L659.05 257.965L658.465 255.318L659.435 252.302L659.158 250.779L657.511 247.301L654.772 244.87L653.094 244.5L648.847 244.454L647.2 244.808L643.214 247.009L641.06 247.116L639.475 246.547L638.613 245.362L638.29 245.177L635.935 244.746L635.812 244.808L635.397 245.577L633.796 251.979L630.564 254.426L629.302 257.027L625.009 259.15L622.577 259.489L618.591 260.92L616.544 262.397L614.852 263.043L611.697 263.782L607.68 263.659L607.111 263.951L607.711 265.89L605.141 265.367L605.018 264.998L600.539 267.552L596.184 267.598L594.137 267.168L591.106 265.583L589.736 262.536L589.536 262.32L587.781 261.966L586.335 260.981L584.18 257.365L581.502 254.687L582.056 253.687L583.457 251.302L585.581 253.226L586.95 253.749L590.444 251.687L591.813 251.779L592.475 251.44L594.168 251.794L594.383 250.917L595.984 249.825L595.799 249.702L594.907 246.455L593.091 245.747L592.337 244.208L592.644 243.038H592.306L590.182 242.007L587.166 241.592L585.935 243.269L584.503 244.1L581.425 247.455L579.748 248.763L578.409 248.994L577.332 248.517L576.239 248.778L574.423 248.409L573.792 245.177L570.961 244.116L570.237 245.808L569.545 250.256L567.113 249.101L566.082 249.348L564.174 249.055L562.512 250.517L563.004 251.21L562.066 253.641L558.003 255.857L555.602 257.904L553.17 259.166L550.693 261.905L547.399 262.566L545.983 264.136L545.799 264.659L546.43 265.736L546.661 266.952H547.015L547.538 266.798L550.385 263.844L552.339 265.336L552.77 265.229L553.971 265.936L554.956 267.445L554.555 269.737L552.832 272.523L552.524 275.6L550.924 274.785L549.846 275.57L549.246 273.877L547.753 274.508L548.569 275.308L549.046 276.909L548.969 278.786L549.662 280.817L548.861 282.187L546.922 283.172L547.076 284.049L544.321 285.895L544.044 286.85L542.659 288.204L539.535 289.204L537.981 289.312L536.242 288.635L534.195 285.834L532.979 285.742L531.04 284.88L529.64 283.664L527.147 282.218L526.947 282.418L526.593 283.695L525.208 285.834L525.792 285.603L526.916 286.619L527.424 286.388L528.824 287.48L529.671 287.142L530.963 288.973L531.825 288.912L534.103 290.035L533.81 292.312L530.809 295.744L534.995 301.623H532.164L531.81 301.145L528.87 297.006L526.239 297.806L526.208 297.898L526.716 299.237L525.469 300.284L525.685 300.561L524.792 301.776L525.792 301.653L527.054 301.038L528.07 303.115L526.454 303.915L524.392 304.162L523.422 304.069L522.945 303.608L519.313 305.885L519.067 307.439L515.42 307.993L513.665 308.994L512.896 309.086L512.85 309.501L511.573 309.178L508.325 308.332L503.293 308.209L500.554 307.239L499.061 305.362L497.968 305.316L497.876 305.839L497.368 306.578L497.722 309.394L495.275 308.424L495.183 307.747L494.983 306.301H493.398L492.428 306.67L490.227 306.378L489.766 306.901L487.072 308.64L484.702 307.916L484.395 308.024L481.348 310.856L476.669 312.271L474.099 313.549H471.452L472.329 310.717L471.514 310.471L469.975 308.855L470.359 307.439L469.205 305.87L468.774 305.685L468.128 305.716L463.68 307.501L459.156 307.593L458.571 306.301L457.863 305.685L450.23 303.623L451.892 301.915L453.369 297.344L453.677 294.467L453.292 292.774L455.016 289.543L456.032 286.372L457.232 284.28L454.57 285.203L452.662 285.403L449.014 284.695L447.86 283.864L446.444 282.033L443.766 280.325L442.951 279.848L441.073 279.494L437.595 282.741L430.901 283.125L427.423 285.618L425.545 285.911L424.114 284.326L424.022 283.787L421.513 282.895L418.697 282.941L416.896 281.756L413.865 282.018L413.711 280.956L411.51 280.017L410.756 279.078H410.51L407.57 279.971L402.522 282.525L401.676 282.818L402.23 284.434L402.492 287.68L402.015 289.081L402.061 289.281L402.384 290.189L403.984 290.989L403.584 292.42L406.016 291.989L405.847 294.79L406.508 295.606L405.37 296.914V297.114L406.431 298.129L406.247 299.514L403.507 302.253L400.814 302.73L398.983 302.423L397.398 303.023L397.136 303.408L396.12 306.455L393.35 308.609L391.411 308.009L389.226 308.301L388.934 309.194L389.241 314.81L388.949 317.119L387.856 319.966L382.593 320.304V320.597L381.654 323.351L380.962 323.613L381.008 323.674L380.885 324.89L381.67 326.06L380.285 328.152L378.053 329.768L376.514 329.968L376.545 330.107L373.067 332.723L373.252 335.046L372.651 337.355L371.882 338.74L371.805 339.601L374.037 338.417L374.452 337.478L376.037 337.539L377.33 336.693L381.947 338.324L382.747 338.37L385.563 337.032L386.687 337.509L388.01 337.539L391.211 336.601L391.673 336.939L395.012 336.693L396.32 336.139L396.828 336.308L399.768 335.185L402.692 335.262L405.831 333.508L407.185 331.753L409.586 331.23L410.51 332.246L412.664 332.723L414.757 332.584L415.219 335.031L416.789 334.8L419.312 336.062L420.544 341.079L419.943 342.033L421.236 342.387L423.268 343.972L422.991 345.187L421.959 347.326L421.436 347.496H421.452L421.375 349.173L417.958 352.774L414.126 352.22L413.28 352.897L408.832 353.436L409.078 353.497L410.14 355.729L410.186 357.375L409.248 359.576L408.586 360.253L407.847 363.269L406.37 363.915L406.077 363.777L404.061 366.131L401.784 365.531L399.522 366.162L398.998 365.993L398.029 367.793L395.366 367.27L393.643 367.778L391.796 367.285L391.334 367.332L390.873 367.516L389.565 368.717L390.38 369.701L390.503 370.932L392.412 375.087L392.088 376.118V379.212L391.35 381.643L391.027 381.951L391.057 382.335L393.181 385.044L393.289 386.967L389.888 389.245L389.918 389.707L389.057 391.861L387.41 392.784H385.856L385.348 393.154L384.732 394.662L383.286 396.416L380.192 397.524L378.853 399.355L377.684 399.924L376.099 401.494L375.037 402.048L373.836 403.448L373.175 403.587L371.944 404.649L371.297 406.88L370.358 407.803L370.205 408.28L370.328 411.681L367.973 411.435L367.711 412.358L366.942 413.205L361.325 416.206L361.571 416.513L362.171 416.59L363.525 416.206L366.126 417.467L366.019 419.191L363.941 421.361L363.172 422.792L360.848 423.731L360.601 425.469L357.108 427.578L356.323 428.963L354.769 429.963L353.568 431.917L351.876 432.071L351.491 433.333L350.506 434.072L347.951 434.687L346.843 435.595L343.627 436.765L342.119 437.873L339.749 437.95L338.995 438.273L335.732 440.443L334.562 442.181L333.562 442.812H333.254V442.966L334.485 445.398L334.532 446.644L333.854 448.552L332.608 449.799L330.161 450.568L328.684 450.445L327.729 449.983L327.129 450.537L325.344 451.107L325.144 451.599L323.805 452.615L323.651 452.676L324.082 452.815L323.051 454.846L323.497 455.846L322.251 456.801L321.327 458.37L319.681 458.786L320.527 459.186L321.512 460.694L322.22 460.725L323.851 461.494L324.559 462.956L327.129 463.864L326.698 466.141L324.175 467.557L321.697 470.327L319.404 472.051L316.818 471.866L314.094 472.851L309.924 475.651L307.477 479.006L306.061 483.069L304.522 485.639L302.183 487.932L300.121 488.932L298.72 490.24L295.211 491.179L293.395 491.132L291.487 490.455L290.995 490.501L285.67 494.087L282.238 495.58L280.73 495.872L274.682 498.257L272.112 498.904L270.203 498.98L264.986 501.72L262.863 498.611L260.57 500.627L257.661 503.813L254.475 508.198L253.66 509.937L250.643 513.276L246.242 516.277L246.935 517.939L247.766 518.632L253.183 526.418L254.983 531.096L253.798 547.07L249.197 555.379L248.35 558.827L248.581 562.689L246.18 564.028L247.088 567.213L253.983 572.661L251.936 577.093L251.967 579.201L248.135 582.309L248.289 584.002L245.226 586.972L243.564 588.065L238.255 589.696L236.685 589.804L235.377 590.65L234.331 591.866L235.239 593.651L233.515 596.328L231.976 597.806L229.283 598.098L229.406 599.437L228.513 600.837L227.405 600.991L226.744 601.576L225.174 601.622L224.235 602.668L223.635 604.484L222.388 604.607L219.695 606.562L216.032 607.947L215.186 607.978L206.768 613.148L203.829 614.225L202.243 616.21L200.72 616.995L201.074 618.765L200.074 619.057L199.319 620.258L190.932 627.86L189.085 630.706L186.638 632.615L186.238 632.584L186.146 632.676L186.3 633.43L184.761 634.092L182.776 636.708L181.191 636.6H181.144L179.19 639.893L175.373 642.556L175.081 644.541L170.356 647.188L169.664 647.218L167.525 649.773L166.324 650.065L164.939 651.389L163.431 652.204L160.092 655.174L158.66 657.529L156.383 659.668L169.402 672.44L167.202 674.641L168.571 675.995L165.647 679.534L164.185 681.15L162.662 679.811L156.675 687.275L153.859 693.492L151.843 699.078L146.333 704.525L145.425 706.11L146.118 707.588L146.149 709.634L148.242 711.419L149.073 713.82L148.319 715.774L145.979 718.637L145.61 720.252L143.255 724.315L143.809 724.515L151.166 726.777L154.013 730.609L154.844 730.809L155.598 730.116L163.293 736.241L166.309 739.396L167.34 738.949L169.679 739.18L170.603 742.089L172.988 745.043L169.772 749.06L169.433 750.029L169.525 751.583L168.879 752.584L166.34 755.723L164.77 757L164.354 756.8L164.124 757.785L164.647 758.539L163.8 759.231L163.57 760.263L163.4 759.939L163.185 760.232L163.57 761.447L162.677 761.617L162.646 761.832L160.522 764.079L160.446 765.048L158.845 766.972L158.66 767.095Z" stroke="#25315D" stroke-width="3" stroke-linecap="round" stroke-linejoin="round"/>
</svg>
