<svg width="1500" height="1120" viewBox="0 0 1500 1120" fill="none" xmlns="http://www.w3.org/2000/svg">
<path d="M856.628 500H643.957C637.906 500 633 504.901 633 510.946V609.591C633 615.637 637.906 620.538 643.957 620.538H856.628C862.679 620.538 867.585 615.637 867.585 609.591V510.946C867.585 504.901 862.679 500 856.628 500Z" fill="#000B32"/>
<path d="M651.985 589.706C656.525 589.706 660.205 588.482 660.205 586.972C660.205 585.463 656.525 584.239 651.985 584.239C647.445 584.239 643.764 585.463 643.764 586.972C643.764 588.482 647.445 589.706 651.985 589.706Z" stroke="white" stroke-width="1.71" stroke-linecap="round" stroke-linejoin="round"/>
<path d="M643.764 593.359C643.764 594.395 645.528 595.356 648.329 595.815" stroke="white" stroke-width="1.71" stroke-linecap="round" stroke-linejoin="round"/>
<path d="M660.205 590.892V586.972" stroke="white" stroke-width="1.71" stroke-linecap="round" stroke-linejoin="round"/>
<path d="M643.764 586.972V599.745C643.764 600.962 646.17 602.03 649.676 602.372" stroke="white" stroke-width="1.71" stroke-linecap="round" stroke-linejoin="round"/>
<path d="M651.985 593.359V597.011H655.641" stroke="white" stroke-width="1.71" stroke-linecap="round" stroke-linejoin="round"/>
<path d="M652.904 600.663C654.422 602.682 657.276 603.087 659.297 601.571C660.451 600.706 661.125 599.36 661.125 597.919C661.125 595.655 659.286 593.807 657.009 593.807C655.79 593.807 654.689 594.298 653.898 595.089L651.985 597" stroke="white" stroke-width="1.71" stroke-linecap="round" stroke-linejoin="round"/>
<path d="M679.949 589.706C684.489 589.706 688.169 588.482 688.169 586.972C688.169 585.463 684.489 584.239 679.949 584.239C675.409 584.239 671.729 585.463 671.729 586.972C671.729 588.482 675.409 589.706 679.949 589.706Z" stroke="white" stroke-width="1.71" stroke-linecap="round" stroke-linejoin="round"/>
<path d="M671.729 593.359C671.729 594.395 673.492 595.356 676.293 595.815" stroke="white" stroke-width="1.71" stroke-linecap="round" stroke-linejoin="round"/>
<path d="M688.169 590.892V586.972" stroke="white" stroke-width="1.71" stroke-linecap="round" stroke-linejoin="round"/>
<path d="M671.729 586.972V599.745C671.729 600.962 674.134 602.03 677.64 602.372" stroke="white" stroke-width="1.71" stroke-linecap="round" stroke-linejoin="round"/>
<path d="M679.949 593.359V597.011H683.605" stroke="white" stroke-width="1.71" stroke-linecap="round" stroke-linejoin="round"/>
<path d="M680.858 600.663C682.376 602.682 685.23 603.087 687.25 601.571C688.405 600.706 689.078 599.36 689.078 597.919C689.078 595.655 687.239 593.807 684.962 593.807C683.744 593.807 682.643 594.298 681.852 595.089L679.938 597" stroke="white" stroke-width="1.71" stroke-linecap="round" stroke-linejoin="round"/>
<path d="M707.902 589.706C712.442 589.706 716.123 588.482 716.123 586.972C716.123 585.463 712.442 584.239 707.902 584.239C703.363 584.239 699.682 585.463 699.682 586.972C699.682 588.482 703.363 589.706 707.902 589.706Z" stroke="white" stroke-width="1.71" stroke-linecap="round" stroke-linejoin="round"/>
<path d="M699.682 593.359C699.682 594.395 701.446 595.356 704.247 595.815" stroke="white" stroke-width="1.71" stroke-linecap="round" stroke-linejoin="round"/>
<path d="M716.123 590.892V586.972" stroke="white" stroke-width="1.71" stroke-linecap="round" stroke-linejoin="round"/>
<path d="M699.682 586.972V599.745C699.682 600.962 702.087 602.03 705.594 602.372" stroke="white" stroke-width="1.71" stroke-linecap="round" stroke-linejoin="round"/>
<path d="M707.902 593.359V597.011H711.558" stroke="white" stroke-width="1.71" stroke-linecap="round" stroke-linejoin="round"/>
<path d="M708.811 600.663C710.329 602.682 713.183 603.087 715.204 601.571C716.358 600.706 717.031 599.36 717.031 597.919C717.031 595.655 715.193 593.807 712.916 593.807C711.697 593.807 710.596 594.298 709.805 595.089L707.892 597" stroke="white" stroke-width="1.71" stroke-linecap="round" stroke-linejoin="round"/>
<path d="M735.856 589.706C740.396 589.706 744.076 588.482 744.076 586.972C744.076 585.463 740.396 584.239 735.856 584.239C731.316 584.239 727.636 585.463 727.636 586.972C727.636 588.482 731.316 589.706 735.856 589.706Z" stroke="white" stroke-width="1.71" stroke-linecap="round" stroke-linejoin="round"/>
<path d="M727.636 593.359C727.636 594.395 729.399 595.356 732.2 595.815" stroke="white" stroke-width="1.71" stroke-linecap="round" stroke-linejoin="round"/>
<path d="M744.076 590.892V586.972" stroke="white" stroke-width="1.71" stroke-linecap="round" stroke-linejoin="round"/>
<path d="M727.636 586.972V599.745C727.636 600.962 730.041 602.03 733.547 602.372" stroke="white" stroke-width="1.71" stroke-linecap="round" stroke-linejoin="round"/>
<path d="M735.856 593.359V597.011H739.512" stroke="white" stroke-width="1.71" stroke-linecap="round" stroke-linejoin="round"/>
<path d="M736.765 600.663C738.283 602.682 741.137 603.087 743.157 601.571C744.311 600.706 744.985 599.36 744.985 597.919C744.985 595.655 743.146 593.807 740.869 593.807C739.651 593.807 738.55 594.298 737.759 595.089L735.845 597" stroke="white" stroke-width="1.71" stroke-linecap="round" stroke-linejoin="round"/>
<path d="M763.809 589.706C768.349 589.706 772.03 588.482 772.03 586.972C772.03 585.463 768.349 584.239 763.809 584.239C759.269 584.239 755.589 585.463 755.589 586.972C755.589 588.482 759.269 589.706 763.809 589.706Z" stroke="white" stroke-width="1.71" stroke-linecap="round" stroke-linejoin="round"/>
<path d="M755.589 593.359C755.589 594.395 757.353 595.356 760.154 595.815" stroke="white" stroke-width="1.71" stroke-linecap="round" stroke-linejoin="round"/>
<path d="M772.03 590.892V586.972" stroke="white" stroke-width="1.71" stroke-linecap="round" stroke-linejoin="round"/>
<path d="M755.589 586.972V599.745C755.589 600.962 757.994 602.03 761.5 602.372" stroke="white" stroke-width="1.71" stroke-linecap="round" stroke-linejoin="round"/>
<path d="M763.809 593.359V597.011H767.465" stroke="white" stroke-width="1.71" stroke-linecap="round" stroke-linejoin="round"/>
<path d="M764.729 600.663C766.247 602.682 769.101 603.087 771.121 601.571C772.276 600.706 772.949 599.36 772.949 597.919C772.949 595.655 771.11 593.807 768.834 593.807C767.615 593.807 766.514 594.298 765.723 595.089L763.809 597" stroke="white" stroke-width="1.71" stroke-linecap="round" stroke-linejoin="round"/>
<path d="M791.763 589.706C796.303 589.706 799.983 588.482 799.983 586.972C799.983 585.463 796.303 584.239 791.763 584.239C787.223 584.239 783.543 585.463 783.543 586.972C783.543 588.482 787.223 589.706 791.763 589.706Z" stroke="white" stroke-width="1.71" stroke-linecap="round" stroke-linejoin="round"/>
<path d="M783.543 593.359C783.543 594.395 785.306 595.356 788.107 595.815" stroke="white" stroke-width="1.71" stroke-linecap="round" stroke-linejoin="round"/>
<path d="M799.994 590.892V586.972" stroke="white" stroke-width="1.71" stroke-linecap="round" stroke-linejoin="round"/>
<path d="M783.543 586.972V599.745C783.543 600.962 785.948 602.03 789.454 602.372" stroke="white" stroke-width="1.71" stroke-linecap="round" stroke-linejoin="round"/>
<path d="M791.763 593.359V597.011H795.419" stroke="white" stroke-width="1.71" stroke-linecap="round" stroke-linejoin="round"/>
<path d="M792.682 600.663C794.2 602.682 797.054 603.087 799.075 601.571C800.229 600.706 800.903 599.36 800.903 597.919C800.903 595.655 799.064 593.807 796.787 593.807C795.568 593.807 794.467 594.298 793.676 595.089L791.763 597" stroke="white" stroke-width="1.71" stroke-linecap="round" stroke-linejoin="round"/>
<path d="M819.727 589.706C824.267 589.706 827.947 588.482 827.947 586.972C827.947 585.463 824.267 584.239 819.727 584.239C815.187 584.239 811.507 585.463 811.507 586.972C811.507 588.482 815.187 589.706 819.727 589.706Z" stroke="white" stroke-width="1.71" stroke-linecap="round" stroke-linejoin="round"/>
<path d="M811.507 593.359C811.507 594.395 813.27 595.356 816.071 595.815" stroke="white" stroke-width="1.71" stroke-linecap="round" stroke-linejoin="round"/>
<path d="M827.947 590.892V586.972" stroke="white" stroke-width="1.71" stroke-linecap="round" stroke-linejoin="round"/>
<path d="M811.507 586.972V599.745C811.507 600.962 813.912 602.03 817.418 602.372" stroke="white" stroke-width="1.71" stroke-linecap="round" stroke-linejoin="round"/>
<path d="M819.727 593.359V597.011H823.383" stroke="white" stroke-width="1.71" stroke-linecap="round" stroke-linejoin="round"/>
<path d="M820.636 600.663C822.154 602.682 825.008 603.087 827.028 601.571C828.183 600.706 828.856 599.36 828.856 597.919C828.856 595.655 827.017 593.807 824.741 593.807C823.522 593.807 822.421 594.298 821.63 595.089L819.716 597" stroke="white" stroke-width="1.71" stroke-linecap="round" stroke-linejoin="round"/>
<path d="M847.68 589.706C852.22 589.706 855.901 588.482 855.901 586.972C855.901 585.463 852.22 584.239 847.68 584.239C843.141 584.239 839.46 585.463 839.46 586.972C839.46 588.482 843.141 589.706 847.68 589.706Z" stroke="white" stroke-width="1.71" stroke-linecap="round" stroke-linejoin="round"/>
<path d="M839.46 593.359C839.46 594.395 841.224 595.356 844.025 595.815" stroke="white" stroke-width="1.71" stroke-linecap="round" stroke-linejoin="round"/>
<path d="M855.901 590.892V586.972" stroke="white" stroke-width="1.71" stroke-linecap="round" stroke-linejoin="round"/>
<path d="M839.46 586.972V599.745C839.46 600.962 841.865 602.03 845.372 602.372" stroke="white" stroke-width="1.71" stroke-linecap="round" stroke-linejoin="round"/>
<path d="M847.68 593.359V597.011H851.336" stroke="white" stroke-width="1.71" stroke-linecap="round" stroke-linejoin="round"/>
<path d="M848.589 600.663C850.107 602.682 852.961 603.087 854.982 601.571C856.136 600.706 856.81 599.36 856.81 597.919C856.81 595.655 854.971 593.807 852.694 593.807C851.475 593.807 850.374 594.298 849.583 595.089L847.67 597" stroke="white" stroke-width="1.71" stroke-linecap="round" stroke-linejoin="round"/>
<path d="M690.564 552.564V559.206H665.208V515.955H673.257V552.564H690.564Z" fill="white"/>
<path d="M712.542 552.713C714.102 552.713 715.492 552.457 716.721 551.934C717.951 551.41 718.977 550.684 719.821 549.755C720.655 548.815 721.307 547.683 721.756 546.348C722.205 545.013 722.43 543.518 722.43 541.863V515.966H730.479V541.863C730.479 544.437 730.062 546.818 729.239 548.997C728.405 551.175 727.219 553.066 725.679 554.646C724.129 556.227 722.248 557.465 720.035 558.352C717.822 559.238 715.321 559.687 712.552 559.687C709.784 559.687 707.25 559.238 705.038 558.352C702.825 557.465 700.944 556.227 699.394 554.646C697.844 553.066 696.657 551.175 695.834 548.997C695.011 546.818 694.594 544.437 694.594 541.863V515.966H702.643V541.842C702.643 543.497 702.868 544.992 703.317 546.327C703.766 547.662 704.418 548.805 705.262 549.755C706.107 550.705 707.144 551.432 708.373 551.955C709.602 552.478 710.992 552.735 712.552 552.735L712.542 552.713Z" fill="white"/>
<path d="M769.304 549.008C769.742 549.008 770.127 549.178 770.469 549.52L773.644 552.959C771.891 555.137 769.731 556.793 767.166 557.957C764.6 559.11 761.522 559.687 757.93 559.687C754.713 559.687 751.826 559.142 749.261 558.042C746.695 556.942 744.504 555.426 742.687 553.471C740.869 551.517 739.48 549.189 738.507 546.477C737.534 543.764 737.053 540.806 737.053 537.591C737.053 534.377 737.577 531.365 738.614 528.663C739.651 525.962 741.115 523.633 742.997 521.679C744.878 519.725 747.134 518.208 749.753 517.119C752.371 516.03 755.258 515.485 758.433 515.485C761.607 515.485 764.387 516.008 766.835 517.044C769.282 518.08 771.356 519.436 773.077 521.113L770.384 524.851C770.223 525.086 770.02 525.299 769.774 525.481C769.528 525.662 769.176 525.748 768.737 525.748C768.438 525.748 768.128 525.663 767.807 525.492C767.487 525.321 767.134 525.118 766.76 524.862C766.375 524.616 765.937 524.338 765.445 524.039C764.943 523.74 764.365 523.463 763.713 523.217C763.05 522.971 762.291 522.758 761.426 522.587C760.56 522.416 759.555 522.331 758.422 522.331C756.487 522.331 754.713 522.672 753.109 523.366C751.506 524.05 750.116 525.054 748.961 526.357C747.807 527.66 746.909 529.261 746.268 531.141C745.626 533.021 745.306 535.178 745.306 537.581C745.306 539.983 745.648 542.173 746.342 544.074C747.027 545.964 747.967 547.566 749.143 548.858C750.319 550.15 751.709 551.143 753.301 551.838C754.894 552.521 756.615 552.873 758.454 552.873C759.555 552.873 760.549 552.809 761.436 552.692C762.324 552.574 763.147 552.382 763.895 552.126C764.643 551.87 765.349 551.528 766.022 551.122C766.696 550.716 767.358 550.214 768.01 549.616C768.214 549.435 768.417 549.296 768.641 549.178C768.866 549.072 769.09 549.018 769.325 549.018L769.304 549.008Z" fill="white"/>
<path d="M787.263 559.206H779.181V515.955H787.263V559.206Z" fill="white"/>
<path d="M835.377 537.581C835.377 540.752 834.842 543.668 833.795 546.316C832.736 548.965 831.251 551.25 829.337 553.162C827.424 555.073 825.115 556.558 822.421 557.615C819.727 558.672 816.734 559.196 813.442 559.196H796.947V515.944H813.442C816.734 515.944 819.727 516.478 822.421 517.546C825.115 518.614 827.424 520.099 829.337 522C831.251 523.9 832.736 526.186 833.795 528.834C834.853 531.483 835.377 534.398 835.377 537.57V537.581ZM827.114 537.581C827.114 535.21 826.804 533.085 826.173 531.194C825.542 529.315 824.634 527.713 823.447 526.41C822.26 525.107 820.817 524.103 819.139 523.399C817.45 522.704 815.547 522.352 813.431 522.352H805.018V552.799H813.431C815.547 552.799 817.45 552.446 819.139 551.752C820.828 551.058 822.26 550.054 823.447 548.751C824.634 547.448 825.542 545.846 826.173 543.967C826.804 542.087 827.114 539.951 827.114 537.581Z" fill="white"/>
</svg>
