<svg width="1500" height="1120" viewBox="0 0 1500 1120" fill="none" xmlns="http://www.w3.org/2000/svg">
<g clip-path="url(#clip0_396_3883)">
<path d="M762.365 1119.81H794.283C796.807 1119.81 798.839 1117.76 798.839 1115.25V1085.62L787.435 1074.21H766.905C764.381 1074.21 762.35 1076.26 762.35 1078.77V1087.89" stroke="#000B32" stroke-width="2.96" stroke-linecap="round" stroke-linejoin="round"/>
<path d="M785.157 1074.2V1083.32C785.157 1085.85 787.204 1087.88 789.713 1087.88H798.839" stroke="#000B32" stroke-width="2.96" stroke-linecap="round" stroke-linejoin="round"/>
<path d="M764.643 1097L757.795 1103.85L764.643 1110.7" stroke="#000B32" stroke-width="2.96" stroke-linecap="round" stroke-linejoin="round"/>
<path d="M773.754 1110.68L780.602 1103.84L773.754 1096.99" stroke="#000B32" stroke-width="2.96" stroke-linecap="round" stroke-linejoin="round"/>
<path d="M813.905 1119.81H845.823C848.347 1119.81 850.378 1117.76 850.378 1115.25V1085.62L838.974 1074.21H818.445C815.921 1074.21 813.89 1076.26 813.89 1078.77V1087.89" stroke="#000B32" stroke-width="2.96" stroke-linecap="round" stroke-linejoin="round"/>
<path d="M836.712 1074.2V1083.32C836.712 1085.85 838.759 1087.88 841.267 1087.88H850.393" stroke="#000B32" stroke-width="2.96" stroke-linecap="round" stroke-linejoin="round"/>
<path d="M816.183 1097L809.334 1103.85L816.183 1110.7" stroke="#000B32" stroke-width="2.96" stroke-linecap="round" stroke-linejoin="round"/>
<path d="M825.309 1110.68L832.157 1103.84L825.309 1096.99" stroke="#000B32" stroke-width="2.96" stroke-linecap="round" stroke-linejoin="round"/>
<path d="M655.547 45.6116H687.465C689.989 45.6116 692.02 43.565 692.02 41.0566V11.4029L680.616 0H660.087C657.563 0 655.531 2.04668 655.531 4.55501V13.6804" stroke="#000B32" stroke-width="2.96" stroke-linecap="round" stroke-linejoin="round"/>
<path d="M678.339 0V9.1254C678.339 11.6491 680.386 13.6804 682.894 13.6804H692.02" stroke="#000B32" stroke-width="2.96" stroke-linecap="round" stroke-linejoin="round"/>
<path d="M657.824 22.8059L650.976 29.6538L657.824 36.5017" stroke="#000B32" stroke-width="2.96" stroke-linecap="round" stroke-linejoin="round"/>
<path d="M666.935 36.4863L673.783 29.6384L666.935 22.7905" stroke="#000B32" stroke-width="2.96" stroke-linecap="round" stroke-linejoin="round"/>
<path d="M707.086 45.6116H739.004C741.528 45.6116 743.559 43.565 743.559 41.0566V11.4029L732.156 0H711.626C709.102 0 707.071 2.04668 707.071 4.55501V13.6804" stroke="#000B32" stroke-width="2.96" stroke-linecap="round" stroke-linejoin="round"/>
<path d="M729.894 0V9.1254C729.894 11.6491 731.94 13.6804 734.449 13.6804H743.575" stroke="#000B32" stroke-width="2.96" stroke-linecap="round" stroke-linejoin="round"/>
<path d="M709.364 22.8059L702.516 29.6538L709.364 36.5017" stroke="#000B32" stroke-width="2.96" stroke-linecap="round" stroke-linejoin="round"/>
<path d="M718.49 36.4863L725.338 29.6384L718.49 22.7905" stroke="#000B32" stroke-width="2.96" stroke-linecap="round" stroke-linejoin="round"/>
<path d="M808.857 990.068C807.287 997.485 803.686 1004.32 798.454 1009.81C783.403 994.023 783.403 969.186 798.454 953.397C782.88 953.397 770.245 966.031 770.245 981.62C770.245 997.193 782.88 1009.83 798.469 1009.83C810.781 1009.83 821.677 1001.82 825.37 990.083" stroke="#000B32" stroke-width="3.67" stroke-linecap="round" stroke-linejoin="round"/>
<path d="M770.245 981.604H794.222" stroke="#000B32" stroke-width="3.67" stroke-linecap="round" stroke-linejoin="round"/>
<path d="M821.015 964.676V959.029C821.015 955.92 818.491 953.381 815.367 953.381C812.243 953.381 809.719 955.905 809.719 959.029V964.676" stroke="#000B32" stroke-width="3.67" stroke-linecap="round" stroke-linejoin="round"/>
<path d="M823.846 964.676H806.918C805.363 964.676 804.102 965.937 804.102 967.492V975.971C804.102 977.527 805.363 978.788 806.918 978.788H823.846C825.402 978.788 826.663 977.527 826.663 975.971V967.492C826.663 965.937 825.402 964.676 823.846 964.676Z" stroke="#000B32" stroke-width="3.67" stroke-linecap="round" stroke-linejoin="round"/>
<path d="M1323.97 374.573C1322.4 381.99 1318.8 388.823 1313.57 394.316C1298.52 378.528 1298.52 353.691 1313.57 337.902C1298 337.902 1285.36 350.536 1285.36 366.125C1285.36 381.698 1298 394.332 1313.59 394.332C1325.9 394.332 1336.79 386.33 1340.49 374.588" stroke="#000B32" stroke-width="3.67" stroke-linecap="round" stroke-linejoin="round"/>
<path d="M1285.38 366.109H1309.35" stroke="#000B32" stroke-width="3.67" stroke-linecap="round" stroke-linejoin="round"/>
<path d="M1336.15 349.182V343.534C1336.15 340.426 1333.62 337.887 1330.5 337.887C1327.38 337.887 1324.85 340.41 1324.85 343.534V349.182" stroke="#000B32" stroke-width="3.67" stroke-linecap="round" stroke-linejoin="round"/>
<path d="M1338.96 349.182H1322.04C1320.48 349.182 1319.22 350.442 1319.22 351.998V360.477C1319.22 362.032 1320.48 363.293 1322.04 363.293H1338.96C1340.52 363.293 1341.78 362.032 1341.78 360.477V351.998C1341.78 350.442 1340.52 349.182 1338.96 349.182Z" stroke="#000B32" stroke-width="3.67" stroke-linecap="round" stroke-linejoin="round"/>
<path d="M707.471 164.103C705.901 171.521 702.3 178.353 697.068 183.847C682.017 168.058 682.017 143.221 697.068 127.432C681.494 127.432 668.859 140.066 668.859 155.655C668.859 171.228 681.494 183.862 697.083 183.862C709.395 183.862 720.291 175.86 723.984 164.119" stroke="#000B32" stroke-width="3.67" stroke-linecap="round" stroke-linejoin="round"/>
<path d="M668.859 155.639H692.836" stroke="#000B32" stroke-width="3.67" stroke-linecap="round" stroke-linejoin="round"/>
<path d="M719.644 138.712V133.065C719.644 129.956 717.12 127.417 713.996 127.417C710.872 127.417 708.348 129.941 708.348 133.065V138.712" stroke="#000B32" stroke-width="3.67" stroke-linecap="round" stroke-linejoin="round"/>
<path d="M722.46 138.712H705.532C703.977 138.712 702.716 139.973 702.716 141.528V150.007C702.716 151.562 703.977 152.823 705.532 152.823H722.46C724.016 152.823 725.277 151.562 725.277 150.007V141.528C725.277 139.973 724.016 138.712 722.46 138.712Z" stroke="#000B32" stroke-width="3.67" stroke-linecap="round" stroke-linejoin="round"/>
<path d="M180.996 475.829C179.426 483.246 175.825 490.079 170.593 495.572C155.542 479.784 155.542 454.947 170.593 439.158C155.019 439.158 142.384 451.792 142.384 467.381C142.384 482.954 155.019 495.588 170.608 495.588C182.92 495.588 193.815 487.586 197.509 475.844" stroke="#000B32" stroke-width="3.67" stroke-linecap="round" stroke-linejoin="round"/>
<path d="M142.384 467.365H166.361" stroke="#000B32" stroke-width="3.67" stroke-linecap="round" stroke-linejoin="round"/>
<path d="M193.154 450.438V444.79C193.154 441.682 190.63 439.143 187.506 439.143C184.382 439.143 181.858 441.666 181.858 444.79V450.438" stroke="#000B32" stroke-width="3.67" stroke-linecap="round" stroke-linejoin="round"/>
<path d="M195.97 450.438H179.042C177.486 450.438 176.225 451.699 176.225 453.254V461.733C176.225 463.288 177.486 464.549 179.042 464.549H195.97C197.525 464.549 198.786 463.288 198.786 461.733V453.254C198.786 451.699 197.525 450.438 195.97 450.438Z" stroke="#000B32" stroke-width="3.67" stroke-linecap="round" stroke-linejoin="round"/>
<path d="M878.264 652.443C878.264 652.443 731.232 748.498 795.484 912.617" stroke="#000B32" stroke-width="2" stroke-linecap="round" stroke-linejoin="round"/>
<path d="M803.871 908L786.45 914.802L798.546 920.111L803.871 908Z" fill="#000B32"/>
<path d="M774.446 477.399C774.446 477.399 667.227 377.697 692.559 220.149" stroke="#000B32" stroke-width="2" stroke-linecap="round" stroke-linejoin="round"/>
<path d="M683.233 219.902L701.685 222.888L693.944 212.177L683.233 219.902Z" fill="#000B32"/>
<path d="M967.415 494.542C967.415 494.542 1067.8 363.016 1259.2 365.555" stroke="#000B32" stroke-width="2" stroke-linecap="round" stroke-linejoin="round"/>
<path d="M1258.05 356.292L1257.85 374.989L1267.3 365.74L1258.05 356.292Z" fill="#000B32"/>
<path d="M629.693 580.21C629.693 580.21 511.178 460.425 229.627 469.766" stroke="#000B32" stroke-width="2" stroke-linecap="round" stroke-linejoin="round"/>
<path d="M231.135 479.153L230.612 460.471L221.532 470.074L231.135 479.153Z" fill="#000B32"/>
<path d="M697.283 103.196V80.0974" stroke="#79B953" stroke-width="1.86" stroke-linecap="round" stroke-linejoin="round"/>
<path d="M704.408 82.1905L697.283 69.8335L690.142 82.1905H704.408Z" fill="#79B953"/>
<path d="M798.546 1026.75V1049.85" stroke="#79B953" stroke-width="1.86" stroke-linecap="round" stroke-linejoin="round"/>
<path d="M791.421 1047.76L798.546 1060.12L805.687 1047.76H791.421Z" fill="#79B953"/>
<path d="M1411.97 393.946H1443.89C1446.41 393.946 1448.45 391.9 1448.45 389.391V359.753L1437.04 348.35H1416.51C1413.99 348.35 1411.96 350.397 1411.96 352.905V362.031" stroke="#000B32" stroke-width="2.96" stroke-linecap="round" stroke-linejoin="round"/>
<path d="M1434.76 348.35V357.475C1434.76 359.999 1436.81 362.031 1439.32 362.031H1448.45" stroke="#000B32" stroke-width="2.96" stroke-linecap="round" stroke-linejoin="round"/>
<path d="M1414.25 371.156L1407.4 378.004L1414.25 384.852" stroke="#000B32" stroke-width="2.96" stroke-linecap="round" stroke-linejoin="round"/>
<path d="M1423.36 384.836L1430.21 377.989L1423.36 371.141" stroke="#000B32" stroke-width="2.96" stroke-linecap="round" stroke-linejoin="round"/>
<path d="M1463.51 393.946H1495.43C1497.95 393.946 1499.98 391.9 1499.98 389.391V359.753L1488.58 348.35H1468.05C1465.53 348.35 1463.5 350.397 1463.5 352.905V362.031" stroke="#000B32" stroke-width="2.96" stroke-linecap="round" stroke-linejoin="round"/>
<path d="M1486.32 348.35V357.475C1486.32 359.999 1488.37 362.031 1490.87 362.031H1500" stroke="#000B32" stroke-width="2.96" stroke-linecap="round" stroke-linejoin="round"/>
<path d="M1465.79 371.156L1458.94 378.004L1465.79 384.852" stroke="#000B32" stroke-width="2.96" stroke-linecap="round" stroke-linejoin="round"/>
<path d="M1474.92 384.836L1481.76 377.989L1474.92 371.141" stroke="#000B32" stroke-width="2.96" stroke-linecap="round" stroke-linejoin="round"/>
<path d="M4.57068 486.878H36.4885C39.0124 486.878 41.0438 484.831 41.0438 482.323V452.684L29.6402 441.281H9.12597C6.60209 441.281 4.57068 443.328 4.57068 445.837V454.962" stroke="#000B32" stroke-width="2.96" stroke-linecap="round" stroke-linejoin="round"/>
<path d="M27.3625 441.266V450.392C27.3625 452.915 29.4094 454.946 31.9178 454.946H41.0438" stroke="#000B32" stroke-width="2.96" stroke-linecap="round" stroke-linejoin="round"/>
<path d="M6.84833 464.072L0 470.92L6.84833 477.768" stroke="#000B32" stroke-width="2.96" stroke-linecap="round" stroke-linejoin="round"/>
<path d="M15.9589 477.752L22.8073 470.904L15.9589 464.056" stroke="#000B32" stroke-width="2.96" stroke-linecap="round" stroke-linejoin="round"/>
<path d="M56.1101 486.878H88.028C90.5518 486.878 92.5832 484.831 92.5832 482.323V452.684L81.1796 441.281H60.65C58.1261 441.281 56.0947 443.328 56.0947 445.837V454.962" stroke="#000B32" stroke-width="2.96" stroke-linecap="round" stroke-linejoin="round"/>
<path d="M78.9174 441.266V450.392C78.9174 452.915 80.9642 454.946 83.4727 454.946H92.5986" stroke="#000B32" stroke-width="2.96" stroke-linecap="round" stroke-linejoin="round"/>
<path d="M58.3878 464.072L51.5394 470.92L58.3878 477.768" stroke="#000B32" stroke-width="2.96" stroke-linecap="round" stroke-linejoin="round"/>
<path d="M67.5137 477.752L74.3621 470.904L67.5137 464.056" stroke="#000B32" stroke-width="2.96" stroke-linecap="round" stroke-linejoin="round"/>
<path d="M134.166 467.365H111.066" stroke="#79B953" stroke-width="1.86" stroke-linecap="round" stroke-linejoin="round"/>
<path d="M113.159 460.24L100.817 467.365L113.159 474.49V460.24Z" fill="#79B953"/>
<path d="M1357.92 369.54H1381.01" stroke="#79B953" stroke-width="1.86" stroke-linecap="round" stroke-linejoin="round"/>
<path d="M1378.93 376.665L1391.27 369.54L1378.93 362.4V376.665Z" fill="#79B953"/>
</g>
<defs>
<clipPath id="clip0_396_3883">
<rect width="1500" height="1119.81" fill="white"/>
</clipPath>
</defs>
</svg>
