<svg width="2003" height="2004" viewBox="0 0 2003 2004" fill="none" xmlns="http://www.w3.org/2000/svg" xmlns:xlink="http://www.w3.org/1999/xlink">
<g id="Repeat group 2_inner" data-figma-trr="r40u1-0f">
<path fill-rule="evenodd" clip-rule="evenodd" d="M1012 1.00975V2.00975H1011.99L1002.06 997.812L1002.11 1002.43L1001.11 1002.44L1001.1 1001.84H1001.02L1001.06 997.812L991.012 2.00975H991.002V1.00975H1011V0.999985L1012 1.00975Z" fill="url(#paint0_linear_473_6254)"/>
</g>
<use xlink:href="#Repeat%20group%202_inner" transform="translate(168.998 -144.338) rotate(9)"/>
<use xlink:href="#Repeat%20group%202_inner" transform="translate(358.496 -260.462) rotate(18)"/>
<use xlink:href="#Repeat%20group%202_inner" transform="translate(563.826 -345.513) rotate(27)"/>
<use xlink:href="#Repeat%20group%202_inner" transform="translate(779.933 -397.396) rotate(36)"/>
<use xlink:href="#Repeat%20group%202_inner" transform="translate(1001.5 -414.833) rotate(45)"/>
<use xlink:href="#Repeat%20group%202_inner" transform="translate(1223.06 -397.396) rotate(54)"/>
<use xlink:href="#Repeat%20group%202_inner" transform="translate(1439.17 -345.513) rotate(63)"/>
<use xlink:href="#Repeat%20group%202_inner" transform="translate(1644.5 -260.462) rotate(72)"/>
<use xlink:href="#Repeat%20group%202_inner" transform="translate(1833.99 -144.338) rotate(81)"/>
<use xlink:href="#Repeat%20group%202_inner" transform="translate(2002.99 3.42624e-05) rotate(90)"/>
<use xlink:href="#Repeat%20group%202_inner" transform="translate(2147.33 168.998) rotate(99)"/>
<use xlink:href="#Repeat%20group%202_inner" transform="translate(2263.45 358.496) rotate(108)"/>
<use xlink:href="#Repeat%20group%202_inner" transform="translate(2348.5 563.826) rotate(117)"/>
<use xlink:href="#Repeat%20group%202_inner" transform="translate(2400.39 779.933) rotate(126)"/>
<use xlink:href="#Repeat%20group%202_inner" transform="translate(2417.82 1001.5) rotate(135)"/>
<use xlink:href="#Repeat%20group%202_inner" transform="translate(2400.39 1223.06) rotate(144)"/>
<use xlink:href="#Repeat%20group%202_inner" transform="translate(2348.5 1439.17) rotate(153)"/>
<use xlink:href="#Repeat%20group%202_inner" transform="translate(2263.45 1644.5) rotate(162)"/>
<use xlink:href="#Repeat%20group%202_inner" transform="translate(2147.33 1833.99) rotate(171)"/>
<use xlink:href="#Repeat%20group%202_inner" transform="translate(2002.99 2002.99) rotate(-180)"/>
<use xlink:href="#Repeat%20group%202_inner" transform="translate(1833.99 2147.33) rotate(-171)"/>
<use xlink:href="#Repeat%20group%202_inner" transform="translate(1644.5 2263.45) rotate(-162)"/>
<use xlink:href="#Repeat%20group%202_inner" transform="translate(1439.17 2348.5) rotate(-153)"/>
<use xlink:href="#Repeat%20group%202_inner" transform="translate(1223.06 2400.39) rotate(-144)"/>
<use xlink:href="#Repeat%20group%202_inner" transform="translate(1001.5 2417.82) rotate(-135)"/>
<use xlink:href="#Repeat%20group%202_inner" transform="translate(779.933 2400.39) rotate(-126)"/>
<use xlink:href="#Repeat%20group%202_inner" transform="translate(563.826 2348.5) rotate(-117)"/>
<use xlink:href="#Repeat%20group%202_inner" transform="translate(358.496 2263.45) rotate(-108)"/>
<use xlink:href="#Repeat%20group%202_inner" transform="translate(168.999 2147.33) rotate(-99)"/>
<use xlink:href="#Repeat%20group%202_inner" transform="translate(-2.42832e-06 2002.99) rotate(-90)"/>
<use xlink:href="#Repeat%20group%202_inner" transform="translate(-144.338 1833.99) rotate(-81)"/>
<use xlink:href="#Repeat%20group%202_inner" transform="translate(-260.463 1644.49) rotate(-72)"/>
<use xlink:href="#Repeat%20group%202_inner" transform="translate(-345.513 1439.16) rotate(-63)"/>
<use xlink:href="#Repeat%20group%202_inner" transform="translate(-397.396 1223.06) rotate(-54)"/>
<use xlink:href="#Repeat%20group%202_inner" transform="translate(-414.833 1001.5) rotate(-45)"/>
<use xlink:href="#Repeat%20group%202_inner" transform="translate(-397.396 779.932) rotate(-36)"/>
<use xlink:href="#Repeat%20group%202_inner" transform="translate(-345.513 563.826) rotate(-27)"/>
<use xlink:href="#Repeat%20group%202_inner" transform="translate(-260.462 358.496) rotate(-18)"/>
<use xlink:href="#Repeat%20group%202_inner" transform="translate(-144.338 168.998) rotate(-8.99999)"/>
<defs>
<linearGradient id="paint0_linear_473_6254" x1="1001.5" y1="0.999985" x2="1001.5" y2="1002.44" gradientUnits="userSpaceOnUse">
<stop stop-color="#4E67C3" stop-opacity="0"/>
<stop offset="0.375" stop-color="#4E67C3"/>
</linearGradient>
</defs>
</svg>
