<svg width="186" height="70" viewBox="0 0 186 70" fill="none" xmlns="http://www.w3.org/2000/svg">
<g clipPath="url(#clip0_3769_7374)">
<path d="M55.4932 49.1819C52.4988 54.3293 46.9654 57.4998 40.9765 57.4998H27.4611C27.3946 57.4998 27.329 57.4989 27.2635 57.498C23.2082 57.4294 19.4782 55.2545 17.4453 51.7613C15.3796 48.2101 15.3796 43.8348 17.4453 40.2836L24.3044 28.4936C25.3271 26.7364 27.2165 25.6529 29.2618 25.6538C31.3072 25.6538 33.1965 26.7364 34.2192 28.4945L27.3609 40.2836C26.3383 42.0407 26.3383 44.2068 27.3609 45.964C28.3827 47.722 30.273 48.8046 32.3183 48.8046H46.0349C49.9368 48.8046 53.5418 46.7388 55.4932 43.3854C57.4101 40.0901 57.4429 36.0428 55.5925 32.7211C58.4868 37.836 58.4531 44.0934 55.4932 49.1819V49.1819Z" fill="#262262"/>
<path d="M46.0347 37.4431C45.0121 39.2003 43.1227 40.2837 41.0774 40.2837L34.2191 28.4946C33.1964 26.7366 31.307 25.654 29.2617 25.654C27.2164 25.6531 25.327 26.7366 24.3043 28.4938L17.4452 40.2837C15.3794 43.835 15.3794 48.2103 17.4452 51.7615C19.4781 55.2547 23.2081 57.4296 27.2633 57.4982C21.3515 57.4296 15.9058 54.2724 12.9451 49.183C9.9506 44.0364 9.9506 37.6946 12.9451 32.548L19.8033 20.7589C19.8344 20.7062 19.8654 20.6534 19.8973 20.6006C21.877 17.3062 25.4014 15.2201 29.2715 15.0627C33.2035 14.9035 36.9433 16.7574 39.1765 19.9736L46.0347 31.7618C47.0574 33.5198 47.0574 35.6851 46.0347 37.4431V37.4431Z" fill="#5561A6"/>
<path d="M55.4933 43.3856C53.5419 46.739 49.9369 48.8048 46.0349 48.8048H32.3184C30.273 48.8048 28.3828 47.7222 27.361 45.9642C26.3383 44.207 26.3383 42.0409 27.361 40.2838H41.0776C43.1229 40.2838 45.0123 39.2003 46.0349 37.4431C47.0576 35.6851 47.0576 33.5199 46.0349 31.7618L39.1767 19.9736C36.9434 16.7574 33.2037 14.9036 29.2716 15.0627C25.4016 15.2202 21.8772 17.3062 19.8975 20.6007C22.891 15.5834 28.334 12.5 34.2193 12.5C40.1045 12.5 45.661 15.6485 48.6341 20.759L55.4933 32.5481C55.527 32.6061 55.5598 32.6633 55.5926 32.7213C57.4429 36.043 57.4102 40.0903 55.4933 43.3856V43.3856Z" fill="#8DC63F"/>
<path d="M94.9077 19.7466H109.253C113.9 19.7466 117.743 23.5159 117.743 28.1726V42.8956C117.743 47.5523 113.9 51.3217 109.253 51.3217H94.9077V19.7466V19.7466ZM109.52 45.6008C110.861 45.6008 111.933 44.4918 111.933 43.1621V27.9062C111.933 26.5756 110.861 25.4674 109.52 25.4674H100.717V45.6008H109.52Z" fill="#262262"/>
<path d="M66.0248 43.9149L71.4767 42.4955L71.7452 43.338C72.1919 44.8014 72.8618 45.5999 74.2026 45.5999H80.6825C81.9781 45.5999 83.0504 44.491 83.0504 43.1612V41.609C83.0504 40.6337 82.4248 39.7023 81.5315 39.4807L71.4767 36.7755C68.3041 35.933 66.1143 32.7397 66.1143 29.2808V27.8173C66.1143 23.1615 69.5554 19.7466 74.2478 19.7466H80.5035C84.8379 19.7466 88.3685 22.9399 88.9046 27.1076L83.4979 28.571L83.2294 27.7285C82.7828 26.2651 82.1119 25.4666 80.8163 25.4666H74.3365C72.9956 25.4666 71.9233 26.5756 71.9233 27.9053V29.0143C71.9233 30.5217 72.7723 31.409 74.2913 31.8083L82.6481 33.9366C86.1335 34.8231 88.7256 37.8387 88.7256 41.609V42.7619C88.7256 47.5066 85.1507 51.3208 80.3688 51.3208H74.5146C70.135 51.3208 66.5601 48.1275 66.0239 43.9149H66.0248Z" fill="#262262"/>
<path d="M124.103 43.9149L129.555 42.4955L129.824 43.338C130.27 44.8014 130.94 45.5999 132.281 45.5999H138.761C140.057 45.5999 141.129 44.491 141.129 43.1612V41.609C141.129 40.6337 140.503 39.7023 139.61 39.4807L129.555 36.7755C126.383 35.933 124.193 32.7397 124.193 29.2808V27.8173C124.193 23.1615 127.634 19.7466 132.326 19.7466H138.582C142.916 19.7466 146.447 22.9399 146.983 27.1076L141.577 28.571L141.308 27.7285C140.861 26.2651 140.191 25.4666 138.895 25.4666H132.415C131.074 25.4666 130.002 26.5756 130.002 27.9053V29.0143C130.002 30.5217 130.851 31.409 132.37 31.8083L140.727 33.9366C144.212 34.8231 146.804 37.8387 146.804 41.609V42.7619C146.804 47.5066 143.229 51.3208 138.447 51.3208H132.593C128.214 51.3208 124.639 48.1275 124.103 43.9149H124.103Z" fill="#262262"/>
<path d="M152.865 42.8956V28.1726C152.865 23.5159 156.663 19.7466 161.356 19.7466H167.254C171.589 19.7466 175.119 22.9399 175.7 27.1076L170.248 28.571L169.935 27.7285C169.399 26.2651 168.863 25.4666 167.522 25.4666H161.042C159.701 25.4666 158.629 26.5756 158.629 27.9053V43.1603C158.629 44.491 159.701 45.5991 161.042 45.5991H167.432C168.773 45.5991 169.533 44.8454 169.935 43.3371L170.158 42.4946L175.61 43.914C175.074 48.1266 171.544 51.3199 167.209 51.3199H161.355C156.662 51.3199 152.864 47.5506 152.864 42.8939L152.865 42.8956Z" fill="#262262"/>
</g>
<defs>
<clipPath id="clip0_3769_7374">
<rect width="165" height="45" fill="white" transform="translate(10.6997 12.5)"/>
</clipPath>
</defs>
</svg>
